<svg width="65" height="64" viewBox="0 0 65 64" fill="none" xmlns="http://www.w3.org/2000/svg">
<path d="M44.5629 29.5L60.2629 22.3C60.3629 22.1 60.6629 21.6 60.8629 21.3C61.5629 20.2 62.4629 18.9 62.4629 17.3C62.4629 10.3 53.1629 4 40.8629 4C28.5629 4 15.8629 9.3 8.56293 14.4C7.46293 15.2 44.5629 29.5 44.5629 29.5Z" fill="#995024"/>
<path d="M61.0629 30.1C60.2629 24.7 60.1629 22.8 60.1629 22.2L44.4629 29.4L37.8629 59.9C42.4629 59.9 58.3629 50.1 60.1629 47.5C62.3629 44.5 62.5629 41.6 61.1629 31C61.1629 30.8 61.1629 30.5 61.0629 30.1Z" fill="#B3682A"/>
<path d="M42.7629 29C42.9629 27.7 44.9629 26 44.9629 24.5C44.9629 18.9 35.8629 11.3 24.5629 11.3C13.2629 11.3 4.26294 18.8 4.26294 24.4C4.26294 26 6.26294 27.7 6.46294 28.9C6.76294 30.4 5.66294 37 5.46294 38.5C3.16294 55.5 5.26294 57.8 13.2629 57.8C16.1629 57.8 19.9629 57.5 24.5629 57.5C29.1629 57.5 32.9629 57.8 35.8629 57.8C43.8629 57.8 46.0629 55.5 43.6629 38.5C43.5629 37 42.5629 30.5 42.7629 29Z" fill="#FFF3E3"/>
<path d="M4.26289 24.4C4.26289 18.8 13.3629 11.2 24.6629 11.2C35.9629 11.2 45.0629 18.8 45.0629 24.4C45.0629 26 43.0629 27.7 42.8629 28.9L44.6629 29.4C44.7629 29.2 45.0629 28.7 45.2629 28.4C45.9629 27.3 46.8629 26 46.8629 24.4C46.8629 17.4 36.9629 9 24.6629 9C12.3629 9 2.46289 17.5 2.46289 24.4C2.46289 26 3.36289 27.3 4.06289 28.4C4.26289 28.7 4.56289 29.2 4.66289 29.4L6.46289 29C6.26289 27.7 4.26289 26 4.26289 24.4Z" fill="#C0773B"/>
<path d="M45.4629 37.3C44.6629 31.9 44.5629 30 44.5629 29.4L42.7629 29C42.4629 30.5 43.5629 37.1 43.7629 38.6C46.0629 55.6 43.9629 57.9 35.9629 57.9C33.0629 57.9 29.2629 57.6 24.6629 57.6C20.0629 57.6 16.2629 57.9 13.3629 57.9C5.36288 57.9 3.16288 55.6 5.56288 38.6C5.66288 37 6.66288 30.5 6.46288 29L4.66288 29.5C4.66288 30 4.56288 31.9 3.76288 37.4C3.66288 37.8 3.66288 38.1 3.66288 38.3C2.26288 48.8 2.46288 53.9 4.66288 56.9C6.46288 59.5 9.46288 60 13.3629 60C14.6629 60 16.2629 59.9 17.8629 59.9C19.8629 59.8 22.1629 59.7 24.6629 59.7C27.1629 59.7 29.4629 59.8 31.4629 59.9C33.0629 60 34.5629 60 35.9629 60C39.8629 60 42.7629 59.5 44.6629 56.9C46.7629 53.9 47.0629 48.8 45.6629 38.2C45.5629 38 45.4629 37.7 45.4629 37.3Z" fill="#CB8D44"/>
<path d="M9.76289 50.7999C10.757 50.7999 11.5629 49.9941 11.5629 49C11.5629 48.0058 10.757 47.2 9.76289 47.2C8.76878 47.2 7.96289 48.0058 7.96289 49C7.96289 49.9941 8.76878 50.7999 9.76289 50.7999Z" fill="#EDE0D1"/>
<path d="M12.2629 45.4001C13.0914 45.4001 13.7629 44.7286 13.7629 43.9001C13.7629 43.0717 13.0914 42.4001 12.2629 42.4001C11.4345 42.4001 10.7629 43.0717 10.7629 43.9001C10.7629 44.7286 11.4345 45.4001 12.2629 45.4001Z" fill="#EDE0D1"/>
<path d="M15.2629 48.1C15.76 48.1 16.1629 47.6971 16.1629 47.2001C16.1629 46.703 15.76 46.3 15.2629 46.3C14.7659 46.3 14.3629 46.703 14.3629 47.2001C14.3629 47.6971 14.7659 48.1 15.2629 48.1Z" fill="#EDE0D1"/>
<path d="M29.3629 29.5C30.6884 29.5 31.7629 28.4254 31.7629 27.1C31.7629 25.7745 30.6884 24.7 29.3629 24.7C28.0374 24.7 26.9629 25.7745 26.9629 27.1C26.9629 28.4254 28.0374 29.5 29.3629 29.5Z" fill="#EDE0D1"/>
<path d="M32.8628 30.9C33.2494 30.9 33.5628 30.5866 33.5628 30.2C33.5628 29.8134 33.2494 29.5 32.8628 29.5C32.4762 29.5 32.1628 29.8134 32.1628 30.2C32.1628 30.5866 32.4762 30.9 32.8628 30.9Z" fill="#EDE0D1"/>
<path d="M35.5629 33.4001C36.1152 33.4001 36.5629 32.9524 36.5629 32.4001C36.5629 31.8479 36.1152 31.4001 35.5629 31.4001C35.0106 31.4001 34.5629 31.8479 34.5629 32.4001C34.5629 32.9524 35.0106 33.4001 35.5629 33.4001Z" fill="#EDE0D1"/>
<path d="M30.8629 33.9001C31.6913 33.9001 32.3629 33.2286 32.3629 32.4001C32.3629 31.5717 31.6913 30.9001 30.8629 30.9001C30.0345 30.9001 29.3629 31.5717 29.3629 32.4001C29.3629 33.2286 30.0345 33.9001 30.8629 33.9001Z" fill="#EDE0D1"/>
<path d="M36.0629 50.0001C37.0571 50.0001 37.8629 49.1943 37.8629 48.2001C37.8629 47.206 37.0571 46.4001 36.0629 46.4001C35.0688 46.4001 34.2629 47.206 34.2629 48.2001C34.2629 49.1943 35.0688 50.0001 36.0629 50.0001Z" fill="#EDE0D1"/>
<path d="M32.3629 49.6001C32.9152 49.6001 33.3629 49.1524 33.3629 48.6001C33.3629 48.0478 32.9152 47.6001 32.3629 47.6001C31.8106 47.6001 31.3629 48.0478 31.3629 48.6001C31.3629 49.1524 31.8106 49.6001 32.3629 49.6001Z" fill="#EDE0D1"/>
<path d="M11.4629 25.7C12.0152 25.7 12.4629 25.2522 12.4629 24.7C12.4629 24.1477 12.0152 23.7 11.4629 23.7C10.9106 23.7 10.4629 24.1477 10.4629 24.7C10.4629 25.2522 10.9106 25.7 11.4629 25.7Z" fill="#EDE0D1"/>
<path d="M11.4629 22.3C12.2913 22.3 12.9629 21.6285 12.9629 20.8C12.9629 19.9716 12.2913 19.3 11.4629 19.3C10.6345 19.3 9.96289 19.9716 9.96289 20.8C9.96289 21.6285 10.6345 22.3 11.4629 22.3Z" fill="#EDE0D1"/>
<path d="M14.3629 24.7C14.9152 24.7 15.3629 24.2522 15.3629 23.7C15.3629 23.1477 14.9152 22.7 14.3629 22.7C13.8106 22.7 13.3629 23.1477 13.3629 23.7C13.3629 24.2522 13.8106 24.7 14.3629 24.7Z" fill="#EDE0D1"/>
</svg>
