<svg width="29" height="18" viewBox="0 0 29 18" fill="none" xmlns="http://www.w3.org/2000/svg">
<path d="M26.87 8.51984V8.81984L16.78 3.85984C16.699 3.82034 16.6101 3.7998 16.52 3.7998C16.4299 3.7998 16.341 3.82034 16.26 3.85984L1.12 11.2298V10.9298H0V12.1498C0 12.3598 0.11 12.5698 0.33 12.6798L10.48 17.6698C11.1 17.9798 11.84 17.9798 12.46 17.6698L27.66 10.2698C27.88 10.1598 27.99 9.94984 27.99 9.73984V8.51984H26.87Z" fill="url(#paint0_linear_483_754)"/>
<path d="M16.26 2.6699L0.330038 10.4299C0.230823 10.4784 0.147221 10.5538 0.0887451 10.6475C0.0302693 10.7412 -0.000732422 10.8495 -0.000732422 10.9599C-0.000732422 11.0703 0.0302693 11.1786 0.0887451 11.2723C0.147221 11.366 0.230823 11.4414 0.330038 11.4899L10.48 16.4799C11.1 16.7899 11.84 16.7899 12.46 16.4799L27.66 9.0799C27.7593 9.03137 27.8429 8.95597 27.9013 8.86227C27.9598 8.76858 27.9908 8.66035 27.9908 8.5499C27.9908 8.43945 27.9598 8.33122 27.9013 8.23753C27.8429 8.14383 27.7593 8.06843 27.66 8.0199L16.78 2.6699C16.6991 2.6304 16.6101 2.60986 16.52 2.60986C16.4299 2.60986 16.341 2.6304 16.26 2.6699Z" fill="url(#paint1_linear_483_754)"/>
<path d="M16.26 2.6699L0.330038 10.4299C0.230823 10.4784 0.147221 10.5538 0.0887451 10.6475C0.0302693 10.7412 -0.000732422 10.8495 -0.000732422 10.9599C-0.000732422 11.0703 0.0302693 11.1786 0.0887451 11.2723C0.147221 11.366 0.230823 11.4414 0.330038 11.4899L10.48 16.4799C11.1 16.7899 11.84 16.7899 12.46 16.4799L27.66 9.0799C27.7593 9.03137 27.8429 8.95597 27.9013 8.86227C27.9598 8.76858 27.9908 8.66035 27.9908 8.5499C27.9908 8.43945 27.9598 8.33122 27.9013 8.23753C27.8429 8.14383 27.7593 8.06843 27.66 8.0199L16.78 2.6699C16.6991 2.6304 16.6101 2.60986 16.52 2.60986C16.4299 2.60986 16.341 2.6304 16.26 2.6699Z" fill="url(#paint2_radial_483_754)"/>
<g filter="url(#filter0_f_483_754)">
<path d="M6.56909 8.88196C6.56909 9.12196 6.70909 9.34196 6.91909 9.45196L14.2891 13.072C14.4991 13.172 14.5471 13.172 14.7671 13.072L23.0871 9.08196C23.3071 8.97196 23.4371 8.75196 23.4371 8.51196L6.56909 8.88196Z" fill="#BF9A82"/>
</g>
<g filter="url(#filter1_f_483_754)">
<path fill-rule="evenodd" clip-rule="evenodd" d="M27.7651 9.04695C27.6301 9.18295 27.4451 9.29695 27.2811 9.38995C27.1121 9.48595 23.5211 11.256 19.9381 13.017C16.3551 14.777 12.7591 16.538 12.5811 16.615C12.3891 16.697 12.0111 16.789 11.6011 16.815C11.1941 16.842 10.9691 16.764 10.6171 16.566C10.6171 16.566 11.1531 16.595 11.5851 16.566C11.9751 16.541 12.3231 16.453 12.4821 16.386C12.6531 16.312 16.2381 14.556 19.8281 12.793C23.4191 11.028 26.9981 9.26295 27.1571 9.17295C27.3129 9.09134 27.4574 8.98982 27.5871 8.87095L27.9501 8.50195C28.0031 8.72495 27.9011 8.90795 27.7651 9.04695Z" fill="#EDE7F1"/>
</g>
<g filter="url(#filter2_f_483_754)">
<path d="M7.16199 8.5199C7.16199 8.7599 7.30199 8.9799 7.51199 9.0899L14.882 12.7099C15.092 12.8099 15.342 12.8099 15.562 12.7099L23.882 8.7199C24.102 8.6099 24.232 8.3899 24.232 8.1499L7.16199 8.5199Z" fill="#A67858"/>
</g>
<path d="M16.9101 0.129941C16.5601 -0.0400586 16.1601 -0.0400586 15.8201 0.129941L7.7801 3.97994C7.5201 4.10994 7.3501 4.37994 7.3501 4.66994V8.40994C7.3501 8.64994 7.4901 8.86994 7.7001 8.97994L15.0701 12.5999C15.2801 12.6999 15.5301 12.6999 15.7501 12.5999L24.0701 8.60994C24.2901 8.49994 24.4201 8.27994 24.4201 8.03994V4.29994C24.4201 4.00994 24.2501 3.73994 23.9901 3.60994L16.9101 0.129941Z" fill="url(#paint3_linear_483_754)"/>
<path d="M16.9101 0.129941C16.5601 -0.0400586 16.1601 -0.0400586 15.8201 0.129941L7.7801 3.97994C7.5201 4.10994 7.3501 4.37994 7.3501 4.66994V8.40994C7.3501 8.64994 7.4901 8.86994 7.7001 8.97994L15.0701 12.5999C15.2801 12.6999 15.5301 12.6999 15.7501 12.5999L24.0701 8.60994C24.2901 8.49994 24.4201 8.27994 24.4201 8.03994V4.29994C24.4201 4.00994 24.2501 3.73994 23.9901 3.60994L16.9101 0.129941Z" fill="url(#paint4_linear_483_754)"/>
<path d="M7.3501 8.3999V4.6299C7.3501 4.4299 7.5601 4.2899 7.7501 4.3799L15.1001 7.9999C15.2901 8.0899 15.4101 8.2899 15.4101 8.4999V12.2299C15.4101 12.4699 15.1601 12.6299 14.9401 12.5199L7.7101 8.9699C7.60226 8.91875 7.51117 8.83802 7.44744 8.73711C7.38371 8.63619 7.34995 8.51925 7.3501 8.3999Z" fill="url(#paint5_linear_483_754)"/>
<g filter="url(#filter3_f_483_754)">
<path d="M7.64001 8.34403V4.81203C7.64001 4.61203 7.84101 4.47203 8.03101 4.56203L15.1 8.00003C15.29 8.09003 15.41 8.29003 15.41 8.50003V12.163C15.41 12.403 15.16 12.563 14.94 12.453L7.99101 8.91303C7.88436 8.86132 7.79473 8.78018 7.73271 8.67918C7.6707 8.57817 7.63888 8.46153 7.64101 8.34303" fill="url(#paint6_radial_483_754)"/>
</g>
<g filter="url(#filter4_f_483_754)">
<path d="M3.71301 10.366C3.71301 10.606 3.85301 10.826 4.06301 10.936L11.433 14.556C11.643 14.656 11.893 14.656 12.113 14.556L13.373 13.946C13.593 13.836 13.723 13.616 13.723 13.376C13.723 13.376 4.62501 8.92197 3.71301 10.366Z" fill="#9E7968"/>
</g>
<path d="M6.40002 5.30987C6.05002 5.13987 5.65002 5.13987 5.31002 5.30987L4.33002 5.77987C4.07002 5.90987 3.90002 6.16987 3.90002 6.46987V10.2099C3.90002 10.4499 4.04002 10.6699 4.25002 10.7799L11.62 14.3999C11.83 14.4999 12.08 14.4999 12.3 14.3999L13.56 13.7899C13.78 13.6799 13.91 13.4599 13.91 13.2199V9.47987C13.91 9.18987 13.74 8.91987 13.48 8.78987L6.40002 5.30987Z" fill="url(#paint7_linear_483_754)"/>
<path d="M6.40002 5.30987C6.05002 5.13987 5.65002 5.13987 5.31002 5.30987L4.33002 5.77987C4.07002 5.90987 3.90002 6.16987 3.90002 6.46987V10.2099C3.90002 10.4499 4.04002 10.6699 4.25002 10.7799L11.62 14.3999C11.83 14.4999 12.08 14.4999 12.3 14.3999L13.56 13.7899C13.78 13.6799 13.91 13.4599 13.91 13.2199V9.47987C13.91 9.18987 13.74 8.91987 13.48 8.78987L6.40002 5.30987Z" fill="url(#paint8_linear_483_754)"/>
<path d="M6.40002 5.30987C6.05002 5.13987 5.65002 5.13987 5.31002 5.30987L4.33002 5.77987C4.07002 5.90987 3.90002 6.16987 3.90002 6.46987V10.2099C3.90002 10.4499 4.04002 10.6699 4.25002 10.7799L11.62 14.3999C11.83 14.4999 12.08 14.4999 12.3 14.3999L13.56 13.7899C13.78 13.6799 13.91 13.4599 13.91 13.2199V9.47987C13.91 9.18987 13.74 8.91987 13.48 8.78987L6.40002 5.30987Z" fill="url(#paint9_radial_483_754)"/>
<g filter="url(#filter5_f_483_754)">
<path d="M4.29602 10.083V6.53005C4.29602 6.33005 4.50602 6.19005 4.69602 6.28005L11.66 9.80004C11.85 9.89004 11.97 10.09 11.97 10.3V13.812C11.97 14.052 11.72 14.212 11.5 14.102L4.65602 10.642C4.5486 10.5931 4.45753 10.5143 4.3937 10.415C4.32986 10.3157 4.29595 10.2011 4.29602 10.083Z" fill="url(#paint10_radial_483_754)"/>
</g>
<g filter="url(#filter6_f_483_754)">
<path d="M1.82 12.0619C2.36787 12.0619 2.812 11.6177 2.812 11.0699C2.812 10.522 2.36787 10.0779 1.82 10.0779C1.27214 10.0779 0.828003 10.522 0.828003 11.0699C0.828003 11.6177 1.27214 12.0619 1.82 12.0619Z" fill="#B0978A"/>
</g>
<path d="M2.01599 12.063C2.59424 12.063 3.06299 11.5942 3.06299 11.016C3.06299 10.4378 2.59424 9.96899 2.01599 9.96899C1.43775 9.96899 0.968994 10.4378 0.968994 11.016C0.968994 11.5942 1.43775 12.063 2.01599 12.063Z" fill="url(#paint11_radial_483_754)"/>
<g filter="url(#filter7_f_483_754)">
<path d="M3.41601 12.062C3.68331 12.062 3.90001 11.8453 3.90001 11.578C3.90001 11.3107 3.68331 11.094 3.41601 11.094C3.1487 11.094 2.93201 11.3107 2.93201 11.578C2.93201 11.8453 3.1487 12.062 3.41601 12.062Z" fill="#B0978A"/>
</g>
<path d="M3.51598 12.0149C3.78329 12.0149 3.99998 11.7982 3.99998 11.5309C3.99998 11.2636 3.78329 11.0469 3.51598 11.0469C3.24868 11.0469 3.03198 11.2636 3.03198 11.5309C3.03198 11.7982 3.24868 12.0149 3.51598 12.0149Z" fill="url(#paint12_radial_483_754)"/>
<defs>
<filter id="filter0_f_483_754" x="5.56909" y="7.51196" width="18.868" height="6.63501" filterUnits="userSpaceOnUse" color-interpolation-filters="sRGB">
<feFlood flood-opacity="0" result="BackgroundImageFix"/>
<feBlend mode="normal" in="SourceGraphic" in2="BackgroundImageFix" result="shape"/>
<feGaussianBlur stdDeviation="0.5" result="effect1_foregroundBlur_483_754"/>
</filter>
<filter id="filter1_f_483_754" x="10.5171" y="8.40195" width="17.5473" height="8.51812" filterUnits="userSpaceOnUse" color-interpolation-filters="sRGB">
<feFlood flood-opacity="0" result="BackgroundImageFix"/>
<feBlend mode="normal" in="SourceGraphic" in2="BackgroundImageFix" result="shape"/>
<feGaussianBlur stdDeviation="0.05" result="effect1_foregroundBlur_483_754"/>
</filter>
<filter id="filter2_f_483_754" x="6.91199" y="7.8999" width="17.5699" height="5.13501" filterUnits="userSpaceOnUse" color-interpolation-filters="sRGB">
<feFlood flood-opacity="0" result="BackgroundImageFix"/>
<feBlend mode="normal" in="SourceGraphic" in2="BackgroundImageFix" result="shape"/>
<feGaussianBlur stdDeviation="0.125" result="effect1_foregroundBlur_483_754"/>
</filter>
<filter id="filter3_f_483_754" x="6.64001" y="3.53418" width="9.77002" height="9.95435" filterUnits="userSpaceOnUse" color-interpolation-filters="sRGB">
<feFlood flood-opacity="0" result="BackgroundImageFix"/>
<feBlend mode="normal" in="SourceGraphic" in2="BackgroundImageFix" result="shape"/>
<feGaussianBlur stdDeviation="0.5" result="effect1_foregroundBlur_483_754"/>
</filter>
<filter id="filter4_f_483_754" x="3.46301" y="9.82788" width="10.51" height="5.05298" filterUnits="userSpaceOnUse" color-interpolation-filters="sRGB">
<feFlood flood-opacity="0" result="BackgroundImageFix"/>
<feBlend mode="normal" in="SourceGraphic" in2="BackgroundImageFix" result="shape"/>
<feGaussianBlur stdDeviation="0.125" result="effect1_foregroundBlur_483_754"/>
</filter>
<filter id="filter5_f_483_754" x="3.29602" y="5.2522" width="9.67395" height="9.88525" filterUnits="userSpaceOnUse" color-interpolation-filters="sRGB">
<feFlood flood-opacity="0" result="BackgroundImageFix"/>
<feBlend mode="normal" in="SourceGraphic" in2="BackgroundImageFix" result="shape"/>
<feGaussianBlur stdDeviation="0.5" result="effect1_foregroundBlur_483_754"/>
</filter>
<filter id="filter6_f_483_754" x="0.728003" y="9.97788" width="2.18401" height="2.18389" filterUnits="userSpaceOnUse" color-interpolation-filters="sRGB">
<feFlood flood-opacity="0" result="BackgroundImageFix"/>
<feBlend mode="normal" in="SourceGraphic" in2="BackgroundImageFix" result="shape"/>
<feGaussianBlur stdDeviation="0.05" result="effect1_foregroundBlur_483_754"/>
</filter>
<filter id="filter7_f_483_754" x="2.83201" y="10.994" width="1.16802" height="1.16802" filterUnits="userSpaceOnUse" color-interpolation-filters="sRGB">
<feFlood flood-opacity="0" result="BackgroundImageFix"/>
<feBlend mode="normal" in="SourceGraphic" in2="BackgroundImageFix" result="shape"/>
<feGaussianBlur stdDeviation="0.05" result="effect1_foregroundBlur_483_754"/>
</filter>
<linearGradient id="paint0_linear_483_754" x1="0" y1="11.1878" x2="27.99" y2="11.1878" gradientUnits="userSpaceOnUse">
<stop stop-color="#BEA8C2"/>
<stop offset="0.145" stop-color="#C1A6D1"/>
<stop offset="0.371" stop-color="#C19FE2"/>
<stop offset="0.424" stop-color="#D8B8FF"/>
<stop offset="0.485" stop-color="#E4CFFF"/>
<stop offset="0.893" stop-color="#DECFF8"/>
<stop offset="1" stop-color="#DCCFF4"/>
</linearGradient>
<linearGradient id="paint1_linear_483_754" x1="9.75004" y1="5.5629" x2="14.688" y2="15.8749" gradientUnits="userSpaceOnUse">
<stop stop-color="#B1A09A"/>
<stop offset="0.4" stop-color="#CABABE"/>
<stop offset="0.823" stop-color="#E6D3C4"/>
</linearGradient>
<radialGradient id="paint2_radial_483_754" cx="0" cy="0" r="1" gradientUnits="userSpaceOnUse" gradientTransform="translate(10.625 9.9999) rotate(85.8554) scale(4.32381 8.5817)">
<stop offset="0.61" stop-color="#B79A90"/>
<stop offset="1" stop-color="#BA9E96" stop-opacity="0"/>
</radialGradient>
<linearGradient id="paint3_linear_483_754" x1="13.2501" y1="1.34394" x2="18.3131" y2="12.0629" gradientUnits="userSpaceOnUse">
<stop stop-color="#E7BB42"/>
<stop offset="0.053" stop-color="#F1C740"/>
<stop offset="0.569" stop-color="#F2C941"/>
<stop offset="0.599" stop-color="#FFD85E"/>
<stop offset="0.622" stop-color="#F9C83F"/>
<stop offset="1" stop-color="#FAB842"/>
</linearGradient>
<linearGradient id="paint4_linear_483_754" x1="18.3131" y1="11.3749" x2="17.2191" y2="9.06294" gradientUnits="userSpaceOnUse">
<stop offset="0.067" stop-color="#F8B644"/>
<stop offset="0.301" stop-color="#FAB842" stop-opacity="0"/>
</linearGradient>
<linearGradient id="paint5_linear_483_754" x1="10.0001" y1="10.9379" x2="12.6561" y2="4.6559" gradientUnits="userSpaceOnUse">
<stop stop-color="#F2C941"/>
<stop offset="1" stop-color="#F2C941" stop-opacity="0"/>
</linearGradient>
<radialGradient id="paint6_radial_483_754" cx="0" cy="0" r="1" gradientUnits="userSpaceOnUse" gradientTransform="translate(9.93801 8.42603) rotate(25.7564) scale(13.1155 9.55437)">
<stop stop-color="#DB9718"/>
<stop offset="0.339" stop-color="#E7AB16"/>
<stop offset="1" stop-color="#DC9819" stop-opacity="0"/>
</radialGradient>
<linearGradient id="paint7_linear_483_754" x1="6.53102" y1="4.71887" x2="11.719" y2="14.2809" gradientUnits="userSpaceOnUse">
<stop stop-color="#E9BD42"/>
<stop offset="0.286" stop-color="#F2C841"/>
<stop offset="0.638" stop-color="#F2C941"/>
<stop offset="0.659" stop-color="#FED65A"/>
<stop offset="0.681" stop-color="#FAC840"/>
<stop offset="1" stop-color="#FABF41"/>
</linearGradient>
<linearGradient id="paint8_linear_483_754" x1="6.18802" y1="12.1559" x2="8.90502" y2="7.34387" gradientUnits="userSpaceOnUse">
<stop stop-color="#D28A30"/>
<stop offset="0.28" stop-color="#D28A30" stop-opacity="0"/>
</linearGradient>
<radialGradient id="paint9_radial_483_754" cx="0" cy="0" r="1" gradientUnits="userSpaceOnUse" gradientTransform="translate(2.93794 11.125) rotate(28.94) scale(6.07055 6.53927)">
<stop stop-color="#D48B1F"/>
<stop offset="1" stop-color="#D99A40" stop-opacity="0"/>
</radialGradient>
<radialGradient id="paint10_radial_483_754" cx="0" cy="0" r="1" gradientUnits="userSpaceOnUse" gradientTransform="translate(6.28591 10.1651) rotate(25.597) scale(13.6049 9.86695)">
<stop stop-color="#DB9718"/>
<stop offset="0.339" stop-color="#E7AB16"/>
<stop offset="1" stop-color="#DC9819" stop-opacity="0"/>
</radialGradient>
<radialGradient id="paint11_radial_483_754" cx="0" cy="0" r="1" gradientUnits="userSpaceOnUse" gradientTransform="translate(1.8436 10.5318) rotate(74.899) scale(2.03917)">
<stop stop-color="#D3AD48"/>
<stop offset="0.444" stop-color="#D7A541"/>
<stop offset="0.808" stop-color="#D48F27"/>
</radialGradient>
<radialGradient id="paint12_radial_483_754" cx="0" cy="0" r="1" gradientUnits="userSpaceOnUse" gradientTransform="translate(3.47674 11.375) rotate(76.954) scale(0.657599)">
<stop offset="0.436" stop-color="#D3A53E"/>
<stop offset="1" stop-color="#D48F27"/>
</radialGradient>
</defs>
</svg>
