<svg width="40" height="40" viewBox="0 0 40 40" fill="none" xmlns="http://www.w3.org/2000/svg">
<path d="M1.24377 13.147C0.968769 14.372 1.07814 15.4532 1.38127 16.3845C1.73127 17.4501 2.30939 18.2813 2.30939 18.2813L3.66564 30.5813C3.66564 30.5813 4.15002 31.2095 4.77814 31.4532C5.40627 31.6938 10.1531 35.9563 10.1531 35.9563L11.4594 35.8595L18.7625 38.2345L19.9031 37.8438L20.8344 38.2657L27.4406 36.5845L29.0031 35.8345C29.0031 35.8345 29.3031 35.8938 29.6625 35.8657C30.0219 35.8345 31.5531 35.1751 31.5531 35.1751L35.4281 31.3313C35.4281 31.3313 35.6563 31.222 35.9094 31.0845C36.2531 30.9001 36.3906 30.7282 36.3906 30.7282L36.9906 27.997C36.9906 27.997 38.6969 16.697 38.7844 15.9751C38.875 15.2532 39.3031 13.522 38.1313 11.8095C36.9594 10.097 35.6375 10.1876 35.6375 10.1876C35.6375 10.1876 36.0406 6.95946 33.4188 5.02508C30.7938 3.08758 28.55 3.85321 28.55 3.85321C28.55 3.85321 27.2875 1.63133 24.4063 1.27196C21.525 0.912582 19.8469 2.38133 19.8469 2.38133C19.8469 2.38133 18.1344 1.26883 15.5531 1.57196C12.9719 1.87508 11.5906 3.88446 11.5906 3.88446C11.5906 3.88446 8.89064 3.26883 6.70627 5.31883C4.56564 7.33133 4.92502 9.46883 4.92502 9.46883C4.92502 9.46883 1.91877 10.1282 1.24377 13.147Z" fill="#DC7E13"/>
<path d="M30.8063 24.1032C30.8063 24.1032 32.4281 24.1813 33.9344 23.447C35.1188 22.8688 36.0969 21.7095 36.0969 21.7095C36.0969 21.7095 36.0969 24.4126 35.7875 27.422C35.5094 30.1251 35.4313 31.3282 35.4313 31.3282C35.4313 31.3282 35.1875 33.8657 33.3156 34.9876C31.2438 36.2313 29.6656 35.8626 29.6656 35.8626C29.6656 35.8626 30.2281 31.7063 30.4188 29.1188C30.6094 26.5313 30.8063 24.1032 30.8063 24.1032Z" fill="url(#paint0_radial_483_847)"/>
<path d="M20.8437 27.2282C20.8437 27.2282 22.9312 28.6657 25.2531 28.3407C27.575 28.0157 29.3375 25.9282 29.3375 25.9282C29.3375 25.9282 29.2906 31.6376 29.1969 32.7501C29.1031 33.8626 29.0031 35.8313 29.0031 35.8313C29.0031 35.8313 28.3156 38.0407 25.1594 38.6438C22.0031 39.247 20.3125 38.0282 20.3125 38.0282C20.3125 38.0282 20.5625 32.6095 20.6562 31.2626C20.7531 29.9188 20.8437 27.2282 20.8437 27.2282Z" fill="url(#paint1_radial_483_847)"/>
<path d="M37.275 17.8063C37.275 17.8063 37.9719 17.1563 38.2969 16.6001C38.6219 16.0438 38.9 15.1626 38.9 15.1626C38.9 15.1626 38.8063 19.5657 38.5282 23.097C38.3469 25.422 38.0375 27.9532 37.7313 28.8407C37.3188 30.0313 36.2532 30.8626 36.2532 30.8626C36.2532 30.8626 36.9188 24.6407 37.0813 22.1688C37.2438 19.697 37.275 17.8063 37.275 17.8063Z" fill="url(#paint2_radial_483_847)"/>
<path d="M11.1 25.978C11.1 25.978 13.2157 28.2905 15.9813 28.353C18.7469 28.4155 19.8219 27.278 19.8219 27.278C19.8219 27.278 19.5938 35.1562 19.5625 35.9687C19.5313 36.7812 19.4532 37.9968 19.4532 37.9968C19.4532 37.9968 16.8438 39.3655 14.2563 38.553C11.1625 37.5812 11.2594 35.8812 11.2594 35.8812C11.2594 35.8812 11.0657 29.978 11.0657 28.9687C11.0688 27.9624 11.1 25.978 11.1 25.978Z" fill="url(#paint3_radial_483_847)"/>
<path d="M4.59058 22.7876C4.59058 22.7876 5.4687 23.797 6.5437 24.2532C7.6187 24.7095 9.86245 24.8063 9.86245 24.8063C9.86245 24.8063 10.0906 30.4063 10.1875 31.7407C10.2843 33.0751 10.3906 35.9376 10.3906 35.9376C10.3906 35.9376 8.2687 36.3907 6.31245 34.6376C4.74995 33.2376 4.77495 31.4532 4.77495 31.4532L4.59058 22.7876Z" fill="url(#paint4_radial_483_847)"/>
<path d="M3.29062 18.1657L3.66562 30.5813C3.66562 30.5813 2.67188 30.2438 2.21563 28.8751C1.75938 27.5095 1.14062 15.3657 1.14062 15.3657C1.14062 15.3657 1.50625 16.497 2.01875 17.122C2.60625 17.8407 3.29062 18.1657 3.29062 18.1657Z" fill="url(#paint5_radial_483_847)"/>
<path d="M3.65934 12.3907C3.65934 12.3907 2.45622 12.1314 2.23434 13.522C2.05309 14.6501 2.94059 15.1157 3.45622 15.1157C3.97184 15.1157 4.88434 14.8439 4.80934 13.7345C4.75934 12.947 4.10309 12.4157 3.65934 12.3907Z" fill="#891E0C"/>
<path d="M3.56871 12.1875C3.08746 12.1875 2.38434 12.4094 2.32809 13.225C2.27184 14.0406 2.90309 14.3906 3.49371 14.4281C4.08746 14.4656 4.77184 13.9844 4.75309 13.2625C4.73434 12.5406 4.14059 12.1875 3.56871 12.1875Z" fill="#B85500"/>
<path d="M2.73435 13.8907C3.1531 14.0376 3.53123 13.2969 3.58748 12.9844C3.64373 12.6688 3.16248 12.3188 2.8281 12.6688C2.39998 13.1126 2.3656 13.7594 2.73435 13.8907Z" fill="#FED386"/>
<path d="M35.8313 13.3125C35.8313 13.3125 35.4657 13.7594 35.6063 14.5906C35.6969 15.1219 36.2219 15.4281 36.7532 15.4219C37.7438 15.4125 38.0219 14.4219 37.7907 13.7688C37.5594 13.1156 35.8313 13.3125 35.8313 13.3125Z" fill="#891E0C"/>
<path d="M36.7562 12.675C35.9687 12.7031 35.6687 13.225 35.6687 13.7219C35.6687 14.2187 36.0562 14.6969 36.7156 14.7312C37.4718 14.7687 37.9125 14.3125 37.8812 13.6187C37.85 12.925 37.2843 12.6562 36.7562 12.675Z" fill="#B65500"/>
<path d="M36.6438 12.9812C36.3719 12.8531 36.1657 12.9875 36 13.1968C35.7375 13.525 35.7625 13.9937 36.0469 14.1031C36.4125 14.2437 36.6438 13.8968 36.7469 13.6843C36.8313 13.5062 36.925 13.1125 36.6438 12.9812Z" fill="#FFD288"/>
<path d="M34.0843 17.1095C34.0843 17.1095 35.3812 16.5126 35.3 14.0063C35.2312 11.8657 33.5937 11.897 33.5937 11.897C33.5937 11.897 35.3125 8.84696 32.9937 6.58758C30.675 4.32821 27.1093 6.73133 27.1093 6.73133C27.1093 6.73133 26.6031 5.15633 23.9 4.80008C21.1968 4.44383 20.0968 5.92821 20.0968 5.92821C20.0968 5.92821 19.5312 4.97821 17.0968 5.00633C14.6593 5.03758 13.5312 6.66883 13.5312 6.66883C13.5312 6.66883 9.37496 5.42821 7.42809 7.55008C5.37496 9.78446 7.49996 11.7813 7.49996 11.7813C7.49996 11.7813 5.94059 11.8813 5.79371 13.6032C5.61559 15.6813 7.33121 16.7438 7.33121 16.7438C7.33121 16.7438 4.43121 17.7782 5.54371 21.1813C6.61246 24.447 10.6 24.1907 11.1312 24.0032C11.2437 23.9626 12.575 26.3126 15.3687 26.8095C18.3687 27.3438 20.3656 25.6188 20.3656 25.6188C20.3656 25.6188 21.6531 27.0313 24.9218 26.7876C27.9625 26.5626 29.05 23.8313 29.05 23.8313C29.05 23.8313 33.4406 24.5438 35.2843 21.3626C36.6343 19.0157 34.0843 17.1095 34.0843 17.1095ZM33.2687 14.6407C33.1187 16.1282 31.0875 16.0782 31.0875 16.0782C31.0875 16.0782 31.5062 16.3907 30.7093 16.2376C30.0312 16.1063 29.4468 16.0813 29.1781 16.0782C29.2375 15.7345 29.2812 15.3813 29.3 15.0188C29.3125 14.8001 29.4218 14.397 29.4093 14.1876C29.6718 14.1595 30.3218 14.2282 31.0187 13.9876C32.0406 13.6376 32.5468 13.1751 32.5468 13.1751C32.5468 13.1751 33.3781 13.5563 33.2687 14.6407ZM28.4906 8.22821C29.8906 7.59696 31.2468 7.38446 32.0125 8.13133C32.9281 9.02508 32.9937 11.4376 30.3218 12.5407C29.7468 12.7782 29.1843 12.922 28.6562 13.0032C28.5031 12.5532 28.1062 11.8313 27.8468 11.4407C28.2062 11.4095 28.9031 11.4345 29.6093 11.0032C31.0093 10.1501 31.4 8.78758 30.6375 7.98758C30.2468 7.57821 29.2812 8.71258 28.3343 9.22196C27.7031 9.56258 27.1687 10.1845 26.9312 10.4845C26.5843 10.1751 26.5781 10.022 26.5562 9.89383C26.95 9.40008 27.7281 8.57508 28.4906 8.22821ZM14.1937 15.8938C14.5437 16.047 14.7406 16.0688 14.7406 16.0688C14.7406 16.0688 14.15 19.2501 17.0593 19.3095C17.4156 19.3157 17.9968 18.822 18.0187 18.8001C18.025 18.8001 18.2375 19.922 20.1812 20.0001C21.25 20.0438 22.6937 19.7595 22.7593 18.4282C23.4812 19.2157 24.8937 18.8876 25.425 18.3626C26.3656 17.4313 26.3218 16.4188 25.8406 15.5657C26.7375 15.3688 27.0468 14.9282 27.2156 14.7563C27.4531 17.747 25.0531 20.9188 20.3437 20.7407C15.4031 20.5532 13.6125 17.6376 13.4343 15.3032C13.6593 15.4845 13.9468 15.7876 14.1937 15.8938ZM17.1937 6.62821C18.3031 6.62821 19.3187 7.16258 20.1187 7.18133C21.0468 7.20321 22.4562 5.84383 23.9031 6.09696C25.6937 6.40946 25.8968 7.79383 25.8968 7.79383C25.8968 7.79383 25.1125 7.97821 24.8812 8.30946C24.7562 8.48758 24.6031 8.71258 24.4468 8.95008C23.1062 8.39071 21.6218 8.09696 20.2187 8.09696C18.9093 8.09696 17.6 8.37196 16.4156 8.86883C16.2375 8.57821 16.0093 8.23133 15.8468 8.05321C15.5375 7.71883 15.4281 7.62508 15.4281 7.62508C15.4281 7.62508 16.0375 6.62821 17.1937 6.62821ZM9.10309 8.58446C9.77184 7.78758 10.95 7.50946 12.8218 7.97196C14.0781 8.28133 14.6656 9.10946 14.9375 9.64696C14.8062 9.73446 14.675 9.82508 14.55 9.91571C14.2437 9.54383 12.6656 8.50008 11.6687 8.33133C10.2 8.08133 10.0562 8.59071 9.99684 9.00321C9.92496 9.49383 10.1093 10.222 11.4156 10.7845C11.8937 10.9907 13.0343 11.1845 13.4156 11.222C13.2437 11.4376 12.7312 11.7688 12.5875 12.0001C12.0718 12.0126 11.2906 11.9626 10.2843 11.6938C8.35621 11.1813 8.49371 9.30946 9.10309 8.58446ZM8.31871 13.8407C8.25309 13.2938 8.70309 12.9313 8.70309 12.9313C8.70309 12.9313 8.97496 13.2345 9.92496 13.4657C10.5031 13.6063 10.8906 13.6313 11.4031 13.6313C11.2843 14.047 11.3531 14.5751 11.4 14.7251C11.4937 15.0313 11.6375 15.5345 11.6718 15.8532C11.2468 15.8345 10.8093 15.7782 10.4875 15.8032C9.81871 15.8532 9.50309 15.5345 9.50309 15.5345C9.50309 15.5345 8.44684 14.9126 8.31871 13.8407ZM11.4875 21.9345C9.87184 22.5751 8.58121 21.8188 7.75934 20.422C7.58434 20.1282 7.27496 18.8095 9.44371 17.7095C10.5593 17.1438 11.4468 17.3126 12.1156 17.3813C12.175 17.5376 12.2437 17.6938 12.3187 17.847C11.8812 17.9032 10.55 17.4345 9.85621 17.7813C8.88434 18.2688 8.89684 18.9938 9.09684 19.7032C9.35621 20.6345 10.8437 20.7313 11.7937 20.2688C12.5218 19.9126 12.9687 19.497 13.1968 19.247C13.3875 19.4876 13.5937 19.722 13.8156 19.9438C13.6281 20.5188 13.0656 21.3063 11.4875 21.9345ZM24.3437 25.1938C22.0093 25.4501 20.8531 23.422 20.4187 23.397C19.9812 23.372 19.0812 24.9688 16.8781 25.1157C14.5687 25.2688 12.9781 23.2688 12.9781 23.2688C12.9781 23.2688 13.85 22.8595 14.5687 22.1907C14.8843 21.897 15.3656 21.4595 15.5312 21.1032C16.9343 21.9782 18.4468 22.4782 20.3562 22.4532C22.1218 22.4313 23.6562 22.0845 24.9406 21.4095C25.2093 21.7563 25.4781 22.0845 25.6531 22.2407C26.1156 22.6501 27.1156 23.2657 27.1156 23.2657C27.1156 23.2657 26.1125 25.0001 24.3437 25.1938ZM32.5593 21.2032C31.5281 22.7751 30.1906 22.3595 28.3468 21.6532C27.3656 21.2751 26.2781 20.6126 25.9031 20.2251C26.2437 19.9313 26.6312 19.8751 26.9093 19.5251C27.3812 19.8876 28.0812 20.397 28.8 20.6095C30.0968 20.9907 31.5 20.8688 31.9031 19.9876C32.25 19.2313 32.1406 18.3345 30.7937 17.8063C30.0125 17.5001 28.6812 18.0657 28.1906 18.0407C28.275 17.8626 28.3531 17.6813 28.425 17.4938C29.1781 17.5188 30.1937 17.6313 31.1937 17.9845C33.6093 18.8282 33.0468 20.4563 32.5593 21.2032Z" fill="#891E0C"/>
<path d="M33.7313 16.4563C33.7313 16.4563 35.3875 15.8782 35.2813 13.9532C35.1625 11.8126 33.3813 10.8626 33.3813 10.8626C33.3813 10.8626 35.25 8.6032 32.9313 6.34383C30.6125 4.08445 27.0813 5.66258 27.0813 5.66258C27.0813 5.66258 26.6094 3.99695 23.9031 3.6407C21.2 3.28445 20.05 4.77508 20.05 4.77508C20.05 4.77508 19.4656 3.88445 17.0313 3.9157C14.5938 3.94695 13.5031 5.60633 13.5031 5.60633C13.5031 5.60633 9.67189 4.50633 7.59064 6.49695C5.50939 8.48758 7.47189 10.7157 7.47189 10.7157C7.47189 10.7157 5.92814 11.3688 5.77814 13.0938C5.60001 15.172 7.35314 15.9157 7.35314 15.9157C7.35314 15.9157 4.50001 17.4595 5.36251 20.4032C6.44064 24.0845 11.6625 22.9595 11.6625 22.8407C11.6625 22.722 13 25.2188 15.7938 25.722C18.5875 26.2251 20.4281 24.3563 20.4281 24.3563C20.4281 24.3563 21.0813 25.872 24.35 25.6345C27.6188 25.397 28.6594 22.7532 28.6594 22.7532C28.6594 22.7532 33.325 23.9407 35.1656 20.7626C36.5219 18.4095 33.7313 16.4563 33.7313 16.4563ZM33.9406 14.0657C33.8125 15.5532 32.6563 15.7595 32.6563 15.7595C32.6563 15.7595 31.475 15.322 30.6813 15.1688C30.0031 15.0376 29.05 15.0188 28.7813 15.0157C28.8406 14.672 28.8844 14.3188 28.9031 13.9563C28.9156 13.7376 28.9094 13.5251 28.8969 13.3157C29.1594 13.2876 30.1375 13.1501 30.9375 12.8063C31.6219 12.5126 32.425 11.9095 32.425 11.9095C32.425 11.9095 34.0688 12.5782 33.9406 14.0657ZM27.8813 6.95633C29.3188 6.41883 31.1156 6.3407 32.0656 7.3407C32.9469 8.26883 32.9625 10.3688 30.2938 11.472C29.7188 11.7095 29.1563 11.8532 28.6281 11.9345C28.475 11.4845 28.2594 11.0657 28.0031 10.6751C28.3625 10.6438 28.9406 10.4751 29.6219 10.0032C30.7406 9.22508 30.9594 8.29383 30.6438 7.95945C30.2531 7.54695 29.2563 7.64383 28.3094 8.1532C27.6781 8.49383 27.1438 9.1157 26.9063 9.4157C26.5558 9.10173 26.1783 8.81938 25.7781 8.57195C26.1688 8.0782 26.9156 7.31883 27.8813 6.95633ZM13.4375 13.6595C13.675 10.8157 16.6063 8.43445 20.1906 8.50633C24.6344 8.59383 26.9719 11.0313 27.1813 13.6907C27.4188 16.6813 24.9969 19.6532 20.2875 19.4782C14.7438 19.2688 13.2313 16.1407 13.4375 13.6595ZM17.6938 5.3407C19.4125 5.51883 19.6969 6.2657 20.1063 6.2907C20.5156 6.3157 21.85 4.72508 23.6469 5.00633C25.4438 5.28758 25.8281 6.21258 25.8281 6.21258C25.8281 6.21258 25.0844 6.90945 24.8531 7.23758C24.7281 7.4157 24.575 7.6407 24.4188 7.8782C23.0781 7.31883 21.5938 7.02508 20.1906 7.02508C18.8813 7.02508 17.5719 7.30008 16.3875 7.79695C16.2094 7.50633 15.9813 7.15945 15.8188 6.98133C15.5094 6.64695 14.9219 6.23758 14.9219 6.23758C14.9219 6.23758 15.975 5.15945 17.6938 5.3407ZM8.84064 7.65008C9.50939 6.8532 10.9188 6.44383 12.7938 6.90633C14.05 7.2157 14.6375 8.04383 14.9094 8.58133C14.7781 8.66883 14.6469 8.75945 14.5219 8.85008C14.2156 8.4782 13.6406 8.05945 12.6406 7.88758C11.1719 7.63758 10.5719 7.98445 10.4281 8.32508C10.3188 8.58133 10.3875 9.3657 11.6938 9.93133C12.1719 10.1376 12.6469 10.2282 13.0313 10.2626C12.8594 10.4782 12.7031 10.7001 12.5594 10.9313C12.0438 10.9438 11.5063 10.9157 10.525 10.5657C8.57501 9.87508 8.23439 8.37195 8.84064 7.65008ZM7.22501 13.1157C7.33439 12.0407 8.55939 11.6532 8.55939 11.6532C8.55939 11.6532 9.07189 12.0626 10.0219 12.2938C10.6 12.4345 11.3656 12.4595 11.8781 12.4595C11.7594 12.8813 11.6813 13.322 11.6625 13.7782C11.6469 14.1001 11.6625 14.4188 11.7 14.7345C11.275 14.7157 10.7813 14.7063 10.4594 14.7313C9.79064 14.7813 8.86876 15.1407 8.86876 15.1407C8.86876 15.1407 7.06876 14.6313 7.22501 13.1157ZM11.4594 20.8657C9.84376 21.5063 7.45626 20.9938 7.35314 19.5813C7.32814 19.2407 7.08126 17.9345 9.25314 16.8345C10.1279 16.3909 11.1119 16.2086 12.0875 16.3095C12.1469 16.4657 12.2156 16.622 12.2906 16.7751C11.8531 16.8313 11.05 16.9782 10.3531 17.3251C9.38126 17.8126 8.89376 18.397 9.11251 19.1001C9.33126 19.8063 10.8156 19.6595 11.7656 19.197C12.4938 18.8407 12.9406 18.4251 13.1688 18.1751C13.3594 18.4157 13.5656 18.6501 13.7875 18.872C13.5969 19.4532 13.0344 20.2407 11.4594 20.8657ZM24.3156 24.1251C21.9813 24.3813 20.825 22.3532 20.3906 22.3282C19.9531 22.3032 19.0531 23.9001 16.85 24.047C14.5406 24.2001 12.95 22.2001 12.95 22.2001C12.95 22.2001 13.8219 21.7907 14.5406 21.122C14.8563 20.8282 15.1031 20.397 15.2688 20.0438C16.6719 20.9188 18.4031 21.4438 20.3156 21.422C22.0813 21.4001 23.6313 21.0188 24.9156 20.3438C25.1844 20.6907 25.4531 21.0188 25.6281 21.1751C26.0906 21.5845 27.0906 22.2001 27.0906 22.2001C27.0906 22.2001 26.0813 23.9313 24.3156 24.1251ZM33.3 19.7438C32.5875 21.2095 30.5 21.2126 28.6563 20.5032C27.675 20.1251 26.9563 19.6157 26.5813 19.2282C26.8281 19.022 27.0031 18.7501 27.2813 18.4032C27.5406 18.7501 28.0469 19.2938 28.8438 19.6376C30.0844 20.172 31.6656 20.1251 31.8844 19.322C32.1031 18.5188 31.6688 17.8063 30.3219 17.2751C29.5406 16.9688 28.6531 16.9938 28.1656 16.9688C28.25 16.7907 28.3281 16.6095 28.4 16.422C29.1531 16.447 30.1719 16.5501 31.1688 16.9126C33.4219 17.7282 33.6688 18.9845 33.3 19.7438Z" fill="url(#paint6_radial_483_847)"/>
<path d="M18.7593 13.3593C18.6781 14.1843 19.2624 14.9093 20.3093 14.9312C21.3593 14.9531 22.0343 14.4718 22.0124 13.2937C21.9937 12.3531 21.1374 11.9625 20.2656 12.0062C19.5687 12.0406 18.8468 12.4656 18.7593 13.3593Z" fill="#E47702"/>
<path d="M18.9907 12.35C19.3219 11.9719 18.7532 10.8344 18.2594 10.1813C17.6938 9.4344 16.7126 9.2594 16.1782 9.8594C15.6438 10.4594 15.8563 11.1907 16.3719 11.6C17.0376 12.1282 18.6907 12.6938 18.9907 12.35ZM18.8032 9.72503C18.8032 10.4469 19.525 11.7844 20.2969 11.8188C20.5594 11.8313 21.5563 10.6969 21.5782 9.84378C21.6001 8.99065 21.0188 8.56878 20.2969 8.59065C19.575 8.61253 18.8032 8.8719 18.8032 9.72503Z" fill="#E27406"/>
<path d="M21.5219 12.1937C21.8594 12.4468 23.1157 11.9218 23.6563 11.6499C24.2 11.3781 25.5875 10.6843 24.25 9.68432C23.1875 8.89057 22.4375 9.56557 21.9625 10.4656C21.6782 11.0062 21.35 12.0624 21.5219 12.1937Z" fill="#E57702"/>
<path d="M22.3532 13.3436C22.2782 13.8468 24.0219 14.4968 25.2032 14.4468C26.3813 14.3968 27.0532 13.7093 26.8407 12.7593C26.6282 11.8093 25.9094 11.4405 24.5282 11.8718C23.3438 12.2436 22.4157 12.9218 22.3532 13.3436ZM18.2563 13.4186C18.2407 13.7624 16.7001 14.7218 15.2876 14.7718C14.1282 14.8124 13.6126 14.2561 13.7001 13.303C13.7844 12.3874 14.5282 11.9311 15.4313 11.9968C16.1313 12.0468 18.2844 12.8061 18.2563 13.4186ZM18.7563 14.5905C18.5876 14.4436 16.2813 14.8218 15.5157 15.778C14.9719 16.4593 15.3126 17.4374 15.7938 17.803C16.2751 18.1686 17.3688 18.5061 18.0001 17.4405C18.6313 16.3749 18.9907 14.7905 18.7563 14.5905ZM20.4157 15.2186C19.9532 15.1843 18.9063 17.3811 18.8719 17.9999C18.8376 18.6186 18.9407 19.2186 20.1938 19.2874C21.4469 19.3561 21.7907 18.703 21.7563 18.0343C21.7282 17.4811 20.8626 15.253 20.4157 15.2186ZM21.8938 14.7186C21.6876 14.8718 21.8438 16.4186 22.8907 17.4311C23.9376 18.4436 25.0938 17.8968 25.3813 17.3624C25.8626 16.4686 25.4657 15.7311 24.4532 15.1811C23.4376 14.6343 22.1938 14.4936 21.8938 14.7186Z" fill="#E27406"/>
<path d="M23.3875 13.225C23.4375 13.5844 23.8875 13.7813 24.5719 13.5C25.15 13.2625 25.4625 12.8063 25.225 12.5032C24.9688 12.1782 24.4188 12.3313 24.0907 12.4532C23.7657 12.5719 23.3375 12.8813 23.3875 13.225ZM22.15 11.6469C22.4469 11.7344 22.7688 11.3719 22.8532 11.0813C22.9375 10.7907 23.0407 10.4125 22.7157 10.3094C22.4657 10.2313 22.2532 10.3594 22.0469 10.8063C21.9563 11.0063 21.8063 11.5438 22.15 11.6469ZM19.2219 9.47504C19.0219 9.94379 19.1907 10.8407 19.5438 10.8907C19.9594 10.95 19.85 10.4938 20.0938 10.0188C20.2782 9.65942 20.7813 9.17817 20.3375 8.93129C19.9782 8.73129 19.4969 8.83129 19.2219 9.47504ZM16.9625 9.73129C16.4813 9.64692 16.1813 10.0719 16.2594 10.6938C16.3969 11.8094 17.7532 11.8969 17.8375 11.5188C17.9313 11.1063 17.375 11.0219 17.375 10.5907C17.375 10.1594 17.4407 9.81567 16.9625 9.73129Z" fill="#FED287"/>
<path d="M20.225 12.2282C19.8563 12.1594 19.0219 12.4125 19.0438 13.4282C19.0656 14.4438 20.3344 14.7563 20.4688 14.1094C20.6 13.4625 20.2188 13.35 20.2375 13.0719C20.2563 12.7469 20.5313 12.2844 20.225 12.2282ZM14.5156 14.2C15.2281 14.3719 15.2188 13.6813 15.6063 13.3125C15.9938 12.9438 16.3938 12.9438 16.3563 12.5657C16.3188 12.1875 15.1625 12.0594 14.625 12.3688C13.9094 12.7844 13.8156 14.0313 14.5156 14.2ZM16.4656 17.5688C17.1469 17.3813 16.6781 16.6282 16.8156 16.3032C16.9531 15.9782 17.3656 15.3907 17.1406 15.25C16.9156 15.1125 15.8375 15.275 15.625 16.3532C15.4938 17.0344 15.8781 17.7313 16.4656 17.5688ZM20.1219 16.9188C19.8844 16.8407 19.4469 16.9563 19.2594 17.7438C19.0906 18.4594 19.3625 18.7094 19.5344 18.7844C19.8594 18.9219 20.2344 18.3844 20.3469 17.9594C20.4594 17.5313 20.4969 17.0438 20.1219 16.9188ZM22.25 15.1282C22.0281 15.3344 21.975 15.7125 22.4625 16.3438C22.925 16.9438 23.35 17.1938 23.6781 16.8688C24.0031 16.5438 23.5906 15.8407 23.3281 15.4782C23.0656 15.1157 22.5656 14.8375 22.25 15.1282Z" fill="#FFD285"/>
<path d="M27.3688 9.57488C27.4094 9.92176 27.8344 10.0968 28.3188 9.95613C28.8031 9.81551 29.0219 9.48113 28.8688 9.12176C28.7156 8.76238 28.3094 8.67488 27.9656 8.79051C27.6281 8.90301 27.3219 9.16863 27.3688 9.57488ZM24.7719 7.95301C24.9344 8.10301 25.2438 7.95301 25.6219 7.62801C25.8906 7.39676 26.4594 6.99051 26.8031 6.76238C27.1469 6.53426 27.7938 6.12801 28.4719 5.87488C28.9844 5.68113 28.8656 5.18738 28.1656 5.30613C27.5781 5.40926 27.0938 5.54988 26.3563 6.02176C25.6844 6.45301 25.2719 6.95301 25.0625 7.20613C24.8563 7.45926 24.6375 7.83113 24.7719 7.95301ZM20.1031 5.47176C20.2844 5.71863 20.9156 5.05926 21.7219 4.78426C22.7469 4.43426 23.7594 4.55613 23.7344 4.12176C23.7156 3.82488 22.575 3.70301 21.4531 4.16238C20.4406 4.57488 19.9125 5.21551 20.1031 5.47176ZM14.5625 5.30926C14.7344 5.55613 15.0219 5.24051 15.8719 4.99988C16.7219 4.75613 17.1938 4.75613 17.1531 4.40613C17.1125 4.04988 16.3438 4.06863 15.5063 4.35301C15.0344 4.51238 14.3438 4.99988 14.5625 5.30926ZM10.7188 8.39988C10.5313 8.61551 10.8031 8.99051 11.0844 9.20926C11.45 9.49363 11.8688 9.51863 12.0156 9.33113C12.1656 9.14363 11.9813 8.65613 11.625 8.44051C11.2469 8.20926 10.8969 8.19676 10.7188 8.39988ZM12.9344 5.92801C12.9156 6.21238 12.475 6.17801 11.9094 6.14988C11.3438 6.12176 9.56251 5.99988 8.70314 6.93738C7.56251 8.17801 7.92814 9.11238 8.07814 9.50613C8.22814 9.89676 8.45626 10.2343 8.24064 10.3436C8.02501 10.453 7.61876 10.1218 7.43126 9.75613C7.23751 9.38113 6.45314 7.85926 8.15939 6.40301C9.88751 4.91863 12.9594 5.51238 12.9344 5.92801ZM7.89376 11.1093C8.08751 11.2905 7.57814 11.5905 7.22189 12.0218C6.69689 12.6624 6.67189 13.4999 7.10001 14.2561C7.28751 14.5874 7.98751 14.9718 7.73751 15.1843C7.48751 15.3968 6.91564 15.1749 6.56564 14.6093C6.45626 14.4311 6.11564 13.7249 6.19064 12.9999C6.30314 11.8843 6.81564 11.5155 7.03126 11.3124C7.24376 11.1124 7.68126 10.9061 7.89376 11.1093ZM10.7906 17.5655C10.4344 17.3749 9.87501 17.653 9.62501 18.003C9.45001 18.2499 9.16251 18.8936 9.58751 19.1436C10.05 19.4155 10.175 18.7811 10.5906 18.4405C11.0031 18.1061 11.1156 17.7405 10.7906 17.5655ZM10.1563 15.3093C10.3531 15.5655 9.26564 16.0186 8.57189 16.3874C7.85314 16.7718 6.61876 18.0311 6.88751 19.6093C7.13126 21.0468 7.74376 21.3874 7.39064 21.6561C7.03751 21.9249 5.66251 21.0343 5.74688 18.9718C5.81876 17.2061 7.19064 15.9811 8.26251 15.5718C9.00001 15.2905 9.92189 15.0061 10.1563 15.3093ZM12.5313 22.5936C12.3156 22.7311 12.3875 23.3436 13.4969 24.2218C14.4625 24.9874 15.1594 24.8593 15.2375 24.6218C15.35 24.2749 14.6438 24.1124 13.8281 23.478C13.3938 23.1436 12.8219 22.4093 12.5313 22.5936ZM20.5906 23.2468C20.3031 23.4186 20.575 24.5436 22.0469 25.0686C23.65 25.6436 24.9719 25.1561 24.8563 24.6874C24.7719 24.353 23.7688 24.8499 22.3125 24.1718C21.4813 23.7874 20.9875 23.0093 20.5906 23.2468ZM28.1625 18.1874C27.8344 18.3874 28.075 18.7749 28.6344 19.1436C29.1938 19.5124 29.7375 19.4374 29.8563 19.2624C29.975 19.0874 29.9313 18.7343 29.2813 18.3218C28.9156 18.0874 28.5031 17.9811 28.1625 18.1874ZM25.575 9.57176C25.4125 10.0124 25.9438 10.2624 26.4125 10.7343C26.8813 11.2061 27.3094 12.103 27.4406 12.8374C27.5781 13.5936 27.6031 14.2061 27.5156 14.9249C27.4656 15.3436 27.1781 15.8374 27.5 16.0436C27.825 16.2499 28.2063 15.7343 28.3531 15.103C28.5 14.4718 28.7344 13.7218 28.2344 11.9843C27.9469 10.9843 27 10.1468 26.7188 9.88113C26.4438 9.61551 25.725 9.15926 25.575 9.57176ZM13.0625 17.0124C13.2656 16.9624 13.1813 16.4843 13.15 15.953C13.1188 15.4218 12.6094 11.728 14.9938 9.77801C17.1531 8.01238 19.2031 8.07488 19.6875 8.03738C20.0344 8.00926 20.2031 7.86238 20.1875 7.68426C20.1719 7.50926 19.9969 7.30301 19.525 7.33113C19.0531 7.35926 16.2531 7.26238 13.9594 9.49988C12.6313 10.7936 12.3313 12.0874 12.1938 13.1749C12.0094 14.6374 12.3531 15.828 12.4281 16.0718C12.5625 16.4968 12.6375 17.1124 13.0625 17.0124Z" fill="#FED287"/>
<defs>
<radialGradient id="paint0_radial_483_847" cx="0" cy="0" r="1" gradientUnits="userSpaceOnUse" gradientTransform="translate(28.5238 25.2563) scale(9.82969)">
<stop offset="0.572" stop-color="#F5B03E"/>
<stop offset="0.671" stop-color="#F0A736"/>
<stop offset="0.833" stop-color="#E38E21"/>
<stop offset="0.912" stop-color="#DC8015"/>
</radialGradient>
<radialGradient id="paint1_radial_483_847" cx="0" cy="0" r="1" gradientUnits="userSpaceOnUse" gradientTransform="translate(23.195 26.8238) scale(10.5897)">
<stop offset="0.603" stop-color="#F5B03E"/>
<stop offset="0.7" stop-color="#F0A736"/>
<stop offset="0.859" stop-color="#E38E21"/>
<stop offset="0.936" stop-color="#DC8015"/>
</radialGradient>
<radialGradient id="paint2_radial_483_847" cx="0" cy="0" r="1" gradientUnits="userSpaceOnUse" gradientTransform="translate(30.901 20.2513) scale(11.3638 11.3638)">
<stop offset="0.489" stop-color="#F5B03E"/>
<stop offset="0.61" stop-color="#F0A736"/>
<stop offset="0.81" stop-color="#E38E21"/>
<stop offset="0.906" stop-color="#DC8015"/>
</radialGradient>
<radialGradient id="paint3_radial_483_847" cx="0" cy="0" r="1" gradientUnits="userSpaceOnUse" gradientTransform="translate(17.8138 25.5687) scale(11.6844)">
<stop offset="0.564" stop-color="#F5B03E"/>
<stop offset="0.672" stop-color="#F0A736"/>
<stop offset="0.85" stop-color="#E38E21"/>
<stop offset="0.936" stop-color="#DC8015"/>
</radialGradient>
<radialGradient id="paint4_radial_483_847" cx="0" cy="0" r="1" gradientUnits="userSpaceOnUse" gradientTransform="translate(11.3784 25.2776) scale(9.54)">
<stop offset="0.475" stop-color="#F5B03E"/>
<stop offset="0.609" stop-color="#F0A736"/>
<stop offset="0.83" stop-color="#E38E21"/>
<stop offset="0.936" stop-color="#DC8015"/>
</radialGradient>
<radialGradient id="paint5_radial_483_847" cx="0" cy="0" r="1" gradientUnits="userSpaceOnUse" gradientTransform="translate(3.27031 16.3442) scale(12.6456)">
<stop offset="0.522" stop-color="#F5B03E"/>
<stop offset="0.842" stop-color="#E28C1F"/>
<stop offset="0.936" stop-color="#DC8015"/>
</radialGradient>
<radialGradient id="paint6_radial_483_847" cx="0" cy="0" r="1" gradientUnits="userSpaceOnUse" gradientTransform="translate(20.3669 14.6939) rotate(-90.2882) scale(13.2949 22.8419)">
<stop offset="0.333" stop-color="#E37406"/>
<stop offset="0.528" stop-color="#D05F06"/>
<stop offset="0.93" stop-color="#9F2806"/>
<stop offset="0.936" stop-color="#9E2706"/>
</radialGradient>
</defs>
</svg>
