<svg width="128" height="128" viewBox="0 0 128 128" fill="none" xmlns="http://www.w3.org/2000/svg">
<path d="M48.18 68.45L6.70002 69.95C6.70002 69.95 4.07002 67.32 4.45002 66.38C4.83002 65.44 39.18 38.6 40.49 38.79C41.8 38.98 44.81 42.17 47.25 41.04C49.69 39.91 47.25 33.34 48 32.41C48.75 31.47 75.59 17.02 77.28 16.27C78.97 15.52 80.47 13.83 83.85 14.58C87.23 15.33 95.68 16.83 104.87 23.03C114.06 29.23 123.64 36.36 122.89 40.3C122.14 44.24 48.18 68.45 48.18 68.45Z" fill="#FFE265"/>
<path d="M19.4599 115.57C28.6599 114.44 114.44 96.05 118.01 95.49C121.58 94.93 123.83 91.5501 123.83 87.7901C123.83 84.0301 122.89 40.3 122.89 40.3C122.89 40.3 118.76 41.6101 113.88 42.7401C109 43.8601 69.0099 53.62 53.2499 57.19C37.4899 60.76 12.3299 67.3301 9.50994 67.3301C6.68994 67.3301 4.43994 66.39 4.43994 66.39C4.43994 66.39 5.18994 105.43 5.37994 108.25C5.56994 111.07 6.87994 114.44 10.0699 115.38C13.2599 116.32 15.3399 116.07 19.4599 115.57Z" fill="#FEB502"/>
<path d="M74.97 25.5601C74.97 27.9601 77.41 29.5501 81.45 29.4301C85.86 29.3001 87.08 26.6801 86.94 25.0001C86.8 23.3101 84.77 21.8301 80.75 21.9001C77.02 21.9701 74.97 23.4501 74.97 25.5601Z" fill="#FF8B0D"/>
<path d="M29.92 55.4799C23.42 57.6699 24.15 63.3599 26.05 64.6299C27.95 65.8999 30.48 65.8299 33.44 64.7699C36.4 63.7099 38.28 62.4999 38.58 60.5199C38.86 58.6399 36.4 53.2899 29.92 55.4799ZM88.98 39.2199C84.62 39.4199 79.8 42.5499 78 45.5599C76.1 48.7299 75.96 52.4599 80.32 54.7799C84.68 57.0999 100.1 51.1899 99.33 45.7699C98.56 40.3399 93.56 39.0099 88.98 39.2199ZM73.85 83.0699C73.85 83.0699 80.04 78.4899 80.04 75.2599C80.04 72.0199 77.37 64.3699 66.03 63.7899C55.4 63.2399 48.85 77.7299 55.82 85.1899C62.79 92.6499 67.01 89.2699 69.62 88.5699C72.23 87.8599 73.85 83.0699 73.85 83.0699ZM43.23 96.0899C43.23 96.0899 49.38 92.2399 44.66 88.0199C41.34 85.0499 36.9 86.3899 34.64 88.6999C31.75 91.6599 32.53 96.37 35.2 98.4799C37.88 100.6 43.23 96.0899 43.23 96.0899ZM22.39 78.7799C22.39 78.7799 21.69 76.5699 19.18 75.6799C16.36 74.6799 12.15 78.1899 13.95 81.9399C15.57 85.3199 19.16 84.3299 19.16 84.3299L22.39 78.7799ZM112.42 82.0099C113.03 81.3499 117.02 78.4699 117.02 76.2799C117.02 74.0999 111.01 67.3599 103.34 72.4299C95.67 77.4999 99.68 85.1699 101.79 86.4399C103.9 87.7099 109.75 84.8999 112.42 82.0099Z" fill="#ED6B31"/>
<path d="M30.86 58.93C26.59 60.41 24.98 63.43 26.05 64.63C27.18 65.9 29.64 66.74 33.93 65.19C37.25 63.99 38.93 61.98 38.65 60.19C38.45 58.89 34.73 57.59 30.86 58.93ZM16.62 78.63C14.75 80.97 16.27 83.63 18.03 84.26C19.79 84.89 22.89 82.99 22.68 79.83C22.46 76.66 18.31 76.52 16.62 78.63ZM38.37 91.38C34.35 94.64 34.24 97.83 35.79 98.91C36.87 99.67 40.85 101.25 44.49 98.56C47.19 96.57 47.24 92.39 46.39 90.39C45.68 88.69 41.75 88.63 38.37 91.38ZM62.77 73.61C57.39 78.84 56.11 87.33 61.39 89.33C66.04 91.09 72.72 90.03 76.66 85.18C80.8 80.08 81.24 74.45 78.58 71.13C75.4 67.14 66.93 69.58 62.77 73.61ZM87.22 44.43C80.18 46.82 76.03 51.89 79.62 54.43C83.21 56.96 86.94 56.59 91.02 55.2C95.65 53.63 99.19 49.99 99.33 46.54C99.44 43.71 93.42 42.32 87.22 44.43ZM106.02 76.8C101.23 80.7 99.83 84.61 101.8 86.44C103.77 88.27 108.49 89.11 112.85 86.09C117.38 82.95 117.71 79.39 117.21 76.52C116.65 73.29 110.94 72.79 106.02 76.8Z" fill="#FF8B0D"/>
</svg>
