<svg width="32" height="32" viewBox="0 0 32 32" fill="none" xmlns="http://www.w3.org/2000/svg">
<path d="M9.71597 17.0461L8.93597 16.6561C8.85598 16.616 8.78853 16.5546 8.74093 16.4788C8.69333 16.403 8.66741 16.3156 8.66597 16.2261V15.2361C8.66597 14.7861 8.27597 14.4461 7.82597 14.5061C5.66597 14.8061 3.80597 16.2361 2.97597 18.2961L2.68597 19.0161C2.53597 19.3961 2.66597 19.8061 2.95597 20.1061C3.93597 21.0761 5.81597 21.9961 7.45597 21.9961H10.746V18.7161C10.746 18.0061 10.346 17.3561 9.71597 17.0461Z" fill="url(#paint0_radial_483_1183)"/>
<path d="M2.97591 20.106C3.93591 21.076 5.81591 21.996 7.45591 21.996H10.7459V20.736L10.2359 19.636H2.68591C2.73591 19.806 2.83591 19.966 2.97591 20.106Z" fill="url(#paint1_radial_483_1183)"/>
<path d="M2.97591 20.106C3.93591 21.076 5.81591 21.996 7.45591 21.996H10.7459V20.736L10.2359 19.636H2.68591C2.73591 19.806 2.83591 19.966 2.97591 20.106Z" fill="url(#paint2_linear_483_1183)"/>
<path d="M20.3559 11.4161V11.8561L23.4659 8.74609C25.9059 6.30609 24.2759 2.07609 20.8259 1.99609H20.6859C19.5885 2.00283 18.5276 2.3918 17.6859 3.09609C17.0459 3.63609 16.1459 3.76609 15.3859 3.42609C14.9059 3.21609 14.3759 3.09609 13.8159 3.09609C11.6759 3.09609 9.94593 4.82609 9.94593 6.96609V6.97609C9.94593 7.31609 9.72593 7.61609 9.39593 7.71609C8.56825 7.96432 7.84719 8.48187 7.34718 9.1866C6.84716 9.89134 6.59684 10.7429 6.63593 11.6061C6.72593 13.5861 8.33593 15.2061 10.3159 15.2961C10.8915 15.3226 11.4657 15.2204 11.9967 14.9968C12.5277 14.7733 13.0021 14.434 13.3854 14.0038C13.7686 13.5736 14.051 13.0633 14.212 12.5101C14.373 11.9569 14.4085 11.3748 14.3159 10.8061C15.3259 10.6761 16.2159 10.1461 16.8259 9.39609C17.6259 10.5261 18.8959 11.3061 20.3559 11.4161Z" fill="url(#paint3_linear_483_1183)"/>
<path d="M20.3559 11.4161V11.8561L23.4659 8.74609C25.9059 6.30609 24.2759 2.07609 20.8259 1.99609H20.6859C19.5885 2.00283 18.5276 2.3918 17.6859 3.09609C17.0459 3.63609 16.1459 3.76609 15.3859 3.42609C14.9059 3.21609 14.3759 3.09609 13.8159 3.09609C11.6759 3.09609 9.94593 4.82609 9.94593 6.96609V6.97609C9.94593 7.31609 9.72593 7.61609 9.39593 7.71609C8.56825 7.96432 7.84719 8.48187 7.34718 9.1866C6.84716 9.89134 6.59684 10.7429 6.63593 11.6061C6.72593 13.5861 8.33593 15.2061 10.3159 15.2961C10.8915 15.3226 11.4657 15.2204 11.9967 14.9968C12.5277 14.7733 13.0021 14.434 13.3854 14.0038C13.7686 13.5736 14.051 13.0633 14.212 12.5101C14.373 11.9569 14.4085 11.3748 14.3159 10.8061C15.3259 10.6761 16.2159 10.1461 16.8259 9.39609C17.6259 10.5261 18.8959 11.3061 20.3559 11.4161Z" fill="url(#paint4_radial_483_1183)"/>
<g filter="url(#filter0_f_483_1183)">
<path d="M13.953 10.33C15.7816 10.33 17.264 8.84762 17.264 7.01901C17.264 5.19039 15.7816 3.70801 13.953 3.70801C12.1244 3.70801 10.642 5.19039 10.642 7.01901C10.642 8.84762 12.1244 10.33 13.953 10.33Z" fill="url(#paint5_radial_483_1183)"/>
</g>
<path d="M7.62602 25.3961V21.9961H6.72602C6.10602 21.9961 5.55602 22.3661 5.31602 22.9361L4.54602 24.7761C4.11602 25.8361 4.88602 26.9961 6.02602 26.9961C6.91602 26.9961 7.62602 26.2761 7.62602 25.3961Z" fill="url(#paint6_linear_483_1183)"/>
<g filter="url(#filter1_i_483_1183)">
<path d="M29.016 26.6662L26.366 14.7862C25.516 10.3262 21.516 6.99618 16.766 7.20618C11.636 7.42618 7.62598 11.7262 7.62598 16.8562V27.1962C7.62598 28.7162 8.83598 29.9862 10.356 29.9962C11.296 30.0062 12.126 29.5362 12.636 28.8162C12.836 28.5362 13.246 28.5362 13.436 28.8162C13.936 29.5262 14.756 29.9962 15.696 29.9962C16.626 29.9962 17.456 29.5262 17.956 28.8162C18.156 28.5362 18.566 28.5362 18.756 28.8162C19.256 29.5262 20.076 29.9962 21.016 29.9962C21.946 29.9962 22.776 29.5262 23.276 28.8162C23.476 28.5362 23.886 28.5362 24.076 28.8162C24.576 29.5262 25.396 29.9962 26.336 29.9962C27.856 29.9962 29.086 28.7662 29.086 27.2462C29.076 27.0462 29.056 26.8462 29.016 26.6662Z" fill="#DDD2E8"/>
<path d="M29.016 26.6662L26.366 14.7862C25.516 10.3262 21.516 6.99618 16.766 7.20618C11.636 7.42618 7.62598 11.7262 7.62598 16.8562V27.1962C7.62598 28.7162 8.83598 29.9862 10.356 29.9962C11.296 30.0062 12.126 29.5362 12.636 28.8162C12.836 28.5362 13.246 28.5362 13.436 28.8162C13.936 29.5262 14.756 29.9962 15.696 29.9962C16.626 29.9962 17.456 29.5262 17.956 28.8162C18.156 28.5362 18.566 28.5362 18.756 28.8162C19.256 29.5262 20.076 29.9962 21.016 29.9962C21.946 29.9962 22.776 29.5262 23.276 28.8162C23.476 28.5362 23.886 28.5362 24.076 28.8162C24.576 29.5262 25.396 29.9962 26.336 29.9962C27.856 29.9962 29.086 28.7662 29.086 27.2462C29.076 27.0462 29.056 26.8462 29.016 26.6662Z" fill="url(#paint7_radial_483_1183)"/>
<path d="M29.016 26.6662L26.366 14.7862C25.516 10.3262 21.516 6.99618 16.766 7.20618C11.636 7.42618 7.62598 11.7262 7.62598 16.8562V27.1962C7.62598 28.7162 8.83598 29.9862 10.356 29.9962C11.296 30.0062 12.126 29.5362 12.636 28.8162C12.836 28.5362 13.246 28.5362 13.436 28.8162C13.936 29.5262 14.756 29.9962 15.696 29.9962C16.626 29.9962 17.456 29.5262 17.956 28.8162C18.156 28.5362 18.566 28.5362 18.756 28.8162C19.256 29.5262 20.076 29.9962 21.016 29.9962C21.946 29.9962 22.776 29.5262 23.276 28.8162C23.476 28.5362 23.886 28.5362 24.076 28.8162C24.576 29.5262 25.396 29.9962 26.336 29.9962C27.856 29.9962 29.086 28.7662 29.086 27.2462C29.076 27.0462 29.056 26.8462 29.016 26.6662Z" fill="url(#paint8_linear_483_1183)"/>
<path d="M29.016 26.6662L26.366 14.7862C25.516 10.3262 21.516 6.99618 16.766 7.20618C11.636 7.42618 7.62598 11.7262 7.62598 16.8562V27.1962C7.62598 28.7162 8.83598 29.9862 10.356 29.9962C11.296 30.0062 12.126 29.5362 12.636 28.8162C12.836 28.5362 13.246 28.5362 13.436 28.8162C13.936 29.5262 14.756 29.9962 15.696 29.9962C16.626 29.9962 17.456 29.5262 17.956 28.8162C18.156 28.5362 18.566 28.5362 18.756 28.8162C19.256 29.5262 20.076 29.9962 21.016 29.9962C21.946 29.9962 22.776 29.5262 23.276 28.8162C23.476 28.5362 23.886 28.5362 24.076 28.8162C24.576 29.5262 25.396 29.9962 26.336 29.9962C27.856 29.9962 29.086 28.7662 29.086 27.2462C29.076 27.0462 29.056 26.8462 29.016 26.6662Z" fill="url(#paint9_radial_483_1183)"/>
<path d="M29.016 26.6662L26.366 14.7862C25.516 10.3262 21.516 6.99618 16.766 7.20618C11.636 7.42618 7.62598 11.7262 7.62598 16.8562V27.1962C7.62598 28.7162 8.83598 29.9862 10.356 29.9962C11.296 30.0062 12.126 29.5362 12.636 28.8162C12.836 28.5362 13.246 28.5362 13.436 28.8162C13.936 29.5262 14.756 29.9962 15.696 29.9962C16.626 29.9962 17.456 29.5262 17.956 28.8162C18.156 28.5362 18.566 28.5362 18.756 28.8162C19.256 29.5262 20.076 29.9962 21.016 29.9962C21.946 29.9962 22.776 29.5262 23.276 28.8162C23.476 28.5362 23.886 28.5362 24.076 28.8162C24.576 29.5262 25.396 29.9962 26.336 29.9962C27.856 29.9962 29.086 28.7662 29.086 27.2462C29.076 27.0462 29.056 26.8462 29.016 26.6662Z" fill="url(#paint10_radial_483_1183)"/>
</g>
<path d="M29.016 26.6662L26.366 14.7862C25.516 10.3262 21.516 6.99618 16.766 7.20618C11.636 7.42618 7.62598 11.7262 7.62598 16.8562V27.1962C7.62598 28.7162 8.83598 29.9862 10.356 29.9962C11.296 30.0062 12.126 29.5362 12.636 28.8162C12.836 28.5362 13.246 28.5362 13.436 28.8162C13.936 29.5262 14.756 29.9962 15.696 29.9962C16.626 29.9962 17.456 29.5262 17.956 28.8162C18.156 28.5362 18.566 28.5362 18.756 28.8162C19.256 29.5262 20.076 29.9962 21.016 29.9962C21.946 29.9962 22.776 29.5262 23.276 28.8162C23.476 28.5362 23.886 28.5362 24.076 28.8162C24.576 29.5262 25.396 29.9962 26.336 29.9962C27.856 29.9962 29.086 28.7662 29.086 27.2462C29.076 27.0462 29.056 26.8462 29.016 26.6662Z" fill="url(#paint11_linear_483_1183)"/>
<g filter="url(#filter2_f_483_1183)">
<path d="M22.174 25.4522L19.105 8.29321C22.403 8.92821 24.27 11.3452 24.737 13.3812C25.7 17.5852 27.424 24.5712 27.685 25.4512C28.011 26.5512 27.718 27.9912 26.283 28.1822C24.848 28.3722 24.331 27.0882 23.841 26.3372C23.352 25.5862 22.527 25.4022 22.174 25.4522Z" fill="url(#paint12_linear_483_1183)"/>
</g>
<path d="M13.0559 17C13.3211 17 13.5755 16.8946 13.763 16.7071C13.9506 16.5196 14.0559 16.2652 14.0559 16C14.0559 15.7348 13.9506 15.4804 13.763 15.2929C13.5755 15.1054 13.3211 15 13.0559 15C12.7907 15 12.5363 15.1054 12.3488 15.2929C12.1613 15.4804 12.0559 15.7348 12.0559 16C12.0559 16.2652 12.1613 16.5196 12.3488 16.7071C12.5363 16.8946 12.7907 17 13.0559 17Z" fill="url(#paint13_radial_483_1183)"/>
<path d="M13.0559 17C13.3211 17 13.5755 16.8946 13.763 16.7071C13.9506 16.5196 14.0559 16.2652 14.0559 16C14.0559 15.7348 13.9506 15.4804 13.763 15.2929C13.5755 15.1054 13.3211 15 13.0559 15C12.7907 15 12.5363 15.1054 12.3488 15.2929C12.1613 15.4804 12.0559 15.7348 12.0559 16C12.0559 16.2652 12.1613 16.5196 12.3488 16.7071C12.5363 16.8946 12.7907 17 13.0559 17Z" fill="url(#paint14_radial_483_1183)"/>
<path d="M13.0559 17C13.3211 17 13.5755 16.8946 13.763 16.7071C13.9506 16.5196 14.0559 16.2652 14.0559 16C14.0559 15.7348 13.9506 15.4804 13.763 15.2929C13.5755 15.1054 13.3211 15 13.0559 15C12.7907 15 12.5363 15.1054 12.3488 15.2929C12.1613 15.4804 12.0559 15.7348 12.0559 16C12.0559 16.2652 12.1613 16.5196 12.3488 16.7071C12.5363 16.8946 12.7907 17 13.0559 17Z" fill="url(#paint15_linear_483_1183)"/>
<g filter="url(#filter3_f_483_1183)">
<path d="M23.335 7.50874C24.2313 6.99124 24.3875 5.58379 23.6839 4.3651C22.9803 3.14641 21.6833 2.57798 20.787 3.09547C19.8907 3.61296 19.7345 5.02041 20.4381 6.2391C21.1417 7.45779 22.4387 8.02623 23.335 7.50874Z" fill="url(#paint16_radial_483_1183)"/>
</g>
<g filter="url(#filter4_f_483_1183)">
<path d="M6.31397 22.7551L5.31697 24.9911C5.22497 25.2151 5.16897 25.7391 5.67697 26.0461" stroke="#D74C6D" stroke-width="0.4" stroke-linecap="round"/>
</g>
<defs>
<filter id="filter0_f_483_1183" x="9.64197" y="2.70801" width="8.62195" height="8.62207" filterUnits="userSpaceOnUse" color-interpolation-filters="sRGB">
<feFlood flood-opacity="0" result="BackgroundImageFix"/>
<feBlend mode="normal" in="SourceGraphic" in2="BackgroundImageFix" result="shape"/>
<feGaussianBlur stdDeviation="0.5" result="effect1_foregroundBlur_483_1183"/>
</filter>
<filter id="filter1_i_483_1183" x="7.62598" y="6.94678" width="21.46" height="23.0496" filterUnits="userSpaceOnUse" color-interpolation-filters="sRGB">
<feFlood flood-opacity="0" result="BackgroundImageFix"/>
<feBlend mode="normal" in="SourceGraphic" in2="BackgroundImageFix" result="shape"/>
<feColorMatrix in="SourceAlpha" type="matrix" values="0 0 0 0 0 0 0 0 0 0 0 0 0 0 0 0 0 0 127 0" result="hardAlpha"/>
<feOffset dy="-0.25"/>
<feGaussianBlur stdDeviation="0.75"/>
<feComposite in2="hardAlpha" operator="arithmetic" k2="-1" k3="1"/>
<feColorMatrix type="matrix" values="0 0 0 0 0.701961 0 0 0 0 0.623529 0 0 0 0 0.780392 0 0 0 1 0"/>
<feBlend mode="normal" in2="shape" result="effect1_innerShadow_483_1183"/>
</filter>
<filter id="filter2_f_483_1183" x="16.605" y="5.79321" width="13.7006" height="24.908" filterUnits="userSpaceOnUse" color-interpolation-filters="sRGB">
<feFlood flood-opacity="0" result="BackgroundImageFix"/>
<feBlend mode="normal" in="SourceGraphic" in2="BackgroundImageFix" result="shape"/>
<feGaussianBlur stdDeviation="1.25" result="effect1_foregroundBlur_483_1183"/>
</filter>
<filter id="filter3_f_483_1183" x="18.9977" y="1.90405" width="6.12659" height="6.7959" filterUnits="userSpaceOnUse" color-interpolation-filters="sRGB">
<feFlood flood-opacity="0" result="BackgroundImageFix"/>
<feBlend mode="normal" in="SourceGraphic" in2="BackgroundImageFix" result="shape"/>
<feGaussianBlur stdDeviation="0.5" result="effect1_foregroundBlur_483_1183"/>
</filter>
<filter id="filter4_f_483_1183" x="4.30627" y="21.8052" width="2.95776" height="5.19092" filterUnits="userSpaceOnUse" color-interpolation-filters="sRGB">
<feFlood flood-opacity="0" result="BackgroundImageFix"/>
<feBlend mode="normal" in="SourceGraphic" in2="BackgroundImageFix" result="shape"/>
<feGaussianBlur stdDeviation="0.375" result="effect1_foregroundBlur_483_1183"/>
</filter>
<radialGradient id="paint0_radial_483_1183" cx="0" cy="0" r="1" gradientUnits="userSpaceOnUse" gradientTransform="translate(5.04197 17.3461) rotate(40.075) scale(3.43047 6.49176)">
<stop stop-color="#FDDD4D"/>
<stop offset="0.88" stop-color="#F7BE1E"/>
</radialGradient>
<radialGradient id="paint1_radial_483_1183" cx="0" cy="0" r="1" gradientUnits="userSpaceOnUse" gradientTransform="translate(7.04115 19.636) rotate(117.39) scale(4.91736 9.11714)">
<stop stop-color="#E2B047"/>
<stop offset="0.653" stop-color="#C19C4B"/>
</radialGradient>
<linearGradient id="paint2_linear_483_1183" x1="6.71591" y1="19.102" x2="6.71591" y2="21.996" gradientUnits="userSpaceOnUse">
<stop stop-color="#EBB64B"/>
<stop offset="0.496" stop-color="#E4B14A" stop-opacity="0"/>
</linearGradient>
<linearGradient id="paint3_linear_483_1183" x1="15.6309" y1="19.5311" x2="15.6309" y2="1.12909" gradientUnits="userSpaceOnUse">
<stop stop-color="#ED1C26"/>
<stop offset="0.456" stop-color="#ED1452"/>
<stop offset="1" stop-color="#EC098C"/>
</linearGradient>
<radialGradient id="paint4_radial_483_1183" cx="0" cy="0" r="1" gradientUnits="userSpaceOnUse" gradientTransform="translate(7.11893 13.2761) rotate(-22.2526) scale(5.19238 7.02538)">
<stop stop-color="#E64461"/>
<stop offset="1" stop-color="#E64461" stop-opacity="0"/>
</radialGradient>
<radialGradient id="paint5_radial_483_1183" cx="0" cy="0" r="1" gradientUnits="userSpaceOnUse" gradientTransform="translate(12.2928 8.19979) rotate(-26.553) scale(5.27665)">
<stop offset="0.073" stop-color="#E44D7D" stop-opacity="0"/>
<stop offset="1" stop-color="#F86392"/>
</radialGradient>
<linearGradient id="paint6_linear_483_1183" x1="5.85802" y1="28.6681" x2="6.82802" y2="21.9961" gradientUnits="userSpaceOnUse">
<stop stop-color="#BF2241"/>
<stop offset="1" stop-color="#CA2864"/>
</linearGradient>
<radialGradient id="paint7_radial_483_1183" cx="0" cy="0" r="1" gradientUnits="userSpaceOnUse" gradientTransform="translate(27.288 3.89618) rotate(130.216) scale(14.4696 13.6195)">
<stop stop-color="#F2EFF4"/>
<stop offset="1" stop-color="#F2EFF4" stop-opacity="0"/>
</radialGradient>
<linearGradient id="paint8_linear_483_1183" x1="7.16898" y1="18.5962" x2="10.373" y2="18.5962" gradientUnits="userSpaceOnUse">
<stop stop-color="#CFCAD0"/>
<stop offset="1" stop-color="#CFCAD0" stop-opacity="0"/>
</linearGradient>
<radialGradient id="paint9_radial_483_1183" cx="0" cy="0" r="1" gradientUnits="userSpaceOnUse" gradientTransform="translate(19.26 27.8712) rotate(-97.628) scale(21.1875 14.505)">
<stop offset="0.897" stop-color="#CFCAD0" stop-opacity="0"/>
<stop offset="1" stop-color="#CFCAD0"/>
</radialGradient>
<radialGradient id="paint10_radial_483_1183" cx="0" cy="0" r="1" gradientUnits="userSpaceOnUse" gradientTransform="translate(17.03 33.3402) rotate(-89.9062) scale(9.99293 21.5097)">
<stop stop-color="#CDBCDF"/>
<stop offset="1" stop-color="#CDBCDF" stop-opacity="0"/>
</radialGradient>
<linearGradient id="paint11_linear_483_1183" x1="33.606" y1="19.6842" x2="20.18" y2="21.8262" gradientUnits="userSpaceOnUse">
<stop stop-color="#F2EFF4"/>
<stop offset="1" stop-color="#F2EFF4" stop-opacity="0"/>
</linearGradient>
<linearGradient id="paint12_linear_483_1183" x1="29.041" y1="18.2472" x2="21.084" y2="20.0942" gradientUnits="userSpaceOnUse">
<stop stop-color="#F2EFF4"/>
<stop offset="1" stop-color="#F2EFF4" stop-opacity="0"/>
</linearGradient>
<radialGradient id="paint13_radial_483_1183" cx="0" cy="0" r="1" gradientUnits="userSpaceOnUse" gradientTransform="translate(13.3525 15.6787) rotate(125.838) scale(1.38773 1.23721)">
<stop offset="0.006" stop-color="#433437"/>
<stop offset="1" stop-color="#3B2838"/>
</radialGradient>
<radialGradient id="paint14_radial_483_1183" cx="0" cy="0" r="1" gradientUnits="userSpaceOnUse" gradientTransform="translate(13.4299 15.75) rotate(137.643) scale(0.718916 0.632473)">
<stop stop-color="#5C5051"/>
<stop offset="1" stop-color="#5C5051" stop-opacity="0"/>
</radialGradient>
<linearGradient id="paint15_linear_483_1183" x1="12.8599" y1="15.215" x2="12.1719" y2="14.777" gradientUnits="userSpaceOnUse">
<stop stop-color="#5C5051" stop-opacity="0"/>
<stop offset="1" stop-color="#5C5051"/>
</linearGradient>
<radialGradient id="paint16_radial_483_1183" cx="0" cy="0" r="1" gradientUnits="userSpaceOnUse" gradientTransform="translate(23.2836 3.8016) rotate(160.007) scale(5.50433 6.39815)">
<stop stop-color="#F86392"/>
<stop offset="1" stop-color="#E44D7D" stop-opacity="0"/>
</radialGradient>
</defs>
</svg>
