<svg width="32" height="32" viewBox="0 0 32 32" fill="none" xmlns="http://www.w3.org/2000/svg">
<path d="M10.984 22.6249L2.87499 14.4529C1.55499 13.1329 2.04699 11.8129 2.62499 11.2339L11.188 2.71889C12.211 1.69489 13.375 1.89089 14.312 2.82889L22.375 10.8289L10.984 22.6249Z" fill="#8A584C"/>
<path d="M10.984 22.6249L2.87499 14.4529C1.55499 13.1329 2.04699 11.8129 2.62499 11.2339L11.188 2.71889C12.211 1.69489 13.375 1.89089 14.312 2.82889L22.375 10.8289L10.984 22.6249Z" fill="url(#paint0_radial_483_782)"/>
<path d="M10.984 22.6249L2.87499 14.4529C1.55499 13.1329 2.04699 11.8129 2.62499 11.2339L11.188 2.71889C12.211 1.69489 13.375 1.89089 14.312 2.82889L22.375 10.8289L10.984 22.6249Z" fill="url(#paint1_radial_483_782)"/>
<path d="M10.984 22.6249L2.87499 14.4529C1.55499 13.1329 2.04699 11.8129 2.62499 11.2339L11.188 2.71889C12.211 1.69489 13.375 1.89089 14.312 2.82889L22.375 10.8289L10.984 22.6249Z" fill="url(#paint2_radial_483_782)"/>
<g filter="url(#filter0_f_483_782)">
<path d="M6.46304 9.72278C6.47665 9.71001 6.49065 9.69767 6.50504 9.68578C7.03804 9.23778 7.71504 9.24778 8.23904 9.69378C9.20317 10.5839 10.1316 11.512 11.022 12.4758C11.473 12.9958 11.505 13.6868 11.026 14.2228C10.1265 15.2019 9.19191 16.1482 8.22404 17.0598C7.64404 17.5218 7.00104 17.4538 6.48404 16.9998L6.48304 16.9978C6.45604 16.9748 5.65304 16.2708 5.04704 15.6638C4.5915 15.2002 4.14899 14.724 3.72004 14.2358L3.71904 14.2338C3.25404 13.6978 3.26604 12.9788 3.70904 12.4788C4.60795 11.5412 5.52615 10.6224 6.46304 9.72278Z" fill="#824534"/>
<path d="M6.46304 9.72278C6.47665 9.71001 6.49065 9.69767 6.50504 9.68578C7.03804 9.23778 7.71504 9.24778 8.23904 9.69378C9.20317 10.5839 10.1316 11.512 11.022 12.4758C11.473 12.9958 11.505 13.6868 11.026 14.2228C10.1265 15.2019 9.19191 16.1482 8.22404 17.0598C7.64404 17.5218 7.00104 17.4538 6.48404 16.9998L6.48304 16.9978C6.45604 16.9748 5.65304 16.2708 5.04704 15.6638C4.5915 15.2002 4.14899 14.724 3.72004 14.2358L3.71904 14.2338C3.25404 13.6978 3.26604 12.9788 3.70904 12.4788C4.60795 11.5412 5.52615 10.6224 6.46304 9.72278Z" fill="url(#paint3_linear_483_782)"/>
<path d="M6.46304 9.72278C6.47665 9.71001 6.49065 9.69767 6.50504 9.68578C7.03804 9.23778 7.71504 9.24778 8.23904 9.69378C9.20317 10.5839 10.1316 11.512 11.022 12.4758C11.473 12.9958 11.505 13.6868 11.026 14.2228C10.1265 15.2019 9.19191 16.1482 8.22404 17.0598C7.64404 17.5218 7.00104 17.4538 6.48404 16.9998L6.48304 16.9978C6.45604 16.9748 5.65304 16.2708 5.04704 15.6638C4.5915 15.2002 4.14899 14.724 3.72004 14.2358L3.71904 14.2338C3.25404 13.6978 3.26604 12.9788 3.70904 12.4788C4.60795 11.5412 5.52615 10.6224 6.46304 9.72278Z" fill="#7B3E41"/>
</g>
<path d="M6.77604 9.15977C6.78933 9.14702 6.803 9.13468 6.81704 9.12277C7.35004 8.67577 8.02704 8.68577 8.55104 9.13077C9.51518 10.0209 10.4436 10.949 11.334 11.9128C11.786 12.4328 11.817 13.1248 11.338 13.6598C10.4385 14.6389 9.50392 15.5852 8.53605 16.4968C7.95605 16.9598 7.31404 16.8918 6.79704 16.4368L6.79504 16.4358C6.76804 16.4118 5.96605 15.7078 5.35905 15.1008C4.90386 14.6375 4.46169 14.1617 4.03304 13.6738L4.03105 13.6718C3.56605 13.1358 3.57804 12.4168 4.02204 11.9168C4.92096 10.9789 5.83916 10.0597 6.77604 9.15977Z" fill="#824534"/>
<path d="M6.77604 9.15977C6.78933 9.14702 6.803 9.13468 6.81704 9.12277C7.35004 8.67577 8.02704 8.68577 8.55104 9.13077C9.51518 10.0209 10.4436 10.949 11.334 11.9128C11.786 12.4328 11.817 13.1248 11.338 13.6598C10.4385 14.6389 9.50392 15.5852 8.53605 16.4968C7.95605 16.9598 7.31404 16.8918 6.79704 16.4368L6.79504 16.4358C6.76804 16.4118 5.96605 15.7078 5.35905 15.1008C4.90386 14.6375 4.46169 14.1617 4.03304 13.6738L4.03105 13.6718C3.56605 13.1358 3.57804 12.4168 4.02204 11.9168C4.92096 10.9789 5.83916 10.0597 6.77604 9.15977Z" fill="url(#paint4_linear_483_782)"/>
<path d="M6.77604 9.15977C6.78933 9.14702 6.803 9.13468 6.81704 9.12277C7.35004 8.67577 8.02704 8.68577 8.55104 9.13077C9.51518 10.0209 10.4436 10.949 11.334 11.9128C11.786 12.4328 11.817 13.1248 11.338 13.6598C10.4385 14.6389 9.50392 15.5852 8.53605 16.4968C7.95605 16.9598 7.31404 16.8918 6.79704 16.4368L6.79504 16.4358C6.76804 16.4118 5.96605 15.7078 5.35905 15.1008C4.90386 14.6375 4.46169 14.1617 4.03304 13.6738L4.03105 13.6718C3.56605 13.1358 3.57804 12.4168 4.02204 11.9168C4.92096 10.9789 5.83916 10.0597 6.77604 9.15977Z" fill="url(#paint5_linear_483_782)"/>
<path d="M6.77604 9.15977C6.78933 9.14702 6.803 9.13468 6.81704 9.12277C7.35004 8.67577 8.02704 8.68577 8.55104 9.13077C9.51518 10.0209 10.4436 10.949 11.334 11.9128C11.786 12.4328 11.817 13.1248 11.338 13.6598C10.4385 14.6389 9.50392 15.5852 8.53605 16.4968C7.95605 16.9598 7.31404 16.8918 6.79704 16.4368L6.79504 16.4358C6.76804 16.4118 5.96605 15.7078 5.35905 15.1008C4.90386 14.6375 4.46169 14.1617 4.03304 13.6738L4.03105 13.6718C3.56605 13.1358 3.57804 12.4168 4.02204 11.9168C4.92096 10.9789 5.83916 10.0597 6.77604 9.15977Z" fill="url(#paint6_linear_483_782)"/>
<path d="M6.77604 9.15977C6.78933 9.14702 6.803 9.13468 6.81704 9.12277C7.35004 8.67577 8.02704 8.68577 8.55104 9.13077C9.51518 10.0209 10.4436 10.949 11.334 11.9128C11.786 12.4328 11.817 13.1248 11.338 13.6598C10.4385 14.6389 9.50392 15.5852 8.53605 16.4968C7.95605 16.9598 7.31404 16.8918 6.79704 16.4368L6.79504 16.4358C6.76804 16.4118 5.96605 15.7078 5.35905 15.1008C4.90386 14.6375 4.46169 14.1617 4.03304 13.6738L4.03105 13.6718C3.56605 13.1358 3.57804 12.4168 4.02204 11.9168C4.92096 10.9789 5.83916 10.0597 6.77604 9.15977Z" fill="url(#paint7_linear_483_782)"/>
<g filter="url(#filter1_f_483_782)">
<path d="M4.38993 13.185C4.31394 13.0988 4.27118 12.9883 4.26935 12.8733C4.26752 12.7584 4.30673 12.6466 4.37994 12.558C4.67494 12.205 5.19294 11.604 5.79994 10.996C6.29742 10.5022 6.8166 10.0307 7.35594 9.583C7.44408 9.50986 7.55538 9.4705 7.66991 9.47196C7.78443 9.47343 7.8947 9.51563 7.98094 9.591C8.51922 10.0517 9.04346 10.5286 9.55294 11.021C10.0424 11.527 10.5163 12.0479 10.9739 12.583C11.0509 12.6717 11.0935 12.7852 11.0939 12.9026C11.0942 13.0201 11.0524 13.1338 10.9759 13.223C10.5248 13.7553 10.0558 14.2722 9.56993 14.773C9.06953 15.2586 8.5529 15.7272 8.02094 16.178C7.93154 16.2546 7.81758 16.2964 7.69988 16.2959C7.58218 16.2953 7.46861 16.2524 7.37994 16.175C6.84546 15.7171 6.32457 15.2435 5.81793 14.755C5.39794 14.335 4.75093 13.601 4.38993 13.185Z" fill="url(#paint8_linear_483_782)"/>
<path d="M4.38993 13.185C4.31394 13.0988 4.27118 12.9883 4.26935 12.8733C4.26752 12.7584 4.30673 12.6466 4.37994 12.558C4.67494 12.205 5.19294 11.604 5.79994 10.996C6.29742 10.5022 6.8166 10.0307 7.35594 9.583C7.44408 9.50986 7.55538 9.4705 7.66991 9.47196C7.78443 9.47343 7.8947 9.51563 7.98094 9.591C8.51922 10.0517 9.04346 10.5286 9.55294 11.021C10.0424 11.527 10.5163 12.0479 10.9739 12.583C11.0509 12.6717 11.0935 12.7852 11.0939 12.9026C11.0942 13.0201 11.0524 13.1338 10.9759 13.223C10.5248 13.7553 10.0558 14.2722 9.56993 14.773C9.06953 15.2586 8.5529 15.7272 8.02094 16.178C7.93154 16.2546 7.81758 16.2964 7.69988 16.2959C7.58218 16.2953 7.46861 16.2524 7.37994 16.175C6.84546 15.7171 6.32457 15.2435 5.81793 14.755C5.39794 14.335 4.75093 13.601 4.38993 13.185Z" fill="url(#paint9_linear_483_782)"/>
<path d="M4.38993 13.185C4.31394 13.0988 4.27118 12.9883 4.26935 12.8733C4.26752 12.7584 4.30673 12.6466 4.37994 12.558C4.67494 12.205 5.19294 11.604 5.79994 10.996C6.29742 10.5022 6.8166 10.0307 7.35594 9.583C7.44408 9.50986 7.55538 9.4705 7.66991 9.47196C7.78443 9.47343 7.8947 9.51563 7.98094 9.591C8.51922 10.0517 9.04346 10.5286 9.55294 11.021C10.0424 11.527 10.5163 12.0479 10.9739 12.583C11.0509 12.6717 11.0935 12.7852 11.0939 12.9026C11.0942 13.0201 11.0524 13.1338 10.9759 13.223C10.5248 13.7553 10.0558 14.2722 9.56993 14.773C9.06953 15.2586 8.5529 15.7272 8.02094 16.178C7.93154 16.2546 7.81758 16.2964 7.69988 16.2959C7.58218 16.2953 7.46861 16.2524 7.37994 16.175C6.84546 15.7171 6.32457 15.2435 5.81793 14.755C5.39794 14.335 4.75093 13.601 4.38993 13.185Z" fill="url(#paint10_linear_483_782)"/>
</g>
<path d="M11.963 4.00478C11.9766 3.99167 11.9906 3.979 12.005 3.96678C12.537 3.51878 13.215 3.52878 13.739 3.97478C14.7032 4.86488 15.6316 5.79294 16.522 6.75678C16.973 7.27678 17.005 7.96778 16.526 8.50378C15.6264 9.48282 14.6918 10.4291 13.724 11.3408C13.144 11.8028 12.501 11.7348 11.984 11.2808L11.983 11.2788C11.4922 10.8474 11.0134 10.4026 10.547 9.94478C10.0915 9.48123 9.64899 9.00504 9.22004 8.51678L9.21904 8.51478C8.75404 7.97878 8.76604 7.26078 9.20904 6.75978C10.108 5.82231 11.0262 4.90445 11.963 4.00478Z" fill="#824534"/>
<path d="M11.963 4.00478C11.9766 3.99167 11.9906 3.979 12.005 3.96678C12.537 3.51878 13.215 3.52878 13.739 3.97478C14.7032 4.86488 15.6316 5.79294 16.522 6.75678C16.973 7.27678 17.005 7.96778 16.526 8.50378C15.6264 9.48282 14.6918 10.4291 13.724 11.3408C13.144 11.8028 12.501 11.7348 11.984 11.2808L11.983 11.2788C11.4922 10.8474 11.0134 10.4026 10.547 9.94478C10.0915 9.48123 9.64899 9.00504 9.22004 8.51678L9.21904 8.51478C8.75404 7.97878 8.76604 7.26078 9.20904 6.75978C10.108 5.82231 11.0262 4.90445 11.963 4.00478Z" fill="url(#paint11_linear_483_782)"/>
<path d="M11.963 4.00478C11.9766 3.99167 11.9906 3.979 12.005 3.96678C12.537 3.51878 13.215 3.52878 13.739 3.97478C14.7032 4.86488 15.6316 5.79294 16.522 6.75678C16.973 7.27678 17.005 7.96778 16.526 8.50378C15.6264 9.48282 14.6918 10.4291 13.724 11.3408C13.144 11.8028 12.501 11.7348 11.984 11.2808L11.983 11.2788C11.4922 10.8474 11.0134 10.4026 10.547 9.94478C10.0915 9.48123 9.64899 9.00504 9.22004 8.51678L9.21904 8.51478C8.75404 7.97878 8.76604 7.26078 9.20904 6.75978C10.108 5.82231 11.0262 4.90445 11.963 4.00478Z" fill="url(#paint12_linear_483_782)"/>
<path d="M11.963 4.00478C11.9766 3.99167 11.9906 3.979 12.005 3.96678C12.537 3.51878 13.215 3.52878 13.739 3.97478C14.7032 4.86488 15.6316 5.79294 16.522 6.75678C16.973 7.27678 17.005 7.96778 16.526 8.50378C15.6264 9.48282 14.6918 10.4291 13.724 11.3408C13.144 11.8028 12.501 11.7348 11.984 11.2808L11.983 11.2788C11.4922 10.8474 11.0134 10.4026 10.547 9.94478C10.0915 9.48123 9.64899 9.00504 9.22004 8.51678L9.21904 8.51478C8.75404 7.97878 8.76604 7.26078 9.20904 6.75978C10.108 5.82231 11.0262 4.90445 11.963 4.00478Z" fill="url(#paint13_linear_483_782)"/>
<path d="M11.963 4.00478C11.9766 3.99167 11.9906 3.979 12.005 3.96678C12.537 3.51878 13.215 3.52878 13.739 3.97478C14.7032 4.86488 15.6316 5.79294 16.522 6.75678C16.973 7.27678 17.005 7.96778 16.526 8.50378C15.6264 9.48282 14.6918 10.4291 13.724 11.3408C13.144 11.8028 12.501 11.7348 11.984 11.2808L11.983 11.2788C11.4922 10.8474 11.0134 10.4026 10.547 9.94478C10.0915 9.48123 9.64899 9.00504 9.22004 8.51678L9.21904 8.51478C8.75404 7.97878 8.76604 7.26078 9.20904 6.75978C10.108 5.82231 11.0262 4.90445 11.963 4.00478Z" fill="url(#paint14_linear_483_782)"/>
<g filter="url(#filter2_f_483_782)">
<path d="M9.58004 8.02584C9.50447 7.93925 9.46225 7.82856 9.46097 7.71363C9.45968 7.59871 9.49942 7.4871 9.57304 7.39884C9.87604 7.03584 10.417 6.41084 11.051 5.77684C11.5676 5.26348 12.1061 4.77269 12.665 4.30584C12.7531 4.2323 12.8646 4.19259 12.9793 4.19388C13.0941 4.19516 13.2046 4.23735 13.291 4.31284C13.699 4.66284 14.417 5.29184 14.865 5.73984C15.3547 6.24608 15.8283 6.76767 16.285 7.30384C16.3618 7.39281 16.404 7.50637 16.404 7.62384C16.404 7.74132 16.3618 7.85488 16.285 7.94384C15.932 8.35384 15.305 9.06984 14.82 9.55384C14.2998 10.0592 13.7632 10.5475 13.211 11.0178C13.1218 11.095 13.0078 11.1373 12.8899 11.1371C12.7719 11.1369 12.658 11.0942 12.569 11.0168C12.151 10.6548 11.422 10.0168 11.006 9.59984C10.586 9.17984 9.94104 8.44284 9.58004 8.02584Z" fill="url(#paint15_linear_483_782)"/>
<path d="M9.58004 8.02584C9.50447 7.93925 9.46225 7.82856 9.46097 7.71363C9.45968 7.59871 9.49942 7.4871 9.57304 7.39884C9.87604 7.03584 10.417 6.41084 11.051 5.77684C11.5676 5.26348 12.1061 4.77269 12.665 4.30584C12.7531 4.2323 12.8646 4.19259 12.9793 4.19388C13.0941 4.19516 13.2046 4.23735 13.291 4.31284C13.699 4.66284 14.417 5.29184 14.865 5.73984C15.3547 6.24608 15.8283 6.76767 16.285 7.30384C16.3618 7.39281 16.404 7.50637 16.404 7.62384C16.404 7.74132 16.3618 7.85488 16.285 7.94384C15.932 8.35384 15.305 9.06984 14.82 9.55384C14.2998 10.0592 13.7632 10.5475 13.211 11.0178C13.1218 11.095 13.0078 11.1373 12.8899 11.1371C12.7719 11.1369 12.658 11.0942 12.569 11.0168C12.151 10.6548 11.422 10.0168 11.006 9.59984C10.586 9.17984 9.94104 8.44284 9.58004 8.02584Z" fill="url(#paint16_linear_483_782)"/>
<path d="M9.58004 8.02584C9.50447 7.93925 9.46225 7.82856 9.46097 7.71363C9.45968 7.59871 9.49942 7.4871 9.57304 7.39884C9.87604 7.03584 10.417 6.41084 11.051 5.77684C11.5676 5.26348 12.1061 4.77269 12.665 4.30584C12.7531 4.2323 12.8646 4.19259 12.9793 4.19388C13.0941 4.19516 13.2046 4.23735 13.291 4.31284C13.699 4.66284 14.417 5.29184 14.865 5.73984C15.3547 6.24608 15.8283 6.76767 16.285 7.30384C16.3618 7.39281 16.404 7.50637 16.404 7.62384C16.404 7.74132 16.3618 7.85488 16.285 7.94384C15.932 8.35384 15.305 9.06984 14.82 9.55384C14.2998 10.0592 13.7632 10.5475 13.211 11.0178C13.1218 11.095 13.0078 11.1373 12.8899 11.1371C12.7719 11.1369 12.658 11.0942 12.569 11.0168C12.151 10.6548 11.422 10.0168 11.006 9.59984C10.586 9.17984 9.94104 8.44284 9.58004 8.02584Z" fill="url(#paint17_linear_483_782)"/>
</g>
<g filter="url(#filter3_f_483_782)">
<path d="M17.09 9.92785C17.1036 9.91508 17.1176 9.90274 17.132 9.89085C17.665 9.44285 18.342 9.45285 18.866 9.89885C19.8301 10.789 20.7585 11.7171 21.649 12.6809C22.1 13.2009 22.132 13.8919 21.653 14.4279L21.631 14.4529C21.2046 14.9386 20.763 15.4108 20.307 15.8689C19.8302 16.343 19.3448 16.8085 18.851 17.2649C18.271 17.7269 17.628 17.6589 17.111 17.2049L17.11 17.2029C17.083 17.1799 16.28 16.4759 15.674 15.8689C15.2188 15.4053 14.7766 14.9291 14.348 14.4409L14.346 14.4389C13.881 13.9029 13.893 13.1839 14.336 12.6839C15.2346 11.7464 16.1535 10.8275 17.09 9.92785Z" fill="#824534"/>
<path d="M17.09 9.92785C17.1036 9.91508 17.1176 9.90274 17.132 9.89085C17.665 9.44285 18.342 9.45285 18.866 9.89885C19.8301 10.789 20.7585 11.7171 21.649 12.6809C22.1 13.2009 22.132 13.8919 21.653 14.4279L21.631 14.4529C21.2046 14.9386 20.763 15.4108 20.307 15.8689C19.8302 16.343 19.3448 16.8085 18.851 17.2649C18.271 17.7269 17.628 17.6589 17.111 17.2049L17.11 17.2029C17.083 17.1799 16.28 16.4759 15.674 15.8689C15.2188 15.4053 14.7766 14.9291 14.348 14.4409L14.346 14.4389C13.881 13.9029 13.893 13.1839 14.336 12.6839C15.2346 11.7464 16.1535 10.8275 17.09 9.92785Z" fill="url(#paint18_linear_483_782)"/>
<path d="M17.09 9.92785C17.1036 9.91508 17.1176 9.90274 17.132 9.89085C17.665 9.44285 18.342 9.45285 18.866 9.89885C19.8301 10.789 20.7585 11.7171 21.649 12.6809C22.1 13.2009 22.132 13.8919 21.653 14.4279L21.631 14.4529C21.2046 14.9386 20.763 15.4108 20.307 15.8689C19.8302 16.343 19.3448 16.8085 18.851 17.2649C18.271 17.7269 17.628 17.6589 17.111 17.2049L17.11 17.2029C17.083 17.1799 16.28 16.4759 15.674 15.8689C15.2188 15.4053 14.7766 14.9291 14.348 14.4409L14.346 14.4389C13.881 13.9029 13.893 13.1839 14.336 12.6839C15.2346 11.7464 16.1535 10.8275 17.09 9.92785Z" fill="url(#paint19_linear_483_782)"/>
<path d="M17.09 9.92785C17.1036 9.91508 17.1176 9.90274 17.132 9.89085C17.665 9.44285 18.342 9.45285 18.866 9.89885C19.8301 10.789 20.7585 11.7171 21.649 12.6809C22.1 13.2009 22.132 13.8919 21.653 14.4279L21.631 14.4529C21.2046 14.9386 20.763 15.4108 20.307 15.8689C19.8302 16.343 19.3448 16.8085 18.851 17.2649C18.271 17.7269 17.628 17.6589 17.111 17.2049L17.11 17.2029C17.083 17.1799 16.28 16.4759 15.674 15.8689C15.2188 15.4053 14.7766 14.9291 14.348 14.4409L14.346 14.4389C13.881 13.9029 13.893 13.1839 14.336 12.6839C15.2346 11.7464 16.1535 10.8275 17.09 9.92785Z" fill="url(#paint20_linear_483_782)"/>
<path d="M17.09 9.92785C17.1036 9.91508 17.1176 9.90274 17.132 9.89085C17.665 9.44285 18.342 9.45285 18.866 9.89885C19.8301 10.789 20.7585 11.7171 21.649 12.6809C22.1 13.2009 22.132 13.8919 21.653 14.4279L21.631 14.4529C21.2046 14.9386 20.763 15.4108 20.307 15.8689C19.8302 16.343 19.3448 16.8085 18.851 17.2649C18.271 17.7269 17.628 17.6589 17.111 17.2049L17.11 17.2029C17.083 17.1799 16.28 16.4759 15.674 15.8689C15.2188 15.4053 14.7766 14.9291 14.348 14.4409L14.346 14.4389C13.881 13.9029 13.893 13.1839 14.336 12.6839C15.2346 11.7464 16.1535 10.8275 17.09 9.92785Z" fill="#613534"/>
</g>
<path d="M17.494 9.47278C17.5076 9.46 17.5217 9.44766 17.536 9.43578C18.069 8.98778 18.746 8.99778 19.27 9.44378C20.2291 10.3293 21.1528 11.2524 22.039 12.2108L22.053 12.2258C22.505 12.7458 22.536 13.4368 22.057 13.9728L22.035 13.9978C21.952 14.0938 21.388 14.7368 20.711 15.4138C20.2343 15.888 19.7489 16.3534 19.255 16.8098C18.675 17.2718 18.032 17.2038 17.515 16.7498L17.514 16.7478C17.0232 16.3164 16.5444 15.8715 16.078 15.4138C15.6226 14.9504 15.1805 14.4742 14.752 13.9858L14.75 13.9838C14.285 13.4478 14.297 12.7288 14.74 12.2288C15.6387 11.2913 16.5576 10.3725 17.494 9.47278Z" fill="#824534"/>
<path d="M17.494 9.47278C17.5076 9.46 17.5217 9.44766 17.536 9.43578C18.069 8.98778 18.746 8.99778 19.27 9.44378C20.2291 10.3293 21.1528 11.2524 22.039 12.2108L22.053 12.2258C22.505 12.7458 22.536 13.4368 22.057 13.9728L22.035 13.9978C21.952 14.0938 21.388 14.7368 20.711 15.4138C20.2343 15.888 19.7489 16.3534 19.255 16.8098C18.675 17.2718 18.032 17.2038 17.515 16.7498L17.514 16.7478C17.0232 16.3164 16.5444 15.8715 16.078 15.4138C15.6226 14.9504 15.1805 14.4742 14.752 13.9858L14.75 13.9838C14.285 13.4478 14.297 12.7288 14.74 12.2288C15.6387 11.2913 16.5576 10.3725 17.494 9.47278Z" fill="url(#paint21_linear_483_782)"/>
<path d="M17.494 9.47278C17.5076 9.46 17.5217 9.44766 17.536 9.43578C18.069 8.98778 18.746 8.99778 19.27 9.44378C20.2291 10.3293 21.1528 11.2524 22.039 12.2108L22.053 12.2258C22.505 12.7458 22.536 13.4368 22.057 13.9728L22.035 13.9978C21.952 14.0938 21.388 14.7368 20.711 15.4138C20.2343 15.888 19.7489 16.3534 19.255 16.8098C18.675 17.2718 18.032 17.2038 17.515 16.7498L17.514 16.7478C17.0232 16.3164 16.5444 15.8715 16.078 15.4138C15.6226 14.9504 15.1805 14.4742 14.752 13.9858L14.75 13.9838C14.285 13.4478 14.297 12.7288 14.74 12.2288C15.6387 11.2913 16.5576 10.3725 17.494 9.47278Z" fill="url(#paint22_linear_483_782)"/>
<path d="M17.494 9.47278C17.5076 9.46 17.5217 9.44766 17.536 9.43578C18.069 8.98778 18.746 8.99778 19.27 9.44378C20.2291 10.3293 21.1528 11.2524 22.039 12.2108L22.053 12.2258C22.505 12.7458 22.536 13.4368 22.057 13.9728L22.035 13.9978C21.952 14.0938 21.388 14.7368 20.711 15.4138C20.2343 15.888 19.7489 16.3534 19.255 16.8098C18.675 17.2718 18.032 17.2038 17.515 16.7498L17.514 16.7478C17.0232 16.3164 16.5444 15.8715 16.078 15.4138C15.6226 14.9504 15.1805 14.4742 14.752 13.9858L14.75 13.9838C14.285 13.4478 14.297 12.7288 14.74 12.2288C15.6387 11.2913 16.5576 10.3725 17.494 9.47278Z" fill="url(#paint23_linear_483_782)"/>
<path d="M17.494 9.47278C17.5076 9.46 17.5217 9.44766 17.536 9.43578C18.069 8.98778 18.746 8.99778 19.27 9.44378C20.2291 10.3293 21.1528 11.2524 22.039 12.2108L22.053 12.2258C22.505 12.7458 22.536 13.4368 22.057 13.9728L22.035 13.9978C21.952 14.0938 21.388 14.7368 20.711 15.4138C20.2343 15.888 19.7489 16.3534 19.255 16.8098C18.675 17.2718 18.032 17.2038 17.515 16.7498L17.514 16.7478C17.0232 16.3164 16.5444 15.8715 16.078 15.4138C15.6226 14.9504 15.1805 14.4742 14.752 13.9858L14.75 13.9838C14.285 13.4478 14.297 12.7288 14.74 12.2288C15.6387 11.2913 16.5576 10.3725 17.494 9.47278Z" fill="url(#paint24_linear_483_782)"/>
<g filter="url(#filter4_f_483_782)">
<path d="M15.1089 13.4968C15.0329 13.4105 14.9902 13.3 14.9883 13.1851C14.9865 13.0702 15.0257 12.9584 15.0989 12.8698C15.5491 12.3288 16.0229 11.808 16.5189 11.3088C17.0161 10.8147 17.5349 10.3429 18.0739 9.89477C18.1622 9.82177 18.2736 9.78258 18.3881 9.78423C18.5026 9.78588 18.6128 9.82826 18.6989 9.90377C19.1059 10.2558 19.8229 10.8848 20.2709 11.3338C20.7607 11.8398 21.235 12.3607 21.6929 12.8958C21.7699 12.9845 21.8125 13.0979 21.8129 13.2154C21.8132 13.3329 21.7714 13.4466 21.6949 13.5358C21.3529 13.9358 20.7539 14.6208 20.2889 15.0858C19.7882 15.5714 19.2712 16.04 18.7389 16.4908C18.6496 16.5671 18.5358 16.6087 18.4184 16.6082C18.3009 16.6076 18.1875 16.5649 18.0989 16.4878C17.6809 16.1248 16.9539 15.4848 16.5369 15.0678C16.1169 14.6478 15.4699 13.9128 15.1089 13.4968Z" fill="url(#paint25_linear_483_782)"/>
<path d="M15.1089 13.4968C15.0329 13.4105 14.9902 13.3 14.9883 13.1851C14.9865 13.0702 15.0257 12.9584 15.0989 12.8698C15.5491 12.3288 16.0229 11.808 16.5189 11.3088C17.0161 10.8147 17.5349 10.3429 18.0739 9.89477C18.1622 9.82177 18.2736 9.78258 18.3881 9.78423C18.5026 9.78588 18.6128 9.82826 18.6989 9.90377C19.1059 10.2558 19.8229 10.8848 20.2709 11.3338C20.7607 11.8398 21.235 12.3607 21.6929 12.8958C21.7699 12.9845 21.8125 13.0979 21.8129 13.2154C21.8132 13.3329 21.7714 13.4466 21.6949 13.5358C21.3529 13.9358 20.7539 14.6208 20.2889 15.0858C19.7882 15.5714 19.2712 16.04 18.7389 16.4908C18.6496 16.5671 18.5358 16.6087 18.4184 16.6082C18.3009 16.6076 18.1875 16.5649 18.0989 16.4878C17.6809 16.1248 16.9539 15.4848 16.5369 15.0678C16.1169 14.6478 15.4699 13.9128 15.1089 13.4968Z" fill="url(#paint26_linear_483_782)"/>
<path d="M15.1089 13.4968C15.0329 13.4105 14.9902 13.3 14.9883 13.1851C14.9865 13.0702 15.0257 12.9584 15.0989 12.8698C15.5491 12.3288 16.0229 11.808 16.5189 11.3088C17.0161 10.8147 17.5349 10.3429 18.0739 9.89477C18.1622 9.82177 18.2736 9.78258 18.3881 9.78423C18.5026 9.78588 18.6128 9.82826 18.6989 9.90377C19.1059 10.2558 19.8229 10.8848 20.2709 11.3338C20.7607 11.8398 21.235 12.3607 21.6929 12.8958C21.7699 12.9845 21.8125 13.0979 21.8129 13.2154C21.8132 13.3329 21.7714 13.4466 21.6949 13.5358C21.3529 13.9358 20.7539 14.6208 20.2889 15.0858C19.7882 15.5714 19.2712 16.04 18.7389 16.4908C18.6496 16.5671 18.5358 16.6087 18.4184 16.6082C18.3009 16.6076 18.1875 16.5649 18.0989 16.4878C17.6809 16.1248 16.9539 15.4848 16.5369 15.0678C16.1169 14.6478 15.4699 13.9128 15.1089 13.4968Z" fill="url(#paint27_linear_483_782)"/>
</g>
<g filter="url(#filter5_f_483_782)">
<path d="M11.963 15.1579C11.9766 15.1447 11.9906 15.1321 12.005 15.1199C12.537 14.6719 13.215 14.6819 13.739 15.1279C14.7032 16.018 15.6316 16.9461 16.522 17.9099C16.973 18.4299 17.005 19.1219 16.526 19.6569C15.6264 20.6359 14.6918 21.5822 13.724 22.4939C13.144 22.9559 12.501 22.8889 11.984 22.4339L11.983 22.4329C11.4922 22.0011 11.0133 21.556 10.547 21.0979C10.0915 20.6346 9.64902 20.1588 9.22004 19.6709L9.21904 19.6679C8.75404 19.1329 8.76604 18.4139 9.20904 17.9129C10.1079 16.9753 11.0261 16.0564 11.963 15.1569" fill="url(#paint28_linear_483_782)"/>
</g>
<path d="M12.323 14.6769C12.3363 14.6638 12.35 14.6511 12.364 14.6389C12.897 14.1909 13.574 14.2009 14.098 14.6469C15.0622 15.537 15.9906 16.4651 16.881 17.4289C17.333 17.9489 17.364 18.6399 16.885 19.1759C15.9853 20.1552 15.0507 21.1018 14.083 22.0139C13.503 22.4749 12.86 22.4069 12.344 21.9539C12.344 21.9519 12.342 21.9509 12.342 21.9509C11.8512 21.5195 11.3723 21.0747 10.906 20.6169C10.4509 20.1537 10.0087 19.6778 9.58004 19.1899L9.57804 19.1879C9.11304 18.6519 9.12504 17.9329 9.56804 17.4329C10.4668 16.4952 11.385 15.5764 12.322 14.6769" fill="#824534"/>
<path d="M12.323 14.6769C12.3363 14.6638 12.35 14.6511 12.364 14.6389C12.897 14.1909 13.574 14.2009 14.098 14.6469C15.0622 15.537 15.9906 16.4651 16.881 17.4289C17.333 17.9489 17.364 18.6399 16.885 19.1759C15.9853 20.1552 15.0507 21.1018 14.083 22.0139C13.503 22.4749 12.86 22.4069 12.344 21.9539C12.344 21.9519 12.342 21.9509 12.342 21.9509C11.8512 21.5195 11.3723 21.0747 10.906 20.6169C10.4509 20.1537 10.0087 19.6778 9.58004 19.1899L9.57804 19.1879C9.11304 18.6519 9.12504 17.9329 9.56804 17.4329C10.4668 16.4952 11.385 15.5764 12.322 14.6769" fill="url(#paint29_linear_483_782)"/>
<path d="M12.323 14.6769C12.3363 14.6638 12.35 14.6511 12.364 14.6389C12.897 14.1909 13.574 14.2009 14.098 14.6469C15.0622 15.537 15.9906 16.4651 16.881 17.4289C17.333 17.9489 17.364 18.6399 16.885 19.1759C15.9853 20.1552 15.0507 21.1018 14.083 22.0139C13.503 22.4749 12.86 22.4069 12.344 21.9539C12.344 21.9519 12.342 21.9509 12.342 21.9509C11.8512 21.5195 11.3723 21.0747 10.906 20.6169C10.4509 20.1537 10.0087 19.6778 9.58004 19.1899L9.57804 19.1879C9.11304 18.6519 9.12504 17.9329 9.56804 17.4329C10.4668 16.4952 11.385 15.5764 12.322 14.6769" fill="url(#paint30_linear_483_782)"/>
<path d="M12.323 14.6769C12.3363 14.6638 12.35 14.6511 12.364 14.6389C12.897 14.1909 13.574 14.2009 14.098 14.6469C15.0622 15.537 15.9906 16.4651 16.881 17.4289C17.333 17.9489 17.364 18.6399 16.885 19.1759C15.9853 20.1552 15.0507 21.1018 14.083 22.0139C13.503 22.4749 12.86 22.4069 12.344 21.9539C12.344 21.9519 12.342 21.9509 12.342 21.9509C11.8512 21.5195 11.3723 21.0747 10.906 20.6169C10.4509 20.1537 10.0087 19.6778 9.58004 19.1899L9.57804 19.1879C9.11304 18.6519 9.12504 17.9329 9.56804 17.4329C10.4668 16.4952 11.385 15.5764 12.322 14.6769" fill="url(#paint31_linear_483_782)"/>
<path d="M12.323 14.6769C12.3363 14.6638 12.35 14.6511 12.364 14.6389C12.897 14.1909 13.574 14.2009 14.098 14.6469C15.0622 15.537 15.9906 16.4651 16.881 17.4289C17.333 17.9489 17.364 18.6399 16.885 19.1759C15.9853 20.1552 15.0507 21.1018 14.083 22.0139C13.503 22.4749 12.86 22.4069 12.344 21.9539C12.344 21.9519 12.342 21.9509 12.342 21.9509C11.8512 21.5195 11.3723 21.0747 10.906 20.6169C10.4509 20.1537 10.0087 19.6778 9.58004 19.1899L9.57804 19.1879C9.11304 18.6519 9.12504 17.9329 9.56804 17.4329C10.4668 16.4952 11.385 15.5764 12.322 14.6769" fill="url(#paint32_linear_483_782)"/>
<g filter="url(#filter6_f_483_782)">
<path d="M9.93693 18.7C9.86094 18.6137 9.81818 18.5032 9.81635 18.3883C9.81451 18.2734 9.85372 18.1616 9.92693 18.073C10.2219 17.72 10.7399 17.119 11.3469 16.512C11.8444 16.0178 12.3635 15.546 12.9029 15.098C12.9911 15.0252 13.1023 14.9862 13.2166 14.9878C13.3309 14.9895 13.4409 15.0317 13.5269 15.107C13.9349 15.459 14.6509 16.088 15.0999 16.537C15.5894 17.043 16.0633 17.5639 16.5209 18.099C16.5979 18.1877 16.6405 18.3011 16.6409 18.4186C16.6412 18.5361 16.5994 18.6498 16.5229 18.739C16.1809 19.139 15.5819 19.824 15.1169 20.289C14.6165 20.7745 14.0999 21.2431 13.5679 21.694C13.4785 21.7705 13.3646 21.8124 13.2469 21.8118C13.1292 21.8113 13.0156 21.7684 12.9269 21.691C12.5089 21.328 11.7819 20.688 11.3649 20.271C10.9449 19.851 10.2979 19.115 9.93693 18.7Z" fill="url(#paint33_linear_483_782)"/>
<path d="M9.93693 18.7C9.86094 18.6137 9.81818 18.5032 9.81635 18.3883C9.81451 18.2734 9.85372 18.1616 9.92693 18.073C10.2219 17.72 10.7399 17.119 11.3469 16.512C11.8444 16.0178 12.3635 15.546 12.9029 15.098C12.9911 15.0252 13.1023 14.9862 13.2166 14.9878C13.3309 14.9895 13.4409 15.0317 13.5269 15.107C13.9349 15.459 14.6509 16.088 15.0999 16.537C15.5894 17.043 16.0633 17.5639 16.5209 18.099C16.5979 18.1877 16.6405 18.3011 16.6409 18.4186C16.6412 18.5361 16.5994 18.6498 16.5229 18.739C16.1809 19.139 15.5819 19.824 15.1169 20.289C14.6165 20.7745 14.0999 21.2431 13.5679 21.694C13.4785 21.7705 13.3646 21.8124 13.2469 21.8118C13.1292 21.8113 13.0156 21.7684 12.9269 21.691C12.5089 21.328 11.7819 20.688 11.3649 20.271C10.9449 19.851 10.2979 19.115 9.93693 18.7Z" fill="url(#paint34_linear_483_782)"/>
<path d="M9.93693 18.7C9.86094 18.6137 9.81818 18.5032 9.81635 18.3883C9.81451 18.2734 9.85372 18.1616 9.92693 18.073C10.2219 17.72 10.7399 17.119 11.3469 16.512C11.8444 16.0178 12.3635 15.546 12.9029 15.098C12.9911 15.0252 13.1023 14.9862 13.2166 14.9878C13.3309 14.9895 13.4409 15.0317 13.5269 15.107C13.9349 15.459 14.6509 16.088 15.0999 16.537C15.5894 17.043 16.0633 17.5639 16.5209 18.099C16.5979 18.1877 16.6405 18.3011 16.6409 18.4186C16.6412 18.5361 16.5994 18.6498 16.5229 18.739C16.1809 19.139 15.5819 19.824 15.1169 20.289C14.6165 20.7745 14.0999 21.2431 13.5679 21.694C13.4785 21.7705 13.3646 21.8124 13.2469 21.8118C13.1292 21.8113 13.0156 21.7684 12.9269 21.691C12.5089 21.328 11.7819 20.688 11.3649 20.271C10.9449 19.851 10.2979 19.115 9.93693 18.7Z" fill="url(#paint35_linear_483_782)"/>
</g>
<path d="M10.2579 21.783C10.2579 21.783 16.5549 28.346 17.6639 29.33C18.7739 30.314 19.9919 30.127 20.9449 29.33C21.8979 28.533 28.3199 22.096 29.3349 21.033C30.3519 19.971 30.0699 18.549 29.1799 17.658C28.2889 16.768 21.7099 10.252 21.7099 10.252L10.2579 21.783Z" fill="url(#paint36_linear_483_782)"/>
<path d="M10.2579 21.783C10.2579 21.783 16.5549 28.346 17.6639 29.33C18.7739 30.314 19.9919 30.127 20.9449 29.33C21.8979 28.533 28.3199 22.096 29.3349 21.033C30.3519 19.971 30.0699 18.549 29.1799 17.658C28.2889 16.768 21.7099 10.252 21.7099 10.252L10.2579 21.783Z" fill="url(#paint37_linear_483_782)"/>
<g filter="url(#filter7_f_483_782)">
<path d="M12.1329 21.5228C12.1329 21.5228 16.8589 26.4978 17.8979 27.4198C18.9369 28.3418 19.3759 28.8688 20.2679 28.1228C21.1619 27.3758 27.1779 21.3458 28.1279 20.3508C29.0799 19.3558 28.6579 18.7408 27.8229 17.9068C26.9899 17.0718 21.9999 12.1418 21.9999 12.1418L12.1329 21.5228Z" fill="#D3245A"/>
<path d="M12.1329 21.5228C12.1329 21.5228 16.8589 26.4978 17.8979 27.4198C18.9369 28.3418 19.3759 28.8688 20.2679 28.1228C21.1619 27.3758 27.1779 21.3458 28.1279 20.3508C29.0799 19.3558 28.6579 18.7408 27.8229 17.9068C26.9899 17.0718 21.9999 12.1418 21.9999 12.1418L12.1329 21.5228Z" fill="url(#paint38_linear_483_782)"/>
<path d="M12.1329 21.5228C12.1329 21.5228 16.8589 26.4978 17.8979 27.4198C18.9369 28.3418 19.3759 28.8688 20.2679 28.1228C21.1619 27.3758 27.1779 21.3458 28.1279 20.3508C29.0799 19.3558 28.6579 18.7408 27.8229 17.9068C26.9899 17.0718 21.9999 12.1418 21.9999 12.1418L12.1329 21.5228Z" fill="url(#paint39_linear_483_782)"/>
</g>
<g filter="url(#filter8_f_483_782)">
<path d="M22.49 12.0858C22.49 12.0858 14.133 23.4298 13.82 23.7428C13.507 24.0558 13.25 24.1128 12.823 23.8428C12.396 23.5718 11.087 22.0338 10.873 21.7928C10.659 21.5498 10.666 21.2498 10.948 20.9868C11.228 20.7238 21.154 10.8408 21.154 10.8408C21.314 10.6808 21.603 10.7218 21.73 10.8408C21.73 10.8408 22.314 11.3388 22.492 11.5168C22.67 11.6948 22.582 11.9588 22.492 12.0868" fill="#572916"/>
</g>
<path d="M23.227 11.5468C23.227 11.5468 13.719 24.4528 13.375 24.7968C13.031 25.1408 12.75 25.2028 12.281 24.9068C11.812 24.6088 10.375 22.9218 10.141 22.6568C9.90596 22.3908 9.91396 22.0608 10.223 21.7728C10.531 21.4838 21.758 10.1798 21.758 10.1798C21.934 10.0038 22.251 10.0498 22.391 10.1798C22.391 10.1798 23.031 10.7268 23.227 10.9218C23.422 11.1168 23.327 11.4068 23.227 11.5468Z" fill="url(#paint40_linear_483_782)"/>
<g filter="url(#filter9_f_483_782)">
<path d="M22.875 11.2808C22.875 10.8278 22.375 10.3438 21.922 10.4998C21.469 10.6558 16.5 16.2808 16.5 16.2808L18.078 17.5468C19.662 15.6508 22.875 11.7418 22.875 11.2808Z" fill="url(#paint41_linear_483_782)"/>
</g>
<defs>
<filter id="filter0_f_483_782" x="2.37354" y="8.35449" width="9.99939" height="10.0205" filterUnits="userSpaceOnUse" color-interpolation-filters="sRGB">
<feFlood flood-opacity="0" result="BackgroundImageFix"/>
<feBlend mode="normal" in="SourceGraphic" in2="BackgroundImageFix" result="shape"/>
<feGaussianBlur stdDeviation="0.5" result="effect1_foregroundBlur_483_782"/>
</filter>
<filter id="filter1_f_483_782" x="4.01929" y="9.22192" width="7.32458" height="7.32397" filterUnits="userSpaceOnUse" color-interpolation-filters="sRGB">
<feFlood flood-opacity="0" result="BackgroundImageFix"/>
<feBlend mode="normal" in="SourceGraphic" in2="BackgroundImageFix" result="shape"/>
<feGaussianBlur stdDeviation="0.125" result="effect1_foregroundBlur_483_782"/>
</filter>
<filter id="filter2_f_483_782" x="9.21094" y="3.94385" width="7.44299" height="7.44336" filterUnits="userSpaceOnUse" color-interpolation-filters="sRGB">
<feFlood flood-opacity="0" result="BackgroundImageFix"/>
<feBlend mode="normal" in="SourceGraphic" in2="BackgroundImageFix" result="shape"/>
<feGaussianBlur stdDeviation="0.125" result="effect1_foregroundBlur_483_782"/>
</filter>
<filter id="filter3_f_483_782" x="13.0005" y="8.55957" width="9.99939" height="10.0205" filterUnits="userSpaceOnUse" color-interpolation-filters="sRGB">
<feFlood flood-opacity="0" result="BackgroundImageFix"/>
<feBlend mode="normal" in="SourceGraphic" in2="BackgroundImageFix" result="shape"/>
<feGaussianBlur stdDeviation="0.5" result="effect1_foregroundBlur_483_782"/>
</filter>
<filter id="filter4_f_483_782" x="14.7383" y="9.53418" width="7.32458" height="7.32397" filterUnits="userSpaceOnUse" color-interpolation-filters="sRGB">
<feFlood flood-opacity="0" result="BackgroundImageFix"/>
<feBlend mode="normal" in="SourceGraphic" in2="BackgroundImageFix" result="shape"/>
<feGaussianBlur stdDeviation="0.125" result="effect1_foregroundBlur_483_782"/>
</filter>
<filter id="filter5_f_483_782" x="7.87354" y="13.7886" width="9.99939" height="10.0208" filterUnits="userSpaceOnUse" color-interpolation-filters="sRGB">
<feFlood flood-opacity="0" result="BackgroundImageFix"/>
<feBlend mode="normal" in="SourceGraphic" in2="BackgroundImageFix" result="shape"/>
<feGaussianBlur stdDeviation="0.5" result="effect1_foregroundBlur_483_782"/>
</filter>
<filter id="filter6_f_483_782" x="9.56628" y="14.7378" width="7.32458" height="7.32397" filterUnits="userSpaceOnUse" color-interpolation-filters="sRGB">
<feFlood flood-opacity="0" result="BackgroundImageFix"/>
<feBlend mode="normal" in="SourceGraphic" in2="BackgroundImageFix" result="shape"/>
<feGaussianBlur stdDeviation="0.125" result="effect1_foregroundBlur_483_782"/>
</filter>
<filter id="filter7_f_483_782" x="11.1329" y="11.1418" width="18.5394" height="18.3352" filterUnits="userSpaceOnUse" color-interpolation-filters="sRGB">
<feFlood flood-opacity="0" result="BackgroundImageFix"/>
<feBlend mode="normal" in="SourceGraphic" in2="BackgroundImageFix" result="shape"/>
<feGaussianBlur stdDeviation="0.5" result="effect1_foregroundBlur_483_782"/>
</filter>
<filter id="filter8_f_483_782" x="9.72327" y="9.7356" width="13.8718" height="15.2798" filterUnits="userSpaceOnUse" color-interpolation-filters="sRGB">
<feFlood flood-opacity="0" result="BackgroundImageFix"/>
<feBlend mode="normal" in="SourceGraphic" in2="BackgroundImageFix" result="shape"/>
<feGaussianBlur stdDeviation="0.5" result="effect1_foregroundBlur_483_782"/>
</filter>
<filter id="filter9_f_483_782" x="16" y="9.96997" width="7.375" height="8.0769" filterUnits="userSpaceOnUse" color-interpolation-filters="sRGB">
<feFlood flood-opacity="0" result="BackgroundImageFix"/>
<feBlend mode="normal" in="SourceGraphic" in2="BackgroundImageFix" result="shape"/>
<feGaussianBlur stdDeviation="0.25" result="effect1_foregroundBlur_483_782"/>
</filter>
<radialGradient id="paint0_radial_483_782" cx="0" cy="0" r="1" gradientUnits="userSpaceOnUse" gradientTransform="translate(6.37385 5.87575) rotate(135) scale(12.3302 6.13734)">
<stop stop-color="#735040"/>
<stop offset="1" stop-color="#724A3A" stop-opacity="0"/>
</radialGradient>
<radialGradient id="paint1_radial_483_782" cx="0" cy="0" r="1" gradientUnits="userSpaceOnUse" gradientTransform="translate(4.03099 18.9059) rotate(45) scale(11.5596 8.97142)">
<stop stop-color="#834D4F"/>
<stop offset="1" stop-color="#834B4D" stop-opacity="0"/>
</radialGradient>
<radialGradient id="paint2_radial_483_782" cx="0" cy="0" r="1" gradientUnits="userSpaceOnUse" gradientTransform="translate(17.4998 6.68769) rotate(45) scale(10.1647 3.13779)">
<stop stop-color="#AC7A64"/>
<stop offset="1" stop-color="#AC7A63" stop-opacity="0"/>
</radialGradient>
<linearGradient id="paint3_linear_483_782" x1="6.59404" y1="14.8128" x2="5.31304" y2="16.0938" gradientUnits="userSpaceOnUse">
<stop stop-color="#835355" stop-opacity="0"/>
<stop offset="0.543" stop-color="#825254"/>
</linearGradient>
<linearGradient id="paint4_linear_483_782" x1="6.90604" y1="14.2498" x2="5.62504" y2="15.5308" gradientUnits="userSpaceOnUse">
<stop stop-color="#835355" stop-opacity="0"/>
<stop offset="0.543" stop-color="#825254"/>
</linearGradient>
<linearGradient id="paint5_linear_483_782" x1="9.55504" y1="11.6018" x2="10.375" y2="10.7808" gradientUnits="userSpaceOnUse">
<stop stop-color="#91634B" stop-opacity="0"/>
<stop offset="0.257" stop-color="#8E5E45"/>
<stop offset="0.971" stop-color="#79452B"/>
</linearGradient>
<linearGradient id="paint6_linear_483_782" x1="5.31304" y1="10.5628" x2="6.25804" y2="11.5078" gradientUnits="userSpaceOnUse">
<stop stop-color="#754A38"/>
<stop offset="0.198" stop-color="#764B38"/>
<stop offset="1" stop-color="#8A5648" stop-opacity="0"/>
</linearGradient>
<linearGradient id="paint7_linear_483_782" x1="10.438" y1="15.0308" x2="9.54704" y2="14.1408" gradientUnits="userSpaceOnUse">
<stop offset="0.193" stop-color="#7F4131"/>
<stop offset="0.509" stop-color="#884B3F"/>
<stop offset="1" stop-color="#905452" stop-opacity="0"/>
</linearGradient>
<linearGradient id="paint8_linear_483_782" x1="4.71594" y1="13.599" x2="10.6949" y2="13.576" gradientUnits="userSpaceOnUse">
<stop stop-color="#865345"/>
<stop offset="1" stop-color="#945C4E"/>
</linearGradient>
<linearGradient id="paint9_linear_483_782" x1="5.93294" y1="14.755" x2="9.49194" y2="11.262" gradientUnits="userSpaceOnUse">
<stop offset="0.028" stop-color="#7F4A40"/>
<stop offset="0.184" stop-color="#844A45" stop-opacity="0"/>
</linearGradient>
<linearGradient id="paint10_linear_483_782" x1="9.60994" y1="11.145" x2="6.45894" y2="14.297" gradientUnits="userSpaceOnUse">
<stop offset="0.019" stop-color="#9B705C"/>
<stop offset="0.205" stop-color="#9B705C" stop-opacity="0"/>
</linearGradient>
<linearGradient id="paint11_linear_483_782" x1="12.094" y1="9.09378" x2="10.813" y2="10.3748" gradientUnits="userSpaceOnUse">
<stop offset="0.402" stop-color="#7A3C35" stop-opacity="0"/>
<stop offset="0.866" stop-color="#783930"/>
<stop offset="1" stop-color="#713126"/>
</linearGradient>
<linearGradient id="paint12_linear_483_782" x1="14.656" y1="6.46878" x2="15.563" y2="5.62478" gradientUnits="userSpaceOnUse">
<stop stop-color="#A87760" stop-opacity="0"/>
<stop offset="0.343" stop-color="#A8775F"/>
<stop offset="1" stop-color="#A3735A"/>
</linearGradient>
<linearGradient id="paint13_linear_483_782" x1="10.5" y1="5.40578" x2="11.445" y2="6.35178" gradientUnits="userSpaceOnUse">
<stop stop-color="#754A38"/>
<stop offset="0.198" stop-color="#764B38"/>
<stop offset="1" stop-color="#8A5648" stop-opacity="0"/>
</linearGradient>
<linearGradient id="paint14_linear_483_782" x1="15.625" y1="9.87478" x2="14.734" y2="8.98378" gradientUnits="userSpaceOnUse">
<stop offset="0.193" stop-color="#7F4131"/>
<stop offset="0.509" stop-color="#884B3F"/>
<stop offset="1" stop-color="#905452" stop-opacity="0"/>
</linearGradient>
<linearGradient id="paint15_linear_483_782" x1="9.90404" y1="8.44184" x2="15.982" y2="8.51784" gradientUnits="userSpaceOnUse">
<stop stop-color="#8B5A4A"/>
<stop offset="1" stop-color="#9B6351"/>
</linearGradient>
<linearGradient id="paint16_linear_483_782" x1="11.123" y1="9.59584" x2="13.856" y2="6.86184" gradientUnits="userSpaceOnUse">
<stop offset="0.028" stop-color="#804643"/>
<stop offset="0.184" stop-color="#874B4F" stop-opacity="0"/>
</linearGradient>
<linearGradient id="paint17_linear_483_782" x1="14.921" y1="5.86484" x2="12.675" y2="8.00584" gradientUnits="userSpaceOnUse">
<stop offset="0.019" stop-color="#9B705C"/>
<stop offset="0.205" stop-color="#9B705C" stop-opacity="0"/>
</linearGradient>
<linearGradient id="paint18_linear_483_782" x1="17.221" y1="15.0169" x2="15.94" y2="16.2989" gradientUnits="userSpaceOnUse">
<stop offset="0.11" stop-color="#6D3F3D" stop-opacity="0"/>
<stop offset="0.671" stop-color="#643026"/>
<stop offset="1" stop-color="#5D2A1F"/>
</linearGradient>
<linearGradient id="paint19_linear_483_782" x1="19.869" y1="12.3689" x2="20.69" y2="11.5489" gradientUnits="userSpaceOnUse">
<stop stop-color="#91634B" stop-opacity="0"/>
<stop offset="0.257" stop-color="#8E5E45"/>
<stop offset="0.971" stop-color="#79452B"/>
</linearGradient>
<linearGradient id="paint20_linear_483_782" x1="15.627" y1="11.3299" x2="16.572" y2="12.2749" gradientUnits="userSpaceOnUse">
<stop stop-color="#733821"/>
<stop offset="0.198" stop-color="#773D25"/>
<stop offset="1" stop-color="#7F4B35" stop-opacity="0"/>
</linearGradient>
<linearGradient id="paint21_linear_483_782" x1="17.625" y1="14.5628" x2="16.344" y2="15.8438" gradientUnits="userSpaceOnUse">
<stop offset="0.11" stop-color="#6D3F3D" stop-opacity="0"/>
<stop offset="0.671" stop-color="#643026"/>
<stop offset="1" stop-color="#5D2A1F"/>
</linearGradient>
<linearGradient id="paint22_linear_483_782" x1="20.273" y1="11.9138" x2="21.094" y2="11.0938" gradientUnits="userSpaceOnUse">
<stop stop-color="#91634B" stop-opacity="0"/>
<stop offset="0.257" stop-color="#8E5E45"/>
<stop offset="0.971" stop-color="#79452B"/>
</linearGradient>
<linearGradient id="paint23_linear_483_782" x1="16.031" y1="10.8748" x2="16.977" y2="11.8198" gradientUnits="userSpaceOnUse">
<stop stop-color="#733821"/>
<stop offset="0.198" stop-color="#773D25"/>
<stop offset="1" stop-color="#7F4B35" stop-opacity="0"/>
</linearGradient>
<linearGradient id="paint24_linear_483_782" x1="21.156" y1="15.3438" x2="20.266" y2="14.4528" gradientUnits="userSpaceOnUse">
<stop offset="0.193" stop-color="#7F4131"/>
<stop offset="0.509" stop-color="#884B3F"/>
<stop offset="1" stop-color="#905452" stop-opacity="0"/>
</linearGradient>
<linearGradient id="paint25_linear_483_782" x1="15.4339" y1="13.9118" x2="21.4139" y2="13.8878" gradientUnits="userSpaceOnUse">
<stop stop-color="#865345"/>
<stop offset="1" stop-color="#945C4E"/>
</linearGradient>
<linearGradient id="paint26_linear_483_782" x1="16.6519" y1="15.0668" x2="20.2109" y2="11.5738" gradientUnits="userSpaceOnUse">
<stop offset="0.028" stop-color="#7F4A40"/>
<stop offset="0.184" stop-color="#844A45" stop-opacity="0"/>
</linearGradient>
<linearGradient id="paint27_linear_483_782" x1="20.3289" y1="11.4578" x2="17.1769" y2="14.6088" gradientUnits="userSpaceOnUse">
<stop offset="0.019" stop-color="#9B705C"/>
<stop offset="0.205" stop-color="#9B705C" stop-opacity="0"/>
</linearGradient>
<linearGradient id="paint28_linear_483_782" x1="11.375" y1="21.3749" x2="9.21904" y2="19.2189" gradientUnits="userSpaceOnUse">
<stop stop-color="#64342F"/>
<stop offset="1" stop-color="#773C41"/>
</linearGradient>
<linearGradient id="paint29_linear_483_782" x1="12.453" y1="19.7659" x2="11.172" y2="21.0469" gradientUnits="userSpaceOnUse">
<stop stop-color="#835355" stop-opacity="0"/>
<stop offset="0.543" stop-color="#825254"/>
</linearGradient>
<linearGradient id="paint30_linear_483_782" x1="15.102" y1="17.1169" x2="15.922" y2="16.2969" gradientUnits="userSpaceOnUse">
<stop stop-color="#91634B" stop-opacity="0"/>
<stop offset="0.257" stop-color="#8E5E45"/>
<stop offset="0.971" stop-color="#79452B"/>
</linearGradient>
<linearGradient id="paint31_linear_483_782" x1="10.859" y1="16.0779" x2="11.805" y2="17.0229" gradientUnits="userSpaceOnUse">
<stop stop-color="#733821"/>
<stop offset="0.198" stop-color="#783F28"/>
<stop offset="1" stop-color="#7E4934" stop-opacity="0"/>
</linearGradient>
<linearGradient id="paint32_linear_483_782" x1="15.984" y1="20.5469" x2="15.094" y2="19.6559" gradientUnits="userSpaceOnUse">
<stop offset="0.193" stop-color="#7F4131"/>
<stop offset="0.509" stop-color="#884B3F"/>
<stop offset="1" stop-color="#905452" stop-opacity="0"/>
</linearGradient>
<linearGradient id="paint33_linear_483_782" x1="10.2619" y1="19.115" x2="16.2419" y2="19.091" gradientUnits="userSpaceOnUse">
<stop stop-color="#865345"/>
<stop offset="1" stop-color="#945C4E"/>
</linearGradient>
<linearGradient id="paint34_linear_483_782" x1="11.4799" y1="20.27" x2="15.0389" y2="16.777" gradientUnits="userSpaceOnUse">
<stop offset="0.028" stop-color="#7F4A40"/>
<stop offset="0.184" stop-color="#844A45" stop-opacity="0"/>
</linearGradient>
<linearGradient id="paint35_linear_483_782" x1="15.1569" y1="16.661" x2="12.0059" y2="19.812" gradientUnits="userSpaceOnUse">
<stop offset="0.019" stop-color="#9B705C"/>
<stop offset="0.205" stop-color="#9B705C" stop-opacity="0"/>
</linearGradient>
<linearGradient id="paint36_linear_483_782" x1="26.9379" y1="16.313" x2="15.7499" y2="27.5" gradientUnits="userSpaceOnUse">
<stop stop-color="#ED4253"/>
<stop offset="1" stop-color="#C41959"/>
</linearGradient>
<linearGradient id="paint37_linear_483_782" x1="25.9379" y1="25.125" x2="22.6879" y2="21.875" gradientUnits="userSpaceOnUse">
<stop stop-color="#D61E58"/>
<stop offset="0.933" stop-color="#D71D59" stop-opacity="0"/>
</linearGradient>
<linearGradient id="paint38_linear_483_782" x1="25.7499" y1="15.1248" x2="22.8439" y2="18.0308" gradientUnits="userSpaceOnUse">
<stop offset="0.086" stop-color="#EA4B6C"/>
<stop offset="0.694" stop-color="#EC4B6C" stop-opacity="0"/>
</linearGradient>
<linearGradient id="paint39_linear_483_782" x1="17.4379" y1="18.4998" x2="18.8439" y2="19.5308" gradientUnits="userSpaceOnUse">
<stop offset="0.384" stop-color="#B3154F"/>
<stop offset="0.767" stop-color="#B71550" stop-opacity="0"/>
</linearGradient>
<linearGradient id="paint40_linear_483_782" x1="23.34" y1="11.4718" x2="11.25" y2="23.6248" gradientUnits="userSpaceOnUse">
<stop stop-color="#C1C1C2"/>
<stop offset="0.088" stop-color="#ADABB2"/>
<stop offset="0.198" stop-color="#B1A4C2"/>
<stop offset="0.758" stop-color="#B3A5C6"/>
<stop offset="0.879" stop-color="#A892C1"/>
<stop offset="1" stop-color="#A485C3"/>
</linearGradient>
<linearGradient id="paint41_linear_483_782" x1="22.25" y1="10.7828" x2="16.5" y2="16.5328" gradientUnits="userSpaceOnUse">
<stop stop-color="#D4D1DB"/>
<stop offset="1" stop-color="#B3A6C5" stop-opacity="0"/>
</linearGradient>
</defs>
</svg>
