<svg width="65" height="64" viewBox="0 0 65 64" fill="none" xmlns="http://www.w3.org/2000/svg">
<path d="M37.3629 22.7L39.8629 4.1C37.4629 3.5 35.0629 2 32.4629 2C29.8629 2 27.4629 3.5 24.9629 4.2C22.4629 4.8 19.6629 4.7 17.4629 6C15.2629 7.3 13.8629 9.8 12.0629 11.6C10.2629 13.4 7.76289 14.8 6.46289 17C5.16289 19.2 5.26289 22 4.56289 24.5C3.96289 27 2.46289 29.4 2.46289 32C2.46289 34.6 3.96289 37 4.66289 39.5C5.26289 42 5.16289 44.8 6.46289 47C7.76289 49.2 10.2629 50.6 12.0629 52.4C13.8629 54.2 15.1629 56.7 17.4629 58C19.6629 59.3 22.4629 59.2 24.9629 59.9C27.4629 60.5 29.8629 62 32.4629 62C35.0629 62 37.4629 60.5 39.9629 59.8C42.4629 59.1 45.2629 59.2 47.4629 57.9C49.6629 56.6 51.0629 54.1 52.8629 52.3C54.6629 50.5 57.1629 49.2 58.4629 46.9C59.7629 44.7 59.6629 41.9 60.3629 39.4C60.9629 37 62.4629 34.6 62.4629 32C62.4629 29.4 60.3629 23.9 60.3629 23.9L37.3629 22.7Z" fill="#DDA85F"/>
<path d="M59.8629 22.4C58.8629 22.7 57.4629 22.6 55.9629 22C53.8629 21.2 52.5629 19.5 52.1629 17.5C51.1629 17.8 48.7629 17.5 47.1629 16.5C44.7629 15 44.2629 10.8 44.2629 10.8C41.5629 10 39.5629 6.8 39.8629 4.1C37.6629 3.5 34.8629 3.6 32.4629 3.6C30.0629 3.6 27.8629 5 25.6629 5.6C23.3629 6.2 20.7629 6.1 18.7629 7.3C16.7629 8.5 15.4629 10.8 13.8629 12.4C12.1629 14.1 9.86287 15.3 8.76287 17.3C7.56287 19.3 7.66287 21.9 7.06287 24.2C6.46287 26.4 5.06287 28.6 5.06287 31C5.06287 33.4 6.46287 35.6 7.06287 37.8C7.66287 40.1 7.56287 42.7 8.76287 44.7C9.96287 46.7 12.2629 48 13.8629 49.6C15.5629 51.3 16.7629 53.6 18.7629 54.7C20.7629 55.9 23.3629 55.8 25.6629 56.4C27.8629 57 30.0629 58.4 32.4629 58.4C34.8629 58.4 37.0629 57 39.2629 56.4C41.5629 55.8 44.1629 55.9 46.1629 54.7C48.1629 53.5 49.4629 51.2 51.0629 49.6C52.7629 47.9 55.0629 46.7 56.1629 44.7C57.3629 42.7 57.2629 40.1 57.8629 37.8C58.4629 35.6 60.8629 33.8 61.1629 31.4C61.9629 27.5 59.9629 23.1 59.8629 22.4Z" fill="#F2CB7D"/>
<path d="M50.5628 10.7999L49.1628 12.1999L47.8628 10.7999L49.1628 9.4999L50.5628 10.7999ZM56.2628 17.7999L55.6628 18.4999L54.9628 17.7999L55.6628 17.0999L56.2628 17.7999ZM51.2628 13.1999L50.5628 13.8999L49.8628 13.1999L50.5628 12.4999L51.2628 13.1999ZM45.0628 7.0999L44.3628 7.7999L43.6628 7.0999L44.3628 6.3999L45.0628 7.0999ZM57.6628 20.2999L56.9628 20.9999L56.2628 20.2999L56.9628 19.5999L57.6628 20.2999ZM58.2628 17.7999L57.5628 18.4999L56.8628 17.7999L57.5628 17.0999L58.2628 17.7999Z" fill="#DDA85F"/>
<path d="M12.2629 20.5999C11.2629 22.2999 12.7629 25.3999 14.7629 26.2999C17.6629 27.4999 19.3629 27.6999 21.1629 24.5999C21.7629 23.4999 22.5629 20.5999 22.2629 19.8999C21.8629 18.8999 20.1629 16.8999 19.0629 16.8999C15.9629 16.9999 12.9629 19.3999 12.2629 20.5999Z" fill="#6D4934"/>
<path d="M12.7629 20.5999C12.0629 21.7999 13.8629 25.3999 16.2629 25.0999C19.5629 24.6999 19.2629 17.8999 17.8629 17.8999C15.4629 17.8999 13.2629 19.6999 12.7629 20.5999Z" fill="#A37F6A"/>
<path d="M45.6629 39.0999C47.0629 38.6999 48.0629 36.1999 47.4629 34.6999C46.5629 32.3999 45.6629 31.3999 43.0629 32.0999C42.1629 32.3999 40.0629 33.4999 39.8629 33.9999C39.5629 34.7999 39.3629 36.7999 39.9629 37.3999C41.6629 39.0999 44.6629 39.3999 45.6629 39.0999Z" fill="#6D4934"/>
<path d="M44.263 36.7C45.363 36.4 47.063 33 45.263 32.8C42.163 32.3 39.763 33.8 40.063 35.5C40.363 37.2 43.463 36.9 44.263 36.7Z" fill="#A37F6A"/>
<path d="M25.3629 44.5001C25.0629 43.3001 22.8629 42.4001 21.4629 43.0001C19.4629 43.8001 18.5629 44.5001 19.2629 46.8001C19.4629 47.6001 20.4629 49.4001 20.9629 49.5001C21.6629 49.8001 23.3629 49.9001 23.8629 49.4001C25.3629 48.0001 25.5629 45.4001 25.3629 44.5001Z" fill="#6D4934"/>
<path d="M23.6629 43.6C23.4629 42.7 19.2629 44 19.6629 45.6C20.4629 48.3 20.4629 48.7 21.2629 48.6C22.7629 48.2 23.7629 44.3 23.6629 43.6Z" fill="#A37F6A"/>
<path d="M51.5629 25.5001C50.3629 25.8001 49.4629 28.0001 50.0629 29.4001C50.8629 31.4001 52.7629 31.7001 54.8629 30.6001C56.6629 29.7001 56.7629 26.5001 56.2629 25.9001C54.7629 24.4001 52.4629 25.3001 51.5629 25.5001Z" fill="#6D4934"/>
<path d="M51.0629 26.6C50.4629 27.3 49.9629 30.1 51.4629 29.7C54.1629 28.9 56.0629 26.2 54.8629 25.8C53.3629 25.3 51.7629 25.8 51.0629 26.6Z" fill="#A37F6A"/>
<path d="M23.2029 16.1121L25.1829 14.1321L27.1629 16.1121L25.1829 18.0921L23.2029 16.1121Z" fill="#6D4934"/>
<path d="M15.1689 33.4829L17.1479 31.5029L19.1279 33.4819L17.1489 35.4619L15.1689 33.4829ZM35.1609 44.8109L37.1409 42.8309L39.1209 44.8109L37.1409 46.7909L35.1609 44.8109ZM32.5009 39.2889L35.1879 36.6019L37.8749 39.2889L35.1879 41.9759L32.5009 39.2889ZM25.1589 9.82689L27.8459 7.13989L30.5329 9.82689L27.8459 12.5139L25.1589 9.82689Z" fill="#DDA85F"/>
<path d="M41.5848 46.347L43.5648 44.367L45.5448 46.347L43.5648 48.327L41.5848 46.347ZM49.5388 35.215L51.5188 33.235L53.4988 35.215L51.5188 37.195L49.5388 35.215ZM42.2748 24.637L43.2648 23.647L44.2548 24.637L43.2648 25.627L42.2748 24.637ZM14.1888 38.266L15.1788 37.276L16.1688 38.266L15.1788 39.256L14.1888 38.266Z" fill="#6D4934"/>
</svg>
