<svg width="129" height="128" viewBox="0 0 129 128" fill="none" xmlns="http://www.w3.org/2000/svg">
<path opacity="0.5" d="M44.2429 28.97C42.8429 30.89 44.0429 36.93 42.3329 45.79C40.6229 54.65 35.9429 62.02 36.5929 72.58C37.9029 93.93 58.7529 97.86 58.7529 97.86V106.92C58.7529 106.92 44.8529 108.53 44.7529 114.47C44.6529 120.41 54.8229 122.73 64.0929 122.53C73.3629 122.33 82.6229 119.71 82.7229 114.37C82.8329 108.52 68.5229 106.62 68.5229 106.62C68.5229 106.62 68.4229 104.4 68.4229 102.49C68.4229 100.58 68.6229 97.86 68.6229 97.86C68.6229 97.86 89.7029 94.78 90.5729 72.88C90.9729 62.81 86.6429 53.14 86.0429 44.58C85.4429 36.02 86.1429 32.09 86.1429 29.57C86.1429 27.05 84.0129 33.15 63.8129 33.42C45.5229 33.67 45.8629 26.75 44.2429 28.97Z" fill="white"/>
<path opacity="0.7" d="M44.2429 28.9701C42.8429 30.8901 44.0429 36.9301 42.3329 45.7901C40.6229 54.6501 35.9429 62.0201 36.5929 72.5801C37.9029 93.9301 58.7529 97.8601 58.7529 97.8601V106.92C58.7529 106.92 44.8529 108.53 44.7529 114.47C44.6529 120.41 54.8229 122.73 64.0929 122.53C73.3629 122.33 82.6229 119.71 82.7229 114.37C82.8329 108.52 68.5229 106.62 68.5229 106.62C68.5229 106.62 68.4229 104.4 68.4229 102.49C68.4229 100.58 68.6229 97.8601 68.6229 97.8601C68.6229 97.8601 89.7029 94.7801 90.5729 72.8801C90.9729 62.8101 86.6429 53.1401 86.0429 44.5801C85.4429 36.0201 86.1429 32.0901 86.1429 29.5701C86.1429 27.0501 73.7529 25.6401 63.9829 25.4401C54.2129 25.2401 45.8629 26.7501 44.2429 28.9701Z" fill="#E0E0E0"/>
<path d="M46.7729 29.45C49.2529 28.96 54.8229 28.08 63.1429 28.08C74.7229 28.08 83.6629 29.89 83.6629 29.89L84.9929 27.36C84.9929 27.36 80.2129 24.51 63.4929 24.8C58.3029 24.89 54.4029 25.16 51.5329 25.47C46.2529 26.04 45.8029 29.65 46.7729 29.45Z" fill="#C9C9C9"/>
<path d="M45.5929 42.81C45.3329 42.42 45.0529 41.31 46.1529 40.6C47.2529 39.89 49.6529 38.14 63.1129 38.2C76.5829 38.26 83.1829 40.08 83.1829 41.63C83.1829 42.57 81.8229 44.03 81.8229 44.03L65.1829 47.66L45.5929 42.81Z" fill="#FFEBC9"/>
<path d="M64.9229 44.4799C72.8229 44.3899 83.1829 41.6299 83.1829 41.6299C83.1829 41.6299 84.2329 48.5999 84.8029 52.3099C85.3129 55.6899 90.2529 68.1899 86.9829 79.2199C85.1229 85.4799 79.0329 94.3999 64.6129 94.3999C45.7329 94.3999 38.8729 81.3999 38.7429 71.8399C38.6229 63.1499 42.4029 55.0899 43.5829 51.3199C44.6729 47.8399 45.3629 41.6299 45.3629 41.6299C45.3629 41.6299 50.7129 44.6399 64.9229 44.4799Z" fill="url(#paint0_radial_483_919)"/>
<path d="M45.4829 54.43C44.5829 55.93 43.6429 58.86 42.8529 62.2C42.3129 64.47 41.7429 67.36 41.8529 71.34C41.9429 74.59 42.7529 81.44 49.1429 80.91C51.2929 80.73 48.9029 76.67 49.6229 66.02C50.2829 56.18 53.0929 53.91 48.7429 53.36C46.6029 53.11 46.0129 53.55 45.4829 54.43ZM61.3329 98.62C61.3329 98.62 61.6129 109.75 61.7129 110.19C62.0229 111.53 62.8029 113.01 66.3429 112.76C69.8829 112.51 68.1129 109.14 67.9829 108.89C67.8529 108.64 67.4329 100.51 67.4329 100.51L67.0529 97.56L61.3329 98.62Z" fill="white"/>
<path d="M58.8129 107.87C58.2429 107.75 55.8629 111.7 55.8629 112.12C55.8629 112.54 58.6129 115.22 64.1729 115.22C69.7329 115.22 72.0329 112.55 72.0229 112.04C72.0129 111.26 69.1229 107.12 69.1229 107.12L69.2529 98.53C69.2529 98.53 68.6229 97.19 67.7629 97.68C66.9029 98.17 66.9029 98.8 66.9029 99.47C66.9029 100.14 66.8229 105.14 66.8729 106.62C66.9229 108.1 67.9829 111.22 64.2229 111.41C59.8529 111.64 59.3829 107.99 58.8129 107.87Z" fill="#9F9F9F"/>
<path d="M60.4229 97.0999C60.4629 97.9499 61.6029 99.8099 64.1629 99.8599C66.7329 99.9099 68.3229 98.6099 68.3229 98.6099C68.3229 98.6099 78.0829 97.9599 85.1429 89.8699C91.6729 82.3899 92.8429 70.4999 89.7329 59.6499C86.4329 48.1399 86.4029 45.6999 86.3029 39.5499C86.2629 37.1799 86.3929 31.9299 86.3529 31.3199C86.2829 30.0799 85.0729 29.7199 85.0229 32.9499C84.9629 36.4799 84.7829 38.5799 84.9729 43.1499C85.1429 47.1999 86.6529 54.2099 88.0729 59.9999C90.3429 69.2799 90.3329 81.8599 83.6429 88.4899C76.7629 95.3099 70.4029 96.3199 66.7629 96.5099C62.2529 96.7599 60.3629 96.0299 60.4229 97.0999Z" fill="#9F9F9F"/>
<path d="M68.7629 41.43C68.7629 41.43 73.0829 33.53 74.5729 30.5C77.8329 23.93 79.4329 20.37 80.3329 19.42C81.2329 18.46 99.4429 15.65 99.9829 15.59C100.523 15.53 99.9829 17.92 99.9829 17.92C100.103 18.4 99.5929 20.88 99.5929 20.88L82.5729 23.73C82.5729 23.73 80.2529 28.39 79.0729 30.75C76.5029 35.9 73.6929 41.09 73.6929 41.09L68.7629 41.43Z" fill="#FF2A23"/>
<path d="M98.4129 18.0001C98.3029 19.2301 98.4829 20.8501 99.4529 20.9101C100.583 20.9801 100.833 19.1501 100.943 18.1001C101.043 17.1601 100.843 15.5901 100.003 15.5901C99.1629 15.5901 98.5429 16.4901 98.4129 18.0001ZM84.6529 23.9501C84.5173 23.929 84.3918 23.8653 84.2948 23.7683C84.1977 23.6712 84.134 23.5457 84.1129 23.4101L83.2829 18.3601C83.2624 18.1924 83.3076 18.0232 83.409 17.888C83.5104 17.7529 83.6602 17.6622 83.827 17.6351C83.9938 17.6079 84.1646 17.6464 84.3037 17.7424C84.4427 17.8384 84.5392 17.9845 84.5729 18.1501L85.4029 23.2001C85.4195 23.3023 85.4115 23.407 85.3796 23.5056C85.3478 23.6041 85.293 23.6937 85.2198 23.7669C85.1465 23.8402 85.057 23.8949 84.9584 23.9268C84.8599 23.9586 84.7552 23.9666 84.6529 23.9501Z" fill="#DB0D25"/>
<path d="M83.6129 24.28C83.3629 24.28 83.1229 24.14 83.0229 23.89L80.9429 19.18C80.8029 18.85 80.9429 18.47 81.2729 18.32C81.6029 18.17 81.9829 18.32 82.1329 18.65L84.2129 23.36C84.3529 23.69 84.2129 24.07 83.8829 24.22C83.7929 24.27 83.7029 24.28 83.6129 24.28Z" fill="#DB0D25"/>
<path d="M82.3829 24.6201C82.2901 24.6211 82.1983 24.602 82.1137 24.564C82.0291 24.526 81.9537 24.4701 81.8929 24.4001L78.8229 20.9201C78.7662 20.8559 78.7227 20.7811 78.695 20.7C78.6673 20.6189 78.656 20.5331 78.6615 20.4476C78.6671 20.3621 78.6895 20.2786 78.7275 20.2018C78.7655 20.125 78.8183 20.0564 78.8829 20.0001C78.9471 19.9434 79.0219 19.9 79.103 19.8723C79.1841 19.8446 79.2698 19.8332 79.3554 19.8388C79.4409 19.8444 79.5244 19.8668 79.6012 19.9048C79.678 19.9428 79.7465 19.9955 79.8029 20.0601L82.8729 23.5401C82.9558 23.6341 83.0097 23.75 83.0283 23.874C83.0468 23.9979 83.0291 24.1246 82.9774 24.2387C82.9256 24.3528 82.8419 24.4495 82.7364 24.5172C82.631 24.5849 82.5082 24.6206 82.3829 24.6201Z" fill="#DB0D25"/>
<path d="M57.0529 41.3799L27.0729 3.15991C27.0729 3.15991 27.3229 2.21991 27.8529 1.81991C28.3829 1.40991 29.1929 1.40991 29.1929 1.40991L60.3729 41.4599L57.0529 41.3799Z" fill="#F8C976"/>
<path d="M45.3929 27.9401L48.0829 30.6301L56.4129 33.4501L73.6329 33.7001L83.6629 29.9001L84.9729 27.3601C84.9729 27.3601 86.8329 28.0701 86.7529 30.1201C86.6829 31.7501 86.1029 33.5801 81.8429 35.0801C77.5829 36.5801 72.7029 37.4601 64.4929 37.5201C56.2829 37.5801 45.8929 36.3301 43.8329 32.3201C42.4829 29.7101 45.3929 27.9401 45.3929 27.9401Z" fill="#C9C9C9"/>
<path d="M44.6528 29.61C44.4228 30.57 47.2028 33.08 55.0028 34.4C63.6228 35.86 73.6828 34.43 77.4328 33.76C83.0428 32.76 84.8628 31.07 84.5928 30.02C84.2428 28.68 83.0428 29.56 82.1328 29.93C81.2228 30.29 72.5628 32.57 63.5828 32.3C54.6028 32.03 51.3228 31.16 49.6328 30.34C47.9428 29.52 45.1328 27.61 44.6528 29.61Z" fill="#F9FBFA"/>
<path d="M59.2729 97.2199C59.3629 96.1999 56.9829 95.9099 53.4029 94.2999C49.8229 92.6899 41.2329 88.6599 38.4629 78.5499C35.7829 68.7899 38.3829 62.2599 41.9529 51.9799C43.4729 47.5999 44.5429 40.9699 44.6329 37.4799C44.7229 33.9899 44.9029 32.6999 43.8329 32.3199C42.7629 31.9399 43.0229 33.3699 43.0229 37.2099C43.0229 41.0499 41.7829 46.7799 40.3429 50.8999C36.7629 61.0999 33.1329 68.8899 36.7429 80.1399C39.0029 87.1799 42.9629 91.6899 51.9729 95.9999C56.0829 97.9699 59.1429 98.6899 59.2729 97.2199Z" fill="#D5D5D5"/>
<path d="M47.8129 112.8C46.5629 113.02 46.2629 114.8 49.3029 116.69C52.3429 118.58 59.4429 119.38 59.7829 118.29C60.1229 117.2 55.4929 116.69 51.8829 114.91C49.4829 113.74 49.1229 112.57 47.8129 112.8ZM68.8529 118.75C69.3229 119.55 77.5529 118.98 79.6229 116.4C81.6829 113.82 80.1429 111.65 77.7329 111.82C75.8329 111.96 78.4729 113.31 76.1829 115.03C73.8929 116.74 68.0429 117.37 68.8529 118.75Z" fill="white"/>
<path d="M45.2029 112.85C44.5729 112.9 43.2029 115.48 44.4029 117.89C45.1229 119.34 46.5429 120.32 48.5229 121.33C51.4529 122.82 56.0929 124.11 63.4829 124.05C68.9929 124.01 72.8129 123.34 75.6029 122.53C81.1529 120.93 82.4829 117.85 82.7629 116.97C83.1529 115.74 83.0329 113.87 82.7129 113.82C82.3629 113.77 81.9129 115.5 81.2129 116.4C79.8729 118.11 77.7929 119.35 74.8929 120.03C71.9629 120.72 69.1429 121.35 63.1729 121.21C50.8629 120.92 47.5429 117.83 46.2829 116.11C44.8729 114.19 45.9429 112.79 45.2029 112.85Z" fill="#9F9F9F"/>
<path d="M36.8929 13.1601C34.3329 15.1501 30.8529 19.6501 31.8329 27.6901C32.5429 33.5501 36.4329 38.0701 36.7229 38.0101C37.0129 37.9501 60.4829 18.0601 60.4229 17.6601C60.3629 17.2601 57.6829 12.0101 50.9829 10.1801C44.2829 8.3501 38.9529 11.5501 36.8929 13.1601Z" fill="#FF8E00"/>
<path d="M49.1129 23.8999L56.9929 17.3899C56.9929 17.3899 54.1829 13.8399 49.8929 12.8699L49.1129 23.8999ZM34.5829 26.3499C34.9829 30.6699 37.0629 34.0499 37.0629 34.0499L45.3429 27.0799L34.5829 26.3499ZM46.9329 23.3199L47.9229 12.5999C45.4829 12.2199 42.5129 12.5799 39.8729 14.4999L46.9329 23.3199ZM38.2329 16.2799C36.0529 18.4999 34.9629 20.8599 34.7129 23.7799L45.3329 25.0899L38.2329 16.2799Z" fill="#FFA500"/>
<path d="M30.6329 7.74995C30.6329 7.74995 31.6729 8.93995 32.7529 7.89995C33.6529 7.03995 32.8429 6.09995 32.8429 6.09995C32.8429 6.09995 36.2529 4.96995 38.3129 7.31995C40.3729 9.66995 40.3129 13.0999 37.7929 14.8799C35.3629 16.5999 32.0329 16.4499 30.2329 13.4499C28.4629 10.4499 30.6329 7.74995 30.6329 7.74995Z" fill="#DC0D27"/>
<defs>
<radialGradient id="paint0_radial_483_919" cx="0" cy="0" r="1" gradientUnits="userSpaceOnUse" gradientTransform="translate(64.079 47.058) rotate(89.2952) scale(40.066 66.9009)">
<stop offset="0.262" stop-color="#FFD3A6"/>
<stop offset="0.304" stop-color="#FFCF97"/>
<stop offset="0.384" stop-color="#FFC471"/>
<stop offset="0.494" stop-color="#FFB334"/>
<stop offset="0.578" stop-color="#FFA500"/>
<stop offset="0.667" stop-color="#FF8702"/>
<stop offset="0.817" stop-color="#FF5B05"/>
<stop offset="0.932" stop-color="#FF3F06"/>
<stop offset="1" stop-color="#FF3507"/>
</radialGradient>
</defs>
</svg>
