<svg width="33" height="32" viewBox="0 0 33 32" fill="none" xmlns="http://www.w3.org/2000/svg">
<path d="M29.3329 12.33C29.3329 6.62 24.7129 2 19.0029 2H13.7929C8.09289 2 3.46289 6.62 3.46289 12.33H8.16289V21.03H24.6329V12.33H29.3329Z" fill="url(#paint0_linear_483_956)"/>
<g filter="url(#filter0_f_483_956)">
<path d="M28.9009 12.516C28.9009 6.92801 24.5079 2.40601 19.0809 2.40601H14.1269C8.70788 2.40601 4.30688 6.92801 4.30688 12.516H8.77489V21.03H24.4319V12.516H28.9009Z" fill="url(#paint1_linear_483_956)"/>
<path d="M28.9009 12.516C28.9009 6.92801 24.5079 2.40601 19.0809 2.40601H14.1269C8.70788 2.40601 4.30688 6.92801 4.30688 12.516H8.77489V21.03H24.4319V12.516H28.9009Z" fill="url(#paint2_linear_483_956)"/>
</g>
<path d="M23.5229 12.3301V12.4301C23.5229 16.3601 20.3329 19.5501 16.4029 19.5501C12.4729 19.5501 9.2829 16.3601 9.2829 12.4301V12.3301H3.4729L7.1029 28.2901C7.21943 28.8047 7.50772 29.2644 7.92031 29.5934C8.3329 29.9224 8.84521 30.1011 9.3729 30.1001H23.4329C24.5229 30.1001 25.4629 29.3501 25.7029 28.2901L29.3329 12.3301H23.5229Z" fill="url(#paint3_linear_483_956)"/>
<g filter="url(#filter1_f_483_956)">
<path d="M12.4629 5.06189C12.4579 4.50189 13.8149 4.04389 14.2289 3.79689C14.5049 3.79389 16.8479 4.21889 16.8499 4.49489L17.0199 22.7449C17.021 22.8773 16.9694 23.0048 16.8766 23.0993C16.7838 23.1938 16.6573 23.2476 16.5249 23.2489L13.1379 23.2809C13.0722 23.2816 13.0069 23.2692 12.9459 23.2447C12.885 23.2201 12.8294 23.1837 12.7825 23.1376C12.7356 23.0916 12.6983 23.0367 12.6726 22.9762C12.6469 22.9156 12.6334 22.8506 12.6329 22.7849L12.4629 5.06189Z" fill="#9A1B2B"/>
</g>
<path d="M13.4679 4.12807C13.4668 3.99563 13.5184 3.86818 13.6112 3.77369C13.704 3.6792 13.8305 3.62539 13.9629 3.62407L17.3499 3.59207C17.4156 3.59141 17.4807 3.60369 17.5416 3.62821C17.6026 3.65273 17.658 3.689 17.7049 3.73497C17.7518 3.78094 17.7892 3.83569 17.8149 3.8961C17.8407 3.95651 17.8543 4.0214 17.8549 4.08707L18.0249 22.3371C18.026 22.4695 17.9745 22.597 17.8817 22.6914C17.7888 22.7859 17.6623 22.8397 17.5299 22.8411L14.1429 22.8731C14.0772 22.8737 14.0119 22.8614 13.951 22.8368C13.89 22.8122 13.8344 22.7759 13.7875 22.7298C13.7406 22.6837 13.7033 22.6289 13.6776 22.5683C13.6519 22.5078 13.6384 22.4428 13.6379 22.3771L13.4679 4.12807Z" fill="url(#paint4_linear_483_956)"/>
<path d="M13.4679 4.12807C13.4668 3.99563 13.5184 3.86818 13.6112 3.77369C13.704 3.6792 13.8305 3.62539 13.9629 3.62407L17.3499 3.59207C17.4156 3.59141 17.4807 3.60369 17.5416 3.62821C17.6026 3.65273 17.658 3.689 17.7049 3.73497C17.7518 3.78094 17.7892 3.83569 17.8149 3.8961C17.8407 3.95651 17.8543 4.0214 17.8549 4.08707L18.0249 22.3371C18.026 22.4695 17.9745 22.597 17.8817 22.6914C17.7888 22.7859 17.6623 22.8397 17.5299 22.8411L14.1429 22.8731C14.0772 22.8737 14.0119 22.8614 13.951 22.8368C13.89 22.8122 13.8344 22.7759 13.7875 22.7298C13.7406 22.6837 13.7033 22.6289 13.6776 22.5683C13.6519 22.5078 13.6384 22.4428 13.6379 22.3771L13.4679 4.12807Z" fill="url(#paint5_linear_483_956)"/>
<path d="M22.1028 7.47106C22.1109 7.40584 22.1317 7.34285 22.1641 7.28568C22.1965 7.22851 22.2398 7.17829 22.2917 7.13789C22.3435 7.09749 22.4028 7.0677 22.4661 7.05023C22.5295 7.03276 22.5956 7.02794 22.6608 7.03606L26.0228 7.44606C26.088 7.45398 26.1511 7.47467 26.2083 7.50696C26.2655 7.53924 26.3158 7.58249 26.3562 7.63421C26.3967 7.68594 26.4266 7.74514 26.4442 7.80843C26.4618 7.87171 26.4668 7.93785 26.4588 8.00306L24.2488 26.1181C24.2328 26.2496 24.1653 26.3693 24.061 26.4511C23.9568 26.5328 23.8244 26.5699 23.6928 26.5541L20.3298 26.1441C20.2646 26.1361 20.2016 26.1154 20.1444 26.0832C20.0872 26.0509 20.0369 26.0076 19.9964 25.9559C19.9559 25.9042 19.926 25.845 19.9084 25.7817C19.8908 25.7184 19.8859 25.6523 19.8938 25.5871L22.1028 7.47106Z" fill="url(#paint6_linear_483_956)"/>
<path d="M22.1028 7.47106C22.1109 7.40584 22.1317 7.34285 22.1641 7.28568C22.1965 7.22851 22.2398 7.17829 22.2917 7.13789C22.3435 7.09749 22.4028 7.0677 22.4661 7.05023C22.5295 7.03276 22.5956 7.02794 22.6608 7.03606L26.0228 7.44606C26.088 7.45398 26.1511 7.47467 26.2083 7.50696C26.2655 7.53924 26.3158 7.58249 26.3562 7.63421C26.3967 7.68594 26.4266 7.74514 26.4442 7.80843C26.4618 7.87171 26.4668 7.93785 26.4588 8.00306L24.2488 26.1181C24.2328 26.2496 24.1653 26.3693 24.061 26.4511C23.9568 26.5328 23.8244 26.5699 23.6928 26.5541L20.3298 26.1441C20.2646 26.1361 20.2016 26.1154 20.1444 26.0832C20.0872 26.0509 20.0369 26.0076 19.9964 25.9559C19.9559 25.9042 19.926 25.845 19.9084 25.7817C19.8908 25.7184 19.8859 25.6523 19.8938 25.5871L22.1028 7.47106Z" fill="url(#paint7_linear_483_956)"/>
<path d="M18.3919 6.07309C18.4002 6.00795 18.4214 5.9451 18.4541 5.88813C18.4868 5.83116 18.5303 5.78119 18.5824 5.74107C18.6344 5.70095 18.6938 5.67148 18.7572 5.65432C18.8206 5.63717 18.8867 5.63267 18.9519 5.64109L22.3119 6.07709C22.4432 6.09428 22.5624 6.16291 22.6432 6.26791C22.724 6.37291 22.7599 6.50569 22.7429 6.63709L20.3989 24.7351C20.3905 24.8002 20.3693 24.8631 20.3366 24.92C20.3039 24.977 20.2604 25.027 20.2083 25.0671C20.1563 25.1072 20.0969 25.1367 20.0335 25.1539C19.9701 25.171 19.904 25.1755 19.8388 25.1671L16.4789 24.7321C16.4137 24.7237 16.3509 24.7026 16.2939 24.6699C16.2369 24.6372 16.187 24.5936 16.1468 24.5416C16.1067 24.4896 16.0772 24.4302 16.0601 24.3668C16.0429 24.3034 16.0384 24.2372 16.0469 24.1721L18.3919 6.07309Z" fill="url(#paint8_linear_483_956)"/>
<path d="M18.3919 6.07309C18.4002 6.00795 18.4214 5.9451 18.4541 5.88813C18.4868 5.83116 18.5303 5.78119 18.5824 5.74107C18.6344 5.70095 18.6938 5.67148 18.7572 5.65432C18.8206 5.63717 18.8867 5.63267 18.9519 5.64109L22.3119 6.07709C22.4432 6.09428 22.5624 6.16291 22.6432 6.26791C22.724 6.37291 22.7599 6.50569 22.7429 6.63709L20.3989 24.7351C20.3905 24.8002 20.3693 24.8631 20.3366 24.92C20.3039 24.977 20.2604 25.027 20.2083 25.0671C20.1563 25.1072 20.0969 25.1367 20.0335 25.1539C19.9701 25.171 19.904 25.1755 19.8388 25.1671L16.4789 24.7321C16.4137 24.7237 16.3509 24.7026 16.2939 24.6699C16.2369 24.6372 16.187 24.5936 16.1468 24.5416C16.1067 24.4896 16.0772 24.4302 16.0601 24.3668C16.0429 24.3034 16.0384 24.2372 16.0469 24.1721L18.3919 6.07309Z" fill="url(#paint9_linear_483_956)"/>
<path d="M18.3919 6.07309C18.4002 6.00795 18.4214 5.9451 18.4541 5.88813C18.4868 5.83116 18.5303 5.78119 18.5824 5.74107C18.6344 5.70095 18.6938 5.67148 18.7572 5.65432C18.8206 5.63717 18.8867 5.63267 18.9519 5.64109L22.3119 6.07709C22.4432 6.09428 22.5624 6.16291 22.6432 6.26791C22.724 6.37291 22.7599 6.50569 22.7429 6.63709L20.3989 24.7351C20.3905 24.8002 20.3693 24.8631 20.3366 24.92C20.3039 24.977 20.2604 25.027 20.2083 25.0671C20.1563 25.1072 20.0969 25.1367 20.0335 25.1539C19.9701 25.171 19.904 25.1755 19.8388 25.1671L16.4789 24.7321C16.4137 24.7237 16.3509 24.7026 16.2939 24.6699C16.2369 24.6372 16.187 24.5936 16.1468 24.5416C16.1067 24.4896 16.0772 24.4302 16.0601 24.3668C16.0429 24.3034 16.0384 24.2372 16.0469 24.1721L18.3919 6.07309Z" fill="url(#paint10_radial_483_956)"/>
<g filter="url(#filter2_f_483_956)">
<path d="M5.89587 8.79709C5.84187 8.35709 6.92387 7.40909 7.49687 6.93209C7.5641 6.87265 7.65115 6.84054 7.74087 6.84209C8.31487 6.86609 10.1989 7.15109 10.2349 7.39709L11.7589 20.3691C11.7687 20.4341 11.7655 20.5004 11.7497 20.5642C11.7338 20.628 11.7055 20.6881 11.6664 20.7409C11.6273 20.7938 11.5781 20.8384 11.5218 20.8722C11.4654 20.9061 11.4029 20.9284 11.3379 20.9381L7.98787 21.4381C7.85777 21.4577 7.72518 21.4252 7.61885 21.3477C7.51252 21.2702 7.44103 21.154 7.41987 21.0241L7.41887 21.0171L5.89587 8.79709Z" fill="#93142A"/>
</g>
<path d="M7.02095 7.16102C7.00146 7.03002 7.03473 6.89664 7.11348 6.79015C7.19222 6.68366 7.30999 6.61277 7.44095 6.59302L10.792 6.09202C10.8569 6.08222 10.9231 6.08532 10.9869 6.10113C11.0506 6.11693 11.1106 6.14514 11.1635 6.18415C11.2163 6.22315 11.2609 6.27218 11.2948 6.32844C11.3287 6.38469 11.3512 6.44707 11.3609 6.51202L14.0609 24.562C14.0804 24.6932 14.047 24.8267 13.9681 24.9332C13.8891 25.0397 13.7711 25.1105 13.64 25.13L10.2899 25.63C10.225 25.6398 10.1588 25.6367 10.095 25.6209C10.0313 25.6051 9.97128 25.5769 9.91844 25.5379C9.86561 25.4989 9.82097 25.4499 9.78708 25.3936C9.7532 25.3373 9.73072 25.275 9.72095 25.21L7.02095 7.16102Z" fill="url(#paint11_linear_483_956)"/>
<path d="M7.02095 7.16102C7.00146 7.03002 7.03473 6.89664 7.11348 6.79015C7.19222 6.68366 7.30999 6.61277 7.44095 6.59302L10.792 6.09202C10.8569 6.08222 10.9231 6.08532 10.9869 6.10113C11.0506 6.11693 11.1106 6.14514 11.1635 6.18415C11.2163 6.22315 11.2609 6.27218 11.2948 6.32844C11.3287 6.38469 11.3512 6.44707 11.3609 6.51202L14.0609 24.562C14.0804 24.6932 14.047 24.8267 13.9681 24.9332C13.8891 25.0397 13.7711 25.1105 13.64 25.13L10.2899 25.63C10.225 25.6398 10.1588 25.6367 10.095 25.6209C10.0313 25.6051 9.97128 25.5769 9.91844 25.5379C9.86561 25.4989 9.82097 25.4499 9.78708 25.3936C9.7532 25.3373 9.73072 25.275 9.72095 25.21L7.02095 7.16102Z" fill="url(#paint12_linear_483_956)"/>
<path d="M7.02095 7.16102C7.00146 7.03002 7.03473 6.89664 7.11348 6.79015C7.19222 6.68366 7.30999 6.61277 7.44095 6.59302L10.792 6.09202C10.8569 6.08222 10.9231 6.08532 10.9869 6.10113C11.0506 6.11693 11.1106 6.14514 11.1635 6.18415C11.2163 6.22315 11.2609 6.27218 11.2948 6.32844C11.3287 6.38469 11.3512 6.44707 11.3609 6.51202L14.0609 24.562C14.0804 24.6932 14.047 24.8267 13.9681 24.9332C13.8891 25.0397 13.7711 25.1105 13.64 25.13L10.2899 25.63C10.225 25.6398 10.1588 25.6367 10.095 25.6209C10.0313 25.6051 9.97128 25.5769 9.91844 25.5379C9.86561 25.4989 9.82097 25.4499 9.78708 25.3936C9.7532 25.3373 9.73072 25.275 9.72095 25.21L7.02095 7.16102Z" fill="url(#paint13_radial_483_956)"/>
<path d="M11.1428 7.93193C11.1297 7.79999 11.1695 7.66824 11.2536 7.56566C11.3376 7.46308 11.4589 7.39807 11.5908 7.38493L14.9608 7.04893C15.0263 7.0423 15.0925 7.04867 15.1555 7.06766C15.2185 7.08666 15.2772 7.11791 15.3281 7.15963C15.379 7.20134 15.4212 7.2527 15.4522 7.31076C15.4832 7.36881 15.5025 7.43242 15.5088 7.49793L17.3138 25.6579C17.327 25.7899 17.2871 25.9216 17.2031 26.0242C17.1191 26.1268 16.9978 26.1918 16.8658 26.2049L13.4958 26.5399C13.4304 26.5466 13.3643 26.5402 13.3014 26.5213C13.2384 26.5024 13.1798 26.4712 13.1289 26.4296C13.078 26.388 13.0358 26.3367 13.0048 26.2788C12.9737 26.2209 12.9543 26.1574 12.9478 26.0919L11.1428 7.93193Z" fill="url(#paint14_linear_483_956)"/>
<path d="M11.1428 7.93193C11.1297 7.79999 11.1695 7.66824 11.2536 7.56566C11.3376 7.46308 11.4589 7.39807 11.5908 7.38493L14.9608 7.04893C15.0263 7.0423 15.0925 7.04867 15.1555 7.06766C15.2185 7.08666 15.2772 7.11791 15.3281 7.15963C15.379 7.20134 15.4212 7.2527 15.4522 7.31076C15.4832 7.36881 15.5025 7.43242 15.5088 7.49793L17.3138 25.6579C17.327 25.7899 17.2871 25.9216 17.2031 26.0242C17.1191 26.1268 16.9978 26.1918 16.8658 26.2049L13.4958 26.5399C13.4304 26.5466 13.3643 26.5402 13.3014 26.5213C13.2384 26.5024 13.1798 26.4712 13.1289 26.4296C13.078 26.388 13.0358 26.3367 13.0048 26.2788C12.9737 26.2209 12.9543 26.1574 12.9478 26.0919L11.1428 7.93193Z" fill="url(#paint15_linear_483_956)"/>
<path d="M24.8129 12.3301C24.1129 12.3301 23.5329 12.8401 23.4129 13.5301C22.8229 16.8701 19.9129 19.4101 16.4029 19.4101C12.8929 19.4101 9.9829 16.8701 9.3929 13.5301C9.2729 12.8401 8.6929 12.3301 7.9929 12.3301H3.4729L7.1029 28.2901C7.21943 28.8047 7.50772 29.2644 7.92031 29.5934C8.3329 29.9224 8.84521 30.1011 9.3729 30.1001H23.4329C24.5229 30.1001 25.4629 29.3501 25.7029 28.2901L29.3329 12.3301H24.8129Z" fill="url(#paint16_linear_483_956)"/>
<g filter="url(#filter3_f_483_956)">
<path d="M8.80688 13.094C9.07688 15.364 11.2129 19.781 16.3069 19.781" stroke="url(#paint17_radial_483_956)" stroke-width="0.3" stroke-linecap="round"/>
</g>
<g filter="url(#filter4_f_483_956)">
<path d="M28.8379 12.938L24.1039 13.016C23.8069 13.016 23.6839 13.434 23.6339 13.734C23.4899 14.601 21.7909 19.594 17.0099 19.594" stroke="url(#paint18_linear_483_956)" stroke-width="0.3" stroke-linecap="round"/>
</g>
<defs>
<filter id="filter0_f_483_956" x="3.80688" y="1.90601" width="25.594" height="19.624" filterUnits="userSpaceOnUse" color-interpolation-filters="sRGB">
<feFlood flood-opacity="0" result="BackgroundImageFix"/>
<feBlend mode="normal" in="SourceGraphic" in2="BackgroundImageFix" result="shape"/>
<feGaussianBlur stdDeviation="0.25" result="effect1_foregroundBlur_483_956"/>
</filter>
<filter id="filter1_f_483_956" x="10.4629" y="1.79688" width="8.55701" height="23.4841" filterUnits="userSpaceOnUse" color-interpolation-filters="sRGB">
<feFlood flood-opacity="0" result="BackgroundImageFix"/>
<feBlend mode="normal" in="SourceGraphic" in2="BackgroundImageFix" result="shape"/>
<feGaussianBlur stdDeviation="1" result="effect1_foregroundBlur_483_956"/>
</filter>
<filter id="filter2_f_483_956" x="3.89392" y="4.84204" width="9.87048" height="18.6016" filterUnits="userSpaceOnUse" color-interpolation-filters="sRGB">
<feFlood flood-opacity="0" result="BackgroundImageFix"/>
<feBlend mode="normal" in="SourceGraphic" in2="BackgroundImageFix" result="shape"/>
<feGaussianBlur stdDeviation="1" result="effect1_foregroundBlur_483_956"/>
</filter>
<filter id="filter3_f_483_956" x="8.40686" y="12.6941" width="8.30005" height="7.48682" filterUnits="userSpaceOnUse" color-interpolation-filters="sRGB">
<feFlood flood-opacity="0" result="BackgroundImageFix"/>
<feBlend mode="normal" in="SourceGraphic" in2="BackgroundImageFix" result="shape"/>
<feGaussianBlur stdDeviation="0.125" result="effect1_foregroundBlur_483_956"/>
</filter>
<filter id="filter4_f_483_956" x="16.6099" y="12.5381" width="12.6281" height="7.45581" filterUnits="userSpaceOnUse" color-interpolation-filters="sRGB">
<feFlood flood-opacity="0" result="BackgroundImageFix"/>
<feBlend mode="normal" in="SourceGraphic" in2="BackgroundImageFix" result="shape"/>
<feGaussianBlur stdDeviation="0.125" result="effect1_foregroundBlur_483_956"/>
</filter>
<linearGradient id="paint0_linear_483_956" x1="16.3979" y1="2" x2="16.3979" y2="16.5" gradientUnits="userSpaceOnUse">
<stop stop-color="#B22D50"/>
<stop offset="1" stop-color="#A7273C"/>
</linearGradient>
<linearGradient id="paint1_linear_483_956" x1="8.30488" y1="4.42301" x2="19.0889" y2="12.765" gradientUnits="userSpaceOnUse">
<stop stop-color="#B5425F"/>
<stop offset="1" stop-color="#B74561" stop-opacity="0"/>
</linearGradient>
<linearGradient id="paint2_linear_483_956" x1="12.6509" y1="13.813" x2="12.6509" y2="2.40601" gradientUnits="userSpaceOnUse">
<stop offset="0.11" stop-color="#902438"/>
<stop offset="0.214" stop-color="#94273B" stop-opacity="0"/>
</linearGradient>
<linearGradient id="paint3_linear_483_956" x1="3.4689" y1="21.2141" x2="29.3319" y2="21.2141" gradientUnits="userSpaceOnUse">
<stop stop-color="#ED1C26"/>
<stop offset="0.456" stop-color="#ED1452"/>
<stop offset="1" stop-color="#EC098C"/>
</linearGradient>
<linearGradient id="paint4_linear_483_956" x1="16.1509" y1="5.37507" x2="18.8189" y2="22.2801" gradientUnits="userSpaceOnUse">
<stop offset="0.048" stop-color="#FEE654"/>
<stop offset="0.327" stop-color="#CB9A28"/>
<stop offset="0.686" stop-color="#995C11"/>
</linearGradient>
<linearGradient id="paint5_linear_483_956" x1="13.7769" y1="7.69907" x2="14.7749" y2="7.70007" gradientUnits="userSpaceOnUse">
<stop stop-color="#D3A524"/>
<stop offset="0.467" stop-color="#DBAD29"/>
<stop offset="1" stop-color="#D1A71E" stop-opacity="0"/>
</linearGradient>
<linearGradient id="paint6_linear_483_956" x1="21.8488" y1="7.28806" x2="24.8868" y2="26.2411" gradientUnits="userSpaceOnUse">
<stop offset="0.048" stop-color="#FFE855"/>
<stop offset="0.686" stop-color="#F7BC4A"/>
</linearGradient>
<linearGradient id="paint7_linear_483_956" x1="21.9938" y1="11.3751" x2="23.3358" y2="11.5491" gradientUnits="userSpaceOnUse">
<stop stop-color="#DDA80E"/>
<stop offset="0.552" stop-color="#DDA80E"/>
<stop offset="1" stop-color="#CFAB2B" stop-opacity="0"/>
</linearGradient>
<linearGradient id="paint8_linear_483_956" x1="18.0409" y1="5.89309" x2="21.0248" y2="24.8721" gradientUnits="userSpaceOnUse">
<stop offset="0.048" stop-color="#FFE855"/>
<stop offset="0.686" stop-color="#F7BC4A"/>
</linearGradient>
<linearGradient id="paint9_linear_483_956" x1="17.8069" y1="9.87509" x2="19.1779" y2="10.0881" gradientUnits="userSpaceOnUse">
<stop stop-color="#BA8F22"/>
<stop offset="0.552" stop-color="#CAA92E"/>
<stop offset="1" stop-color="#CFAB2B" stop-opacity="0"/>
</linearGradient>
<radialGradient id="paint10_radial_483_956" cx="0" cy="0" r="1" gradientUnits="userSpaceOnUse" gradientTransform="translate(21.0879 19.0001) rotate(98.9726) scale(7.21327 3.69938)">
<stop stop-color="#B96D11"/>
<stop offset="1" stop-color="#C07617" stop-opacity="0"/>
</radialGradient>
<linearGradient id="paint11_linear_483_956" x1="9.11695" y1="6.34202" x2="11.9649" y2="25.38" gradientUnits="userSpaceOnUse">
<stop offset="0.048" stop-color="#FDE252"/>
<stop offset="0.686" stop-color="#D3A538"/>
</linearGradient>
<linearGradient id="paint12_linear_483_956" x1="7.49395" y1="10.25" x2="8.79095" y2="10.063" gradientUnits="userSpaceOnUse">
<stop stop-color="#BA8F22"/>
<stop offset="0.552" stop-color="#CAA92E"/>
<stop offset="1" stop-color="#CFAB2B" stop-opacity="0"/>
</linearGradient>
<radialGradient id="paint13_radial_483_956" cx="0" cy="0" r="1" gradientUnits="userSpaceOnUse" gradientTransform="translate(12.3381 15.8616) rotate(82.763) scale(9.9227 4.66075)">
<stop stop-color="#A7650A"/>
<stop offset="1" stop-color="#A15D0A" stop-opacity="0"/>
</radialGradient>
<linearGradient id="paint14_linear_483_956" x1="12.9808" y1="7.30193" x2="16.1928" y2="26.1649" gradientUnits="userSpaceOnUse">
<stop offset="0.048" stop-color="#FFE855"/>
<stop offset="0.686" stop-color="#F7BC4A"/>
</linearGradient>
<linearGradient id="paint15_linear_483_956" x1="11.5588" y1="11.1989" x2="12.8108" y2="11.0769" gradientUnits="userSpaceOnUse">
<stop stop-color="#BA8F22"/>
<stop offset="0.552" stop-color="#CAA92E"/>
<stop offset="1" stop-color="#CFAB2B" stop-opacity="0"/>
</linearGradient>
<linearGradient id="paint16_linear_483_956" x1="5.7759" y1="22.5001" x2="28.4009" y2="19.6881" gradientUnits="userSpaceOnUse">
<stop stop-color="#BB2C41"/>
<stop offset="0.161" stop-color="#DD2B5D"/>
<stop offset="0.49" stop-color="#E92F74"/>
<stop offset="1" stop-color="#F2368C"/>
</linearGradient>
<radialGradient id="paint17_radial_483_956" cx="0" cy="0" r="1" gradientUnits="userSpaceOnUse" gradientTransform="translate(11.2129 15.5) rotate(54.9799) scale(5.22772 5.86287)">
<stop stop-color="#FF6983"/>
<stop offset="1" stop-color="#FB5471" stop-opacity="0"/>
</radialGradient>
<linearGradient id="paint18_linear_483_956" x1="18.0259" y1="13.438" x2="27.2879" y2="16.737" gradientUnits="userSpaceOnUse">
<stop stop-color="#FB5471" stop-opacity="0"/>
<stop offset="0.521" stop-color="#DE316B"/>
<stop offset="0.623" stop-color="#FC5396"/>
</linearGradient>
</defs>
</svg>
