<svg width="129" height="128" viewBox="0 0 129 128" fill="none" xmlns="http://www.w3.org/2000/svg">
<path d="M121.493 21.75L4.93287 62.94C4.93287 62.94 4.50287 72.17 5.50287 79.83C6.50287 87.49 7.91287 91.61 7.91287 91.61C7.91287 91.61 11.7429 109.07 34.0329 117.73C56.3229 126.39 79.1329 116.56 85.9929 112.76C94.2329 108.2 104.993 97.68 109.253 92.43C113.513 87.18 121.773 75.29 122.763 67.62C123.753 59.95 124.793 47.83 124.753 40.16C124.683 28.8 121.493 21.75 121.493 21.75Z" fill="#FEA8A6"/>
<path d="M64.5529 29.72C57.8829 31.28 36.5829 33.69 31.4729 35.11C26.3629 36.53 19.3229 39.29 17.1229 41.03C13.5229 43.88 4.87295 58.39 4.92295 62.94C5.00295 70.85 7.94295 80.62 10.5029 82.98C12.3629 84.7 26.7929 105.52 46.3829 105.66C65.9729 105.8 109.133 76.27 110.973 73.72C112.823 71.16 119.223 58.92 121.003 51.19C122.573 44.36 124.563 29.68 121.193 20.77C118.603 13.91 112.483 7.58 108.313 6.75C100.063 5.12 95.3629 6.72 94.0829 7.15C92.8029 7.58 90.6129 20.89 85.1429 22.91C77.0529 25.89 64.5529 29.72 64.5529 29.72Z" fill="#FED5B6"/>
<path d="M89.6529 22.5999C95.4729 19.1599 96.0829 6.62988 96.0829 6.62988C96.0829 6.62988 91.6229 6.91988 86.6529 10.9499C81.6829 14.9799 75.9429 22.1699 73.1129 24.2299C70.2829 26.2899 64.5529 29.7199 64.5529 29.7199C64.5529 29.7199 80.6829 27.8899 89.6529 22.5999ZM96.4229 37.2499C99.4929 46.6899 110.643 49.6699 113.813 48.8199C116.983 47.9599 118.953 41.0199 118.693 30.9099C118.433 20.7999 113.293 15.1399 108.493 15.4899C104.383 15.7799 98.6329 19.7999 96.4929 25.9399C95.248 29.6033 95.2234 33.5714 96.4229 37.2499ZM77.6529 34.9399C78.9829 36.2699 75.3429 40.1699 77.3929 46.2499C79.4529 52.3299 82.8729 54.0499 82.6229 55.8499C82.3729 57.6499 68.1429 75.6399 58.1229 79.4099C48.1029 83.1799 20.2929 81.9199 15.1929 67.7599C11.3329 57.0499 19.4829 47.8099 21.6229 46.0799C24.8729 43.4499 28.0929 41.4399 33.0229 40.5099C34.9029 40.1599 48.9629 38.0299 57.2729 37.1699C65.5729 36.3099 76.1129 33.3999 77.6529 34.9399Z" fill="#DC0D28"/>
<path d="M54.0029 42.22C54.7029 45.47 45.1729 48.65 37.8129 54.04C32.3629 58.03 28.2129 65.35 23.5029 62.44C18.7929 59.53 25.4329 48.28 27.9629 46.33C30.9529 44.02 53.2329 38.62 54.0029 42.22ZM79.9429 22.78C80.6629 24.38 85.9429 20.47 88.5129 18.32C90.5929 16.59 93.1129 15.02 91.7729 12.92C90.2329 10.52 87.4929 12.58 84.8329 15.4C83.0929 17.25 79.1629 21.07 79.9429 22.78Z" fill="#FF5F5D"/>
<path d="M40.5529 89.6899C44.5329 90.9499 43.1429 104.9 46.1229 104.77C49.5729 104.63 47.0529 92.9299 50.2229 90.1099C53.3929 87.2799 57.3829 87.7399 63.1229 84.9099C68.8629 82.0799 75.1729 76.7599 79.6229 71.5299C84.0829 66.2999 89.0529 60.3899 91.3629 58.5899C93.6729 56.7899 105.763 53.1899 109.953 56.1099C114.153 59.0199 112.613 71.3599 112.613 71.3599C112.613 71.3599 104.433 86.0199 87.9829 95.7499C71.5329 105.48 62.1729 109.34 42.1529 107.05C22.1329 104.76 10.1229 82.5799 10.1229 82.5799C10.1229 82.5799 17.8429 85.8699 26.5729 87.2999C35.3029 88.7299 36.5929 88.4399 40.5529 89.6899Z" fill="#DC0D28"/>
<path d="M88.0428 29.47C83.1028 32.47 78.7028 38.07 80.9428 45.58C83.1828 53.09 94.8028 57.65 102.453 50.33C109.233 43.85 107.633 36.29 104.523 32.62C101.433 28.96 94.4828 25.56 88.0428 29.47Z" fill="white"/>
<path d="M98.4029 32.83C93.1629 30.17 87.7929 33.21 86.1229 36.62C84.4629 40.03 84.6729 44.82 88.6329 47.66C92.8729 50.71 99.3829 49.18 101.653 44.51C103.923 39.84 102.563 34.94 98.4029 32.83Z" fill="#FFA8A7"/>
</svg>
