<svg width="129" height="128" viewBox="0 0 129 128" fill="none" xmlns="http://www.w3.org/2000/svg">
<path d="M4.30289 82.0199C2.71289 65.3199 12.2329 52.0699 20.3029 46.7299C28.5529 41.2699 32.4029 40.4899 34.2629 39.4399C42.8329 34.6199 48.8629 23.8699 60.3829 15.9399C73.4929 6.91994 91.4229 5.57994 102.423 11.6099C112.453 17.1099 122.733 29.0899 119.983 52.9399C117.233 76.7899 57.3129 116.04 47.0329 116.6C36.7529 117.16 6.70289 107.26 4.30289 82.0199Z" fill="#B8885A"/>
<path d="M71.1029 76.6901C66.3929 79.4501 48.7029 96.98 28.4029 96.5C8.10291 96.02 4.98291 86.2101 4.98291 86.2101C4.98291 86.2101 7.89291 103.31 21.8929 113.44C37.7329 124.9 54.5329 120.39 59.4329 119.29C66.7029 117.66 73.1229 114.32 79.5529 110.83C85.9829 107.34 108.843 96.33 117.823 79C127.733 59.88 125.373 44.56 120.423 33.42C115.183 21.63 110.073 17.3 110.073 17.3C110.073 17.3 114.833 41.99 104.753 55.73C90.4529 75.22 75.8129 73.9301 71.1029 76.6901Z" fill="#875B52"/>
<path d="M63.6929 97.1699C63.7529 98.4299 68.2429 98.3299 71.5029 97.7999C74.9529 97.2399 77.8029 97.1899 78.2829 95.8599C78.7629 94.5299 73.5029 89.8999 70.4029 90.0599C68.4629 90.1699 63.6029 95.3299 63.6929 97.1699ZM87.0529 99.5999C87.7229 100.57 90.5029 99.0899 91.5229 97.7599C92.5429 96.4299 93.6929 93.8599 92.7729 93.2899C91.8529 92.7199 89.2229 92.7299 87.9229 94.3299C86.6329 95.9399 86.3829 98.6299 87.0529 99.5999ZM117.713 38.2799C116.623 36.3599 114.673 40.8999 114.583 42.4699C114.493 44.0399 115.673 44.9599 116.983 45.2399C118.273 45.5099 121.213 44.4499 117.713 38.2799ZM29.5429 107.08C28.6629 108.57 30.1129 109.65 31.5829 110.65C32.7429 111.44 35.5829 111.86 36.1429 110.98C36.7129 110.1 35.5929 108.91 33.4729 107.13C32.0229 105.92 30.4229 105.59 29.5429 107.08Z" fill="#513531"/>
<path d="M17.8629 84.2401C16.6129 85.1101 17.6229 88.9701 17.7929 89.7101C17.9629 90.4501 22.9429 90.7101 23.6829 89.5701C24.4229 88.4301 22.8629 86.7801 21.7629 85.6301C20.6629 84.4901 19.1129 83.3701 17.8629 84.2401ZM26.7629 75.2501C28.3029 77.3401 31.0929 74.8301 31.5429 72.9601C32.0229 70.9501 30.3329 69.6401 28.4229 70.8301C26.8929 71.7701 25.8629 74.0401 26.7629 75.2501ZM46.6829 35.4601C44.6829 34.6201 43.9229 36.3801 43.1729 38.1601C42.4229 39.9401 40.0029 43.1801 41.5229 43.6301C43.0429 44.0801 46.6229 43.8701 47.5129 42.4201C48.4029 40.9601 48.6829 36.3101 46.6829 35.4601Z" fill="#875B52"/>
<path d="M12.5329 79.4801C14.7329 80.4701 18.1529 75.7901 19.7229 73.5401C22.0329 70.2301 25.5129 66.0501 33.6629 61.0001C44.8429 54.0801 56.5129 55.8201 62.5129 50.6101C68.5129 45.4001 71.9929 35.0701 76.5729 29.9501C84.9429 20.5901 93.6329 26.9801 94.8429 22.4501C96.0529 17.9201 89.8529 14.0701 82.5329 14.0801C75.2229 14.1001 66.8629 16.7901 59.2629 29.0801C51.6629 41.3701 49.7729 45.1301 42.7229 47.3501C35.6729 49.5801 26.9129 52.5201 18.4729 61.9101C13.7829 67.1301 8.86289 77.8301 12.5329 79.4801Z" fill="#D9AC82"/>
<path d="M83.2329 33.8201C83.6629 37.0201 88.0629 38.7601 90.6529 38.7901C93.0829 38.8201 94.8329 37.2401 94.8029 35.6301C94.7729 33.7001 91.6329 32.8101 90.4029 32.3301C87.9929 31.4001 87.4329 29.3801 85.1829 30.1001C83.1429 30.7601 83.1729 33.3301 83.2329 33.8201Z" fill="#875B52"/>
</svg>
