<svg width="32" height="32" viewBox="0 0 32 32" fill="none" xmlns="http://www.w3.org/2000/svg">
<path d="M18.69 30.0002H13.28C5.531 30.0002 2 24.7932 2 18.3832V12.9602H29.97V18.3832C29.97 24.7932 26.563 30.0002 18.69 30.0002Z" fill="url(#paint0_linear_483_876)"/>
<path d="M21.97 7.18018C25.16 7.18018 27.75 9.77018 27.75 12.9602C27.75 16.1502 25.16 18.7402 21.97 18.7402H9.99997C6.80997 18.7402 4.21997 16.1502 4.21997 12.9602C4.21997 9.77018 6.80997 7.18018 9.99997 7.18018H21.97Z" fill="url(#paint1_linear_483_876)"/>
<path d="M21.97 6H10C5.58 6 2 9.314 2 13.406C2 17.498 5.58 20.812 10 20.812H21.97C26.39 20.812 29.97 17.498 29.97 13.406C29.97 9.314 26.39 6 21.97 6Z" fill="url(#paint2_linear_483_876)"/>
<g filter="url(#filter0_f_483_876)">
<path d="M21.768 6.18823H10.013C5.67301 6.18823 2.15601 9.50223 2.15601 13.5942C2.15601 17.6862 5.67201 21.0002 10.013 21.0002H21.768C26.109 21.0002 29.625 17.6862 29.625 13.5942C29.625 9.50223 26.109 6.18823 21.768 6.18823Z" fill="#DDDAE4"/>
</g>
<path d="M27.172 11.4061C25.893 8.92111 24.032 8.90611 22.422 7.79611C20.812 6.68711 20.727 5.99211 19.81 4.84011C19.3547 4.26588 18.7756 3.80197 18.1158 3.48307C17.4561 3.16418 16.7328 2.99854 16 2.99854C15.2672 2.99854 14.5439 3.16418 13.8841 3.48307C13.2244 3.80197 12.6452 4.26588 12.19 4.84011C11.066 6.25011 10.969 7.25011 9.71898 7.92211C7.87698 8.91211 6.09898 8.44711 4.81198 11.8911C4.18198 13.5771 4.35798 14.7811 4.81198 15.7971C6.22398 18.9491 10.859 19.2811 16.047 19.2811C21.234 19.2811 23.281 19.1711 25.407 17.7811C27.89 16.1561 28.118 13.2461 27.172 11.4061Z" fill="url(#paint3_linear_483_876)"/>
<path d="M27.172 11.4061C25.893 8.92111 24.032 8.90611 22.422 7.79611C20.812 6.68711 20.727 5.99211 19.81 4.84011C19.3547 4.26588 18.7756 3.80197 18.1158 3.48307C17.4561 3.16418 16.7328 2.99854 16 2.99854C15.2672 2.99854 14.5439 3.16418 13.8841 3.48307C13.2244 3.80197 12.6452 4.26588 12.19 4.84011C11.066 6.25011 10.969 7.25011 9.71898 7.92211C7.87698 8.91211 6.09898 8.44711 4.81198 11.8911C4.18198 13.5771 4.35798 14.7811 4.81198 15.7971C6.22398 18.9491 10.859 19.2811 16.047 19.2811C21.234 19.2811 23.281 19.1711 25.407 17.7811C27.89 16.1561 28.118 13.2461 27.172 11.4061Z" fill="url(#paint4_radial_483_876)"/>
<path d="M27.172 11.4061C25.893 8.92111 24.032 8.90611 22.422 7.79611C20.812 6.68711 20.727 5.99211 19.81 4.84011C19.3547 4.26588 18.7756 3.80197 18.1158 3.48307C17.4561 3.16418 16.7328 2.99854 16 2.99854C15.2672 2.99854 14.5439 3.16418 13.8841 3.48307C13.2244 3.80197 12.6452 4.26588 12.19 4.84011C11.066 6.25011 10.969 7.25011 9.71898 7.92211C7.87698 8.91211 6.09898 8.44711 4.81198 11.8911C4.18198 13.5771 4.35798 14.7811 4.81198 15.7971C6.22398 18.9491 10.859 19.2811 16.047 19.2811C21.234 19.2811 23.281 19.1711 25.407 17.7811C27.89 16.1561 28.118 13.2461 27.172 11.4061Z" fill="url(#paint5_radial_483_876)"/>
<g filter="url(#filter1_f_483_876)">
<path d="M27.156 15.0741C26.652 14.3561 24.481 12.7031 21.866 12.6061C19.036 12.5011 17.737 14.1531 15.994 14.1531C14.786 14.1531 11.644 12.5061 10.138 12.6061C6.791 12.8461 5.887 14.0741 5 15.2931C5.612 16.9491 7.182 18.1081 9.801 18.5901C12.263 19.0431 19.531 19.1431 21.774 18.7781C24.018 18.4121 26.254 17.4031 27.156 15.0741Z" fill="url(#paint6_linear_483_876)"/>
</g>
<path d="M24.836 12.7202C25.6271 11.801 26.0688 10.6324 26.0834 9.41976C26.098 8.20714 25.6847 7.02819 24.916 6.09019C24.8462 6.00301 24.7578 5.93247 24.6573 5.88368C24.5567 5.8349 24.4466 5.80909 24.3349 5.80813C24.2232 5.80718 24.1126 5.83109 24.0113 5.87815C23.91 5.9252 23.8204 5.99422 23.749 6.08019L18.107 12.6402C18.0344 12.725 17.9812 12.8246 17.9511 12.9321C17.921 13.0396 17.9148 13.1524 17.9328 13.2626C17.9508 13.3728 17.9926 13.4777 18.0553 13.57C18.1181 13.6624 18.2002 13.7399 18.296 13.7972C19.34 14.4109 20.5661 14.6393 21.761 14.4425C22.9559 14.2457 24.044 13.6363 24.836 12.7202Z" fill="url(#paint7_linear_483_876)"/>
<g filter="url(#filter2_f_483_876)">
<path d="M24.66 12.5732C25.3916 11.6972 25.7984 10.5956 25.8119 9.45437C25.8254 8.31315 25.4447 7.20224 24.734 6.3092C24.458 5.9602 24.117 6.0262 23.832 6.3752L18.621 12.5732C18.336 12.9132 18.244 13.3552 18.621 13.5902C19.5834 14.1699 20.7214 14.386 21.8292 14.1994C22.9371 14.0129 23.9406 13.436 24.66 12.5732Z" fill="url(#paint8_linear_483_876)"/>
</g>
<g filter="url(#filter3_f_483_876)">
<path d="M21.486 8.90404C21.5857 8.98675 21.7136 9.02755 21.8428 9.01783C21.972 9.00811 22.0923 8.94864 22.1785 8.85195C22.2647 8.75525 22.31 8.62888 22.3049 8.49944C22.2998 8.37001 22.2446 8.24762 22.151 8.15804L21.486 8.90404ZM16.631 3.51604C16.567 3.49799 16.4999 3.49292 16.4338 3.50113C16.3678 3.50934 16.304 3.53066 16.2463 3.56384C16.1886 3.59702 16.1381 3.6414 16.0977 3.69436C16.0574 3.74733 16.028 3.80782 16.0114 3.87228C15.9947 3.93675 15.9911 4.00389 16.0008 4.06976C16.0104 4.13564 16.0331 4.19893 16.0675 4.25591C16.102 4.31289 16.1475 4.36243 16.2013 4.4016C16.2551 4.44078 16.3162 4.4688 16.381 4.48404L16.631 3.51604ZM22.151 8.15804C21.38 7.46904 20.761 7.00104 19.711 5.52304L18.895 6.10204C20.018 7.68204 20.717 8.21804 21.486 8.90404L22.151 8.15804ZM19.711 5.52304C18.847 4.30704 17.413 3.71704 16.631 3.51604L16.381 4.48404C17.058 4.65804 18.227 5.16104 18.895 6.10204L19.711 5.52304Z" fill="url(#paint9_radial_483_876)"/>
</g>
<path d="M23.073 11.1432C24.073 9.98315 23.943 8.23315 22.783 7.23315L19.163 11.4332C20.323 12.4432 22.073 12.3032 23.073 11.1432Z" fill="url(#paint10_linear_483_876)"/>
<path d="M27.375 15.3752C26.859 14.6562 24.642 13.0032 21.969 12.9062C19.076 12.8012 17.75 14.4532 15.969 14.4532C14.734 14.4532 11.524 12.8062 9.98401 12.9062C6.56401 13.1462 5.64101 14.3752 4.73401 15.5942C5.35901 17.2502 6.96401 18.4092 9.64101 18.8912C12.156 19.3442 19.582 19.4432 21.875 19.0782C24.168 18.7132 26.453 17.7032 27.375 15.3752Z" fill="url(#paint11_linear_483_876)"/>
<g filter="url(#filter4_f_483_876)">
<path d="M12.875 14.8751C13.583 15.1881 15.094 15.6881 17.031 15.6881C18.969 15.6881 19.5 14.0941 22.313 14.2181C24.563 14.3181 26.313 15.4581 26.625 15.9381" stroke="url(#paint12_radial_483_876)" stroke-linecap="round"/>
</g>
<g filter="url(#filter5_f_483_876)">
<path d="M13.072 18.9052C13.5441 18.9052 13.9968 18.7177 14.3306 18.3839C14.6645 18.05 14.852 17.5973 14.852 17.1252C14.852 16.6531 14.6645 16.2004 14.3306 15.8666C13.9968 15.5328 13.5441 15.3452 13.072 15.3452C12.5999 15.3452 12.1472 15.5328 11.8133 15.8666C11.4795 16.2004 11.292 16.6531 11.292 17.1252C11.292 17.5973 11.4795 18.05 11.8133 18.3839C12.1472 18.7177 12.5999 18.9052 13.072 18.9052Z" fill="#447437"/>
</g>
<path d="M8.88606 16.5332C11.2161 17.5632 13.9061 16.7432 15.2761 14.6932C15.5361 14.3032 15.3861 13.7632 14.9561 13.5632L7.02606 10.0532C6.58606 9.85321 6.08606 10.1032 5.96606 10.5632C5.37606 12.9532 6.55606 15.5032 8.88606 16.5332Z" fill="url(#paint13_linear_483_876)"/>
<g filter="url(#filter6_f_483_876)">
<path d="M9.07702 16.1962C10.0658 16.6347 11.1774 16.7109 12.2168 16.4116C13.2561 16.1122 14.1569 15.4564 14.761 14.5592C14.992 14.2122 14.758 13.8972 14.375 13.7192L7.32102 10.5962C6.92902 10.4182 6.58602 10.4762 6.47902 10.8852C5.95402 13.0112 7.00402 15.2802 9.07702 16.1962Z" fill="#CF336F"/>
<path d="M9.07702 16.1962C10.0658 16.6347 11.1774 16.7109 12.2168 16.4116C13.2561 16.1122 14.1569 15.4564 14.761 14.5592C14.992 14.2122 14.758 13.8972 14.375 13.7192L7.32102 10.5962C6.92902 10.4182 6.58602 10.4762 6.47902 10.8852C5.95402 13.0112 7.00402 15.2802 9.07702 16.1962Z" fill="url(#paint14_radial_483_876)"/>
</g>
<path d="M9.85996 14.4262C10.5518 14.7332 11.3373 14.7529 12.0436 14.481C12.75 14.2091 13.3195 13.6678 13.627 12.9762L8.40896 10.6602C8.1023 11.352 8.08288 12.1373 8.35496 12.8435C8.62704 13.5497 9.16836 14.1189 9.85996 14.4262Z" fill="url(#paint15_linear_483_876)"/>
<g filter="url(#filter7_f_483_876)">
<path d="M13.76 12.0002C14.955 12.0002 16.365 10.8662 16.365 9.67015C16.365 8.47415 15.395 7.50415 14.199 7.50415C13.003 7.50415 11.594 8.94315 11.594 10.1392C11.594 11.3352 12.564 12.0002 13.759 12.0002" fill="#346433"/>
</g>
<path d="M14.62 11.0842C15.1061 11.0842 15.5724 10.8911 15.9161 10.5473C16.2599 10.2036 16.453 9.73735 16.453 9.25121C16.453 8.76507 16.2599 8.29884 15.9161 7.95509C15.5724 7.61133 15.1061 7.41821 14.62 7.41821C14.1338 7.41821 13.6676 7.61133 13.3239 7.95509C12.9801 8.29884 12.787 8.76507 12.787 9.25121C12.787 9.73735 12.9801 10.2036 13.3239 10.5473C13.6676 10.8911 14.1338 11.0842 14.62 11.0842Z" fill="url(#paint16_radial_483_876)"/>
<path d="M13.5171 18.6401C13.7508 18.6401 13.9823 18.594 14.1982 18.5046C14.4142 18.4151 14.6104 18.284 14.7757 18.1187C14.941 17.9534 15.0721 17.7572 15.1616 17.5413C15.251 17.3253 15.2971 17.0938 15.2971 16.8601C15.2971 16.6263 15.251 16.3949 15.1616 16.1789C15.0721 15.9629 14.941 15.7667 14.7757 15.6014C14.6104 15.4361 14.4142 15.305 14.1982 15.2156C13.9823 15.1261 13.7508 15.0801 13.5171 15.0801C13.045 15.0801 12.5922 15.2676 12.2584 15.6014C11.9246 15.9352 11.7371 16.388 11.7371 16.8601C11.7371 17.3322 11.9246 17.7849 12.2584 18.1187C12.5922 18.4525 13.045 18.6401 13.5171 18.6401Z" fill="url(#paint17_radial_483_876)"/>
<g filter="url(#filter8_f_483_876)">
<path d="M23.219 17.1251C24.229 17.1251 25.479 16.1581 25.479 15.1471C25.479 14.1371 24.659 13.3171 23.649 13.3171C22.638 13.3171 21.437 14.4581 21.437 15.4691C21.437 16.4791 22.208 17.1251 23.219 17.1251Z" fill="#588D2F"/>
</g>
<path d="M24.17 16.5821C24.4103 16.5821 24.6482 16.5348 24.8703 16.4428C25.0923 16.3509 25.294 16.2161 25.464 16.0461C25.6339 15.8762 25.7687 15.6745 25.8607 15.4524C25.9526 15.2304 26 14.9924 26 14.7521C26 14.5118 25.9526 14.2738 25.8607 14.0518C25.7687 13.8298 25.6339 13.628 25.464 13.4581C25.294 13.2882 25.0923 13.1534 24.8703 13.0614C24.6482 12.9695 24.4103 12.9221 24.17 12.9221C23.6846 12.9221 23.2192 13.1149 22.876 13.4581C22.5328 13.8013 22.34 14.2668 22.34 14.7521C22.34 15.2375 22.5328 15.7029 22.876 16.0461C23.2192 16.3893 23.6846 16.5821 24.17 16.5821Z" fill="url(#paint18_radial_483_876)"/>
<defs>
<filter id="filter0_f_483_876" x="1.65601" y="5.68823" width="28.469" height="15.812" filterUnits="userSpaceOnUse" color-interpolation-filters="sRGB">
<feFlood flood-opacity="0" result="BackgroundImageFix"/>
<feBlend mode="normal" in="SourceGraphic" in2="BackgroundImageFix" result="shape"/>
<feGaussianBlur stdDeviation="0.25" result="effect1_foregroundBlur_483_876"/>
</filter>
<filter id="filter1_f_483_876" x="4" y="11.6013" width="24.156" height="8.39893" filterUnits="userSpaceOnUse" color-interpolation-filters="sRGB">
<feFlood flood-opacity="0" result="BackgroundImageFix"/>
<feBlend mode="normal" in="SourceGraphic" in2="BackgroundImageFix" result="shape"/>
<feGaussianBlur stdDeviation="0.5" result="effect1_foregroundBlur_483_876"/>
</filter>
<filter id="filter2_f_483_876" x="18.1216" y="5.82812" width="7.94067" height="8.68652" filterUnits="userSpaceOnUse" color-interpolation-filters="sRGB">
<feFlood flood-opacity="0" result="BackgroundImageFix"/>
<feBlend mode="normal" in="SourceGraphic" in2="BackgroundImageFix" result="shape"/>
<feGaussianBlur stdDeviation="0.125" result="effect1_foregroundBlur_483_876"/>
</filter>
<filter id="filter3_f_483_876" x="15.4955" y="2.99731" width="7.30981" height="6.52197" filterUnits="userSpaceOnUse" color-interpolation-filters="sRGB">
<feFlood flood-opacity="0" result="BackgroundImageFix"/>
<feBlend mode="normal" in="SourceGraphic" in2="BackgroundImageFix" result="shape"/>
<feGaussianBlur stdDeviation="0.25" result="effect1_foregroundBlur_483_876"/>
</filter>
<filter id="filter4_f_483_876" x="11.8749" y="13.2112" width="15.7501" height="3.72705" filterUnits="userSpaceOnUse" color-interpolation-filters="sRGB">
<feFlood flood-opacity="0" result="BackgroundImageFix"/>
<feBlend mode="normal" in="SourceGraphic" in2="BackgroundImageFix" result="shape"/>
<feGaussianBlur stdDeviation="0.25" result="effect1_foregroundBlur_483_876"/>
</filter>
<filter id="filter5_f_483_876" x="10.292" y="14.3452" width="5.56006" height="5.56006" filterUnits="userSpaceOnUse" color-interpolation-filters="sRGB">
<feFlood flood-opacity="0" result="BackgroundImageFix"/>
<feBlend mode="normal" in="SourceGraphic" in2="BackgroundImageFix" result="shape"/>
<feGaussianBlur stdDeviation="0.5" result="effect1_foregroundBlur_483_876"/>
</filter>
<filter id="filter6_f_483_876" x="6.09509" y="10.251" width="9.00757" height="6.59033" filterUnits="userSpaceOnUse" color-interpolation-filters="sRGB">
<feFlood flood-opacity="0" result="BackgroundImageFix"/>
<feBlend mode="normal" in="SourceGraphic" in2="BackgroundImageFix" result="shape"/>
<feGaussianBlur stdDeviation="0.125" result="effect1_foregroundBlur_483_876"/>
</filter>
<filter id="filter7_f_483_876" x="10.594" y="6.50415" width="6.771" height="6.49609" filterUnits="userSpaceOnUse" color-interpolation-filters="sRGB">
<feFlood flood-opacity="0" result="BackgroundImageFix"/>
<feBlend mode="normal" in="SourceGraphic" in2="BackgroundImageFix" result="shape"/>
<feGaussianBlur stdDeviation="0.5" result="effect1_foregroundBlur_483_876"/>
</filter>
<filter id="filter8_f_483_876" x="20.937" y="12.8171" width="5.04199" height="4.80811" filterUnits="userSpaceOnUse" color-interpolation-filters="sRGB">
<feFlood flood-opacity="0" result="BackgroundImageFix"/>
<feBlend mode="normal" in="SourceGraphic" in2="BackgroundImageFix" result="shape"/>
<feGaussianBlur stdDeviation="0.25" result="effect1_foregroundBlur_483_876"/>
</filter>
<linearGradient id="paint0_linear_483_876" x1="2" y1="20.1252" x2="29.97" y2="20.1252" gradientUnits="userSpaceOnUse">
<stop stop-color="#BBBAC0"/>
<stop offset="0.125" stop-color="#BCB5C9"/>
<stop offset="0.264" stop-color="#BDB2CD"/>
<stop offset="0.509" stop-color="#BBADCD"/>
<stop offset="0.751" stop-color="#BAADCC"/>
<stop offset="0.831" stop-color="#BFB5CE"/>
<stop offset="1" stop-color="#D8D7DE"/>
</linearGradient>
<linearGradient id="paint1_linear_483_876" x1="4.21597" y1="12.9612" x2="27.754" y2="12.9612" gradientUnits="userSpaceOnUse">
<stop stop-color="#5E669C"/>
<stop offset="1" stop-color="#513468"/>
</linearGradient>
<linearGradient id="paint2_linear_483_876" x1="2" y1="11.5" x2="29.438" y2="11.5" gradientUnits="userSpaceOnUse">
<stop stop-color="#B5B5BA"/>
<stop offset="1" stop-color="#F5F6FB"/>
</linearGradient>
<linearGradient id="paint3_linear_483_876" x1="4.40298" y1="9.50011" x2="28.625" y2="9.50011" gradientUnits="userSpaceOnUse">
<stop stop-color="#1A4A2D"/>
<stop offset="0.319" stop-color="#437943"/>
<stop offset="0.536" stop-color="#5C9248"/>
<stop offset="0.85" stop-color="#5F9231"/>
<stop offset="0.954" stop-color="#3C8511"/>
</linearGradient>
<radialGradient id="paint4_radial_483_876" cx="0" cy="0" r="1" gradientUnits="userSpaceOnUse" gradientTransform="translate(24.688 3.00011) rotate(127.789) scale(10.9139 9.59061)">
<stop stop-color="#5E9B4B"/>
<stop offset="1" stop-color="#67A257" stop-opacity="0"/>
</radialGradient>
<radialGradient id="paint5_radial_483_876" cx="0" cy="0" r="1" gradientUnits="userSpaceOnUse" gradientTransform="translate(16.045 15.5631) rotate(90) scale(3.71875 14.1704)">
<stop stop-color="#306420"/>
<stop offset="1" stop-color="#396929" stop-opacity="0"/>
</radialGradient>
<linearGradient id="paint6_linear_483_876" x1="5.443" y1="14.9381" x2="27.156" y2="14.9381" gradientUnits="userSpaceOnUse">
<stop stop-color="#154428"/>
<stop offset="0.513" stop-color="#376728"/>
<stop offset="1" stop-color="#3B830F"/>
</linearGradient>
<linearGradient id="paint7_linear_483_876" x1="24.625" y1="9.75019" x2="22.003" y2="7.62519" gradientUnits="userSpaceOnUse">
<stop stop-color="#F05879"/>
<stop offset="1" stop-color="#9B2938"/>
</linearGradient>
<linearGradient id="paint8_linear_483_876" x1="24.985" y1="7.0502" x2="18.659" y2="13.6382" gradientUnits="userSpaceOnUse">
<stop stop-color="#D7355D"/>
<stop offset="0.428" stop-color="#D13464"/>
<stop offset="0.831" stop-color="#BB3463"/>
<stop offset="1" stop-color="#A82B5B"/>
</linearGradient>
<radialGradient id="paint9_radial_483_876" cx="0" cy="0" r="1" gradientUnits="userSpaceOnUse" gradientTransform="translate(19.444 6.26604) rotate(180) scale(3.75 4.39655)">
<stop stop-color="#86B76D"/>
<stop offset="1" stop-color="#87BB71" stop-opacity="0"/>
</radialGradient>
<linearGradient id="paint10_linear_483_876" x1="20.875" y1="9.12515" x2="23.063" y2="11.0002" gradientUnits="userSpaceOnUse">
<stop offset="0.056" stop-color="#962239"/>
<stop offset="0.313" stop-color="#AE3153"/>
</linearGradient>
<linearGradient id="paint11_linear_483_876" x1="4.73401" y1="16.7502" x2="27.375" y2="16.7502" gradientUnits="userSpaceOnUse">
<stop stop-color="#4B7740"/>
<stop offset="0.696" stop-color="#66933A"/>
</linearGradient>
<radialGradient id="paint12_radial_483_876" cx="0" cy="0" r="1" gradientUnits="userSpaceOnUse" gradientTransform="translate(24.688 15.1221) rotate(127.618) scale(6.55313 30.7624)">
<stop stop-color="#91BA60"/>
<stop offset="0.272" stop-color="#74A048"/>
<stop offset="1" stop-color="#709D4A" stop-opacity="0"/>
</radialGradient>
<linearGradient id="paint13_linear_483_876" x1="8.21906" y1="16.1562" x2="10.3441" y2="11.6562" gradientUnits="userSpaceOnUse">
<stop offset="0.873" stop-color="#AB2C59"/>
<stop offset="1" stop-color="#E0427A"/>
</linearGradient>
<radialGradient id="paint14_radial_483_876" cx="0" cy="0" r="1" gradientUnits="userSpaceOnUse" gradientTransform="translate(13.25 16.7502) rotate(172.875) scale(2.01556 2.23037)">
<stop offset="0.66" stop-color="#AD1A46"/>
<stop offset="0.885" stop-color="#AE1A49" stop-opacity="0"/>
</radialGradient>
<linearGradient id="paint15_linear_483_876" x1="10.895" y1="11.8132" x2="9.84396" y2="14.4062" gradientUnits="userSpaceOnUse">
<stop stop-color="#C34765"/>
<stop offset="0.176" stop-color="#B03256"/>
</linearGradient>
<radialGradient id="paint16_radial_483_876" cx="0" cy="0" r="1" gradientUnits="userSpaceOnUse" gradientTransform="translate(15.7498 8.43913) rotate(135.764) scale(3.31486)">
<stop offset="0.142" stop-color="#FFEC56"/>
<stop offset="0.502" stop-color="#F5D03B"/>
<stop offset="1" stop-color="#AC831E"/>
</radialGradient>
<radialGradient id="paint17_radial_483_876" cx="0" cy="0" r="1" gradientUnits="userSpaceOnUse" gradientTransform="translate(14.6153 16.0701) rotate(135.764) scale(3.21939)">
<stop offset="0.142" stop-color="#FFDB57"/>
<stop offset="0.502" stop-color="#F3C046"/>
<stop offset="1" stop-color="#BA8544"/>
</radialGradient>
<radialGradient id="paint18_radial_483_876" cx="0" cy="0" r="1" gradientUnits="userSpaceOnUse" gradientTransform="translate(25.297 13.9388) rotate(135.764) scale(3.30917)">
<stop offset="0.142" stop-color="#FFE75C"/>
<stop offset="0.502" stop-color="#ECBF40"/>
<stop offset="1" stop-color="#B28433"/>
</radialGradient>
</defs>
</svg>
