<svg width="247" height="427" viewBox="0 0 247 427" fill="none" xmlns="http://www.w3.org/2000/svg">
<path d="M23.3067 162.934C35.5611 170.283 45.0507 168.205 41.0076 164.833C34.269 159.219 25.0156 158.269 14.9425 150.453C3.5773 141.645 9.60727 127.54 2.14622 117.508C0.353902 115.086 -0.326901 114.356 0.145493 113.544C1.2709 111.618 3.77181 113.173 9.41275 113.255C19.2497 113.379 25.891 110.764 33.1992 121.113C42.5081 134.269 42.7026 137.118 46.1205 139.567C51.1362 143.173 57.2357 130.113 49.3856 115.746C47.8682 113.135 46.0701 110.694 44.0226 108.466C42.522 106.746 40.2156 105.618 41.1187 104.145C41.2702 103.781 41.5153 103.462 41.8298 103.221C42.1442 102.979 42.517 102.823 42.911 102.769C47.9129 102.453 63.1962 109.774 68.3231 118.787C70.4808 122.696 71.8316 126.99 72.2967 131.42C72.9151 136.277 72.8543 141.195 72.1161 146.035C71.7549 147.769 69.8653 161.572 71.0602 163.925C71.2083 164.243 71.4382 164.516 71.7269 164.718C72.0155 164.92 72.3528 165.044 72.7047 165.076C73.0567 165.108 73.4109 165.048 73.7319 164.901C74.053 164.755 74.3295 164.527 74.5336 164.242C74.9558 163.775 75.337 163.273 75.673 162.742C83.8843 150.232 85.6488 133.264 84.0093 119.338C83.7314 117.067 83.5508 116.269 84.3011 115.209C86.9826 111.342 93.2766 122.448 95.2634 126.219C101.571 138.177 95.7219 145.485 90.3449 162.329C86.1768 175.388 86.5797 189.274 88.3025 190.897C89.0667 190.732 89.1223 190.031 89.4418 189.521C90.2282 188.053 90.8972 186.525 91.4426 184.953C97.542 170.242 97.0002 161.021 98.3062 152.379C98.598 150.549 100.349 149.145 101.821 150.136C104.6 151.98 107.184 158.173 108.31 161.283C115.382 180.838 112.006 193.609 101.196 205.925C99.0536 208.255 96.6639 210.35 94.0685 212.173C91.8038 213.287 90.0393 215.572 85.621 216.521C73.9779 218.985 71.1713 211.457 59.7783 212.531C52.3728 213.232 44.7728 213.907 37.548 208.471C36.0318 207.364 34.635 206.105 33.3798 204.714C32.6712 203.888 31.6708 203.338 31.0317 202.43C29.7952 200.668 23.2094 192.879 22.6954 190.636C22.4592 189.563 23.6957 188.572 25.1963 189.852C40.1739 202.512 63.0295 198.384 69.3095 192.439C70.6294 191.2 69.3095 190.237 67.7395 189.466C58.2638 184.939 50.9139 186.714 43.2167 186.453C31.7542 186.177 19.4998 181.581 14.3312 171.618C10.955 165.067 8.88478 154.058 9.0654 153.109C9.08583 152.873 9.16705 152.647 9.30123 152.452C9.43542 152.257 9.61806 152.099 9.83159 151.994C10.0451 151.889 10.2823 151.84 10.5205 151.852C10.7586 151.864 10.9895 151.937 11.1912 152.063C11.4365 152.249 11.6601 152.461 11.8581 152.696C15.3038 156.466 17.6241 159.563 23.3067 162.934Z" fill="#6E7289"/>
<path d="M78.813 186.081C76.8872 183.944 74.5173 182.244 71.866 181.099C69.1607 179.99 66.3131 179.259 63.4046 178.925C60.4882 178.562 57.5471 178.434 54.6097 178.54C51.6781 178.608 48.7048 178.884 45.7315 178.842C39.7062 178.933 33.7557 177.513 28.4336 174.714C23.2848 171.678 18.7788 167.682 15.1648 162.948C15.1177 162.903 15.0807 162.849 15.0563 162.789C15.032 162.729 15.0208 162.665 15.0236 162.6C15.0264 162.536 15.0431 162.472 15.0726 162.415C15.102 162.357 15.1436 162.306 15.1944 162.266C15.2453 162.225 15.3043 162.196 15.3675 162.18C15.4307 162.164 15.4966 162.161 15.5609 162.172C15.6252 162.184 15.6863 162.208 15.7402 162.245C15.7941 162.281 15.8395 162.329 15.8734 162.384C19.4178 167.025 23.8335 170.946 28.8782 173.93C34.079 176.623 39.8773 177.985 45.7454 177.893C48.677 177.893 51.6086 177.714 54.5958 177.659C57.5762 177.572 60.5589 177.719 63.5158 178.099C66.4935 178.462 69.4064 179.231 72.1717 180.384C74.9447 181.57 77.4172 183.351 79.4104 185.599C79.4749 185.666 79.511 185.755 79.511 185.847C79.511 185.939 79.4749 186.028 79.4104 186.095C79.3785 186.145 79.3338 186.187 79.2807 186.215C79.2276 186.244 79.168 186.258 79.1077 186.256C79.0475 186.255 78.9886 186.238 78.9369 186.207C78.8852 186.177 78.8425 186.133 78.813 186.081Z" fill="#202538"/>
<path d="M83.134 191.957C81.8945 189.297 81.0655 186.467 80.6748 183.563C80.311 180.654 80.3437 177.71 80.772 174.81C81.7956 169.082 83.4016 163.471 85.5654 158.063C87.6947 152.727 89.2863 147.195 90.3172 141.549C90.7476 138.721 90.8455 135.853 90.6089 133.003C90.4839 131.581 90.2611 130.17 89.942 128.778C89.6849 127.405 89.1662 126.093 88.4137 124.911C88.3812 124.861 88.3594 124.805 88.3495 124.746C88.3397 124.687 88.3419 124.627 88.3562 124.569C88.3705 124.511 88.3965 124.457 88.4327 124.409C88.4688 124.362 88.5144 124.322 88.5665 124.292C88.6153 124.26 88.6702 124.237 88.7279 124.227C88.7856 124.216 88.8449 124.217 88.9022 124.23C88.9594 124.243 89.0134 124.267 89.0608 124.302C89.1082 124.336 89.1481 124.38 89.1779 124.43C89.9827 125.692 90.5433 127.092 90.8312 128.558C91.1628 129.99 91.3903 131.443 91.512 132.907C91.7603 135.825 91.667 138.762 91.2342 141.659C90.2105 147.387 88.6046 152.998 86.4408 158.407C84.2615 163.735 82.6323 169.267 81.5779 174.92C81.1381 177.749 81.0867 180.624 81.425 183.466C81.7792 186.322 82.5759 189.108 83.787 191.723C83.8247 191.809 83.8269 191.906 83.7932 191.994C83.7594 192.081 83.6923 192.152 83.6064 192.191C83.56 192.208 83.5105 192.216 83.461 192.213C83.4116 192.21 83.3632 192.198 83.3189 192.176C83.2746 192.154 83.2353 192.123 83.2035 192.085C83.1717 192.048 83.148 192.004 83.134 191.957Z" fill="#202538"/>
<path d="M54.971 159.81C51.7438 157.369 48.0462 155.608 44.1059 154.636C40.1739 153.521 36.1447 152.668 32.2266 151.375C28.2731 150.123 24.5278 148.301 21.1114 145.966C17.7529 143.561 14.7587 140.692 12.2193 137.448C12.1463 137.353 12.1141 137.233 12.1297 137.114C12.1453 136.996 12.2075 136.888 12.3027 136.815C12.3491 136.78 12.4022 136.754 12.4588 136.739C12.5154 136.723 12.5745 136.72 12.6326 136.727C12.6907 136.735 12.7467 136.754 12.7974 136.783C12.8481 136.812 12.8924 136.851 12.9279 136.897C15.4194 140.084 18.3629 142.898 21.6672 145.251C25.0121 147.535 28.6775 149.32 32.5461 150.549C36.3948 151.925 40.3962 152.751 44.356 153.907C48.3977 154.932 52.1819 156.773 55.4711 159.315C55.5357 159.382 55.5717 159.47 55.5717 159.563C55.5717 159.655 55.5357 159.744 55.4711 159.81C55.4387 159.844 55.3999 159.87 55.3569 159.888C55.314 159.906 55.2677 159.916 55.221 159.916C55.1744 159.916 55.1281 159.906 55.0852 159.888C55.0422 159.87 55.0034 159.844 54.971 159.81Z" fill="#202538"/>
<path d="M38.8679 147.618C37.3584 145.427 36.2138 143.011 35.4778 140.462C34.7341 137.995 33.8338 135.577 32.7823 133.223C31.5473 130.964 30.0149 128.877 28.2251 127.017C26.4032 125.161 24.488 123.397 22.4869 121.732C22.4078 121.648 22.3638 121.538 22.3638 121.423C22.3638 121.308 22.4078 121.197 22.4869 121.113C22.5725 121.031 22.6871 120.985 22.8065 120.985C22.9258 120.985 23.0405 121.031 23.126 121.113C25.1502 122.786 27.0842 124.564 28.9198 126.439C30.7692 128.351 32.3404 130.51 33.5882 132.852C34.6267 135.263 35.513 137.735 36.2419 140.255C36.9187 142.7 37.9833 145.022 39.3959 147.136C39.4486 147.212 39.4707 147.305 39.4579 147.397C39.445 147.489 39.3981 147.572 39.3264 147.631C39.2613 147.685 39.1789 147.713 39.0945 147.71C39.0101 147.708 38.9296 147.675 38.8679 147.618Z" fill="#202538"/>
<path d="M28.7948 195.067C32.9533 198.19 37.5137 200.749 42.3552 202.677C47.1914 204.648 52.4217 205.486 57.6386 205.127C62.8349 204.728 67.5728 202.251 72.8108 201.219C75.4426 200.648 78.168 200.648 80.7998 201.219C83.4249 201.856 85.8738 203.064 87.9691 204.755C89.0123 205.571 89.9965 206.459 90.9146 207.411C91.387 207.879 91.8316 208.361 92.304 208.787C92.4151 208.898 92.5263 208.98 92.6235 209.063C92.7208 209.145 92.8597 209.063 92.6235 209.145C92.6235 209.008 92.6235 208.925 92.6235 208.746C92.0432 206.126 92.1195 203.404 92.8458 200.82C94.2352 195.673 97.2363 191.269 99.5288 186.645C102.008 182.115 103.513 177.125 103.947 171.989C104.173 166.843 103.297 161.708 101.377 156.92C101.356 156.866 101.346 156.808 101.347 156.75C101.349 156.692 101.362 156.635 101.386 156.582C101.41 156.529 101.444 156.481 101.486 156.441C101.529 156.401 101.579 156.37 101.634 156.349C101.688 156.329 101.747 156.319 101.805 156.32C101.864 156.322 101.922 156.335 101.975 156.358C102.029 156.382 102.077 156.416 102.117 156.458C102.158 156.5 102.189 156.55 102.21 156.604C104.125 161.539 104.954 166.822 104.642 172.099C104.213 177.346 102.694 182.448 100.182 187.086C97.8754 191.764 94.9299 196.154 93.5822 201.095C92.8911 203.539 92.8148 206.114 93.3599 208.595C93.4098 208.779 93.4424 208.968 93.4572 209.159C93.4681 209.327 93.4294 209.494 93.346 209.641C93.2558 209.798 93.1134 209.919 92.9431 209.985C92.3734 210.136 92.2345 209.875 92.04 209.806C91.888 209.697 91.744 209.577 91.6093 209.448C91.1091 208.98 90.6645 208.512 90.2199 208.072C89.3539 207.148 88.4255 206.284 87.4411 205.485C85.4445 203.884 83.1147 202.742 80.6192 202.141C78.1116 201.59 75.5128 201.59 73.0053 202.141C67.9479 203.104 63.1128 205.595 57.7219 205.994C52.3874 206.318 47.0492 205.423 42.1191 203.379C37.2211 201.411 32.6095 198.805 28.4057 195.631C28.3682 195.605 28.3362 195.572 28.3116 195.534C28.2871 195.495 28.2705 195.453 28.2627 195.408C28.255 195.363 28.2562 195.317 28.2665 195.273C28.2767 195.229 28.2957 195.187 28.3224 195.15C28.3773 195.081 28.4557 195.035 28.5427 195.02C28.6298 195.004 28.7195 195.021 28.7948 195.067Z" fill="#202538"/>
<path d="M53.3176 113.063C55.1201 114.752 56.827 116.54 58.4305 118.416C59.9832 120.376 61.1819 122.588 61.9735 124.953C63.5257 129.681 63.8647 134.718 62.96 139.609C62.6404 142.044 62.1263 144.453 61.8068 146.833C61.5343 149.232 61.4554 151.647 61.5706 154.058C61.6359 156.466 61.9619 158.861 62.5432 161.2C63.0228 163.529 64.1266 165.687 65.7388 167.448C65.8219 167.533 65.8685 167.646 65.8685 167.764C65.8685 167.883 65.8219 167.996 65.7388 168.081C65.6973 168.123 65.6476 168.157 65.5927 168.18C65.5378 168.203 65.4788 168.215 65.4192 168.215C65.3596 168.215 65.3006 168.203 65.2457 168.18C65.1908 168.157 65.1411 168.123 65.0996 168.081C63.3349 166.23 62.1146 163.936 61.5706 161.448C60.9825 159.026 60.6564 156.549 60.598 154.058C60.4937 151.596 60.5913 149.129 60.8898 146.682C61.2371 144.232 61.7095 141.838 62.0708 139.443C62.9807 134.685 62.6847 129.777 61.2093 125.159C60.461 122.868 59.3188 120.721 57.8331 118.815C56.2601 116.955 54.5857 115.182 52.8174 113.503C52.7529 113.436 52.7168 113.348 52.7168 113.255C52.7168 113.163 52.7529 113.074 52.8174 113.008C52.8525 112.976 52.8941 112.951 52.9394 112.937C52.9847 112.922 53.0327 112.917 53.0802 112.922C53.1276 112.927 53.1733 112.943 53.2142 112.967C53.2552 112.991 53.2904 113.024 53.3176 113.063Z" fill="#202538"/>
<path d="M92.6236 210.205C88.1763 201.045 83.0687 192.215 77.3402 183.783C71.6113 175.37 64.7068 167.803 56.8328 161.31C52.9008 158.063 48.8021 155.035 44.6061 152.104C40.4102 149.173 36.1447 146.352 31.9904 143.338C27.798 140.363 23.866 137.044 20.2362 133.416C16.6637 129.686 13.6631 125.458 11.3301 120.865C11.2768 120.761 11.2673 120.641 11.3038 120.53C11.3403 120.419 11.4197 120.327 11.5247 120.274C11.6318 120.22 11.7557 120.21 11.87 120.246C11.9843 120.282 12.0798 120.361 12.136 120.466C14.4348 124.967 17.3835 129.111 20.8892 132.769C24.4921 136.361 28.3964 139.643 32.5601 142.581C40.8964 148.526 49.5802 154.003 57.458 160.595C65.3665 167.171 72.2984 174.82 78.0488 183.315C83.7732 191.802 88.8805 200.683 93.3322 209.888C93.3522 209.93 93.3639 209.975 93.3663 210.021C93.3688 210.067 93.3621 210.113 93.3466 210.156C93.3312 210.2 93.3072 210.24 93.2761 210.274C93.245 210.308 93.2074 210.336 93.1654 210.356C93.1235 210.376 93.078 210.388 93.0315 210.39C92.9851 210.393 92.9386 210.386 92.8947 210.371C92.8509 210.355 92.8105 210.331 92.7759 210.301C92.7413 210.27 92.7131 210.233 92.6931 210.191L92.6236 210.205Z" fill="#202538"/>
<g style="mix-blend-mode:multiply" opacity="0.25">
<path d="M206.415 114.274L198.079 115.402C196.86 115.567 195.622 115.492 194.433 115.182C193.244 114.872 192.128 114.333 191.15 113.595C190.172 112.858 189.35 111.936 188.732 110.884C188.114 109.831 187.711 108.668 187.547 107.462L214.404 103.829C214.74 106.263 214.088 108.729 212.59 110.688C211.093 112.646 208.872 113.935 206.415 114.274Z" fill="#6E7289"/>
</g>
<g style="mix-blend-mode:multiply" opacity="0.25">
<path d="M235.912 100.939L229.687 120.012C229.413 120.842 228.91 121.58 228.235 122.142C227.56 122.704 226.739 123.067 225.866 123.191L181.614 129.15C180.738 129.271 179.846 129.142 179.041 128.779C178.237 128.416 177.553 127.833 177.071 127.099C205.178 122.654 218.753 115.54 221.684 105.453C222.851 101.434 221.226 95.3929 219.628 92.9434C218.03 90.4938 217.655 88.9663 217.808 87.8379L221.365 87.3562C222.139 87.2596 222.925 87.3549 223.652 87.6336C224.38 87.9122 225.026 88.3654 225.533 88.9526L235.912 100.939Z" fill="#6E7289"/>
</g>
<path d="M246.971 32.6957C246.972 39.8317 244.615 46.772 240.261 52.4575C235.907 58.143 229.794 62.2615 222.856 64.1847C215.918 66.1079 208.535 65.7301 201.834 63.109C195.133 60.488 189.481 55.7675 185.742 49.6678C182.002 43.5682 180.38 36.4244 181.123 29.3263C181.866 22.2283 184.933 15.5658 189.856 10.3555C194.779 5.14512 201.288 1.67299 208.389 0.46888C215.49 -0.735234 222.795 0.394776 229.187 3.68649C234.549 6.44572 239.043 10.6101 242.179 15.7255C245.315 20.841 246.973 26.711 246.971 32.6957Z" fill="#963C4E"/>
<path d="M218.567 60.5863C234.122 58.0689 244.672 43.5387 242.13 28.1321C239.588 12.7255 224.918 2.27671 209.363 4.79412C193.808 7.31152 183.259 21.8418 185.801 37.2484C188.342 52.655 203.012 63.1037 218.567 60.5863Z" fill="white"/>
<path d="M213.681 12.6314C213.568 11.3917 213.531 10.1463 213.57 8.90208C213.589 8.79691 213.645 8.70163 213.727 8.63298C213.81 8.56433 213.914 8.5267 214.022 8.5267C214.13 8.5267 214.234 8.56433 214.317 8.63298C214.399 8.70163 214.455 8.79691 214.473 8.90208C214.525 10.146 214.492 11.3918 214.376 12.6314C214.376 12.7227 214.34 12.8102 214.274 12.8747C214.209 12.9392 214.121 12.9755 214.029 12.9755C213.937 12.9755 213.848 12.9392 213.783 12.8747C213.718 12.8102 213.681 12.7227 213.681 12.6314Z" fill="#202538"/>
<path d="M223.81 15.1636C224.336 14.0392 224.935 12.9498 225.602 11.9021C225.666 11.8006 225.767 11.7278 225.884 11.6995C226.001 11.6712 226.124 11.6896 226.228 11.7507C226.323 11.8129 226.391 11.9079 226.42 12.0173C226.448 12.1268 226.434 12.2427 226.38 12.3425C225.789 13.4381 225.135 14.4995 224.421 15.5214C224.366 15.5841 224.29 15.6257 224.207 15.6389C224.124 15.6521 224.038 15.6361 223.966 15.5937C223.893 15.5512 223.838 15.485 223.81 15.4065C223.781 15.3279 223.781 15.242 223.81 15.1636Z" fill="#202538"/>
<path d="M231.299 22.3883C232.323 21.6768 233.39 21.0288 234.495 20.448C234.602 20.3945 234.726 20.3847 234.84 20.4207C234.954 20.4568 235.05 20.5357 235.106 20.6406C235.158 20.7383 235.172 20.8521 235.144 20.9592C235.115 21.0663 235.047 21.1589 234.953 21.2186C233.886 21.8721 232.782 22.4648 231.646 22.9938C231.565 23.0394 231.469 23.0513 231.379 23.0268C231.289 23.0023 231.213 22.9434 231.167 22.8631C231.121 22.7828 231.109 22.6877 231.134 22.5986C231.158 22.5096 231.218 22.4339 231.299 22.3883Z" fill="#202538"/>
<path d="M234.133 32.3516C235.381 32.2508 236.633 32.2186 237.885 32.2553C237.991 32.2738 238.087 32.3288 238.156 32.4106C238.226 32.4924 238.264 32.5958 238.264 32.7025C238.264 32.8093 238.226 32.9127 238.156 32.9945C238.087 33.0763 237.991 33.1313 237.885 33.1498C236.629 33.1933 235.371 33.1612 234.119 33.0535C234.026 33.043 233.94 32.997 233.881 32.925C233.821 32.8531 233.792 32.7609 233.8 32.6681C233.809 32.5851 233.848 32.508 233.909 32.4502C233.97 32.3924 234.049 32.3575 234.133 32.3516Z" fill="#202538"/>
<path d="M231.549 42.3837C232.683 42.9074 233.782 43.5003 234.842 44.159C234.939 44.2231 235.007 44.3213 235.034 44.4337C235.06 44.5461 235.042 44.6642 234.984 44.7641C234.926 44.8639 234.831 44.9381 234.719 44.9714C234.608 45.0047 234.488 44.9947 234.383 44.9434C233.285 44.3477 232.218 43.6954 231.188 42.9892C231.114 42.932 231.064 42.8493 231.049 42.7576C231.033 42.6659 231.053 42.5718 231.104 42.4938C231.154 42.4274 231.226 42.3801 231.307 42.36C231.388 42.3399 231.474 42.3483 231.549 42.3837Z" fill="#202538"/>
<path d="M224.241 49.7874C224.958 50.8043 225.608 51.8662 226.186 52.9663C226.214 53.0174 226.232 53.0737 226.237 53.1318C226.243 53.1899 226.236 53.2484 226.218 53.3039C226.2 53.3593 226.17 53.4105 226.131 53.4542C226.092 53.4979 226.045 53.5333 225.992 53.558C225.893 53.6101 225.778 53.6234 225.67 53.5954C225.562 53.5673 225.468 53.4999 225.408 53.4067C224.747 52.3524 224.153 51.2586 223.63 50.1314C223.609 50.09 223.596 50.0449 223.593 49.9986C223.59 49.9524 223.597 49.906 223.612 49.8623C223.628 49.8186 223.652 49.7785 223.684 49.7443C223.715 49.7102 223.754 49.6827 223.796 49.6635C223.874 49.6321 223.96 49.6272 224.04 49.6497C224.121 49.6721 224.191 49.7206 224.241 49.7874Z" fill="#202538"/>
<path d="M214.168 52.5672C214.272 53.8029 214.3 55.0438 214.251 56.2828C214.232 56.388 214.177 56.4833 214.094 56.5519C214.012 56.6206 213.907 56.6582 213.8 56.6582C213.692 56.6582 213.587 56.6206 213.505 56.5519C213.422 56.4833 213.367 56.388 213.348 56.2828C213.313 55.0429 213.355 53.8021 213.473 52.5672C213.475 52.5213 213.486 52.4762 213.506 52.4349C213.526 52.3935 213.555 52.3567 213.59 52.3269C213.625 52.2972 213.667 52.275 213.711 52.2619C213.755 52.2487 213.802 52.2449 213.848 52.2507C213.931 52.257 214.008 52.2924 214.067 52.3504C214.126 52.4085 214.161 52.4854 214.168 52.5672Z" fill="#202538"/>
<path d="M204.053 49.9801C203.517 51.1019 202.914 52.191 202.247 53.2415C202.216 53.2921 202.174 53.3359 202.126 53.3703C202.077 53.4048 202.022 53.4292 201.964 53.442C201.905 53.4549 201.845 53.4559 201.786 53.4451C201.727 53.4343 201.671 53.4119 201.621 53.3792C201.525 53.3218 201.454 53.2292 201.426 53.1211C201.397 53.013 201.413 52.8981 201.469 52.8012C202.057 51.7051 202.716 50.6478 203.442 49.636C203.468 49.5988 203.501 49.5671 203.54 49.5428C203.579 49.5185 203.622 49.502 203.667 49.4944C203.713 49.4867 203.759 49.488 203.804 49.4981C203.848 49.5083 203.891 49.5271 203.928 49.5535C203.999 49.5964 204.051 49.664 204.074 49.7428C204.097 49.8217 204.089 49.9063 204.053 49.9801Z" fill="#202538"/>
<path d="M196.592 42.7278C195.565 43.4422 194.493 44.0904 193.382 44.6681C193.275 44.7216 193.151 44.7314 193.037 44.6953C192.923 44.6593 192.827 44.5804 192.771 44.4755C192.716 44.3748 192.702 44.2566 192.733 44.146C192.764 44.0355 192.838 43.9414 192.938 43.8837C194.004 43.2319 195.108 42.6436 196.245 42.1223C196.331 42.0849 196.429 42.0827 196.518 42.1162C196.606 42.1496 196.678 42.216 196.717 42.3012C196.75 42.3754 196.756 42.459 196.733 42.5371C196.71 42.6152 196.66 42.6828 196.592 42.7278Z" fill="#202538"/>
<path d="M193.799 32.7645C192.55 32.8401 191.297 32.8401 190.048 32.7645C189.988 32.7627 189.93 32.7491 189.875 32.7245C189.821 32.6998 189.773 32.6646 189.732 32.621C189.692 32.5773 189.661 32.5261 189.641 32.4704C189.622 32.4146 189.613 32.3555 189.617 32.2966C189.624 32.1856 189.671 32.0808 189.751 32.0022C189.83 31.9236 189.936 31.8765 190.048 31.87C191.304 31.8356 192.562 31.877 193.813 31.9938C193.907 32.0042 193.992 32.0503 194.052 32.1223C194.111 32.1942 194.141 32.2864 194.133 32.3791C194.134 32.4725 194.1 32.563 194.039 32.6338C193.978 32.7047 193.892 32.7511 193.799 32.7645Z" fill="#202538"/>
<path d="M196.425 22.7461C195.294 22.2077 194.194 21.6058 193.132 20.9434C193.05 20.874 192.996 20.7783 192.978 20.673C192.96 20.5676 192.98 20.4595 193.035 20.3675C193.09 20.2755 193.176 20.2055 193.277 20.1699C193.379 20.1343 193.49 20.1353 193.591 20.1727C194.698 20.7599 195.765 21.4172 196.786 22.1406C196.85 22.1956 196.892 22.2708 196.905 22.3532C196.918 22.4356 196.902 22.52 196.859 22.5918C196.817 22.6637 196.75 22.7184 196.67 22.7466C196.591 22.7748 196.504 22.7746 196.425 22.7461Z" fill="#202538"/>
<path d="M203.761 15.37C203.075 14.3444 202.454 13.2782 201.899 12.1773C201.871 12.1262 201.854 12.0699 201.848 12.0118C201.843 11.9537 201.849 11.8952 201.867 11.8397C201.886 11.7843 201.915 11.7331 201.954 11.6894C201.993 11.6457 202.041 11.6103 202.094 11.5856C202.193 11.5335 202.307 11.5202 202.416 11.5482C202.524 11.5763 202.617 11.6437 202.677 11.7369C203.311 12.8113 203.878 13.9235 204.373 15.0672C204.394 15.1086 204.406 15.1538 204.409 15.2C204.412 15.2463 204.405 15.2926 204.39 15.3363C204.374 15.38 204.35 15.4202 204.318 15.4543C204.287 15.4885 204.248 15.516 204.206 15.5351C204.124 15.5626 204.035 15.5612 203.954 15.5311C203.873 15.501 203.805 15.4441 203.761 15.37Z" fill="#202538"/>
<path d="M216.224 32.6957C216.224 33.1393 216.091 33.573 215.842 33.9419C215.593 34.3107 215.24 34.5982 214.826 34.768C214.412 34.9378 213.957 34.9822 213.517 34.8957C213.078 34.8091 212.675 34.5955 212.358 34.2818C212.041 33.9681 211.825 33.5684 211.738 33.1333C211.651 32.6981 211.696 32.2471 211.867 31.8372C212.038 31.4274 212.329 31.077 212.701 30.8306C213.074 30.5841 213.511 30.4525 213.959 30.4525C214.56 30.4525 215.136 30.6889 215.561 31.1095C215.985 31.5302 216.224 32.1007 216.224 32.6957Z" fill="#202538"/>
<path d="M228.298 24.2874L214.196 33.0947L214.404 32.9571L208.457 42.0535C208.385 42.1345 208.286 42.1874 208.178 42.2025C208.07 42.2177 207.96 42.1941 207.867 42.136C207.775 42.0779 207.707 41.9892 207.675 41.8858C207.643 41.7823 207.65 41.671 207.693 41.5718L213.612 32.4617V32.3792H213.709L227.937 23.7645C228.016 23.7193 228.11 23.707 228.199 23.7302C228.287 23.7534 228.363 23.8102 228.409 23.8883C228.439 23.9574 228.445 24.0347 228.424 24.1073C228.404 24.1798 228.36 24.2434 228.298 24.2874Z" fill="#202538"/>
<g style="mix-blend-mode:multiply" opacity="0.25">
<path d="M246.971 32.6957C246.975 38.8559 245.221 44.8919 241.912 50.1077C238.602 55.3234 233.872 59.5066 228.266 62.1749C222.66 64.8432 216.407 65.888 210.228 65.1889C204.049 64.4897 198.195 62.075 193.341 58.2232C195.592 57.948 197.717 57.6177 199.732 57.2048C225.616 51.9893 231.799 35.8746 232.077 22.3471C232.127 18.1861 231.712 14.0324 230.84 9.96173C230.404 7.86018 229.852 5.78372 229.187 3.74155C234.541 6.49525 239.031 10.6507 242.166 15.7558C245.302 20.8609 246.964 26.7201 246.971 32.6957Z" fill="#6E7289"/>
</g>
<g opacity="0.5">
<path d="M109.4 47.6888C135.066 43.0265 191.701 46.288 197.7 79.8544C200.679 96.5173 188.194 105.027 181.17 117.968C176.365 126.854 179.428 133.157 183.219 141.635C191.384 159.824 194.109 178.766 177.833 193.035C160.077 208.611 128.718 221.113 105.111 210.806C87.7997 203.342 74.9982 188.132 71.5655 171.218C68.4919 156.071 76.6882 140.307 71.8295 125.348C66.7596 109.605 54.7926 95.5347 61.8059 78.3072C69.0833 60.4735 90.6199 51.1071 109.4 47.6888Z" fill="#FF8181"/>
</g>
<path d="M185.081 112.3C185.081 114.401 183.506 116.351 181.762 118.171C168.336 132.015 143.989 152.413 138.596 156.086C137.754 156.67 136.88 157.213 135.979 157.711C132.433 159.682 129.249 160.365 126.133 159.108C124.291 158.445 122.636 157.379 121.302 155.994C119.968 154.61 118.992 152.946 118.452 151.135C115.053 139.219 132.954 133.489 153.574 120.706C160.247 116.763 163.612 114.91 170.5 111.032C174.477 108.801 180.447 104.814 184.095 109.678C184.712 110.427 185.057 111.347 185.081 112.3Z" fill="#F0D0BB"/>
<path d="M79.3651 378.277C76.5667 379.36 71.8649 381.245 71.0605 384.322C70.0522 388.102 74.2668 391.352 77.4164 393.974C81.3704 397.278 83.1945 403.42 86.6726 407.753C89.3124 411.003 93.561 417.578 98.5007 416.181C100.075 415.737 98.9765 413.657 98.58 412.758C96.4727 407.916 96.0988 402.608 95.657 397.44C95.4077 394.45 94.5807 388.081 97.1978 385.795C101.242 382.264 90.502 377.129 87.613 373.879C85.0053 375.576 82.2452 377.048 79.3651 378.277Z" fill="#F0D0BB"/>
<path d="M97.1978 385.784C95.9641 386.69 94.4774 387.225 92.9256 387.322C91.3738 387.42 89.8266 387.075 88.4797 386.332C87.1328 385.589 86.0467 384.48 85.3587 383.147C84.6707 381.813 84.4117 380.314 84.6146 378.84C84.8174 377.366 85.4729 375.982 86.4982 374.864C87.5235 373.746 88.8725 372.944 90.3747 372.559C91.8768 372.174 93.4646 372.224 94.9372 372.702C96.4099 373.18 97.7012 374.064 98.6479 375.244C99.9143 376.827 100.473 378.825 100.201 380.801C99.9292 382.776 98.8492 384.569 97.1978 385.784Z" fill="#F0D0BB"/>
<path d="M92.4621 387.355C91.0709 387.367 89.7018 387.023 88.4967 386.358C87.5892 385.868 86.7944 385.207 86.1599 384.416C85.5253 383.625 85.0639 382.72 84.8033 381.754C84.74 381.56 84.6945 381.361 84.6673 381.159C84.5211 380.401 84.5019 379.626 84.6107 378.862C84.7281 377.885 85.0481 376.94 85.5519 376.083C86.0557 375.225 86.7333 374.472 87.545 373.868L87.9869 373.543C89.2558 372.46 96.6427 364.725 104.097 356.72L117.319 373.186C106.511 379.967 98.5347 384.885 97.549 385.492C96.1512 386.691 94.3398 387.354 92.4621 387.355Z" fill="#F0D0BB"/>
<path d="M97.1978 385.784C95.9641 386.69 94.4774 387.225 92.9256 387.322C91.3738 387.42 89.8266 387.075 88.4797 386.332C87.1328 385.589 86.0467 384.48 85.3587 383.147C84.6707 381.813 84.4117 380.314 84.6146 378.84C84.8174 377.366 85.4729 375.982 86.4982 374.864C87.5235 373.746 88.8725 372.944 90.3747 372.559C91.8768 372.174 93.4646 372.224 94.9372 372.702C96.4099 373.18 97.7012 374.064 98.6479 375.244C99.9143 376.827 100.473 378.825 100.201 380.801C99.9292 382.776 98.8492 384.569 97.1978 385.784Z" fill="#F0D0BB"/>
<path d="M93.2777 417.871L69.6216 388.406C69.2636 387.96 69.0051 387.449 68.8621 386.904C68.719 386.359 68.6946 385.791 68.7901 385.237C68.8857 384.683 69.0993 384.153 69.4178 383.68C69.7362 383.208 70.1526 382.803 70.6413 382.491L82.6506 374.908C83.5545 374.33 84.6547 374.102 85.7277 374.271C86.8008 374.44 87.7664 374.993 88.4287 375.818C95.9062 385.568 97.1978 385.795 97.2544 388.135C97.3796 393.098 97.8108 398.05 98.546 402.965C99.1691 407.114 99.9735 410.96 100.812 414.469C100.978 415.117 100.975 415.794 100.803 416.44C100.631 417.086 100.296 417.681 99.8262 418.174C99.4005 418.611 98.8805 418.953 98.3023 419.178C97.7242 419.402 97.1017 419.504 96.4784 419.475C95.8551 419.446 95.2458 419.287 94.693 419.01C94.1403 418.733 93.6573 418.345 93.2777 417.871Z" fill="#D46966"/>
<mask id="mask0_16_1299" style="mask-type:luminance" maskUnits="userSpaceOnUse" x="68" y="374" width="33" height="46">
<path d="M93.2777 417.871L69.6216 388.406C69.2636 387.96 69.0051 387.449 68.8621 386.904C68.719 386.359 68.6946 385.791 68.7901 385.237C68.8857 384.683 69.0993 384.153 69.4178 383.68C69.7362 383.208 70.1526 382.803 70.6413 382.491L82.6506 374.908C83.5545 374.33 84.6547 374.102 85.7277 374.271C86.8008 374.44 87.7664 374.993 88.4287 375.818C95.9062 385.568 97.1978 385.795 97.2544 388.135C97.3796 393.098 97.8108 398.05 98.546 402.965C99.1691 407.114 99.9735 410.96 100.812 414.469C100.978 415.117 100.975 415.794 100.803 416.44C100.631 417.086 100.296 417.681 99.8262 418.174C99.4005 418.611 98.8805 418.953 98.3023 419.178C97.7242 419.402 97.1017 419.504 96.4784 419.475C95.8551 419.446 95.2458 419.287 94.693 419.01C94.1403 418.733 93.6573 418.345 93.2777 417.871Z" fill="white"/>
</mask>
<g mask="url(#mask0_16_1299)">
<path d="M109.014 430.199C103.168 434.532 94.524 433.124 89.7542 427.133C84.9845 421.142 85.7436 412.866 91.601 408.533C97.4583 404.2 106.091 405.608 110.861 411.599C115.631 417.589 114.872 425.866 109.014 430.199Z" fill="#202538"/>
<path d="M90.1961 392.587C94.2067 393.096 98.2174 393.671 102.217 394.277C102.313 394.296 102.398 394.348 102.455 394.425C102.512 394.501 102.536 394.596 102.523 394.689C102.503 394.779 102.45 394.859 102.372 394.913C102.295 394.967 102.199 394.991 102.103 394.981C98.0928 394.429 94.0934 393.801 90.1054 393.129C90.0683 393.123 90.0326 393.111 90.0005 393.092C89.9684 393.073 89.9405 393.048 89.9184 393.019C89.8738 392.96 89.8555 392.887 89.8675 392.815C89.8795 392.743 89.9209 392.679 89.9825 392.636C90.0441 392.593 90.121 392.576 90.1961 392.587Z" fill="#202538"/>
<path d="M90.4567 396.909C94.4787 397.419 98.478 397.993 102.477 398.599C102.525 398.606 102.571 398.622 102.613 398.645C102.654 398.669 102.69 398.701 102.719 398.738C102.747 398.776 102.767 398.818 102.779 398.863C102.79 398.908 102.791 398.955 102.783 399C102.776 399.046 102.76 399.09 102.735 399.13C102.71 399.169 102.677 399.204 102.638 399.231C102.599 399.258 102.555 399.278 102.508 399.288C102.461 399.299 102.412 399.3 102.364 399.293C98.3534 398.74 94.3654 398.123 90.366 397.451C90.2916 397.435 90.2265 397.393 90.1842 397.332C90.142 397.272 90.1259 397.198 90.1394 397.126C90.1532 397.058 90.1938 396.998 90.2529 396.957C90.3119 396.917 90.3848 396.9 90.4567 396.909Z" fill="#202538"/>
<path d="M84.418 389.922C83.7685 390.47 82.9616 390.818 82.1023 390.922C81.243 391.025 80.371 390.879 79.5997 390.503C78.8284 390.126 78.1933 389.536 77.7772 388.81C77.361 388.084 77.183 387.255 77.2662 386.43C77.3494 385.606 77.69 384.825 78.2438 384.188C78.7975 383.551 79.5388 383.089 80.3712 382.86C81.2037 382.631 82.0888 382.648 82.9115 382.906C83.7342 383.165 84.4565 383.655 84.9845 384.311C85.6847 385.128 86.0182 386.177 85.912 387.228C85.8059 388.28 85.2688 389.248 84.418 389.922Z" fill="white"/>
</g>
<path d="M179.156 289.427H179.088C179.869 294.897 182.487 305.925 176.822 315.035C168.143 329.194 146.119 350.783 133.996 362.245C125.148 370.597 123.528 371.062 116.095 377.746C114.017 379.525 111.797 381.148 109.456 382.599C109.18 382.835 108.856 383.014 108.505 383.126C108.154 383.238 107.783 383.28 107.415 383.251C107.046 383.221 106.687 383.121 106.36 382.955C106.034 382.789 105.746 382.561 105.514 382.285C105.185 382.004 104.845 381.7 104.517 381.397L104.041 380.953C99.2597 376.371 94.1501 369.459 93.1531 363.62C92.9073 362.222 93.0987 360.785 93.7034 359.49C94.308 358.195 95.2989 357.099 96.5519 356.341C99.6336 354.402 103.236 353.611 106.193 351.444C110.725 348.194 113.762 343.558 116.741 339.052C120.969 332.58 126.066 326.665 131.9 321.459C137.973 316.043 144.499 311.179 150.118 305.351C151.61 303.85 152.935 302.206 154.072 300.443L154.344 299.999C154.503 299.729 154.661 299.458 154.786 299.187C155.919 297.02 156.259 294.854 155.409 293.034C155.32 292.843 155.218 292.659 155.103 292.481C155.012 292.334 154.909 292.193 154.797 292.059C149.586 285.559 149.336 286.989 139.196 273.773C136.382 269.611 133.795 265.312 131.447 260.893C115.733 232.316 140.737 222.22 153.642 224.939C158.615 226.022 160.02 228.492 160.734 228.687C163.589 229.445 165.708 237.732 170.296 252.281C177.026 273.751 178.193 282.656 179.156 289.427Z" fill="#963C4E"/>
<g style="mix-blend-mode:multiply" opacity="0.25">
<path d="M179.156 289.427H179.088C179.869 294.897 182.487 305.925 176.822 315.035C168.143 329.194 146.119 350.783 133.996 362.245C125.148 370.597 123.528 371.062 116.095 377.746C114.017 379.525 111.797 381.148 109.456 382.599C109.18 382.835 108.856 383.014 108.505 383.126C108.154 383.238 107.783 383.28 107.415 383.251C107.046 383.221 106.687 383.121 106.36 382.955C106.034 382.789 105.746 382.561 105.514 382.285C105.185 382.004 104.845 381.7 104.517 381.397L104.041 380.953C99.2597 376.371 94.1501 369.459 93.1531 363.62C92.9073 362.222 93.0987 360.785 93.7034 359.49C94.308 358.195 95.2989 357.099 96.5519 356.341C99.6336 354.402 103.236 353.611 106.193 351.444C110.725 348.194 113.762 343.558 116.741 339.052C120.969 332.58 126.066 326.665 131.9 321.459C137.973 316.043 144.499 311.179 150.118 305.351C151.61 303.85 152.935 302.206 154.072 300.443L154.344 299.999C154.503 299.729 154.661 299.458 154.786 299.187C155.919 297.02 156.259 294.854 155.409 293.034C155.32 292.843 155.218 292.659 155.103 292.481C155.012 292.334 154.909 292.193 154.797 292.059C149.586 285.559 149.336 286.989 139.196 273.773C136.382 269.611 133.795 265.312 131.447 260.893C115.733 232.316 140.737 222.22 153.642 224.939C158.615 226.022 160.02 228.492 160.734 228.687C163.589 229.445 165.708 237.732 170.296 252.281C177.026 273.751 178.193 282.656 179.156 289.427Z" fill="#B05F95"/>
</g>
<path d="M98.5573 360.923C98.7945 362.566 99.2791 364.168 99.9962 365.679C100.701 367.186 101.535 368.635 102.489 370.012C104.367 372.842 106.721 375.357 109.456 377.454C109.494 377.481 109.526 377.516 109.55 377.556C109.574 377.595 109.59 377.639 109.596 377.684C109.603 377.729 109.6 377.775 109.587 377.82C109.575 377.864 109.553 377.905 109.524 377.941C109.464 378.016 109.375 378.064 109.278 378.076C109.18 378.088 109.082 378.063 109.003 378.006C106.204 375.881 103.802 373.317 101.9 370.423C100.935 368.99 100.105 367.479 99.4184 365.906C98.7041 364.333 98.2347 362.669 98.0249 360.966C98.0201 360.931 98.0228 360.895 98.0328 360.86C98.0428 360.825 98.0599 360.793 98.0831 360.765C98.1063 360.737 98.1351 360.713 98.1679 360.696C98.2007 360.678 98.2368 360.667 98.2741 360.663C98.3465 360.665 98.4154 360.693 98.4676 360.741C98.5199 360.789 98.5518 360.854 98.5573 360.923Z" fill="#202538"/>
<path d="M164.835 413.863C164.416 416.712 163.85 421.565 166.251 423.753C169.208 426.45 174.182 424.544 178.17 423.211C183.121 421.543 189.613 423.038 195.266 422.28C199.56 421.695 207.604 421.381 208.76 416.571C209.134 415.044 206.698 414.935 205.678 414.816C200.24 414.188 195.21 411.902 190.293 409.725C187.449 408.468 181.229 406.02 180.447 402.716C179.224 397.614 169.288 404.048 164.869 404.828C165.143 407.835 165.132 410.858 164.835 413.863Z" fill="#F0D0BB"/>
<path d="M180.447 402.716C180.665 404.188 180.421 405.688 179.747 407.028C179.072 408.367 177.998 409.486 176.659 410.241C175.32 410.997 173.777 411.356 172.225 411.274C170.673 411.191 169.181 410.67 167.938 409.777C166.695 408.884 165.757 407.659 165.242 406.256C164.728 404.853 164.66 403.336 165.047 401.896C165.434 400.456 166.258 399.159 167.417 398.167C168.575 397.175 170.014 396.534 171.554 396.325C172.577 396.184 173.619 396.238 174.62 396.483C175.622 396.728 176.562 397.16 177.389 397.754C178.215 398.348 178.911 399.092 179.436 399.943C179.96 400.795 180.304 401.737 180.447 402.716Z" fill="#F0D0BB"/>
<path d="M179.541 407.45C178.867 408.611 177.882 409.58 176.686 410.256C175.792 410.771 174.797 411.107 173.763 411.241C172.731 411.387 171.679 411.331 170.67 411.079C170.591 411.079 170.477 411.079 170.058 410.895C169.298 410.64 168.583 410.275 167.939 409.811C167.33 409.377 166.792 408.859 166.342 408.273C165.58 407.29 165.079 406.145 164.88 404.937C164.88 404.882 164.88 405.132 164.801 404.406C164.473 402.835 161.028 392.847 157.403 382.74L178.929 379.826C179.79 392.165 180.357 401.221 180.413 402.337C180.782 404.086 180.472 405.903 179.541 407.45Z" fill="#F0D0BB"/>
<path d="M180.447 402.716C180.665 404.188 180.421 405.688 179.747 407.028C179.072 408.367 177.998 409.486 176.659 410.241C175.32 410.997 173.777 411.356 172.225 411.274C170.673 411.191 169.181 410.67 167.938 409.777C166.695 408.884 165.757 407.659 165.242 406.256C164.728 404.853 164.66 403.336 165.047 401.896C165.434 400.456 166.258 399.159 167.417 398.167C168.575 397.175 170.014 396.534 171.554 396.325C172.577 396.184 173.619 396.238 174.62 396.483C175.622 396.728 176.562 397.16 177.389 397.754C178.215 398.348 178.911 399.092 179.436 399.943C179.96 400.795 180.304 401.737 180.447 402.716Z" fill="#F0D0BB"/>
<path d="M207.74 421.749L169.22 426.96C168.637 427.038 168.044 427.002 167.476 426.852C166.909 426.702 166.38 426.442 165.922 426.089C165.464 425.735 165.087 425.295 164.814 424.797C164.542 424.298 164.379 423.751 164.337 423.19L163.294 409.454C163.221 408.422 163.558 407.401 164.239 406.598C164.92 405.794 165.894 405.266 166.965 405.121C179.496 403.669 180.357 402.727 182.521 403.821C187.111 406.152 191.844 408.218 196.694 410.006C200.784 411.534 204.681 412.758 208.307 413.744C208.978 413.925 209.592 414.26 210.096 414.721C210.599 415.182 210.977 415.754 211.196 416.387C211.395 416.957 211.46 417.561 211.388 418.158C211.316 418.754 211.108 419.329 210.778 419.84C210.449 420.351 210.006 420.787 209.481 421.117C208.956 421.447 208.362 421.663 207.74 421.749Z" fill="#D46966"/>
<mask id="mask1_16_1299" style="mask-type:luminance" maskUnits="userSpaceOnUse" x="163" y="403" width="49" height="24">
<path d="M207.74 421.749L169.22 426.96C168.637 427.038 168.044 427.002 167.476 426.852C166.909 426.702 166.38 426.442 165.922 426.089C165.464 425.735 165.087 425.295 164.814 424.797C164.542 424.298 164.379 423.751 164.337 423.19L163.294 409.454C163.221 408.422 163.558 407.401 164.239 406.598C164.92 405.794 165.894 405.266 166.965 405.121C179.496 403.669 180.357 402.727 182.521 403.821C187.111 406.152 191.844 408.218 196.694 410.006C200.784 411.534 204.681 412.758 208.307 413.744C208.978 413.925 209.592 414.26 210.096 414.721C210.599 415.182 210.977 415.754 211.196 416.387C211.395 416.957 211.46 417.561 211.388 418.158C211.316 418.754 211.108 419.329 210.778 419.84C210.449 420.351 210.006 420.787 209.481 421.117C208.956 421.447 208.362 421.663 207.74 421.749Z" fill="white"/>
</mask>
<g mask="url(#mask1_16_1299)">
<path d="M226.706 414.708C227.737 421.695 222.174 428.216 214.413 429.278C206.653 430.34 199.413 425.53 198.382 418.553C197.351 411.577 202.846 405.045 210.663 403.983C218.481 402.922 225.664 407.732 226.706 414.708Z" fill="#202538"/>
<path d="M183.166 411.913C185.614 408.826 188.083 405.76 190.621 402.738C190.691 402.673 190.784 402.636 190.882 402.636C190.979 402.636 191.073 402.673 191.142 402.738C191.18 402.766 191.211 402.801 191.234 402.841C191.257 402.881 191.271 402.925 191.276 402.97C191.282 403.015 191.277 403.061 191.264 403.105C191.251 403.149 191.229 403.19 191.199 403.225C188.729 406.291 186.191 409.313 183.62 412.314C183.568 412.358 183.501 412.383 183.432 412.384C183.362 412.386 183.295 412.364 183.241 412.323C183.186 412.281 183.149 412.223 183.136 412.158C183.122 412.093 183.133 412.025 183.166 411.967V411.913Z" fill="#202538"/>
<path d="M187.245 413.787C189.692 410.696 192.181 407.638 194.711 404.612C194.741 404.576 194.778 404.546 194.819 404.524C194.861 404.502 194.907 404.489 194.954 404.484C195.002 404.479 195.05 404.482 195.095 404.495C195.141 404.508 195.184 404.529 195.221 404.557C195.295 404.615 195.344 404.698 195.357 404.788C195.369 404.879 195.345 404.971 195.289 405.045C192.812 408.114 190.281 411.144 187.698 414.134C187.646 414.178 187.58 414.203 187.51 414.204C187.441 414.206 187.373 414.184 187.319 414.142C187.265 414.101 187.228 414.043 187.214 413.978C187.201 413.913 187.212 413.845 187.245 413.787Z" fill="#202538"/>
<path d="M177.921 415.39C178.097 416.201 178.013 417.043 177.682 417.808C177.35 418.572 176.786 419.224 176.063 419.678C175.339 420.132 174.489 420.368 173.623 420.354C172.758 420.341 171.917 420.079 171.209 419.602C170.501 419.126 169.959 418.457 169.654 417.682C169.349 416.907 169.295 416.063 169.498 415.258C169.702 414.454 170.153 413.726 170.795 413.17C171.436 412.614 172.237 412.255 173.094 412.14C173.635 412.05 174.188 412.063 174.723 412.177C175.258 412.292 175.764 412.506 176.213 412.808C176.661 413.11 177.043 413.493 177.336 413.936C177.629 414.38 177.828 414.874 177.921 415.39Z" fill="white"/>
</g>
<path d="M129.782 202.894C134.805 204.674 139.087 207.966 141.983 212.275C148.838 221.895 142.482 205.906 182.26 391.97C182.634 393.746 182.996 395.274 181.342 396.487C176.142 400.279 165.685 402.055 159.578 399.899C149.461 396.314 156.485 385.871 147.331 368.582C143.105 360.587 138.607 352.723 135.118 344.403C131.628 336.083 129.793 326.919 128.513 317.938C128.059 314.775 127.686 311.59 127.55 308.395C127.625 307.451 127.478 306.503 127.119 305.622C123.131 298.483 112.538 281.974 105.423 259.972C98.6253 238.805 94.0935 209.166 114.645 202.558C115.96 202.179 124.491 200.977 129.782 202.894Z" fill="#963C4E"/>
<path d="M152.769 247.731L160.87 285.039L168.869 322.369C168.889 322.461 168.87 322.557 168.817 322.636C168.764 322.715 168.681 322.771 168.585 322.792C168.538 322.801 168.488 322.801 168.441 322.792C168.393 322.783 168.348 322.764 168.307 322.738C168.267 322.712 168.233 322.678 168.207 322.639C168.181 322.6 168.163 322.556 168.155 322.51L160.133 285.18L152.203 247.829C152.189 247.757 152.205 247.683 152.248 247.622C152.29 247.562 152.355 247.519 152.429 247.504C152.467 247.496 152.505 247.495 152.543 247.502C152.58 247.509 152.616 247.523 152.648 247.543C152.679 247.563 152.706 247.589 152.727 247.62C152.748 247.65 152.762 247.684 152.769 247.72V247.731Z" fill="#202538"/>
<path d="M153.846 296.078C153.121 297.208 152.188 298.202 151.092 299.014C149.992 299.817 148.764 300.446 147.456 300.877C144.847 301.683 142.1 301.996 139.366 301.798C139.28 301.783 139.201 301.74 139.145 301.675C139.088 301.611 139.057 301.53 139.057 301.446C139.057 301.361 139.088 301.28 139.145 301.216C139.201 301.151 139.28 301.108 139.366 301.094C140.689 301.139 142.014 301.103 143.332 300.985C144.642 300.859 145.934 300.593 147.184 300.194C148.425 299.805 149.595 299.231 150.651 298.494C151.696 297.742 152.6 296.826 153.324 295.785C153.344 295.755 153.371 295.728 153.401 295.707C153.432 295.687 153.467 295.672 153.504 295.664C153.541 295.656 153.579 295.655 153.616 295.661C153.653 295.667 153.689 295.68 153.721 295.699C153.753 295.718 153.781 295.743 153.802 295.772C153.824 295.802 153.84 295.835 153.848 295.87C153.857 295.906 153.858 295.942 153.852 295.978C153.845 296.013 153.832 296.047 153.812 296.078H153.846Z" fill="#202538"/>
<path d="M159.125 394.136C162.432 394.836 165.85 394.909 169.186 394.353C172.497 393.649 175.724 392.622 178.816 391.287C178.908 391.251 179.01 391.252 179.102 391.288C179.193 391.325 179.265 391.395 179.303 391.482C179.321 391.525 179.331 391.571 179.33 391.617C179.33 391.663 179.32 391.708 179.301 391.751C179.282 391.793 179.254 391.831 179.22 391.863C179.185 391.895 179.144 391.921 179.099 391.937C175.965 393.306 172.687 394.352 169.322 395.057C165.891 395.568 162.389 395.436 159.012 394.667C158.975 394.66 158.941 394.646 158.91 394.626C158.879 394.606 158.853 394.581 158.832 394.551C158.812 394.521 158.797 394.488 158.79 394.453C158.783 394.418 158.783 394.382 158.791 394.348C158.798 394.313 158.813 394.28 158.834 394.25C158.855 394.221 158.881 394.195 158.912 394.176C158.943 394.156 158.978 394.143 159.015 394.136C159.051 394.129 159.089 394.129 159.125 394.136Z" fill="#202538"/>
<path d="M129.328 325.695C130.359 330.754 131.594 335.78 133.169 340.72C133.94 343.19 134.778 345.627 135.786 348.01C136.687 350.406 138.009 352.637 139.695 354.607C139.762 354.672 139.8 354.76 139.8 354.851C139.8 354.942 139.762 355.03 139.695 355.095C139.625 355.16 139.532 355.196 139.434 355.196C139.337 355.196 139.244 355.16 139.174 355.095C137.411 353.066 136.027 350.761 135.084 348.281C134.075 345.865 133.203 343.406 132.444 340.926C130.96 335.932 129.748 330.884 128.762 325.76C128.752 325.687 128.77 325.613 128.814 325.553C128.859 325.493 128.925 325.45 129 325.435C129.039 325.43 129.08 325.434 129.118 325.444C129.156 325.455 129.192 325.473 129.222 325.497C129.253 325.522 129.278 325.552 129.297 325.586C129.315 325.62 129.326 325.657 129.328 325.695Z" fill="#202538"/>
<path d="M161.731 170.959C163.238 181.499 164.88 192.051 167.475 202.374C169.741 211.365 172.154 224.831 179.858 231.092C180.142 231.272 180.378 231.513 180.547 231.795C180.716 232.078 180.814 232.394 180.833 232.719C180.852 233.045 180.791 233.369 180.655 233.668C180.519 233.967 180.312 234.231 180.051 234.439C169.605 244.817 154.627 245.218 140.59 245.272C132.807 245.337 126.462 248.63 119.54 251.566C110.102 255.574 94.524 253.841 85.7776 248.316C85.7776 248.316 89.4597 235.88 89.7769 231.948C92.1448 201.887 83.1718 172.053 70.2561 145.101C64.3534 132.795 61.0678 119.233 70.2561 107.945C79.9089 96.0287 95.2378 89.7674 110.748 89.0958C125.963 88.4458 140.046 95.7038 146.663 109.028C155.67 127.303 158.898 151.07 161.731 170.959Z" fill="#3D4357"/>
<path d="M117.523 115.506C116.546 115.512 115.57 115.457 114.6 115.344C108.469 114.558 102.757 111.934 98.2854 107.847C94.8865 104.782 84.8259 96.8845 89.6069 93.3964C96.4047 88.4024 95.2717 86.1059 94.7732 77.678C94.388 71.5683 102.829 73.8215 107.542 74.7315C111.722 75.5439 120.876 76.1397 120.446 81.7836C120.405 82.2393 120.314 82.6895 120.174 83.1269V83.2027C120.117 83.3545 120.071 83.5102 120.038 83.6685C119.977 83.8898 119.928 84.114 119.891 84.3402C119.574 86.2374 119.667 88.1765 120.163 90.0382C120.276 90.4932 120.401 90.9481 120.548 91.3923C120.695 91.8364 120.831 92.2048 120.99 92.5947C120.99 92.6706 120.99 92.7464 121.08 92.8114C121.44 93.7244 121.868 94.6114 122.361 95.4654C122.802 96.215 123.29 96.9385 123.822 97.632C125.828 100.21 128.603 104.132 129.294 107.241C130.699 113.697 123.176 115.506 117.523 115.506Z" fill="#F0D0BB"/>
<path d="M120.435 81.8378C120.394 82.2934 120.303 82.7437 120.163 83.1811V83.2569C120.105 83.4087 120.06 83.5644 120.027 83.7227C119.966 83.944 119.917 84.1682 119.879 84.3943C119.563 86.2915 119.655 88.2306 120.151 90.0924C120.265 90.5474 120.389 91.0023 120.537 91.4465C120.684 91.8906 120.82 92.2589 120.978 92.6489C119.682 92.8447 118.368 92.9064 117.058 92.8331C111.303 92.6272 104.041 89.1933 102.84 83.9718C103.693 83.7668 104.567 83.6505 105.446 83.6252C112.073 82.9861 116.922 82.3578 120.435 81.8378Z" fill="#D99982"/>
<path d="M122.055 39.3082C125.895 40.4999 130.155 41.7131 133.464 46.8912C136.273 51.2243 135.73 57.1607 131.322 59.6414C127.923 61.5696 125.114 58.7531 123.392 55.3949C117.024 43.5764 110.589 48.1803 103.95 44.1938C99.4183 41.4206 96.5179 38.7774 100.098 35.0835C101.408 33.7208 103.182 32.8467 105.103 32.6166C107.024 32.3865 108.968 32.8154 110.589 33.8269C114.143 36.1266 117.998 37.9695 122.055 39.3082Z" fill="#202538"/>
<path d="M128.082 44.8221C129.384 45.6943 130.424 46.8786 131.096 48.2561C131.754 49.6382 132.068 51.1474 132.013 52.6651C131.998 52.7479 131.953 52.8229 131.886 52.8769C131.818 52.931 131.733 52.9606 131.645 52.9606C131.557 52.9606 131.472 52.931 131.405 52.8769C131.338 52.8229 131.292 52.7479 131.277 52.6651C131.298 51.2596 131 49.8664 130.405 48.5811C129.812 47.289 128.898 46.1548 127.742 45.2771C127.682 45.234 127.642 45.1699 127.632 45.0988C127.621 45.0277 127.64 44.9554 127.686 44.898C127.731 44.8405 127.798 44.8025 127.872 44.7924C127.946 44.7822 128.022 44.8007 128.082 44.8438V44.8221Z" fill="#3D4357"/>
<path d="M129.317 56.0016C133.566 69.4667 131.062 83.5494 117.829 86.4959C106.012 89.1066 91.5217 81.5886 87.2391 68.0801C82.9566 54.5716 89.0972 41.3665 100.574 37.6292C112.572 33.7185 125.318 43.1647 129.317 56.0016Z" fill="#F0D0BB"/>
<mask id="mask2_16_1299" style="mask-type:luminance" maskUnits="userSpaceOnUse" x="85" y="36" width="47" height="52">
<path d="M129.317 56.0016C133.566 69.4667 131.062 83.5494 117.829 86.4959C106.012 89.1066 91.5217 81.5886 87.2391 68.0801C82.9566 54.5716 89.0972 41.3665 100.574 37.6292C112.572 33.7185 125.318 43.1647 129.317 56.0016Z" fill="white"/>
</mask>
<g mask="url(#mask2_16_1299)">
<path d="M119.97 54.355C119.483 52.1884 125.227 51.5493 125.476 53.8025C125.68 55.6983 120.355 56.1316 119.97 54.355Z" fill="#202538"/>
<path d="M104.811 58.3848C103.814 56.3699 109.252 54.485 110.034 56.619C110.691 58.4173 105.627 60.0205 104.811 58.3848Z" fill="#202538"/>
<path d="M125.624 59.8689C125.659 60.1737 125.576 60.4804 125.39 60.7302C125.204 60.9801 124.928 61.1555 124.615 61.223C123.278 61.4396 122.44 59.7605 122.837 58.6881C122.932 58.4652 123.09 58.2721 123.294 58.1309C123.498 57.9896 123.739 57.9058 123.99 57.8889C124.241 57.872 124.493 57.9227 124.715 58.0352C124.938 58.1477 125.123 58.3176 125.25 58.5256C125.502 58.9315 125.632 59.3966 125.624 59.8689Z" fill="#202538"/>
<path d="M110.442 62.707C110.473 63.0178 110.38 63.3283 110.183 63.5771C109.986 63.8258 109.698 63.9947 109.377 64.0503C108.029 64.2128 107.258 62.5012 107.7 61.4504C107.807 61.2332 107.976 61.0486 108.186 60.9172C108.396 60.7857 108.64 60.7126 108.892 60.7059C109.143 60.6991 109.391 60.7591 109.609 60.879C109.826 60.999 110.005 61.1743 110.125 61.3855C110.352 61.7908 110.462 62.2473 110.442 62.707Z" fill="#202538"/>
<path d="M122.961 73.8757C122.627 74.4482 122.152 74.935 121.579 75.2948C120.59 75.9088 119.421 76.2005 118.244 76.1263C117.068 76.0521 115.949 75.616 115.053 74.8831C115.002 74.8415 114.956 74.7943 114.917 74.7423C114.479 74.3206 114.139 73.8148 113.92 73.2582C113.76 72.9618 113.677 72.6331 113.677 72.2995C113.677 71.9659 113.76 71.6372 113.92 71.3408C114.111 71.1051 114.377 70.9359 114.678 70.8595C114.979 70.7831 115.298 70.8038 115.586 70.9183C115.893 71.0454 116.192 71.1901 116.481 71.3516C117.612 71.966 118.95 72.1332 120.208 71.8174C120.651 71.6954 121.107 71.6227 121.568 71.6008C121.858 71.5689 122.152 71.6184 122.413 71.7432C122.674 71.8681 122.892 72.0629 123.04 72.304C123.187 72.545 123.259 72.8219 123.245 73.101C123.231 73.38 123.132 73.6492 122.961 73.8757Z" fill="#202538"/>
<path d="M121.579 75.2948C120.59 75.9088 119.421 76.2005 118.244 76.1263C117.068 76.0521 115.949 75.616 115.053 74.8831C115.002 74.8415 114.956 74.7943 114.917 74.7423C114.985 74.5148 115.472 74.2765 115.597 74.2115C115.935 74.028 116.292 73.8791 116.662 73.7673C118.225 73.334 120.593 73.5724 121.579 75.2948Z" fill="#D46966"/>
<g opacity="0.75">
<path d="M101.696 71.8608C101.276 70.4417 102.715 68.4918 105.094 67.8851C107.292 67.3326 109.468 67.9609 110.079 69.8784C110.567 71.3733 109.003 73.3773 106.964 73.8865C104.653 74.4823 102.217 73.9081 101.696 71.8608Z" fill="#D99982"/>
<path d="M132.659 65.4694C132.433 64.0178 130.291 62.8045 127.81 63.1945C125.544 63.552 123.845 64.9711 124.105 66.9643C124.309 68.5134 126.587 69.7375 128.637 69.4125C131.073 69.0226 133.056 67.5493 132.659 65.4694Z" fill="#D99982"/>
</g>
<path d="M116.254 58.0165C117.387 59.7226 118.427 61.4835 119.37 63.292C119.639 63.7629 119.83 64.2709 119.936 64.7978C120.061 65.3875 119.943 66.0005 119.608 66.5094C119.263 66.9665 118.808 67.3379 118.282 67.5927L117.591 67.9501C117.336 68.0675 117.071 68.1618 116.798 68.2318C116.759 68.2435 116.719 68.2477 116.678 68.2442C116.638 68.2407 116.598 68.2295 116.563 68.2114C116.527 68.1932 116.495 68.1685 116.469 68.1385C116.444 68.1085 116.424 68.074 116.413 68.0368C116.392 67.9648 116.399 67.8883 116.433 67.8208C116.466 67.7533 116.523 67.6993 116.594 67.6685C116.821 67.5791 117.04 67.4741 117.251 67.3543L117.92 66.9644C118.337 66.7627 118.698 66.4694 118.973 66.1086C119.472 65.4369 119.132 64.462 118.701 63.6062C118.271 62.7504 117.784 61.8079 117.308 60.9088C116.832 60.0097 116.356 59.1214 115.846 58.2656C115.83 58.2394 115.82 58.2104 115.816 58.1803C115.812 58.1501 115.814 58.1196 115.822 58.0903C115.831 58.061 115.845 58.0336 115.865 58.0098C115.885 57.9859 115.909 57.9661 115.937 57.9515C115.989 57.9243 116.05 57.9159 116.108 57.9279C116.166 57.9398 116.218 57.9712 116.254 58.0165Z" fill="#202538"/>
</g>
<path d="M102.171 30.8478C104.437 30.4579 106.522 29.5696 108.833 30.1437C110.589 30.577 113.467 31.3136 115.121 33.7185C117.512 37.3475 116.084 44.5513 112.425 47.7362C107.983 51.6576 107.202 50.661 103.995 52.0693C95.6116 55.7091 103.191 63.2812 96.6539 65.9677C94.5126 66.8452 91.8049 67.051 90.0261 68.6218C89.6935 68.9454 89.4455 69.3395 89.3023 69.772C89.1591 70.2046 89.1247 70.6634 89.202 71.111C89.2793 71.5587 89.4661 71.9825 89.7471 72.3481C90.0281 72.7137 90.3954 73.0107 90.8192 73.2149C100.653 78.458 101.945 93.4072 89.8902 92.5839C87.5449 92.4214 85.0638 89.919 84.5539 88.2508C83.1038 83.5927 78.7419 82.7694 76.0908 81.0362C73.8107 79.4473 72.0488 77.2724 71.01 74.7643C69.9712 72.2561 69.6979 69.5176 70.2221 66.8669C71.2757 60.703 76.306 58.2765 75.1617 54.3767C73.7909 49.6752 73.0998 44.963 74.8105 40.2399C75.595 38.0806 76.8471 36.1038 78.485 34.4387C80.123 32.7737 82.1099 31.4578 84.316 30.577C88.27 28.9846 92.3487 29.2012 96.4273 30.1654C98.5233 30.6853 99.9848 31.227 102.171 30.8478Z" fill="#202538"/>
<path d="M78.606 61.8838C77.7154 64.049 77.0439 66.2908 76.6006 68.5784C76.4355 69.7098 76.47 70.8595 76.7026 71.9799C76.8538 72.5093 77.1167 73.0035 77.4752 73.432C77.8338 73.8605 78.2803 74.2143 78.7872 74.4715C79.7956 75.089 80.9399 75.5548 82.0048 76.2481C83.0537 76.9336 84.0024 77.7496 84.8259 78.6746C86.3918 80.5437 87.7333 82.5749 88.8252 84.7301C88.8544 84.8113 88.8521 84.8997 88.8188 84.9794C88.7854 85.0591 88.7232 85.1246 88.6435 85.164C88.5638 85.2034 88.4719 85.2141 88.3846 85.1941C88.2973 85.1741 88.2205 85.1248 88.1681 85.0551C87.1067 82.9468 85.7952 80.9622 84.2594 79.1404C83.4781 78.2645 82.5746 77.4954 81.5743 76.8547C80.5886 76.2156 79.4444 75.7714 78.3681 75.0781C77.8126 74.747 77.3123 74.338 76.8839 73.8648C76.4491 73.3695 76.1424 72.7831 75.9888 72.1533C75.7682 70.9419 75.7682 69.7032 75.9888 68.4918C76.4687 66.1509 77.1897 63.8613 78.1415 61.6563C78.1655 61.5873 78.2172 61.5303 78.2852 61.4978C78.3532 61.4653 78.4319 61.46 78.504 61.483C78.5761 61.506 78.6357 61.5554 78.6697 61.6204C78.7037 61.6854 78.7093 61.7607 78.6853 61.8296L78.606 61.8838Z" fill="#3D4357"/>
<path d="M112.425 31.1836C114.408 33.6874 115.666 36.6466 116.073 39.7632C116.079 39.8088 116.076 39.8551 116.063 39.8995C116.051 39.9439 116.029 39.9854 116 40.0217C115.97 40.058 115.933 40.0883 115.891 40.1109C115.849 40.1335 115.803 40.1479 115.756 40.1532C115.661 40.1628 115.567 40.138 115.491 40.0837C115.416 40.0295 115.364 39.9498 115.348 39.8607C115.101 38.3813 114.699 36.9296 114.147 35.5276C113.59 34.1223 112.855 32.7873 111.96 31.552C111.937 31.5227 111.921 31.4892 111.913 31.4537C111.904 31.4181 111.904 31.3812 111.911 31.3455C111.919 31.3097 111.934 31.2759 111.956 31.2461C111.978 31.2164 112.007 31.1914 112.039 31.1728C112.093 31.1278 112.163 31.1039 112.234 31.1059C112.306 31.1079 112.374 31.1357 112.425 31.1836Z" fill="#202538"/>
<path d="M93.2551 70.6908C93.5496 70.9183 93.8895 71.1783 94.2181 71.4058L95.1924 72.1099C95.2305 72.1376 95.2625 72.1722 95.2865 72.2117C95.3105 72.2512 95.3262 72.2948 95.3325 72.3402C95.3388 72.3855 95.3357 72.4315 95.3233 72.4757C95.3109 72.5198 95.2896 72.5612 95.2604 72.5974C95.2063 72.6653 95.1286 72.7124 95.0413 72.7303C94.9541 72.7482 94.863 72.7356 94.7846 72.6949C94.4111 72.4757 94.0586 72.2256 93.7309 71.9474C93.397 71.6711 93.0899 71.3666 92.8132 71.0375C92.7606 70.9858 92.7317 70.9162 92.7328 70.8441C92.7338 70.772 92.7648 70.7032 92.8189 70.6529C92.873 70.6026 92.9457 70.575 93.0212 70.576C93.0966 70.577 93.1685 70.6066 93.2211 70.6583L93.2551 70.6908Z" fill="#202538"/>
<path d="M88.4854 94.2738C88.4854 94.2738 96.9938 103.243 106.817 106.06C115.597 108.595 126.417 105.941 122.089 95.6062C116.832 83.0294 136.251 99.0077 139.253 111.79C140.885 118.756 130.631 123.219 130.631 123.219L77.2238 108.811L81.1325 99.6035L88.4854 94.2738Z" fill="#3D4357"/>
<path d="M129.294 102.734C128.593 104.955 127.306 106.966 125.556 108.573C123.781 110.156 121.625 111.294 119.279 111.888C116.958 112.485 114.55 112.708 112.153 112.549C109.771 112.379 107.412 111.995 105.106 111.4C105.012 111.375 104.932 111.316 104.883 111.235C104.834 111.154 104.821 111.058 104.845 110.967C104.872 110.877 104.934 110.801 105.019 110.754C105.103 110.708 105.204 110.695 105.298 110.718C107.553 111.288 109.86 111.651 112.187 111.801C114.508 111.943 116.837 111.727 119.086 111.162C121.329 110.627 123.397 109.566 125.102 108.075C126.788 106.573 128.033 104.676 128.717 102.572C128.722 102.531 128.737 102.492 128.759 102.457C128.782 102.422 128.813 102.393 128.849 102.371C128.885 102.348 128.926 102.334 128.968 102.328C129.011 102.323 129.054 102.326 129.095 102.338C129.136 102.35 129.174 102.37 129.206 102.398C129.238 102.425 129.263 102.459 129.28 102.497C129.297 102.535 129.305 102.575 129.303 102.616C129.302 102.657 129.291 102.698 129.272 102.734H129.294Z" fill="#202538"/>
<path d="M75.1844 57.1065C75.8076 58.0381 76.3174 58.1898 77.4504 57.7673C80.7133 56.5324 118.384 41.8431 121.375 40.1099C122.259 39.6007 122.383 39.2432 122.009 38.3116C115.812 22.9616 94.4333 16.0069 81.3364 28.3021C76.259 32.9694 73.2737 39.3383 73.0092 46.0679C72.7486 50.8885 74.0288 55.3841 75.1844 57.1065Z" fill="#FF8181"/>
<path d="M133.917 36.1126C135.265 35.5601 136.523 34.8776 135.798 33.6643C134.665 31.7144 131.549 31.0645 129.26 31.292C125.891 31.625 122.585 32.4014 119.438 33.5993C104.161 39.591 89.5774 47.0842 75.9209 55.9582C75.2298 56.4132 74.4594 57.1282 74.8786 57.8323C75.002 58.0573 75.1933 58.2417 75.4276 58.3614C75.662 58.4812 75.9286 58.5308 76.1928 58.5039C77.8242 58.4173 127.991 38.5933 133.917 36.1126Z" fill="#D46966"/>
<path d="M85.0525 28.1071C85.7941 28.4749 86.6091 28.6873 87.4433 28.7302C88.2774 28.7732 89.1116 28.6457 89.8902 28.3563C90.6386 28.0326 91.2923 27.5378 91.7936 26.9155C92.0392 26.5978 92.2625 26.2649 92.462 25.9189L93.0285 24.8356C93.0783 24.7642 93.1533 24.7123 93.2399 24.6894C93.3264 24.6665 93.4187 24.6742 93.4998 24.711C93.581 24.7478 93.6455 24.8113 93.6817 24.8899C93.7179 24.9685 93.7233 25.0569 93.6969 25.1389C93.5043 25.5398 93.323 25.9406 93.1304 26.3306C92.8919 26.7057 92.6309 27.0674 92.3487 27.4138C91.7537 28.1421 90.9736 28.7127 90.0828 29.0712C89.2043 29.4139 88.249 29.5369 87.3071 29.4287C86.3819 29.3241 85.486 29.052 84.6673 28.6271C84.6032 28.5908 84.5559 28.5326 84.5348 28.4643C84.5138 28.3959 84.5206 28.3225 84.554 28.2588C84.5899 28.1983 84.648 28.1526 84.717 28.1306C84.786 28.1086 84.8611 28.1118 84.9279 28.1396L85.0525 28.1071Z" fill="#202538"/>
<path d="M96.3934 27.7172C97.4046 28.0973 98.3665 28.588 99.2597 29.1796C100.162 29.7591 101.011 30.4115 101.798 31.1295C102.583 31.8509 103.299 32.6376 103.939 33.4802C104.592 34.3133 105.165 35.2017 105.65 36.1342C105.694 36.2177 105.702 36.3144 105.672 36.4035C105.642 36.4926 105.577 36.567 105.491 36.6109C105.407 36.6533 105.308 36.6623 105.217 36.6359C105.126 36.6096 105.049 36.55 105.004 36.4701C104.505 35.5923 103.949 34.7457 103.338 33.9352C102.092 32.3211 100.59 30.9029 98.8859 29.7321C98.0381 29.157 97.1353 28.66 96.1894 28.248C96.1541 28.2351 96.122 28.2153 96.0951 28.1899C96.0682 28.1645 96.0471 28.134 96.0333 28.1003C96.0194 28.0667 96.013 28.0306 96.0146 27.9945C96.0161 27.9584 96.0255 27.9229 96.0422 27.8905C96.0655 27.8235 96.1153 27.7679 96.1809 27.7356C96.2465 27.7032 96.3227 27.6966 96.3934 27.7172Z" fill="#202538"/>
<path d="M85.483 45.8079C84.6877 43.6007 84.2706 41.2852 84.2481 38.9508C84.2236 37.7856 84.3184 36.6209 84.5313 35.4734C84.7292 34.3157 85.0597 33.1822 85.517 32.0936C85.5333 32.0502 85.5585 32.0103 85.591 31.9762C85.6235 31.9421 85.6627 31.9145 85.7063 31.8949C85.75 31.8753 85.7973 31.8641 85.8454 31.8619C85.8936 31.8598 85.9418 31.8667 85.9872 31.8824C86.0325 31.898 86.0742 31.922 86.1099 31.9531C86.1456 31.9842 86.1745 32.0216 86.195 32.0634C86.2155 32.1051 86.2272 32.1503 86.2295 32.1964C86.2317 32.2425 86.2245 32.2885 86.2081 32.3319C85.8053 33.388 85.4982 34.4753 85.2904 35.5818C85.0939 36.6911 84.9991 37.8148 85.0071 38.9399C85.0052 40.0672 85.0885 41.1931 85.2564 42.3089C85.4265 43.4333 85.6802 44.5447 86.0155 45.6346C86.0369 45.705 86.0287 45.7806 85.9927 45.8453C85.9568 45.91 85.8958 45.9588 85.8229 45.9812C85.7538 45.9987 85.6804 45.9905 85.6174 45.9583C85.5543 45.9262 85.5063 45.8725 85.483 45.8079Z" fill="#202538"/>
<g opacity="0.15">
<mask id="mask3_16_1299" style="mask-type:luminance" maskUnits="userSpaceOnUse" x="63" y="89" width="118" height="165">
<path d="M179.858 231.114C172.154 224.852 169.741 211.387 167.475 202.396C164.881 192.051 163.238 181.499 161.731 170.981C158.899 151.092 155.67 127.325 146.64 109.104C140.023 95.7796 125.941 88.5216 110.725 89.1716C95.2151 89.8432 79.8862 96.1262 70.2335 108.021C68.1191 110.597 66.5456 113.54 65.5997 116.687C63.6555 122.015 63.3179 127.758 64.6253 133.261C66.4381 140.714 71.4231 147.16 72.556 154.807C72.7373 155.967 72.726 156.53 74.5274 156.974C74.8899 157.061 75.2638 157.137 75.6603 157.191C85.585 180.893 91.8502 206.404 89.8222 232.099C89.505 236.032 85.8229 248.468 85.8229 248.468C94.5693 254.003 110.147 255.737 119.585 251.718C126.507 248.782 132.852 245.489 140.635 245.424C154.673 245.326 169.65 244.925 180.096 234.591C180.383 234.382 180.612 234.108 180.761 233.794C180.911 233.48 180.977 233.136 180.953 232.791C180.93 232.447 180.817 232.114 180.626 231.821C180.435 231.528 180.171 231.285 179.858 231.114Z" fill="white"/>
</mask>
<g mask="url(#mask3_16_1299)">
<path d="M151.512 107.067C144.027 108.51 136.696 110.606 129.612 113.329C126.079 114.671 122.731 116.421 119.642 118.539C118.116 119.592 116.797 120.894 115.744 122.385C114.688 123.84 114.258 125.629 114.543 127.379C114.697 128.247 115.007 129.083 115.461 129.849C115.902 130.626 116.434 131.353 117.047 132.015C118.295 133.369 119.693 134.59 121.216 135.655C122.745 136.732 124.338 137.723 125.986 138.623C127.68 139.51 129.311 140.501 130.869 141.591C134.007 143.794 136.589 146.64 138.426 149.922C140.213 153.236 141.182 156.897 141.258 160.625C141.326 164.329 140.772 168.019 139.616 171.555C138.501 175.081 136.981 178.478 135.084 181.684C131.274 188.093 126.403 193.869 120.661 198.789C114.984 203.785 108.409 207.759 101.254 210.521C97.6548 211.869 93.882 212.747 90.0375 213.131C86.174 213.504 82.2717 213.191 78.5266 212.21C78.4803 212.198 78.437 212.177 78.3993 212.148C78.3616 212.12 78.3302 212.084 78.307 212.044C78.2838 212.003 78.2692 211.959 78.2641 211.913C78.2591 211.867 78.2636 211.821 78.2774 211.777C78.2877 211.731 78.308 211.687 78.337 211.649C78.366 211.611 78.4031 211.579 78.4458 211.556C78.4886 211.532 78.5361 211.518 78.5851 211.513C78.6342 211.508 78.6837 211.513 78.7306 211.528C86.0495 213.521 93.9462 212.47 100.982 209.849C108.055 207.125 114.554 203.198 120.163 198.258C125.825 193.395 130.626 187.688 134.381 181.359C136.27 178.202 137.79 174.856 138.913 171.382C140.038 167.918 140.581 164.305 140.522 160.679C140.453 157.059 139.519 153.502 137.792 150.279C136.015 147.084 133.51 144.311 130.461 142.166C128.926 141.096 127.321 140.119 125.658 139.241C123.985 138.33 122.373 137.32 120.831 136.218C119.267 135.12 117.831 133.863 116.549 132.47C115.896 131.753 115.33 130.968 114.861 130.13C114.371 129.301 114.041 128.395 113.886 127.455C113.588 125.557 114.053 123.621 115.189 122.038C116.29 120.495 117.662 119.146 119.245 118.052C122.384 115.912 125.786 114.147 129.374 112.798C136.49 110.064 143.855 107.965 151.376 106.526C151.451 106.513 151.528 106.528 151.591 106.569C151.655 106.609 151.699 106.671 151.716 106.742C151.729 106.813 151.712 106.885 151.67 106.944C151.627 107.003 151.562 107.043 151.489 107.057L151.512 107.067Z" fill="#B0B3C2"/>
<path d="M161.436 116.589C158.264 116.384 155.126 116.059 151.976 116.091C148.84 116.001 145.729 116.644 142.912 117.965C141.574 118.713 140.353 119.64 139.287 120.717C138.186 121.749 137.302 122.974 136.681 124.324C136.094 125.67 135.944 127.153 136.251 128.581C136.584 130.016 137.224 131.37 138.131 132.557C140.005 134.953 142.252 137.061 144.793 138.807C147.286 140.638 149.948 142.274 152.622 143.888C153.959 144.7 155.296 145.502 156.621 146.347C157.947 147.192 159.238 148.037 160.587 148.817C163.24 150.425 166.085 151.724 169.061 152.684C169.153 152.712 169.229 152.773 169.274 152.854C169.318 152.935 169.327 153.03 169.299 153.118C169.27 153.208 169.205 153.284 169.118 153.328C169.031 153.373 168.929 153.383 168.834 153.356C165.805 152.375 162.907 151.055 160.201 149.424C158.842 148.633 157.516 147.788 156.202 146.943C154.888 146.098 153.551 145.307 152.214 144.495C149.54 142.881 146.866 141.245 144.283 139.392C141.688 137.595 139.396 135.429 137.486 132.969C136.534 131.691 135.864 130.243 135.514 128.711C135.186 127.154 135.356 125.538 136.001 124.075C136.667 122.648 137.608 121.354 138.777 120.262C139.892 119.142 141.17 118.182 142.573 117.413C145.477 116.053 148.687 115.398 151.919 115.506C155.103 115.506 158.264 115.831 161.414 116.048C161.489 116.048 161.561 116.076 161.614 116.127C161.667 116.178 161.697 116.247 161.697 116.319C161.697 116.39 161.667 116.459 161.614 116.51C161.561 116.561 161.489 116.589 161.414 116.589H161.436Z" fill="#B0B3C2"/>
<path d="M169.322 182.767C163.963 182.019 158.321 181.889 153.211 183.655C151.956 184.115 150.759 184.707 149.642 185.421C149.099 185.797 148.584 186.21 148.101 186.656C147.602 187.088 147.133 187.551 146.697 188.042C144.94 189.997 143.803 192.391 143.422 194.943C142.55 200.045 144.034 205.386 142.584 210.64C141.836 213.225 140.471 215.61 138.596 217.605C136.749 219.594 134.603 221.31 132.229 222.697C127.459 225.38 122.279 227.332 116.877 228.481C111.511 229.707 106.012 230.321 100.495 230.312C94.9675 230.359 89.4619 229.648 84.1461 228.2C78.8065 226.756 73.8326 224.282 69.531 220.931C69.4961 220.898 69.4683 220.86 69.4493 220.817C69.4303 220.774 69.4205 220.728 69.4205 220.682C69.4205 220.635 69.4303 220.589 69.4493 220.546C69.4683 220.504 69.4961 220.465 69.531 220.433C69.6002 220.371 69.6913 220.337 69.7859 220.337C69.8805 220.337 69.9716 220.371 70.0408 220.433C74.2695 223.714 79.154 226.136 84.3954 227.55C89.6414 228.977 95.0745 229.678 100.529 229.63C105.989 229.637 111.431 229.026 116.741 227.81C122.06 226.673 127.162 224.755 131.866 222.122C134.181 220.78 136.273 219.115 138.075 217.183C139.884 215.269 141.206 212.982 141.938 210.499C143.354 205.483 141.938 200.154 142.799 194.878C143.19 192.216 144.369 189.716 146.198 187.674C146.65 187.166 147.139 186.688 147.66 186.244C148.156 185.775 148.695 185.347 149.268 184.966C150.429 184.22 151.676 183.606 152.984 183.135C155.611 182.268 158.363 181.797 161.142 181.738C163.902 181.672 166.662 181.846 169.39 182.258C169.427 182.262 169.462 182.273 169.495 182.29C169.527 182.308 169.555 182.332 169.577 182.36C169.6 182.389 169.616 182.421 169.624 182.456C169.633 182.49 169.634 182.526 169.628 182.561C169.611 182.625 169.572 182.681 169.515 182.719C169.459 182.757 169.39 182.774 169.322 182.767Z" fill="#B0B3C2"/>
<path d="M65.1238 193.307C70.2329 193.491 75.3326 192.756 80.1581 191.141C84.995 189.581 89.3009 186.8 92.6207 183.092C95.8503 179.313 97.9836 174.789 98.8066 169.973C99.6654 165.151 99.7723 160.234 99.1238 155.382C99.1175 155.336 99.1207 155.29 99.1333 155.245C99.1458 155.201 99.1675 155.159 99.197 155.123C99.2265 155.087 99.2633 155.056 99.3052 155.034C99.3471 155.011 99.3933 154.997 99.441 154.992C99.5385 154.982 99.6358 155.01 99.7121 155.069C99.7884 155.128 99.8375 155.213 99.8489 155.306C100.518 160.225 100.415 165.213 99.543 170.103C98.7114 175.043 96.5218 179.682 93.1985 183.547C89.774 187.333 85.3426 190.162 80.3734 191.736C75.4525 193.341 70.2616 194.054 65.0672 193.838C65.03 193.837 64.9934 193.828 64.9596 193.813C64.9258 193.798 64.8954 193.777 64.8702 193.751C64.8449 193.725 64.8253 193.694 64.8124 193.661C64.7996 193.627 64.7938 193.592 64.7953 193.556C64.8008 193.484 64.834 193.417 64.8883 193.367C64.9427 193.317 65.0145 193.288 65.0898 193.286L65.1238 193.307Z" fill="#B0B3C2"/>
</g>
</g>
<path d="M114.634 168.944C114.608 168.884 114.578 168.826 114.543 168.771L113.467 169.41L114.634 168.944Z" fill="#F0D0BB"/>
<path d="M93.0512 129.74C90.7852 125.83 87.5223 121.692 82.4127 120.901C74.2668 119.655 68.6813 127.086 69.531 134.171C70.3014 140.747 74.2554 146.705 77.5637 152.359C81.8462 159.671 85.5963 170.006 91.2498 178.163C93.2251 181.106 95.6414 183.756 98.4214 186.028C102.953 180.308 106.635 173.613 113.467 169.41L114.543 168.771C110.329 160.549 103.542 147.376 93.0512 129.74Z" fill="#F0D0BB"/>
<path d="M167.237 151.189C164.257 148.232 159.431 150.171 159.386 150.214C141.179 157.212 122.599 165.239 112.425 168.045L111.292 168.695C105.321 173.938 101.843 179.625 98.3647 186.028C100.894 188.159 103.958 189.626 107.258 190.285C116.685 191.747 127.448 184.641 135.14 180.275C145.403 174.379 155.243 167.836 164.597 160.69C166.591 159.151 168.461 157.44 168.744 155.382C169.106 155.046 168.801 152.728 167.237 151.189Z" fill="#F0D0BB"/>
<path d="M105.468 170.537C106.75 169.709 108.135 169.039 109.592 168.543C111.015 168.01 112.487 167.604 113.988 167.33C114.028 167.322 114.07 167.322 114.11 167.33C114.15 167.338 114.189 167.354 114.222 167.376C114.256 167.398 114.285 167.427 114.307 167.46C114.329 167.493 114.344 167.53 114.351 167.569C114.363 167.64 114.347 167.713 114.308 167.774C114.268 167.836 114.207 167.882 114.135 167.904C112.697 168.338 111.246 168.717 109.83 169.183C109.128 169.41 108.425 169.67 107.734 169.952C107.057 170.23 106.399 170.549 105.763 170.905C105.737 170.923 105.708 170.935 105.677 170.942C105.646 170.948 105.615 170.948 105.584 170.942C105.553 170.936 105.523 170.924 105.498 170.906C105.472 170.889 105.45 170.866 105.434 170.84C105.402 170.794 105.388 170.738 105.394 170.682C105.4 170.627 105.427 170.575 105.468 170.537Z" fill="#202538"/>
<path d="M69.0209 110.057C73.6547 103.46 81.0416 104.565 87.8053 107.793C99.1348 113.21 98.9989 128.549 107.213 144.408C109.286 148.394 96.5064 154.157 89.3008 155.967C84.1798 157.245 80.1125 158.133 74.5724 156.877C72.771 156.476 72.7823 155.912 72.601 154.71C71.4681 147.062 66.4831 140.627 64.6704 133.164C63.728 129.231 63.6277 125.156 64.3753 121.185C65.123 117.214 66.7032 113.429 69.0209 110.057Z" fill="#3D4357"/>
<g opacity="0.15">
<mask id="mask4_16_1299" style="mask-type:luminance" maskUnits="userSpaceOnUse" x="63" y="89" width="118" height="165">
<path d="M179.858 231.114C172.154 224.852 169.741 211.387 167.475 202.396C164.881 192.051 163.238 181.499 161.731 170.981C158.898 151.092 155.67 127.325 146.64 109.104C140.023 95.7796 125.941 88.5216 110.725 89.1716C95.2151 89.8432 79.8862 96.1262 70.2335 108.021C68.1191 110.597 66.5456 113.54 65.5997 116.687C63.6555 122.015 63.3179 127.758 64.6253 133.261C66.4381 140.714 71.4231 147.16 72.556 154.807C72.7373 155.967 72.726 156.53 74.5274 156.974C74.8899 157.061 75.2638 157.137 75.6603 157.191C85.585 180.893 91.8502 206.404 89.8222 232.099C89.505 236.032 85.8229 248.468 85.8229 248.468C94.5693 254.003 110.147 255.737 119.585 251.718C126.507 248.782 132.852 245.489 140.635 245.424C154.673 245.326 169.65 244.925 180.096 234.591C180.383 234.382 180.612 234.108 180.761 233.794C180.911 233.48 180.977 233.136 180.953 232.791C180.93 232.447 180.817 232.114 180.626 231.821C180.435 231.528 180.171 231.285 179.858 231.114Z" fill="white"/>
</mask>
<g mask="url(#mask4_16_1299)">
<path d="M79.7842 89.2474C80.7164 92.508 81.3569 95.8384 81.6989 99.2027C82.0607 102.59 81.8464 106.01 81.0645 109.331C80.6664 111.02 79.91 112.612 78.842 114.01C77.7741 115.407 76.4173 116.58 74.8559 117.456C71.6716 119.106 68.0255 119.758 64.4327 119.319C62.6353 119.127 60.8869 118.636 59.2664 117.868C57.6771 117.095 56.1608 116.193 54.7346 115.17C51.8909 113.21 49.0698 111.097 45.671 110.317C44.8654 110.17 44.0334 110.231 43.2607 110.494C42.488 110.757 41.8026 111.212 41.2751 111.812C40.0809 113.004 39.0665 114.349 38.2614 115.809C36.6624 118.791 35.2438 121.858 34.0129 124.996C33.9752 125.083 33.9028 125.153 33.8114 125.189C33.7201 125.226 33.6174 125.226 33.5257 125.191C33.4362 125.153 33.3658 125.082 33.3298 124.995C33.2938 124.908 33.295 124.811 33.3331 124.725C34.5727 121.565 36.0026 118.476 37.6157 115.474C38.4504 113.952 39.507 112.551 40.7539 111.314C41.4018 110.681 42.1711 110.173 43.0199 109.819C43.9104 109.466 44.8971 109.401 45.8296 109.635C49.3984 110.458 52.2761 112.657 55.0972 114.596C56.4899 115.591 57.968 116.472 59.5157 117.229C61.0554 117.957 62.7149 118.426 64.4214 118.615C67.86 119.057 71.3569 118.451 74.414 116.882C75.9011 116.059 77.194 114.951 78.2118 113.627C79.2295 112.304 79.95 110.793 80.3281 109.191C81.1635 105.944 81.4353 102.588 81.1325 99.2569C80.8178 95.9223 80.1999 92.6203 79.2857 89.3882C79.2738 89.3534 79.2697 89.3165 79.2737 89.28C79.2777 89.2436 79.2897 89.2083 79.3089 89.1766C79.3282 89.1449 79.3543 89.1174 79.3854 89.096C79.4166 89.0746 79.4521 89.0598 79.4897 89.0524C79.5548 89.0475 79.6196 89.0642 79.6733 89.0997C79.727 89.1353 79.7662 89.1874 79.7842 89.2474Z" fill="#B0B3C2"/>
<path d="M96.7219 118.019C94.8389 118.546 93.1273 119.523 91.7482 120.857C90.4072 122.232 89.5102 123.947 89.1651 125.797C88.9782 126.718 88.8984 127.655 88.9272 128.592C88.9272 129.513 89.0745 130.466 89.0971 131.452C89.1961 133.414 88.892 135.376 88.2021 137.226C87.4647 139.077 86.1915 140.689 84.5313 141.873C82.8399 143.01 80.9048 143.773 78.8665 144.105C74.8355 144.673 70.722 144.362 66.8346 143.195C66.7884 143.183 66.7453 143.162 66.7075 143.134C66.6697 143.106 66.6381 143.071 66.6144 143.031C66.5907 142.991 66.5755 142.948 66.5695 142.902C66.5636 142.857 66.567 142.811 66.5796 142.767C66.5923 142.723 66.6139 142.681 66.6432 142.645C66.6726 142.609 66.7091 142.579 66.7506 142.556C66.7922 142.534 66.838 142.519 66.8854 142.513C66.9329 142.508 66.981 142.511 67.0272 142.523C70.8095 143.654 74.8101 143.954 78.7306 143.401C80.6614 143.074 82.4898 142.333 84.0781 141.234C85.6111 140.121 86.7883 138.62 87.477 136.901C88.1458 135.14 88.4461 133.27 88.3607 131.398C88.3607 130.466 88.2247 129.524 88.2021 128.527C88.189 127.549 88.2839 126.572 88.4853 125.613C88.8885 123.663 89.8766 121.868 91.329 120.446C92.7857 119.051 94.5916 118.037 96.5746 117.499C96.6468 117.478 96.7246 117.485 96.792 117.517C96.8595 117.549 96.9114 117.605 96.9372 117.673C96.9493 117.707 96.954 117.744 96.9508 117.781C96.9476 117.817 96.9367 117.853 96.9186 117.885C96.9006 117.918 96.8759 117.946 96.846 117.969C96.8161 117.992 96.7816 118.009 96.7446 118.019H96.7219Z" fill="#B0B3C2"/>
</g>
</g>
<path d="M100.914 141.418C98.8746 142.209 96.8466 143.195 94.7733 144.029C92.7 144.863 90.604 145.675 88.4627 146.358C84.1726 147.714 79.7507 148.654 75.2638 149.164C75.1663 149.173 75.069 149.145 74.9927 149.086C74.9165 149.027 74.8673 148.942 74.8559 148.849C74.8462 148.758 74.8737 148.666 74.9328 148.594C74.9919 148.521 75.078 148.473 75.1732 148.459C77.4391 148.189 79.603 147.853 81.7783 147.376C83.9536 146.9 86.1062 146.293 88.2361 145.675C90.3661 145.058 92.4507 144.278 94.524 143.444C96.5973 142.61 98.5914 141.7 100.721 140.898C100.793 140.873 100.873 140.876 100.943 140.907C101.013 140.937 101.067 140.992 101.095 141.061C101.121 141.128 101.117 141.203 101.085 141.268C101.053 141.333 100.996 141.383 100.925 141.407L100.914 141.418Z" fill="#202538"/>
<path d="M91.7936 110.155C94.098 112.665 96.0586 115.447 97.6283 118.431C99.2399 121.4 100.429 124.563 101.163 127.834C101.828 131.063 102.714 134.248 103.814 137.367C104.36 138.924 104.999 140.451 105.729 141.938C106.373 143.418 107.29 144.776 108.437 145.946C108.491 146.013 108.519 146.096 108.516 146.181C108.513 146.265 108.478 146.346 108.418 146.408C108.358 146.471 108.277 146.511 108.189 146.521C108.101 146.532 108.012 146.512 107.938 146.466C106.692 145.236 105.701 143.791 105.015 142.209C104.268 140.701 103.613 139.153 103.055 137.572C101.939 134.432 101.049 131.221 100.393 127.964C99.6997 124.745 98.5564 121.629 96.9938 118.702C95.4707 115.756 93.5677 113.005 91.3291 110.512C91.2765 110.46 91.2471 110.39 91.2471 110.317C91.2471 110.245 91.2765 110.175 91.3291 110.122C91.3561 110.086 91.3926 110.056 91.435 110.037C91.4774 110.018 91.5242 110.01 91.5709 110.013C91.6177 110.016 91.6627 110.031 91.7017 110.056C91.7407 110.081 91.7724 110.115 91.7936 110.155Z" fill="#202538"/>
<g clip-path="url(#clip0_16_1299)">
<path d="M209.637 106.36L204.98 120.21C204.781 120.82 204.405 121.364 203.895 121.778C203.386 122.192 202.764 122.46 202.102 122.55L168.767 126.88C168.108 126.962 167.438 126.866 166.833 126.602C166.228 126.339 165.712 125.919 165.344 125.39L156.972 113.27L209.637 106.36Z" fill="#B0B3C2"/>
<path d="M209.637 106.36L156.992 113.2L162.048 102.78C162.299 102.268 162.681 101.823 163.158 101.488C163.635 101.153 164.192 100.937 164.779 100.86L198.679 96.45C199.261 96.3804 199.852 96.449 200.4 96.6496C200.947 96.8501 201.435 97.1766 201.819 97.6L209.637 106.36Z" fill="#B0B3C2"/>
<g style="mix-blend-mode:multiply" opacity="0.25">
<path d="M187.449 116.05L181.169 116.87C179.317 117.109 177.44 116.635 175.953 115.554C174.465 114.472 173.488 112.87 173.236 111.1L193.509 108.46C193.635 109.339 193.579 110.233 193.342 111.091C193.106 111.949 192.694 112.754 192.131 113.459C191.568 114.165 190.864 114.757 190.061 115.201C189.257 115.646 188.37 115.934 187.449 116.05Z" fill="#6E7289"/>
</g>
<path d="M160.31 112.55C173.843 110.76 192.818 108.13 206.183 106.55C206.254 106.551 206.322 106.576 206.374 106.621C206.427 106.666 206.461 106.728 206.47 106.795C206.479 106.862 206.462 106.929 206.423 106.985C206.384 107.041 206.325 107.082 206.257 107.1C193.006 108.95 173.812 111.29 160.373 113C160.318 112.999 160.266 112.979 160.225 112.944C160.185 112.91 160.158 112.862 160.151 112.81C160.143 112.759 160.155 112.706 160.184 112.662C160.213 112.618 160.258 112.586 160.31 112.57V112.55Z" fill="#202538"/>
<g style="mix-blend-mode:multiply" opacity="0.25">
<path d="M209.637 106.36L204.98 120.21C204.781 120.82 204.404 121.364 203.895 121.778C203.386 122.192 202.764 122.46 202.102 122.55L168.767 126.88C168.108 126.962 167.438 126.866 166.833 126.602C166.228 126.339 165.712 125.919 165.344 125.39C186.517 122.17 196.743 116.99 198.941 109.67C199.82 106.75 198.595 102.36 197.402 100.57C196.209 98.78 195.906 97.69 196.021 96.87L198.7 96.52C199.282 96.4504 199.873 96.519 200.421 96.7195C200.968 96.9201 201.456 97.2466 201.84 97.67L209.637 106.36Z" fill="#6E7289"/>
</g>
<path d="M160.237 112.55C173.77 110.75 192.755 108.12 206.11 106.55C206.181 106.551 206.248 106.576 206.301 106.621C206.354 106.666 206.388 106.728 206.397 106.795C206.405 106.862 206.389 106.929 206.35 106.985C206.31 107.041 206.251 107.082 206.183 107.1C192.944 108.95 173.738 111.29 160.3 113C160.028 113 159.944 112.61 160.237 112.58V112.55Z" fill="#202538"/>
<path d="M167.197 104.06C172.221 103.34 182.331 101.99 187.365 101.36C187.449 101.36 187.531 101.39 187.594 101.443C187.657 101.496 187.697 101.57 187.707 101.65C187.718 101.73 187.697 101.81 187.649 101.877C187.602 101.943 187.531 101.99 187.449 102.01C182.425 102.68 172.304 103.96 167.27 104.56C167.201 104.569 167.13 104.552 167.074 104.512C167.018 104.471 166.982 104.411 166.972 104.345C166.962 104.279 166.98 104.211 167.023 104.158C167.065 104.105 167.127 104.069 167.197 104.06Z" fill="white"/>
<path d="M201.118 93.09C198.595 93.28 195.173 95.24 194.66 97.49C194.336 98.95 195.152 99.71 197.12 99.49C197.643 99.42 197.214 99.88 197.057 100.09C196.502 100.91 196.01 101.86 196.711 102.75C196.91 102.996 197.165 103.195 197.458 103.33C197.75 103.465 198.072 103.534 198.396 103.53C198.867 103.53 199.59 103.08 200.019 103.35C200.019 103.35 199.506 104.42 199.454 104.53C199.24 104.945 199.122 105.398 199.108 105.86C199.147 106.31 199.361 106.73 199.708 107.037C200.055 107.344 200.509 107.517 200.982 107.52C201.63 107.498 202.271 107.387 202.886 107.19C202.823 107.574 202.724 107.952 202.593 108.32C202.081 110.85 204.917 110.71 206.476 109.95C208.748 108.85 211.28 106.52 211.521 103.95C211.595 102.069 211.062 100.211 209.993 98.63C208.381 95.94 204.77 92.38 201.118 93.09Z" fill="#F0D0BB"/>
<path d="M197.277 99.39C198.566 98.441 199.923 97.5789 201.337 96.81C201.371 96.7929 201.408 96.7824 201.446 96.7792C201.484 96.776 201.522 96.7801 201.558 96.7913C201.594 96.8025 201.627 96.8206 201.656 96.8444C201.685 96.8682 201.708 96.8974 201.725 96.93C201.756 96.9859 201.766 97.0506 201.753 97.1128C201.739 97.1749 201.704 97.2306 201.651 97.27C201.009 97.7479 200.331 98.1791 199.621 98.56C198.92 98.96 198.24 99.38 197.528 99.75C197.479 99.7658 197.426 99.7655 197.378 99.7492C197.329 99.7329 197.288 99.7015 197.26 99.6601C197.232 99.6186 197.22 99.5695 197.225 99.5206C197.23 99.4716 197.252 99.4256 197.287 99.39H197.277Z" fill="#202538"/>
<path d="M199.747 103.08C201.041 102.133 202.401 101.271 203.818 100.5C203.852 100.483 203.888 100.472 203.926 100.469C203.964 100.466 204.002 100.47 204.038 100.481C204.074 100.493 204.108 100.511 204.137 100.534C204.165 100.558 204.189 100.587 204.205 100.62C204.233 100.677 204.241 100.74 204.228 100.802C204.215 100.863 204.181 100.918 204.132 100.96C203.487 101.438 202.809 101.872 202.102 102.26C201.4 102.66 200.71 103.07 200.008 103.44C199.959 103.46 199.904 103.463 199.852 103.449C199.8 103.434 199.756 103.403 199.726 103.36C199.696 103.317 199.683 103.266 199.689 103.215C199.694 103.163 199.719 103.116 199.757 103.08H199.747Z" fill="#202538"/>
<path d="M202.907 106.9C204.205 105.962 205.561 105.101 206.968 104.32C207.003 104.303 207.041 104.293 207.08 104.29C207.12 104.288 207.159 104.293 207.196 104.305C207.233 104.317 207.267 104.336 207.296 104.361C207.326 104.386 207.349 104.416 207.366 104.45C207.394 104.507 207.402 104.572 207.386 104.634C207.371 104.696 207.334 104.751 207.282 104.79C206.64 105.262 205.965 105.693 205.262 106.08C204.561 106.48 203.87 106.89 203.169 107.26C203.119 107.291 203.058 107.301 203.001 107.289C202.943 107.276 202.892 107.243 202.86 107.195C202.828 107.147 202.818 107.089 202.83 107.034C202.843 106.979 202.878 106.931 202.928 106.9H202.907Z" fill="#202538"/>
<path d="M236.242 192.55L190.589 209.27C189.846 209.545 189.034 209.604 188.256 209.44C187.478 209.277 186.768 208.897 186.214 208.35C185.945 208.091 185.719 207.795 185.544 207.47C185.423 207.246 185.325 207.012 185.251 206.77L174.199 171.72C173.9 170.782 173.985 169.77 174.435 168.889C174.886 168.008 175.669 167.322 176.627 166.97L216.974 152.19C217.935 151.846 218.997 151.861 219.948 152.232C220.898 152.602 221.667 153.302 222.102 154.19L238.419 187.32C238.65 187.798 238.777 188.316 238.792 188.842C238.807 189.369 238.71 189.892 238.506 190.382C238.303 190.871 237.997 191.316 237.608 191.688C237.218 192.061 236.754 192.354 236.242 192.55Z" fill="#86AF9A"/>
<path d="M199.558 165.49L203.148 168.65C203.191 168.685 203.241 168.71 203.296 168.724C203.35 168.738 203.407 168.74 203.462 168.73L208.203 167.73C208.268 167.713 208.336 167.715 208.4 167.734C208.464 167.754 208.521 167.791 208.563 167.841C208.605 167.891 208.631 167.951 208.638 168.015C208.645 168.079 208.632 168.143 208.601 168.2L206.571 172.42C206.542 172.467 206.527 172.521 206.527 172.575C206.527 172.629 206.542 172.683 206.571 172.73L209.051 176.73C209.084 176.784 209.101 176.846 209.1 176.909C209.098 176.972 209.079 177.034 209.043 177.087C209.007 177.14 208.957 177.182 208.897 177.209C208.837 177.236 208.771 177.247 208.706 177.24L203.87 176.7C203.814 176.692 203.757 176.698 203.704 176.718C203.651 176.737 203.603 176.769 203.567 176.81L200.364 180.3C200.32 180.348 200.263 180.383 200.199 180.402C200.135 180.42 200.067 180.421 200.003 180.404C199.939 180.388 199.88 180.354 199.835 180.307C199.79 180.261 199.759 180.203 199.747 180.14L198.794 175.59C198.784 175.536 198.76 175.486 198.726 175.443C198.691 175.399 198.647 175.364 198.595 175.34L194.126 173.51C194.067 173.482 194.016 173.439 193.981 173.385C193.946 173.331 193.928 173.268 193.928 173.205C193.928 173.142 193.946 173.079 193.981 173.025C194.016 172.972 194.067 172.928 194.126 172.9L198.313 170.63C198.363 170.605 198.406 170.568 198.437 170.522C198.468 170.477 198.487 170.424 198.491 170.37L198.941 165.74C198.936 165.67 198.955 165.6 198.994 165.541C199.032 165.481 199.089 165.434 199.157 165.407C199.225 165.379 199.3 165.373 199.372 165.388C199.443 165.402 199.509 165.438 199.558 165.49Z" fill="white"/>
<path d="M192.766 183.01L196.335 186.16C196.377 186.199 196.429 186.226 196.486 186.24C196.543 186.254 196.602 186.254 196.659 186.24L201.4 185.24C201.464 185.227 201.531 185.232 201.592 185.253C201.654 185.274 201.708 185.311 201.749 185.359C201.79 185.408 201.816 185.466 201.825 185.528C201.834 185.59 201.824 185.653 201.798 185.71L199.768 189.93C199.742 189.98 199.728 190.034 199.728 190.09C199.728 190.146 199.742 190.2 199.768 190.25L202.248 194.25C202.281 194.304 202.298 194.366 202.297 194.429C202.295 194.492 202.276 194.554 202.24 194.607C202.204 194.66 202.154 194.702 202.094 194.729C202.034 194.756 201.968 194.767 201.903 194.76L197.078 194.21C197.022 194.204 196.965 194.211 196.912 194.23C196.859 194.249 196.812 194.28 196.774 194.32L193.561 197.81C193.519 197.859 193.464 197.895 193.401 197.915C193.338 197.934 193.271 197.936 193.207 197.92C193.144 197.905 193.086 197.872 193.041 197.826C192.996 197.779 192.966 197.722 192.954 197.66L192.002 193.1C191.99 193.047 191.965 192.997 191.929 192.955C191.892 192.913 191.845 192.88 191.792 192.86L187.334 191.02C187.274 190.992 187.224 190.949 187.189 190.895C187.154 190.841 187.135 190.778 187.135 190.715C187.135 190.652 187.154 190.589 187.189 190.535C187.224 190.481 187.274 190.438 187.334 190.41L191.573 188.15C191.621 188.12 191.662 188.08 191.693 188.034C191.723 187.987 191.743 187.935 191.75 187.88L192.201 183.26C192.201 183.198 192.221 183.137 192.256 183.085C192.292 183.033 192.342 182.991 192.401 182.965C192.46 182.939 192.525 182.929 192.59 182.937C192.655 182.945 192.715 182.97 192.766 183.01Z" fill="white"/>
<path d="M216.859 174.18L220.428 177.33C220.469 177.368 220.519 177.396 220.573 177.412C220.628 177.427 220.686 177.43 220.742 177.42L225.483 176.42C225.548 176.408 225.616 176.413 225.678 176.434C225.741 176.456 225.796 176.493 225.838 176.543C225.88 176.592 225.907 176.651 225.917 176.714C225.926 176.777 225.917 176.841 225.891 176.9L223.798 181.11C223.772 181.16 223.759 181.214 223.759 181.27C223.759 181.326 223.772 181.38 223.798 181.43L226.278 185.43C226.312 185.484 226.329 185.546 226.327 185.609C226.326 185.672 226.306 185.734 226.27 185.787C226.234 185.84 226.184 185.882 226.124 185.909C226.065 185.936 225.999 185.947 225.933 185.94L221.108 185.39C221.049 185.384 220.99 185.392 220.936 185.413C220.881 185.434 220.832 185.467 220.794 185.51L217.591 189C217.548 189.048 217.49 189.083 217.427 189.102C217.363 189.12 217.295 189.121 217.23 189.104C217.166 189.088 217.108 189.054 217.062 189.007C217.017 188.961 216.986 188.903 216.974 188.84L216.032 184.28C216.018 184.228 215.991 184.179 215.955 184.138C215.919 184.096 215.874 184.063 215.823 184.04L211.354 182.2C211.297 182.171 211.249 182.128 211.216 182.075C211.183 182.022 211.165 181.962 211.165 181.9C211.165 181.838 211.183 181.778 211.216 181.725C211.249 181.672 211.297 181.629 211.354 181.6L215.592 179.33C215.644 179.303 215.687 179.264 215.718 179.217C215.749 179.17 215.767 179.116 215.77 179.06L216.22 174.44C216.206 174.364 216.219 174.286 216.257 174.218C216.295 174.15 216.357 174.097 216.431 174.067C216.505 174.036 216.588 174.031 216.666 174.052C216.743 174.072 216.812 174.118 216.859 174.18Z" fill="white"/>
<path d="M178.458 165.87C176.292 160.646 175.779 154.93 176.983 149.43C178.814 140.85 186.831 134.13 196.261 136.06C205.053 137.74 211.626 144.86 214.755 152.56C214.777 152.605 214.788 152.653 214.789 152.702C214.791 152.751 214.781 152.8 214.762 152.846C214.743 152.891 214.714 152.932 214.677 152.967C214.641 153.001 214.597 153.028 214.549 153.046C214.501 153.064 214.45 153.072 214.399 153.07C214.347 153.068 214.297 153.056 214.25 153.035C214.204 153.014 214.163 152.984 214.129 152.947C214.095 152.91 214.07 152.867 214.054 152.82C210.998 145.33 204.634 138.42 196.125 136.82C187.072 134.99 179.453 141.38 177.653 149.6C176.447 154.974 176.916 160.568 179.003 165.69C179.16 166.02 178.584 166.24 178.458 165.89V165.87Z" fill="#202538"/>
<g style="mix-blend-mode:multiply" opacity="0.25">
<path d="M236.242 192.55L190.589 209.27C189.846 209.545 189.034 209.604 188.256 209.44C187.478 209.277 186.768 208.897 186.214 208.35C185.945 208.091 185.719 207.795 185.544 207.47C212.118 193.07 224.782 175.99 216.137 152.47L216.974 152.16C217.935 151.816 218.997 151.831 219.948 152.202C220.898 152.572 221.667 153.272 222.102 154.16L238.419 187.29C238.655 187.769 238.786 188.29 238.804 188.82C238.822 189.35 238.726 189.877 238.522 190.37C238.318 190.863 238.01 191.311 237.618 191.686C237.226 192.06 236.758 192.355 236.242 192.55Z" fill="#82B59B"/>
</g>
<path d="M177.506 136.43C177.318 138.09 176.25 139.97 175.528 141.6C174.806 143.23 175.947 143.46 176.742 143.3C181.002 142.47 188.569 135.13 189.846 138.04C190.4 139.31 188.202 141.3 188.799 141.62C189.1 141.81 189.356 142.06 189.548 142.352C189.74 142.644 189.864 142.972 189.913 143.314C189.961 143.656 189.933 144.004 189.829 144.334C189.726 144.665 189.549 144.97 189.312 145.23C188.705 145.87 188.202 146.15 188.339 147.06C188.401 147.52 188.485 147.97 188.516 148.44C188.694 151.25 184.225 153.51 182.111 154.59C178.333 156.53 173.006 156.74 168.903 155.77C160.53 153.77 164.978 145.98 169.321 140.72C173.393 135.77 177.956 132.55 177.506 136.43Z" fill="#F0D0BB"/>
<path d="M188.255 146.62C187.138 147.953 185.6 148.904 183.869 149.33C183.825 149.336 183.781 149.333 183.738 149.322C183.695 149.311 183.655 149.291 183.62 149.265C183.585 149.239 183.555 149.207 183.534 149.17C183.512 149.133 183.498 149.092 183.493 149.05C183.487 149.005 183.491 148.959 183.504 148.916C183.518 148.873 183.54 148.832 183.571 148.798C183.601 148.763 183.639 148.735 183.681 148.714C183.724 148.694 183.77 148.682 183.817 148.68C185.333 148.199 186.71 147.383 187.836 146.3C187.884 146.26 187.946 146.236 188.01 146.235C188.074 146.234 188.136 146.254 188.186 146.292C188.236 146.33 188.271 146.384 188.283 146.444C188.296 146.504 188.286 146.566 188.255 146.62Z" fill="#202538"/>
<path d="M188.496 141.85C187.243 143.299 185.621 144.414 183.786 145.09C183.698 145.109 183.607 145.096 183.529 145.053C183.452 145.011 183.394 144.942 183.367 144.86C183.341 144.779 183.349 144.692 183.39 144.617C183.432 144.542 183.502 144.485 183.587 144.46C185.295 143.759 186.839 142.739 188.129 141.46C188.37 141.25 188.726 141.6 188.496 141.83V141.85Z" fill="#202538"/>
<path d="M167.72 155.78C166.633 155.251 165.734 154.426 165.137 153.41C164.539 152.394 164.269 151.232 164.361 150.07C164.374 149.985 164.42 149.908 164.489 149.854C164.559 149.801 164.648 149.774 164.737 149.78C164.823 149.79 164.902 149.83 164.959 149.893C165.015 149.956 165.044 150.037 165.041 150.12C164.985 151.167 165.232 152.209 165.755 153.132C166.277 154.054 167.055 154.821 168.003 155.35C168.062 155.386 168.105 155.443 168.121 155.508C168.136 155.574 168.124 155.643 168.087 155.7C168.049 155.757 167.989 155.797 167.921 155.812C167.852 155.827 167.78 155.816 167.72 155.78Z" fill="#202538"/>
</g>
<defs>
<clipPath id="clip0_16_1299">
<rect width="81.8558" height="116.53" fill="white" transform="translate(156.992 93)"/>
</clipPath>
</defs>
</svg>
