<svg width="250" height="308" viewBox="0 0 250 308" fill="none" xmlns="http://www.w3.org/2000/svg">
<path d="M204.471 248.582C201.549 248.626 198.654 248.008 195.991 246.77C193.329 245.533 190.965 243.708 189.067 241.424C178.128 228.531 183.233 212.457 188.487 217.061C190.102 218.453 191.48 220.113 192.565 221.97C196.732 229.189 197.327 235.444 198.086 239.986C198.235 240.889 198.339 240.935 199.202 240.552C202.972 238.828 206.869 237.411 210.856 236.316C214.442 235.368 219.488 233.991 223.119 235.123C225.679 235.903 226.185 238.946 221.631 242.326C217.794 245.148 213.407 247.078 208.772 247.985C207.364 248.347 205.922 248.547 204.471 248.582Z" fill="#E89196"/>
<path d="M212.061 179.269C214.033 180.55 215.64 182.344 216.719 184.469C218.723 188.529 219.969 192.938 220.395 197.469C220.559 198.509 220.589 198.509 221.363 197.958C227.499 193.476 234.424 190.261 241.752 188.491C244.729 187.818 247.497 190.479 243.955 194.609C238.314 201.231 217.449 214.491 209.442 198.631C204.709 189.286 205.959 175.506 212.061 179.269Z" fill="#E89196"/>
<path d="M203.102 224.295C197.491 218.988 196.151 206.217 198.175 203.021C200.378 199.549 203.95 203.999 205.17 206.079C207.623 210.067 209.24 214.536 209.918 219.202C210.245 221.572 211.629 217.168 227.599 214.002C229.741 213.596 231.935 213.565 234.088 213.91C234.548 214.02 234.977 214.24 235.338 214.554C235.699 214.868 235.982 215.265 236.164 215.713C236.345 216.162 236.421 216.648 236.383 217.133C236.346 217.617 236.196 218.085 235.948 218.498C232.45 225.335 211.778 232.508 203.102 224.31" fill="#E89196"/>
<path d="M215.856 168.532C215.692 166.636 216.035 163.271 217.761 162.093C220.857 159.968 223.997 166.376 224.845 168.532C228.521 177.831 227.539 177.709 228.372 179.605C228.477 179.865 228.73 179.835 228.893 179.605C229.057 179.376 240.413 167.171 247.839 167.125C255.638 167.125 240.71 186.243 228.789 187.421C220.678 188.292 216.541 177.036 215.856 168.532Z" fill="#E89196"/>
<path d="M226.869 153.758C226.304 141.982 232.674 140.223 235.427 154.217C236.677 160.579 235.263 154.951 242.868 148.818C244.357 147.64 247.824 146.035 247.914 149.216C248.048 153.284 245.77 157.704 243.345 160.793C237.659 168.073 231.543 170.276 228.283 161.696C227.24 159.192 226.757 156.479 226.869 153.758Z" fill="#E89196"/>
<path d="M229.682 147.9C229.597 150.019 229.722 152.14 230.054 154.232C230.342 156.309 230.982 158.317 231.944 160.166C231.976 160.223 231.995 160.286 232.002 160.351C232.01 160.416 232.004 160.482 231.986 160.545C231.968 160.608 231.938 160.666 231.897 160.717C231.857 160.767 231.807 160.809 231.751 160.839C231.642 160.9 231.514 160.915 231.395 160.881C231.275 160.847 231.173 160.766 231.111 160.656C230.042 158.721 229.35 156.591 229.072 154.385C228.785 152.211 228.735 150.01 228.923 147.824C228.934 147.721 228.984 147.627 229.062 147.561C229.14 147.496 229.24 147.464 229.34 147.472C229.435 147.484 229.522 147.53 229.585 147.604C229.648 147.677 229.683 147.772 229.682 147.87V147.9Z" fill="black"/>
<path d="M244.803 151.388C244.115 153.406 243.175 155.323 242.005 157.092C240.856 158.883 239.469 160.5 237.883 161.895C237.793 161.985 237.673 162.036 237.548 162.036C237.422 162.036 237.302 161.985 237.213 161.895C237.128 161.801 237.081 161.678 237.081 161.551C237.081 161.423 237.128 161.3 237.213 161.206C238.687 159.835 240.006 158.296 241.142 156.618C242.327 154.938 243.326 153.128 244.119 151.219C244.137 151.172 244.164 151.128 244.198 151.092C244.233 151.055 244.274 151.026 244.32 151.006C244.366 150.986 244.415 150.975 244.465 150.975C244.515 150.975 244.564 150.985 244.61 151.005C244.673 151.044 244.725 151.101 244.759 151.168C244.793 151.236 244.808 151.312 244.803 151.388Z" fill="black"/>
<path d="M245.175 172.876C244.238 173.824 243.226 174.803 242.199 175.705C241.172 176.608 240.115 177.495 239.014 178.321C237.919 179.166 236.765 179.928 235.561 180.599C234.345 181.322 233.023 181.838 231.647 182.129C231.58 182.154 231.508 182.164 231.437 182.157C231.366 182.151 231.297 182.129 231.235 182.093C231.174 182.057 231.12 182.007 231.079 181.947C231.037 181.888 231.009 181.82 230.996 181.748C230.983 181.676 230.985 181.601 231.003 181.53C231.02 181.459 231.052 181.393 231.097 181.336C231.142 181.28 231.199 181.233 231.263 181.201C231.327 181.169 231.397 181.152 231.468 181.15C232.734 180.822 233.948 180.307 235.07 179.621C236.237 178.97 237.361 178.239 238.433 177.433C239.52 176.653 240.576 175.812 241.618 174.941C242.66 174.069 243.642 173.166 244.669 172.218C244.741 172.147 244.837 172.107 244.937 172.107C245.037 172.107 245.133 172.147 245.205 172.218C245.27 172.291 245.306 172.387 245.306 172.486C245.306 172.585 245.27 172.68 245.205 172.753L245.175 172.876Z" fill="black"/>
<path d="M238.939 193.752C236.964 195.698 234.753 197.374 232.361 198.738C229.954 200.194 227.221 200.985 224.429 201.032C224.365 201.032 224.303 201.019 224.245 200.994C224.187 200.968 224.135 200.93 224.091 200.883C224.048 200.835 224.015 200.78 223.993 200.718C223.972 200.657 223.963 200.592 223.967 200.528C223.967 200.398 224.017 200.273 224.107 200.182C224.196 200.09 224.317 200.038 224.444 200.038C225.734 200.009 227.016 199.803 228.253 199.426C229.503 199.022 230.718 198.51 231.885 197.897C234.222 196.629 236.409 195.09 238.404 193.309C238.477 193.24 238.573 193.203 238.672 193.208C238.771 193.212 238.865 193.257 238.932 193.332C238.999 193.407 239.034 193.506 239.03 193.608C239.026 193.71 238.983 193.806 238.91 193.875L238.939 193.752Z" fill="black"/>
<path d="M231.87 217.305C230.523 218.18 229.103 218.932 227.628 219.554C226.14 220.211 224.741 220.823 223.268 221.374C221.804 221.929 220.314 222.409 218.803 222.811C217.244 223.251 215.624 223.421 214.011 223.316C213.896 223.287 213.796 223.217 213.728 223.119C213.659 223.02 213.628 222.9 213.639 222.779C213.649 222.659 213.702 222.546 213.787 222.462C213.871 222.378 213.983 222.329 214.1 222.322C215.606 222.392 217.113 222.216 218.565 221.802C220.053 221.419 221.541 220.93 223.03 220.425C224.518 219.921 226.006 219.324 227.361 218.712C228.769 218.139 230.141 217.475 231.468 216.724H231.572C231.657 216.674 231.758 216.66 231.853 216.686C231.948 216.712 232.029 216.775 232.078 216.862C232.103 216.949 232.096 217.043 232.057 217.125C232.019 217.207 231.952 217.271 231.87 217.305Z" fill="black"/>
<path d="M220.187 239.099C218.848 239.711 217.33 240.476 215.856 241.072C214.368 241.702 212.848 242.248 211.302 242.709C208.192 243.712 204.921 244.081 201.673 243.795C201.545 243.779 201.428 243.713 201.348 243.61C201.267 243.507 201.229 243.376 201.241 243.244C201.256 243.113 201.321 242.993 201.421 242.91C201.521 242.827 201.649 242.788 201.777 242.801C204.901 243.025 208.037 242.662 211.034 241.73C212.548 241.302 214.038 240.792 215.499 240.201C216.987 239.619 218.371 238.977 219.964 238.335C220.059 238.303 220.162 238.31 220.252 238.352C220.343 238.394 220.415 238.47 220.455 238.564C220.489 238.657 220.487 238.761 220.448 238.852C220.409 238.944 220.337 239.016 220.247 239.053L220.187 239.099Z" fill="black"/>
<path d="M186.924 221.557C187.394 224.7 188.09 227.803 189.008 230.841C189.839 233.867 191.173 236.723 192.952 239.283C192.991 239.334 193.02 239.393 193.037 239.455C193.054 239.518 193.059 239.584 193.051 239.648C193.043 239.713 193.023 239.775 192.992 239.832C192.961 239.889 192.92 239.939 192.87 239.979C192.82 240.019 192.763 240.049 192.702 240.066C192.641 240.084 192.577 240.089 192.514 240.081C192.451 240.073 192.391 240.053 192.335 240.021C192.28 239.989 192.232 239.946 192.193 239.895C190.282 237.264 188.873 234.285 188.04 231.116C187.156 228.015 186.529 224.843 186.165 221.634C186.157 221.583 186.159 221.531 186.171 221.481C186.183 221.432 186.205 221.385 186.236 221.345C186.267 221.304 186.306 221.271 186.35 221.247C186.394 221.223 186.443 221.209 186.492 221.205C186.589 221.192 186.687 221.218 186.765 221.278C186.843 221.338 186.894 221.428 186.909 221.526L186.924 221.557Z" fill="black"/>
<path d="M200.78 204.412C201.022 207.242 201.52 210.043 202.268 212.778C202.939 215.49 204.173 218.02 205.885 220.196C205.93 220.24 205.966 220.294 205.991 220.353C206.016 220.412 206.029 220.476 206.029 220.54C206.029 220.604 206.016 220.668 205.991 220.727C205.966 220.786 205.93 220.84 205.885 220.884C205.796 220.975 205.675 221.025 205.55 221.025C205.424 221.025 205.304 220.975 205.215 220.884C203.347 218.621 202.021 215.939 201.345 213.053C200.604 210.245 200.15 207.364 199.991 204.458C199.991 204.357 200.03 204.26 200.1 204.188C200.17 204.116 200.265 204.076 200.363 204.076C200.462 204.076 200.557 204.116 200.626 204.188C200.696 204.26 200.735 204.357 200.735 204.458L200.78 204.412Z" fill="black"/>
<path d="M210.707 182.633C210.679 184.05 210.764 185.467 210.96 186.87C211.156 188.273 211.474 189.655 211.912 190.999C212.34 192.339 212.909 193.626 213.609 194.838C214.319 196.033 215.157 197.141 216.109 198.142C216.198 198.236 216.248 198.362 216.248 198.493C216.248 198.625 216.198 198.751 216.109 198.845C216.018 198.932 215.899 198.981 215.774 198.981C215.65 198.981 215.53 198.932 215.44 198.845C214.395 197.811 213.489 196.638 212.746 195.358C211.996 194.087 211.402 192.726 210.975 191.305C210.112 188.479 209.768 185.512 209.963 182.557C209.966 182.507 209.98 182.458 210.002 182.413C210.024 182.368 210.055 182.328 210.092 182.295C210.13 182.262 210.173 182.238 210.22 182.222C210.266 182.207 210.316 182.201 210.365 182.205C210.461 182.213 210.55 182.259 210.614 182.333C210.678 182.407 210.711 182.504 210.707 182.603V182.633Z" fill="black"/>
<path d="M219.964 165.688C220.128 166.85 220.485 168.288 220.797 169.572C221.11 170.857 221.527 172.188 221.973 173.472C222.394 174.751 222.891 176.003 223.461 177.219C223.995 178.416 224.692 179.528 225.53 180.523C225.576 180.569 225.612 180.623 225.637 180.684C225.662 180.744 225.675 180.809 225.675 180.875C225.675 180.94 225.662 181.005 225.637 181.066C225.612 181.126 225.576 181.181 225.53 181.226C225.438 181.318 225.316 181.369 225.188 181.369C225.06 181.369 224.937 181.318 224.845 181.226C223.894 180.183 223.12 178.984 222.553 177.678C221.971 176.425 221.474 175.132 221.065 173.809C220.648 172.493 220.276 171.163 219.964 169.817C219.612 168.448 219.373 167.052 219.25 165.642C219.253 165.551 219.288 165.464 219.347 165.397C219.407 165.33 219.488 165.288 219.576 165.277C219.664 165.265 219.753 165.287 219.826 165.337C219.9 165.387 219.954 165.463 219.979 165.55L219.964 165.688Z" fill="black"/>
<path d="M235.725 158.453C233.174 167.953 230.118 177.301 226.572 186.457C224.786 191.035 222.846 195.542 220.753 199.977C218.684 204.397 216.749 208.909 214.547 213.298C210.121 222.046 205.222 230.532 199.872 238.717C194.559 246.915 188.948 254.898 183.204 262.775C183.171 262.84 183.125 262.898 183.069 262.944C183.012 262.989 182.947 263.021 182.877 263.038C182.807 263.055 182.735 263.056 182.664 263.04C182.594 263.025 182.528 262.994 182.471 262.95C182.413 262.906 182.366 262.849 182.332 262.784C182.299 262.719 182.279 262.648 182.275 262.574C182.271 262.5 182.283 262.427 182.31 262.359C182.336 262.29 182.377 262.229 182.43 262.178C193.86 246.441 204.903 230.29 213.683 212.839C215.886 208.481 217.836 203.999 219.934 199.564C222.033 195.129 223.982 190.663 225.783 186.121C229.356 177.007 232.441 167.699 235.025 158.239C235.053 158.142 235.117 158.06 235.204 158.011C235.29 157.962 235.392 157.951 235.487 157.979C235.579 158.011 235.655 158.078 235.7 158.167C235.744 158.255 235.753 158.358 235.725 158.453Z" fill="black"/>
<g opacity="0.5">
<path d="M129.73 297.523C93.5645 304.359 13.7631 299.572 5.30964 250.478C1.1127 226.099 18.7041 213.65 28.6012 194.716C35.3728 181.716 31.0568 172.493 25.7139 160.09C14.2095 133.509 10.3698 105.811 33.319 84.9346C58.3369 62.1464 102.524 43.8699 135.787 58.8581C160.18 69.8546 178.247 92.1228 183.055 116.853C187.385 139.091 175.836 162.078 182.623 183.964C189.767 207.012 206.629 227.583 196.747 252.788C186.612 278.879 156.191 292.568 129.73 297.523Z" fill="#FF8181"/>
</g>
<g filter="url(#filter0_d_9_5)">
<mask id="mask0_9_5" style="mask-type:luminance" maskUnits="userSpaceOnUse" x="0" y="0" width="240" height="300">
<path d="M129.73 297.523C93.5645 304.359 13.7631 299.572 5.30973 250.478C1.84204 230.29 13.3315 218.284 22.9756 203.999C25.6991 199.977 10.5633 178.856 8.52441 175.216C5.94969 170.628 -4.87008 126.718 2.5713 113.213C10.5187 98.944 7.03613 76.7216 7.03613 61.0146C7.03613 45.9652 8.39046 24.1863 21.2045 14.4899C36.0873 3.2028 57.6375 0.511031 75.6755 0.0369135C133.718 -1.4925 176.045 44.7875 212.016 85.9899C221.259 96.5887 235.427 110.583 238.27 125.204C242.586 147.426 229.504 164.219 201.926 182.633C198.161 185.157 185.748 192.621 187.579 196.903C195.288 214.981 204.783 232.355 196.791 252.772C186.612 278.879 156.191 292.568 129.73 297.523Z" fill="white"/>
</mask>
<g mask="url(#mask0_9_5)">
<path d="M226.125 133.998L216.064 134.579L177.473 136.797C176.599 136.845 175.745 137.09 174.973 137.516C174.202 137.941 173.531 138.537 173.009 139.259L164.57 150.73C164.041 151.445 163.368 152.035 162.598 152.46C161.828 152.885 160.978 153.134 160.105 153.192L140.043 154.339H139.701L129.06 154.951C128.07 155.01 127.081 154.818 126.18 154.391C125.279 153.964 124.495 153.316 123.895 152.504L123.613 152.091C123.109 151.278 122.793 150.357 122.69 149.399C122.683 149.292 122.683 149.185 122.69 149.078L122.363 143.19L121.827 133.325C121.739 131.718 122.26 130.139 123.282 128.918C124.303 127.698 125.744 126.931 127.304 126.779H128.003L133.287 126.473L137.498 126.229L215.305 121.763L225.381 121.197C226.176 121.149 226.972 121.264 227.724 121.534C228.476 121.804 229.168 122.223 229.762 122.769C230.355 123.315 230.838 123.976 231.181 124.714C231.525 125.452 231.724 126.253 231.766 127.07V127.468C231.796 127.814 231.796 128.162 231.766 128.508C231.604 129.958 230.95 131.304 229.918 132.308C228.886 133.312 227.544 133.911 226.125 133.998Z" fill="black"/>
<path d="M152.723 131.796C152.756 132.385 152.616 132.97 152.323 133.477C152.03 133.984 151.597 134.39 151.078 134.643C150.56 134.896 149.98 134.984 149.412 134.897C148.844 134.809 148.315 134.55 147.892 134.151C147.468 133.753 147.17 133.234 147.035 132.661C146.9 132.088 146.934 131.486 147.133 130.933C147.332 130.38 147.687 129.9 148.153 129.555C148.618 129.211 149.173 129.016 149.747 128.997C150.501 128.968 151.237 129.245 151.794 129.769C152.351 130.293 152.685 131.021 152.723 131.796Z" fill="white"/>
<path d="M153.289 142.15C153.321 142.739 153.182 143.324 152.889 143.831C152.596 144.339 152.162 144.744 151.644 144.997C151.125 145.25 150.545 145.338 149.978 145.251C149.41 145.163 148.881 144.904 148.457 144.506C148.034 144.107 147.735 143.589 147.6 143.015C147.465 142.442 147.499 141.84 147.698 141.287C147.897 140.734 148.252 140.254 148.718 139.91C149.184 139.565 149.739 139.37 150.312 139.351C151.065 139.33 151.796 139.61 152.351 140.132C152.907 140.654 153.243 141.378 153.289 142.15Z" fill="white"/>
<g style="mix-blend-mode:multiply" opacity="0.25">
<path d="M215.782 129.395L173.976 131.796C173.101 131.843 172.248 132.089 171.476 132.514C170.704 132.94 170.033 133.535 169.511 134.258L161.073 145.729C160.551 146.451 159.88 147.047 159.108 147.472C158.336 147.898 157.483 148.143 156.608 148.191L142.038 149.032H141.755L125.548 149.965C125.171 149.996 124.793 149.996 124.416 149.965H124.297C123.735 149.889 123.188 149.724 122.675 149.476C122.778 150.434 123.094 151.355 123.598 152.168L123.881 152.58C124.48 153.393 125.265 154.041 126.165 154.467C127.066 154.894 128.055 155.087 129.045 155.028L139.686 154.416H140.028L160.09 153.269C160.963 153.211 161.813 152.961 162.583 152.536C163.354 152.111 164.026 151.522 164.555 150.806L172.994 139.336C173.516 138.613 174.187 138.018 174.959 137.592C175.73 137.166 176.584 136.921 177.459 136.873L216.05 134.656L226.11 134.075C227.541 133.996 228.898 133.398 229.94 132.387C230.981 131.376 231.639 130.017 231.796 128.553L215.782 129.395Z" fill="#F0D0BB"/>
</g>
<path d="M152.228 118.902C156.89 118.635 160.382 113.127 160.028 106.599C159.674 100.072 155.608 94.9966 150.946 95.2636C146.285 95.5306 142.793 101.039 143.147 107.566C143.501 114.094 147.567 119.169 152.228 118.902Z" fill="black"/>
<path d="M190.615 115.064L190.288 175.461C190.176 177.306 189.393 179.042 188.095 180.322C186.796 181.603 185.077 182.335 183.278 182.373L128.212 185.524C126.411 185.692 124.614 185.156 123.182 184.021C121.75 182.887 120.788 181.239 120.487 179.406L113.686 119.469C113.553 118.434 113.63 117.382 113.913 116.38C114.195 115.377 114.677 114.445 115.327 113.644C115.977 112.842 116.782 112.187 117.691 111.721C118.599 111.255 119.592 110.987 120.606 110.935L182.787 107.386C183.803 107.314 184.822 107.46 185.78 107.815C186.738 108.17 187.613 108.727 188.35 109.449C189.087 110.172 189.669 111.045 190.059 112.011C190.449 112.978 190.638 114.018 190.615 115.064Z" fill="#51331E"/>
<path d="M190.615 115.064V123.216L114.564 127.559L113.686 119.469C113.553 118.434 113.63 117.382 113.913 116.38C114.195 115.377 114.677 114.445 115.327 113.644C115.977 112.842 116.782 112.187 117.691 111.721C118.599 111.255 119.592 110.987 120.606 110.935L182.787 107.386C183.803 107.314 184.822 107.46 185.78 107.815C186.738 108.17 187.613 108.727 188.35 109.449C189.087 110.172 189.669 111.045 190.059 112.011C190.449 112.978 190.638 114.018 190.615 115.064Z" fill="black"/>
<g style="mix-blend-mode:multiply" opacity="0.25">
<path d="M190.615 115.064L190.288 175.46C190.176 177.306 189.393 179.042 188.095 180.322C186.796 181.603 185.077 182.335 183.278 182.373L128.212 185.524C126.411 185.692 124.615 185.156 123.182 184.021C121.75 182.887 120.788 181.239 120.487 179.406L120.026 175.445C154.48 170.536 165.597 144.857 169.288 124.393C170.25 118.99 170.808 113.519 170.955 108.029L182.861 107.356C183.874 107.294 184.888 107.449 185.839 107.811C186.79 108.173 187.657 108.734 188.386 109.459C189.115 110.184 189.69 111.056 190.073 112.021C190.457 112.986 190.642 114.022 190.615 115.064Z" fill="#F0D0BB"/>
</g>
<path d="M150.223 97.7969C151.015 98.1501 151.744 98.6359 152.381 99.2346C153.023 99.8074 153.593 100.46 154.078 101.177C154.552 101.908 154.942 102.693 155.239 103.517C155.536 104.332 155.745 105.178 155.864 106.04C155.881 106.17 155.849 106.301 155.774 106.407C155.699 106.512 155.587 106.584 155.462 106.606C155.34 106.629 155.214 106.602 155.111 106.53C155.008 106.459 154.936 106.349 154.911 106.224C154.776 105.437 154.572 104.664 154.301 103.915C154.029 103.165 153.68 102.447 153.259 101.773C152.843 101.098 152.343 100.481 151.771 99.9381C151.22 99.3864 150.599 98.9131 149.926 98.5311C149.881 98.5087 149.841 98.477 149.809 98.438C149.777 98.3991 149.754 98.3537 149.74 98.3048C149.726 98.2559 149.722 98.2045 149.728 98.1539C149.734 98.1033 149.751 98.0547 149.777 98.0111C149.815 97.9276 149.881 97.8606 149.963 97.8215C150.044 97.7825 150.136 97.7738 150.223 97.7969Z" fill="white"/>
<path d="M119.103 302.952C131.534 334.304 141.663 366.568 149.405 399.474C157.271 432.492 162.394 466.138 164.719 500.048C165.146 506.685 165.433 513.338 165.582 520.007C165.582 522.79 165.686 525.574 165.701 528.357C165.701 534.261 165.612 539.537 165.418 544.049C165.418 544.049 165.597 547.842 163.29 549.448C163.115 549.569 162.931 549.677 162.74 549.769C162.086 550.052 161.379 550.177 160.671 550.136L137.573 550.426C134.79 550.426 133.004 547.368 132.81 544.905C132.349 540.103 131.813 535.285 131.203 530.498C130.861 527.944 130.533 525.39 130.191 522.851C126.218 494.301 120.174 466.097 112.108 438.474C103.179 408.604 89.6503 380.463 75.4224 353.193C72.3267 347.259 68.1744 339.765 64.2156 331.659C60.0771 323.564 56.7079 315.077 54.1549 306.317C51.8927 297.798 51.1783 289.493 53.2917 281.846C54.4259 277.913 56.3471 274.267 58.9322 271.141C62.0999 267.438 65.8474 264.305 70.0199 261.872C71.1259 261.137 72.3029 260.522 73.5322 260.037C74.6799 259.604 75.853 259.247 77.0446 258.966C79.224 258.45 81.4668 258.275 83.6972 258.446C87.9318 258.841 91.9864 260.394 95.4397 262.943C102.509 267.959 107.941 276.417 111.513 284.676C114.162 290.778 116.663 296.835 119.103 302.952Z" fill="#F0D0BB"/>
<path d="M92.7311 404.719C90.4011 438.632 85.2629 472.278 77.372 505.294C75.8093 511.748 74.1127 518.186 72.2673 524.564C71.4933 527.246 70.6996 529.912 69.886 532.563C68.1596 538.191 66.4779 543.177 64.9598 547.414C64.9598 547.414 63.9924 551.084 61.3135 551.879C61.1092 551.943 60.9002 551.989 60.6885 552.017C59.9855 552.07 59.2796 551.966 58.6198 551.711L36.5486 544.722C33.8846 543.865 33.1107 540.363 33.6613 537.977C34.6535 533.246 35.5713 528.505 36.4147 523.754C36.8463 521.215 37.2927 518.676 37.7243 516.107C42.4417 487.678 45.0833 458.926 45.6271 430.092C46.401 329.319 11.2181 310.401 44.8085 254.21C50.076 251.008 55.9358 248.971 62.013 248.23C80.3784 247.542 88.8913 264.916 90.841 283.621C91.5256 290.151 95.6778 363.517 92.7311 404.719Z" fill="black"/>
<path d="M115.74 298.517C100.857 310.079 75.5563 293.715 58.5304 293.317C47.9636 293.072 37.2927 297.997 26.7259 295.55C18.1386 293.562 20.2222 289.157 22.7076 282.565C29.5388 264.365 31.2205 239.13 28.6607 219.477C25.6841 196.719 10.1912 186.411 10.9651 160.319C11.6646 136.828 44.3769 128.202 62.266 127.177C78.3543 126.229 93.1328 131.459 103.268 145.193C116.93 163.546 117.332 191.443 115.174 213.053C112.972 235.995 112.466 256.305 117.436 279.048C119.446 287.658 121.217 294.25 115.74 298.517Z" fill="#FF8181"/>
<g style="mix-blend-mode:multiply" opacity="0.25">
<path d="M115.74 298.517C100.857 310.079 75.5563 293.715 58.5304 293.317C47.9636 293.072 37.2927 297.997 26.7259 295.55C18.1386 293.562 20.2222 289.157 22.7076 282.565C27.1724 270.789 29.3751 256.168 29.7323 242.051C29.9108 242.77 30.0597 243.351 30.1341 243.718C31.9795 252.145 34.5989 261.276 40.0311 268.082C47.16 276.983 59.1108 275.27 69.0525 275.01C73.175 274.888 78.8751 274.016 82.7893 275.683C93.2072 280.103 95.648 288.652 107.763 284.309C108.536 284.033 113.373 281.357 117.555 279.048C117.823 280.271 118.091 281.495 118.329 282.733C119.639 289.081 120.711 294.648 115.74 298.517Z" fill="#F0D0BB"/>
</g>
<path d="M85.632 164.724C87.3584 167.966 89.0104 171.239 90.6624 174.528L93.0585 179.483C93.8841 181.145 94.6243 182.85 95.276 184.591C95.2997 184.652 95.3112 184.718 95.3098 184.783C95.3083 184.849 95.294 184.914 95.2676 184.974C95.2412 185.034 95.2033 185.088 95.1561 185.132C95.109 185.177 95.0536 185.211 94.9933 185.233C94.8747 185.274 94.7455 185.266 94.6322 185.212C94.5188 185.158 94.4297 185.062 94.3831 184.943C93.758 183.306 92.8948 181.624 92.1655 179.972L89.7843 175.032L84.9772 165.137C84.9346 165.045 84.9279 164.94 84.9583 164.843C84.9888 164.747 85.0541 164.666 85.1409 164.617C85.2224 164.575 85.3154 164.563 85.4047 164.582C85.494 164.601 85.5741 164.652 85.632 164.724Z" fill="black"/>
<path d="M50.9551 145.805C47.3089 140.773 37.1588 132.239 42.5166 126.259C53.9466 113.473 46.7135 108.87 60.108 106.652C63.124 106.262 66.1705 106.185 69.2014 106.423C77.8483 106.775 86.778 112.632 83.2507 119.989C76.9553 133.539 87.6114 138.877 88.043 149.568C88.5936 163.363 64.5729 164.755 50.9551 145.805Z" fill="#F0D0BB"/>
<path d="M84.0841 139.626C75.2735 140.055 65.4955 134.09 61.2242 128.477C56.417 122.16 62.2064 116.808 65.1979 118.536C70.7572 120.507 76.5588 121.666 82.4321 121.977C80.7503 127.422 81.7773 134.38 84.0841 139.626Z" fill="#D99982"/>
<path d="M78.9496 76.5228C80.9736 79.1993 88.668 80.4993 90.6772 89.1863C92.612 97.5675 91.213 100.687 91.2279 107.539C91.2279 116.915 107.852 113.504 105.932 102.186C105.277 98.3169 102.836 96.7722 105.218 93.1322C107.852 89.1098 108.938 82.1663 105.218 78.3275C100.917 73.8922 96.4517 74.8557 96.5559 71.384C96.7047 65.9087 97.4191 59.4087 91.332 57.4663C88.9812 56.5779 86.4261 56.4292 83.9927 57.0394C81.5594 57.6496 79.3581 58.9909 77.6697 60.8922C75.2586 63.3087 74.321 70.451 78.9496 76.5228Z" fill="black"/>
<path d="M99.4581 89.7981C100.306 109.681 92.3441 128.033 74.5145 127.697C58.5751 127.345 42.6803 112.25 41.7725 92.3981C40.8646 72.5464 53.1726 56.4416 69.0526 55.1569C85.6766 53.7958 98.6544 70.8946 99.4581 89.7981Z" fill="#F0D0BB"/>
<mask id="mask1_9_5" style="mask-type:luminance" maskUnits="userSpaceOnUse" x="41" y="55" width="59" height="73">
<path d="M99.4581 89.7981C100.306 109.681 92.3441 128.033 74.5145 127.697C58.5751 127.345 42.6803 112.25 41.7725 92.3981C40.8646 72.5464 53.1726 56.4416 69.0526 55.1569C85.6766 53.7958 98.6544 70.8946 99.4581 89.7981Z" fill="white"/>
</mask>
<g mask="url(#mask1_9_5)">
<path d="M88.1025 84.4452C88.2365 81.3863 95.7672 82.3499 95.3058 85.5158C94.9189 88.1769 88.0132 86.9993 88.1025 84.4452Z" fill="black"/>
<path d="M67.4452 84.9346C66.8648 81.8757 74.4252 81.0652 74.6931 84.2463C74.9908 86.9228 67.9364 87.4275 67.4452 84.9346Z" fill="black"/>
<path d="M93.4455 93.8663C93.3904 94.2973 93.182 94.6921 92.8605 94.9745C92.539 95.257 92.127 95.407 91.7042 95.3958C89.9331 95.2428 89.4271 92.6734 90.2159 91.3428C90.4126 91.07 90.6796 90.8591 90.9869 90.7341C91.2941 90.609 91.6292 90.5748 91.9544 90.6353C92.2795 90.6957 92.5817 90.8485 92.8268 91.0762C93.0719 91.304 93.2501 91.5976 93.3413 91.924C93.5514 92.5488 93.5875 93.2216 93.4455 93.8663Z" fill="black"/>
<path d="M73.1602 92.704C73.0844 93.1291 72.8589 93.5107 72.5267 93.7759C72.1946 94.0411 71.779 94.1713 71.3594 94.1416C69.5884 93.9122 69.1865 91.3122 70.1093 90.0275C70.3173 89.7644 70.5928 89.5662 70.9046 89.4553C71.2165 89.3445 71.5522 89.3253 71.8741 89.4C72.1959 89.4748 72.491 89.6404 72.7262 89.8783C72.9613 90.1162 73.1271 90.4168 73.2049 90.7463C73.369 91.3903 73.3535 92.0687 73.1602 92.704Z" fill="black"/>
<path d="M85.3194 112.143C84.699 112.829 83.9287 113.353 83.0721 113.672C81.605 114.181 80.0171 114.19 78.5449 113.696C77.0726 113.203 75.7948 112.234 74.9015 110.935L74.7675 110.69C74.3567 109.968 74.0981 109.166 74.0085 108.335C73.9157 107.875 73.9307 107.4 74.0523 106.948C74.174 106.496 74.3988 106.08 74.708 105.735C75.0337 105.481 75.4308 105.345 75.8391 105.345C76.2474 105.345 76.6445 105.481 76.9702 105.735C77.3234 106.01 77.6567 106.312 77.9673 106.637C79.203 107.845 80.846 108.513 82.5512 108.503C83.1552 108.485 83.7591 108.537 84.352 108.656C84.7074 108.733 85.0356 108.908 85.3012 109.162C85.5668 109.416 85.7598 109.741 85.8594 110.099C85.9589 110.458 85.9612 110.838 85.8661 111.198C85.7709 111.558 85.5819 111.885 85.3194 112.143Z" fill="black"/>
<path d="M83.0722 113.642C81.6081 114.154 80.0224 114.167 78.5504 113.679C77.0785 113.192 75.7989 112.229 74.9015 110.935L74.7676 110.69C74.9313 110.415 75.6457 110.262 75.8243 110.2C76.3105 110.062 76.8091 109.975 77.3125 109.94C79.4557 109.833 82.4322 110.935 83.0722 113.642Z" fill="#F0D0BB"/>
<path opacity="0.75" d="M58.9324 104.113C58.9324 102.033 61.3583 99.8463 64.6622 99.8311C67.6388 99.8311 70.2135 101.36 70.3474 104.22C70.4516 106.423 67.7876 108.656 65.0194 108.671C61.8047 108.686 58.9026 107.096 58.9324 104.113Z" fill="#D99982"/>
<path opacity="0.75" d="M100.5 103.869C100.708 101.804 98.3865 99.4334 95.0974 99.1428C92.1209 98.8981 89.4569 100.259 89.1443 103.073C88.8765 105.26 91.347 107.662 94.1152 107.937C97.315 108.212 100.292 106.851 100.5 103.869Z" fill="#D99982"/>
<path d="M82.1345 88.2075C82.9976 90.9199 83.7229 93.6766 84.3074 96.4664C84.4926 97.1946 84.5679 97.9476 84.5307 98.6993C84.4838 99.5449 84.1213 100.339 83.5186 100.917C82.9286 101.424 82.2298 101.781 81.4797 101.957L80.4677 102.217C80.1053 102.295 79.7365 102.336 79.3663 102.339C79.2583 102.344 79.1528 102.304 79.0722 102.23C78.9917 102.156 78.9424 102.053 78.9348 101.942C78.9361 101.837 78.9723 101.736 79.0372 101.655C79.1022 101.574 79.1921 101.519 79.2919 101.498C79.6095 101.46 79.9233 101.394 80.2296 101.299L81.2267 100.978C81.8139 100.852 82.3674 100.596 82.8489 100.229C83.7121 99.464 83.6228 98.0264 83.3549 96.6958C83.087 95.3652 82.8043 93.897 82.4322 92.5817C82.0601 91.2664 81.822 89.8134 81.4648 88.4828C81.4512 88.4427 81.4458 88.4001 81.449 88.3578C81.4523 88.3154 81.4641 88.2742 81.4837 88.2368C81.5033 88.1994 81.5303 88.1666 81.5629 88.1405C81.5955 88.1144 81.6331 88.0955 81.6732 88.0852C81.7505 88.04 81.8419 88.0275 81.928 88.0503C82.0141 88.0732 82.0882 88.1295 82.1345 88.2075Z" fill="black"/>
</g>
<path d="M51.6994 97.4299C51.997 97.8275 52.3542 98.2863 52.7114 98.6993L53.7234 99.9534C53.7885 100.052 53.8175 100.171 53.8052 100.29C53.793 100.408 53.7403 100.519 53.6565 100.601C53.5727 100.684 53.4632 100.733 53.3474 100.74C53.2316 100.748 53.117 100.713 53.0239 100.642C52.615 100.227 52.2416 99.7764 51.9077 99.2958C51.5645 98.8184 51.2703 98.3059 51.0296 97.7663C51.0077 97.7205 50.9954 97.6705 50.9934 97.6195C50.9914 97.5685 50.9998 97.5176 51.018 97.4701C51.0362 97.4226 51.0638 97.3795 51.0991 97.3436C51.1345 97.3078 51.1767 97.2798 51.2231 97.2616C51.2985 97.2257 51.3834 97.2167 51.4643 97.2361C51.5452 97.2555 51.6175 97.3022 51.6696 97.3687L51.6994 97.4299Z" fill="black"/>
<path d="M192.222 137.133C189.246 134.992 183.68 134.075 180.986 136.246C179.215 137.638 179.393 139.305 181.775 140.835C182.415 141.263 181.507 141.385 181.135 141.492C179.751 141.936 178.322 142.593 178.158 144.291C178.141 144.766 178.231 145.239 178.422 145.671C178.613 146.104 178.9 146.485 179.259 146.784C179.78 147.228 180.986 147.365 181.194 148.084C181.194 148.084 179.617 148.864 179.453 148.94C178.826 149.234 178.264 149.656 177.801 150.179C177.415 150.744 177.248 151.437 177.334 152.122C177.419 152.807 177.75 153.434 178.262 153.88C179.349 154.905 180.048 154.829 180.673 155.288C180.286 155.746 179.84 155.838 179.185 156.328C176.208 158.82 179.438 161.313 181.879 161.879C185.406 162.72 190.392 162.369 193.071 159.6C194.944 157.47 196.139 154.802 196.494 151.953C197.372 147.243 196.881 139.718 192.222 137.133Z" fill="#F0D0BB"/>
<path d="M182.013 140.911C183.174 140.911 184.32 141.095 185.48 141.202C186.635 141.29 187.784 141.453 188.918 141.691C189.015 141.718 189.099 141.781 189.155 141.866C189.211 141.952 189.234 142.056 189.222 142.158C189.209 142.26 189.161 142.355 189.086 142.423C189.011 142.492 188.915 142.531 188.814 142.532C187.656 142.481 186.503 142.354 185.361 142.15C184.215 141.966 183.069 141.798 181.938 141.569C181.865 141.552 181.8 141.511 181.753 141.451C181.706 141.391 181.68 141.317 181.68 141.24C181.68 141.163 181.706 141.089 181.753 141.029C181.8 140.969 181.865 140.927 181.938 140.911H182.013Z" fill="black"/>
<path d="M181.194 147.64C182.355 147.64 183.501 147.824 184.662 147.931C185.817 148.019 186.965 148.182 188.1 148.42C188.197 148.448 188.28 148.51 188.336 148.596C188.392 148.682 188.416 148.785 188.403 148.888C188.39 148.99 188.342 149.084 188.267 149.153C188.192 149.221 188.096 149.26 187.996 149.262C186.837 149.218 185.683 149.091 184.543 148.879C183.397 148.696 182.251 148.528 181.12 148.298C181.046 148.275 180.983 148.226 180.941 148.161C180.899 148.095 180.881 148.016 180.89 147.937C180.899 147.859 180.934 147.787 180.99 147.732C181.045 147.678 181.118 147.646 181.194 147.64Z" fill="black"/>
<path d="M180.986 155.012C182.147 155.012 183.308 155.196 184.454 155.303C185.609 155.39 186.757 155.553 187.892 155.792C187.999 155.821 188.091 155.891 188.149 155.988C188.207 156.085 188.227 156.201 188.204 156.312C188.18 156.406 188.126 156.49 188.051 156.548C187.975 156.606 187.882 156.637 187.787 156.633C186.629 156.59 185.475 156.462 184.335 156.251C183.203 156.068 182.057 155.899 180.912 155.67C180.83 155.651 180.758 155.602 180.711 155.53C180.664 155.459 180.645 155.372 180.658 155.288C180.675 155.211 180.716 155.142 180.776 155.092C180.835 155.042 180.909 155.014 180.986 155.012Z" fill="black"/>
<path d="M67.9512 205.315L68.3233 205.881L68.8442 206.676C69.38 207.486 69.9306 208.282 70.4664 209.031L71.2552 210.117L71.4636 210.377L71.5529 210.499C71.535 210.616 71.535 210.735 71.5529 210.851C71.5962 211.01 71.6902 211.149 71.8198 211.246C71.9494 211.343 72.107 211.393 72.2672 211.386H72.5798H72.7881L73.0263 211.203L73.5025 210.851C74.9225 209.777 76.2839 208.623 77.5804 207.395C80.5267 204.589 83.319 201.617 85.9445 198.493C90.2159 193.492 94.2193 188.139 98.2079 182.633C102.196 177.128 106.2 171.423 110.397 165.504C111.885 163.546 113.254 161.512 114.743 159.386L117.213 155.96C119.58 152.688 123.166 150.653 126.634 151.571C127.149 151.708 127.648 151.903 128.122 152.152L128.554 152.397C128.653 152.444 128.748 152.5 128.837 152.565C130.003 153.198 130.949 154.186 131.545 155.395C132.721 158.056 131.888 161.512 130.757 164.724C130.518 165.397 130.28 166.039 130.057 166.697C130.051 166.753 130.051 166.809 130.057 166.865C129.065 169.516 128.073 172.157 127.08 174.788C122.834 185.689 117.861 196.278 112.198 206.477C109.24 211.798 105.98 216.935 102.435 221.863C100.574 224.402 98.5948 226.91 96.3624 229.418C95.2512 230.662 94.0606 231.901 92.7906 233.135L91.8083 234.052L91.3023 234.511L91.0642 234.741L90.707 235.046C89.7247 235.857 88.7722 236.668 87.7304 237.402C81.6731 241.99 74.3359 244.789 67.0583 243.993C59.7806 243.198 53.4405 238.044 48.1869 232.033L47.2493 230.948L46.5647 230.229C46.0884 229.678 45.6271 229.112 45.1955 228.562C40.9029 223.056 36.9655 217.267 33.4083 211.233C29.9406 205.468 26.7706 199.702 23.7494 193.92C19.1506 185.096 14.1798 175.919 12.8701 166.009C12.2303 160.958 13.5686 155.853 16.5908 151.816C17.8766 150.073 19.5238 148.647 21.4128 147.64C22.0648 147.314 22.7418 147.043 23.4369 146.83C24.4059 146.538 25.4049 146.363 26.4134 146.31C27.8601 146.268 29.3048 146.449 30.6997 146.845C37.3969 148.772 41.3557 155.272 44.2876 161.313C48.053 168.961 51.8481 176.684 55.7325 184.163C59.6169 191.642 63.8287 198.891 67.9512 205.315Z" fill="#F0D0BB"/>
<path d="M67.9513 205.315C65.2872 208.741 62.1023 212.641 58.3668 216.678C54.4 221.08 49.9955 225.042 45.2253 228.501C40.9327 222.995 36.9953 217.206 33.4381 211.172C29.9704 205.406 26.8004 199.641 23.7792 193.859C19.1804 185.035 14.2096 175.858 12.8999 165.948C12.26 160.897 13.5984 155.792 16.6206 151.755C18.2999 149.847 20.3211 148.289 22.5737 147.166L23.4518 146.845C24.4208 146.553 25.4198 146.379 26.4283 146.325C27.875 146.284 29.3197 146.464 30.7146 146.86C37.4118 148.788 41.3706 155.288 44.3025 161.329C48.0679 168.976 51.863 176.699 55.7474 184.178C59.6318 191.657 63.8287 198.891 67.9513 205.315Z" fill="#F0D0BB"/>
<path d="M139.225 135.023C140.49 133.784 141.814 134.243 142.008 136.002C142.395 139.351 139.552 144.108 139.21 145.392C139.314 145.392 139.463 145.27 139.537 145.163C140.014 144.475 140.49 143.786 140.921 143.052C142.172 140.972 143.481 141.125 144.017 142.502C145.014 145.086 143.213 151.265 139.552 157.062C135.891 162.858 130.295 168.257 124.134 169.297C122.428 169.42 120.729 168.975 119.289 168.027C117.85 167.079 116.746 165.68 116.142 164.036C114.132 158.025 114.653 147.962 115.993 142.532C116.99 138.571 119.416 137.944 120.74 139.902C121.675 141.644 122.367 143.513 122.794 145.453C124.431 149.935 128.405 139.81 131.129 133.845C132.855 130.083 135.742 129.15 136.546 131.933C137.379 134.992 135.832 139.275 136.546 138.296C136.977 137.837 138.555 135.665 139.225 135.023Z" fill="#F0D0BB"/>
<path d="M116.365 164.158C116.884 164.843 117.484 165.46 118.151 165.993C118.811 166.51 119.537 166.932 120.309 167.248C121.069 167.58 121.87 167.802 122.69 167.905C123.511 167.997 124.34 167.997 125.161 167.905C125.289 167.897 125.415 167.94 125.512 168.026C125.609 168.111 125.67 168.233 125.682 168.364C125.687 168.49 125.648 168.614 125.571 168.712C125.494 168.811 125.386 168.877 125.265 168.899C124.356 169.029 123.435 169.029 122.526 168.899C121.618 168.787 120.731 168.539 119.892 168.165C118.215 167.401 116.77 166.186 115.71 164.648C115.682 164.606 115.661 164.56 115.65 164.511C115.639 164.462 115.638 164.411 115.646 164.361C115.654 164.311 115.672 164.263 115.699 164.221C115.725 164.178 115.759 164.141 115.799 164.112C115.871 164.046 115.963 164.009 116.06 164.009C116.156 164.009 116.249 164.046 116.32 164.112L116.365 164.158Z" fill="black"/>
<path d="M132.751 143.052C133.757 141.48 134.686 139.857 135.534 138.189C135.561 138.13 135.599 138.078 135.646 138.035C135.693 137.991 135.748 137.958 135.807 137.937C135.867 137.915 135.93 137.906 135.993 137.91C136.056 137.914 136.117 137.931 136.174 137.959C136.285 138.016 136.372 138.113 136.416 138.232C136.46 138.352 136.459 138.483 136.412 138.602C136.027 139.501 135.569 140.366 135.043 141.186C134.522 142 133.955 142.781 133.346 143.526C133.285 143.608 133.195 143.66 133.096 143.673C132.997 143.686 132.897 143.658 132.818 143.595C132.739 143.532 132.687 143.44 132.675 143.338C132.662 143.236 132.69 143.133 132.751 143.052Z" fill="black"/>
<path d="M136.219 149.338C137.186 147.671 138.168 145.973 139.002 144.26C139.029 144.202 139.067 144.15 139.114 144.106C139.161 144.063 139.215 144.03 139.275 144.008C139.334 143.987 139.398 143.978 139.46 143.982C139.523 143.986 139.585 144.003 139.642 144.031C139.75 144.09 139.835 144.188 139.879 144.306C139.922 144.424 139.923 144.555 139.88 144.673C139.096 146.5 138.096 148.221 136.903 149.797C136.87 149.834 136.829 149.863 136.785 149.883C136.74 149.903 136.691 149.913 136.643 149.913C136.594 149.913 136.546 149.903 136.501 149.883C136.456 149.863 136.416 149.834 136.382 149.797C136.309 149.739 136.259 149.656 136.243 149.562C136.226 149.469 136.244 149.373 136.293 149.292L136.219 149.338Z" fill="black"/>
<path d="M73.8299 234.159C72.7566 231.985 72.1381 229.604 72.0142 227.17C71.9124 225.951 71.9524 224.724 72.1332 223.515C72.3138 222.306 72.6387 221.124 73.1006 219.997C73.1186 219.946 73.1466 219.898 73.1831 219.859C73.2195 219.819 73.2636 219.787 73.3124 219.766C73.3613 219.744 73.414 219.733 73.4672 219.734C73.5203 219.734 73.5729 219.745 73.6215 219.768C73.7185 219.803 73.7987 219.874 73.8458 219.968C73.8929 220.062 73.9031 220.171 73.8745 220.272C73.1961 222.477 72.8842 224.783 72.9518 227.093C72.996 228.247 73.1455 229.394 73.3983 230.519C73.6511 231.65 73.9997 232.755 74.4401 233.823C74.4753 233.904 74.4779 233.996 74.4472 234.079C74.4165 234.162 74.3551 234.23 74.2763 234.266C74.2407 234.291 74.2004 234.308 74.1581 234.316C74.1158 234.324 74.0723 234.323 74.0304 234.313C73.9884 234.303 73.949 234.284 73.9145 234.258C73.88 234.231 73.8512 234.198 73.8299 234.159Z" fill="#F0D0BB"/>
<path d="M29.256 143.22C36.2063 145.04 42.5612 152.137 46.4754 158.117C51.9674 166.414 56.9384 175.062 61.3582 184.01C72.1482 206.049 87.9834 225.411 85.9743 238.457C84.739 246.502 71.3594 249.729 64.4984 247.848C57.9649 246.058 53.2471 238.839 48.8864 233.915C39.0191 222.796 31.1461 210.071 23.3178 197.408C17.7963 188.476 12.5278 177.938 10.9651 167.217C9.28336 156.052 15.2067 139.535 29.256 143.22Z" fill="#FF8181"/>
<path d="M71.4785 209.429C76.6726 203.556 82.1792 198.08 84.3521 196.123C86.525 194.165 87.6858 194.058 90.1266 195.756C96.2881 200.053 104.25 207.318 108.551 213.971C109.051 214.626 109.323 215.433 109.323 216.265C109.323 217.097 109.051 217.905 108.551 218.559C103.268 226.298 101.78 227.277 92.8501 236.209C86.0636 243.061 74.6932 251.335 66.0612 246.18C50.7468 237.096 59.9741 222.444 71.4785 209.429Z" fill="#FF8181"/>
<path d="M84.2478 201.843C87.9682 204.036 91.5116 206.532 94.8444 209.306C98.2531 212.059 101.156 215.415 103.417 219.217C103.48 219.331 103.497 219.465 103.463 219.591C103.43 219.718 103.349 219.825 103.238 219.89C103.128 219.955 102.997 219.972 102.874 219.938C102.751 219.903 102.647 219.82 102.583 219.706C100.362 216.033 97.5368 212.783 94.2342 210.102C90.9693 207.293 87.4849 204.767 83.8162 202.546C83.7307 202.492 83.669 202.406 83.644 202.307C83.619 202.207 83.6327 202.101 83.6823 202.011C83.7053 201.959 83.7392 201.912 83.7815 201.874C83.8238 201.837 83.8735 201.809 83.9273 201.793C83.9811 201.777 84.0376 201.773 84.0929 201.782C84.1482 201.79 84.2011 201.811 84.2478 201.843Z" fill="black"/>
<path d="M86.4058 194.93C83.0721 197.897 79.783 200.956 76.613 204.106C73.3819 207.168 70.3539 210.448 67.5494 213.925C67.4704 214.029 67.3547 214.096 67.2278 214.111C67.1008 214.127 66.9729 214.09 66.8722 214.009C66.7716 213.928 66.7064 213.809 66.691 213.679C66.6757 213.548 66.7114 213.417 66.7904 213.313C68.1871 211.519 69.6776 209.803 71.2552 208.175C72.7534 206.564 74.3111 204.963 75.9284 203.372C79.1877 200.313 82.5214 197.255 85.9147 194.333C85.9494 194.296 85.991 194.267 86.0371 194.247C86.0831 194.227 86.1326 194.216 86.1826 194.216C86.2326 194.216 86.2821 194.227 86.3281 194.247C86.3742 194.267 86.4158 194.296 86.4505 194.333C86.489 194.374 86.5187 194.422 86.5376 194.476C86.5564 194.529 86.564 194.586 86.5598 194.642C86.5555 194.699 86.5396 194.753 86.5131 194.803C86.4865 194.853 86.45 194.896 86.4058 194.93Z" fill="black"/>
<path d="M48.8418 161.069L60.9415 182.48L72.937 204.015C72.9924 204.129 73.0032 204.262 72.9672 204.385C72.9312 204.507 72.8511 204.611 72.7431 204.676C72.6351 204.74 72.5073 204.759 72.3858 204.73C72.2642 204.701 72.158 204.626 72.0886 204.519L60.108 183.046L48.2018 161.405C48.1758 161.36 48.1591 161.311 48.1525 161.259C48.146 161.207 48.1498 161.155 48.1637 161.104C48.1777 161.054 48.2014 161.008 48.2336 160.967C48.2657 160.927 48.3056 160.894 48.3506 160.87C48.3956 160.85 48.4439 160.839 48.493 160.838C48.5421 160.837 48.5908 160.846 48.6364 160.864C48.6821 160.883 48.7237 160.91 48.759 160.945C48.7942 160.981 48.8223 161.022 48.8418 161.069Z" fill="black"/>
<path d="M33.0214 212.182C36.9209 219.064 41.3555 225.611 46.282 231.758C48.6824 234.861 51.2617 237.813 54.0061 240.598C55.3804 241.989 56.8748 243.248 58.471 244.361C60.0315 245.434 61.6976 246.337 63.4418 247.052C66.9826 248.506 70.8682 248.826 74.589 247.97C78.2963 247.011 81.7717 245.277 84.7986 242.877C90.9601 238.151 95.9309 231.942 100.768 225.763C100.847 225.659 100.962 225.592 101.089 225.577C101.216 225.561 101.344 225.598 101.445 225.679C101.546 225.76 101.611 225.879 101.626 226.009C101.641 226.14 101.606 226.271 101.527 226.375C96.675 232.584 91.6744 238.839 85.379 243.688C82.238 246.165 78.6369 247.955 74.7974 248.949C70.893 249.851 66.8142 249.515 63.0995 247.985C61.2569 247.25 59.4998 246.306 57.8608 245.171C56.2336 244.03 54.7139 242.734 53.3215 241.302C50.539 238.494 47.9295 235.511 45.5081 232.37C40.6216 226.14 36.2224 219.522 32.3517 212.579C32.3071 212.487 32.2976 212.381 32.3252 212.282C32.3527 212.183 32.4152 212.098 32.5005 212.044C32.5896 211.994 32.694 211.983 32.7914 212.011C32.8888 212.04 32.9714 212.107 33.0214 212.197V212.182Z" fill="black"/>
<path d="M81.3606 132.071C81.1671 129.318 81.048 128.446 84.7836 129.119C88.5192 129.792 91.8827 130.496 94.4574 132.82C96.3177 134.518 93.3114 164.739 80.0062 163.409C66.701 162.078 47.6362 147.717 37.0694 139.443C35.7464 138.377 34.4935 137.222 33.319 135.986C32.5004 135.16 32.5749 134.457 33.4827 133.677C36.5286 131.346 40.0252 129.714 43.7369 128.89C47.0111 128.125 49.69 127.544 52.488 129.96C55.3288 132.373 58.018 134.968 60.5396 137.73C76.7767 153.146 70.9575 147.457 79.277 156.511C80.3188 157.658 80.9438 158.637 81.3457 157.658C81.6796 155.889 81.8539 154.092 81.8666 152.29C82.1911 145.547 82.022 138.788 81.3606 132.071Z" fill="#51331E"/>
<path d="M45.8652 129.104C47.4428 125.326 46.4457 117.572 50.5235 118.719C57.2208 120.6 58.5751 114.131 55.9111 109.191C54.1847 106.01 45.4932 102.706 45.4932 98.3323C45.4932 95.6099 48.559 93.2852 50.9849 93.117C56.3725 92.7652 60.8224 94.0652 63.2483 85.944C68.5317 68.1723 71.9398 76.1252 78.518 71.3993C86.9714 65.2817 87.4477 54.2393 79.5449 46.9287C77.9823 45.3017 76.1791 43.9389 74.202 42.8911C68.2489 40.1687 64.6919 42.4169 60.5099 44.5887C55.5688 47.1428 52.0713 45.5981 49.0501 45.1393C44.1388 44.3899 50.8361 53.3522 51.4314 56.3193C55.7771 77.8687 39.9865 66.7652 35.4175 78.7099C34.1227 82.1052 36.9802 87.6723 28.497 89.1405C21.6956 90.3028 18.4363 99.6781 22.9011 106.346C24.7168 109.053 27.5445 111.271 27.1278 114.972C26.8004 117.817 24.9549 120.218 24.5977 123.078C24.3661 124.831 24.5319 126.614 25.0823 128.29C25.6326 129.966 26.5525 131.488 27.7702 132.738C28.9878 133.988 30.4702 134.931 32.1014 135.495C33.7327 136.058 35.4686 136.226 37.1737 135.986C39.0688 135.683 40.8589 134.894 42.3782 133.69C43.8975 132.487 45.0968 130.91 45.8652 129.104Z" fill="black"/>
<path d="M78.8156 47.2346C80.2038 49.6245 81.4128 52.1195 82.4321 54.6981C82.9477 55.9968 83.3753 57.3306 83.7121 58.6899C84.0912 60.0769 84.247 61.5183 84.1734 62.9569C84.162 63.0882 84.1012 63.2096 84.0039 63.2953C83.9065 63.381 83.7804 63.4243 83.6525 63.4158C83.5289 63.4007 83.415 63.3394 83.3326 63.2434C83.2502 63.1475 83.2052 63.0237 83.206 62.8958C83.2364 61.5605 83.0862 60.2274 82.7596 58.9346C82.4287 57.619 82.0161 56.3265 81.5243 55.0652C80.5584 52.5114 79.435 50.0236 78.1608 47.6169C78.1372 47.5728 78.1224 47.5243 78.1171 47.4742C78.1118 47.4241 78.1162 47.3735 78.13 47.3251C78.1439 47.2768 78.1669 47.2318 78.1977 47.1926C78.2285 47.1535 78.2665 47.1209 78.3096 47.0969C78.3961 47.054 78.4946 47.0442 78.5874 47.0695C78.6802 47.0947 78.7612 47.1533 78.8156 47.2346Z" fill="black"/>
<path d="M39.6293 80.9275C39.8943 82.3653 39.8672 83.8439 39.5496 85.2704C39.2321 86.697 38.6309 88.0406 37.7838 89.2169C36.9621 90.3978 35.9564 91.4313 34.8073 92.2758C33.6613 93.1169 32.4409 93.8052 31.28 94.4781C30.106 95.1152 29.0282 95.924 28.0802 96.8793C27.1688 97.7777 26.559 98.9507 26.339 100.229C26.1993 101.535 26.51 102.85 27.217 103.945C27.9447 105.11 28.7399 106.228 29.5983 107.295C30.5093 108.43 31.2607 109.691 31.8307 111.042C32.3931 112.417 32.6081 113.917 32.4558 115.4C32.2623 118.459 30.2382 120.815 30.268 123.399C30.3105 124.718 30.7219 125.997 31.453 127.082C32.1841 128.167 33.204 129.012 34.3905 129.517C35.5703 130.033 36.8667 130.2 38.134 130C39.4013 129.8 40.5892 129.241 41.564 128.385C41.6084 128.338 41.6616 128.3 41.7204 128.275C41.7792 128.249 41.8425 128.236 41.9063 128.236C41.9702 128.236 42.0334 128.249 42.0922 128.275C42.151 128.3 42.2042 128.338 42.2486 128.385C42.3377 128.479 42.3876 128.606 42.3876 128.737C42.3876 128.868 42.3377 128.995 42.2486 129.089C41.1341 130.066 39.7774 130.707 38.3296 130.939C36.8818 131.171 35.3997 130.986 34.0482 130.404C32.6948 129.821 31.5308 128.854 30.6927 127.617C29.8545 126.379 29.3768 124.921 29.3155 123.415C29.371 121.945 29.7206 120.503 30.3424 119.178C30.914 117.954 31.286 116.642 31.4437 115.293C31.5846 113.974 31.4056 112.64 30.9228 111.409C30.387 110.143 29.6915 108.955 28.8541 107.876C27.9899 106.77 27.185 105.616 26.4431 104.419C25.6699 103.175 25.329 101.698 25.4758 100.229C25.6711 98.7237 26.334 97.3237 27.3659 96.2369C28.3793 95.236 29.5209 94.3818 30.7591 93.6981C31.9498 92.9793 33.1553 92.3369 34.2417 91.5569C35.3386 90.7916 36.2957 89.8339 37.0694 88.7275C37.8652 87.6494 38.4325 86.412 38.735 85.095C39.0375 83.778 39.0683 82.4105 38.8256 81.0805C38.8148 81.0302 38.814 80.9782 38.8232 80.9275C38.8324 80.8769 38.8515 80.8287 38.8793 80.7859C38.9071 80.743 38.9431 80.7064 38.985 80.6782C39.0269 80.6499 39.0739 80.6307 39.1233 80.6216C39.176 80.6031 39.232 80.5965 39.2875 80.6023C39.343 80.6081 39.3966 80.6261 39.4446 80.6552C39.4927 80.6842 39.534 80.7236 39.5659 80.7706C39.5978 80.8176 39.6194 80.8711 39.6293 80.9275Z" fill="#51331E"/>
<path d="M116.93 34.464C117.006 38.2712 115.866 41.9991 113.686 45.0781C106.944 54.8358 100.961 54.0863 99.2348 57.5887C99.0029 58.0689 98.852 58.586 98.7884 59.1181C98.7804 59.1841 98.7804 59.2509 98.7884 59.3169C98.7729 59.4285 98.7729 59.5418 98.7884 59.6534C98.7785 59.9237 98.7834 60.1943 98.8032 60.464C98.9372 64.8075 98.8032 69.1358 98.8032 73.4793C98.8032 75.9416 89.8736 76.9663 81.6732 77.3487C77.4465 77.5475 73.3686 77.5628 70.7046 77.5475C70.7046 77.5475 42.7547 76.8899 42.7547 72.9593C42.7547 68.371 42.7547 63.7828 42.9036 59.1946C42.9036 58.9652 42.9036 58.751 42.9036 58.5216C42.9109 58.4607 42.9109 58.3991 42.9036 58.3381C42.8775 57.9496 42.7921 57.5676 42.6506 57.2063C42.4284 56.6177 42.071 56.0929 41.6088 55.6769C39.3466 53.811 35.105 52.8169 30.3425 47.2346C29.777 46.5616 29.1965 45.8428 28.631 45.0322C22.1719 35.9322 25.4163 25.1499 34.3162 19.5216C35.0526 19.0615 35.8127 18.6429 36.5933 18.2675C43.737 14.8416 43.8709 18.191 48.6632 13.6028C59.9443 2.75926 76.8214 1.07691 89.2485 10.2993C94.0193 13.9824 99.3497 16.8298 105.024 18.7263C108.356 19.7489 111.295 21.815 113.429 24.6363C115.564 27.4576 116.788 30.8934 116.93 34.464Z" fill="#FF8181"/>
<g style="mix-blend-mode:multiply" opacity="0.25">
<path d="M116.93 34.464C117.006 38.2712 115.866 41.9991 113.686 45.0781C106.944 54.8357 100.961 54.0863 99.2348 57.5887C98.3715 57.473 97.4999 57.4372 96.6303 57.4816C89.189 58.0016 77.6995 47.9228 76.6874 45.5828C76.6874 45.5828 74.4252 43.3804 74.4997 41.6522C74.5741 39.924 77.2232 38.2722 80.7653 39.3734C83.6646 40.1033 86.4257 41.323 88.936 42.9828C92.5822 45.5522 95.916 48.2593 100.411 48.4734C102.499 48.493 104.569 48.0606 106.484 47.2042C108.4 46.3478 110.118 45.0867 111.528 43.5028C114.038 41.0032 115.896 37.8949 116.93 34.464Z" fill="#F0D0BB"/>
</g>
<g style="mix-blend-mode:multiply" opacity="0.25">
<path d="M81.5243 77.2875C77.2976 77.4863 73.2198 77.5016 70.5557 77.4863C70.5557 77.4863 42.6059 76.8287 42.6059 72.8981C42.6059 68.3099 42.6059 63.7216 42.7547 59.1334C42.7547 58.904 42.7547 58.6898 42.7547 58.4604C42.7621 58.3995 42.7621 58.3379 42.7547 58.2769C42.7286 57.8884 42.6432 57.5065 42.5017 57.1451C42.2795 56.5565 41.9221 56.0318 41.4599 55.6157C39.3466 53.811 35.105 52.8169 30.3425 47.2346C29.777 46.5616 29.1965 45.8428 28.631 45.0322C22.1719 35.9322 25.4163 25.1498 34.3162 19.5216C35.8045 26.7251 41.2218 45.7663 56.1046 46.3169C58.7388 46.424 64.2603 46.3169 66.0314 48.9322C66.283 49.2598 66.4537 49.6452 66.5289 50.0553C66.6041 50.4655 66.5814 50.8883 66.463 51.2875C65.9268 52.4817 65.0216 53.4602 63.8883 54.071C63.4864 56.931 62.8911 69.6404 81.5243 77.2875Z" fill="#F0D0BB"/>
</g>
<path d="M44.8085 67.9887C53.3933 69.1502 62.0458 69.7021 70.7045 69.6404C79.3614 69.6435 88.0085 69.0405 96.5857 67.8357C96.6483 67.8272 96.7119 67.8315 96.7729 67.8485C96.8339 67.8654 96.891 67.8947 96.9408 67.9346C96.9907 67.9744 97.0323 68.0241 97.0633 68.0806C97.0943 68.1372 97.1141 68.1995 97.1214 68.264C97.1388 68.3934 97.1066 68.5247 97.0316 68.6302C96.9567 68.7358 96.8448 68.8073 96.7196 68.8299C88.099 70.0524 79.4069 70.6656 70.7045 70.6651C62.005 70.6232 53.3183 69.9743 44.7043 68.7228C44.6489 68.7231 44.5941 68.7112 44.5435 68.6878C44.4929 68.6644 44.4479 68.6302 44.4113 68.5873C44.3748 68.5445 44.3476 68.4941 44.3317 68.4395C44.3157 68.385 44.3114 68.3275 44.3189 68.2711C44.3264 68.2146 44.3457 68.1605 44.3754 68.1124C44.405 68.0643 44.4444 68.0233 44.4908 67.9921C44.5372 67.961 44.5896 67.9405 44.6445 67.932C44.6993 67.9235 44.7552 67.9271 44.8085 67.9428V67.9887Z" fill="black"/>
<path d="M43.4988 55.5546C47.4251 56.2995 51.4365 56.449 55.405 55.9981C59.3439 55.6968 63.0439 53.9423 65.823 51.0581C67.2066 49.5797 68.2982 47.8398 69.0377 45.9346C69.8381 43.9108 71.1732 42.1574 72.8923 40.8722C74.6231 39.5638 76.698 38.8229 78.8454 38.7463C80.9558 38.6943 83.0319 39.3023 84.7985 40.4899C84.8862 40.5694 84.9434 40.6786 84.9597 40.7976C84.9761 40.9166 84.9506 41.0377 84.8878 41.1392C84.825 41.2406 84.729 41.3156 84.6171 41.3508C84.5053 41.386 84.3849 41.379 84.2776 41.3311C82.6476 40.2695 80.7444 39.7366 78.8156 39.8016C76.9014 39.8818 75.0529 40.5416 73.5025 41.6981C71.9407 42.8636 70.7247 44.4521 69.9901 46.2863C69.2571 48.2954 68.1443 50.1355 66.7159 51.7005C63.7423 54.7468 59.7894 56.574 55.5985 56.8393C51.5304 57.2636 47.4238 57.0729 43.4095 56.2734C43.3108 56.2552 43.2233 56.1974 43.166 56.1128C43.1088 56.0281 43.0867 55.9236 43.1044 55.8222C43.1222 55.7208 43.1784 55.6308 43.2608 55.572C43.3431 55.5132 43.4448 55.4904 43.5435 55.5087L43.4988 55.5546Z" fill="black"/>
<path d="M76.0028 43.8852C77.2495 45.7502 78.6809 47.4775 80.2742 49.0393C81.8639 50.6116 83.6155 52.0014 85.498 53.184C87.3521 54.3818 89.3544 55.318 91.4511 55.9675C93.5464 56.6206 95.721 56.9655 97.9103 56.9922C97.9741 56.9941 98.037 57.0093 98.095 57.0367C98.1531 57.064 98.2052 57.1032 98.2483 57.1517C98.2913 57.2002 98.3244 57.2571 98.3456 57.3191C98.3668 57.381 98.3757 57.4467 98.3716 57.5122C98.3639 57.6434 98.3068 57.7663 98.2123 57.8549C98.1178 57.9434 97.9934 57.9906 97.8656 57.9863C95.583 57.9538 93.3151 57.604 91.1237 56.9463C88.9374 56.2813 86.8532 55.3031 84.9325 54.0405C81.1024 51.5103 77.8279 48.1869 75.3182 44.2828C75.2649 44.1956 75.2475 44.0902 75.2699 43.9898C75.2922 43.8894 75.3524 43.8023 75.4373 43.7475C75.5222 43.6928 75.6247 43.6749 75.7224 43.6978C75.8201 43.7208 75.9049 43.7827 75.9582 43.8699L76.0028 43.8852Z" fill="black"/>
<path d="M103.268 23.3146C104.989 24.4555 106.501 25.9001 107.733 27.5816C109.015 29.273 109.869 31.2645 110.218 33.3781C110.329 33.9054 110.374 34.445 110.352 34.984C110.412 35.5175 110.412 36.0563 110.352 36.5899C110.352 37.1099 110.218 37.6452 110.129 38.1193L109.668 39.6487C109.534 40.1805 109.34 40.694 109.087 41.1781L108.417 42.6157C107.897 43.5181 107.301 44.3746 106.751 45.2616C106.673 45.3517 106.567 45.4105 106.451 45.4273C106.335 45.4441 106.217 45.4179 106.119 45.3534C106.02 45.2888 105.947 45.1902 105.913 45.0753C105.879 44.9603 105.885 44.8366 105.932 44.7263C106.453 43.8699 107.019 43.044 107.525 42.1875L108.15 40.8263C108.378 40.3895 108.557 39.9278 108.685 39.4499C109.341 37.5811 109.535 35.5741 109.249 33.6093C108.964 31.6445 108.207 29.7834 107.048 28.1934C105.897 26.5735 104.476 25.1756 102.851 24.064C102.784 24.0004 102.74 23.9141 102.728 23.8206C102.717 23.7271 102.738 23.6323 102.788 23.5533C102.838 23.4743 102.914 23.4161 103.002 23.3892C103.09 23.3623 103.184 23.3684 103.268 23.4063V23.3146Z" fill="black"/>
<path d="M59.2895 14.1381C58.2767 15.6305 57.1199 17.014 55.8367 18.2675C54.5628 19.5365 53.1665 20.669 51.6695 21.6475C50.1292 22.6012 48.4587 23.3126 46.7135 23.7581C44.9453 24.1733 43.1154 24.2304 41.326 23.9263C41.1996 23.9081 41.0856 23.839 41.0088 23.7343C40.9321 23.6296 40.8989 23.4979 40.9167 23.3681C40.9344 23.2383 41.0016 23.121 41.1035 23.0422C41.2054 22.9633 41.3336 22.9292 41.4599 22.9475C43.12 23.1878 44.8086 23.1204 46.4456 22.7487C48.1098 22.3362 49.7049 21.6713 51.1783 20.7757C52.6257 19.8713 53.9817 18.8211 55.2265 17.6404C56.462 16.4295 57.597 15.1148 58.6197 13.7098C58.6479 13.6685 58.6838 13.6333 58.7253 13.6063C58.7668 13.5792 58.8131 13.5609 58.8616 13.5524C58.91 13.5439 58.9596 13.5453 59.0075 13.5566C59.0554 13.5678 59.1006 13.5887 59.1406 13.6181C59.2223 13.6717 59.2823 13.7539 59.3097 13.8495C59.337 13.945 59.3298 14.0475 59.2895 14.1381Z" fill="black"/>
<path d="M202.878 203.296L26.8896 284.049L197.908 365.628L202.878 203.296Z" fill="#5C363E"/>
<g style="mix-blend-mode:multiply" opacity="0.5">
<mask id="mask2_9_5" style="mask-type:luminance" maskUnits="userSpaceOnUse" x="26" y="203" width="177" height="163">
<path d="M202.878 203.296L26.8896 284.049L197.908 365.628L202.878 203.296Z" fill="white"/>
</mask>
<g mask="url(#mask2_9_5)">
<path d="M126.485 227.506C126.398 231.902 125.624 236.255 124.193 240.399C122.806 244.548 120.797 248.449 118.24 251.962C115.676 255.478 112.604 258.573 109.132 261.138C105.635 263.654 101.845 265.709 97.8508 267.256C89.8127 270.254 81.2274 271.382 72.7138 270.559C64.1991 269.78 55.9467 267.13 48.5144 262.79C48.4597 262.758 48.4117 262.715 48.3731 262.664C48.3345 262.612 48.3061 262.554 48.2895 262.491C48.2729 262.429 48.2685 262.364 48.2764 262.299C48.2844 262.235 48.3046 262.173 48.3358 262.117C48.3671 262.061 48.4088 262.011 48.4587 261.972C48.5085 261.932 48.5654 261.903 48.6263 261.886C48.6871 261.869 48.7505 261.864 48.8131 261.872C48.8756 261.881 48.9359 261.901 48.9907 261.933C56.3053 266.202 64.4251 268.809 72.8031 269.581C81.1749 270.38 89.6152 269.273 97.5234 266.338C101.447 264.847 105.173 262.853 108.611 260.404C112.009 257.913 115.02 254.907 117.541 251.488C120.084 248.061 122.093 244.248 123.494 240.185C124.916 236.139 125.695 231.884 125.801 227.583C125.804 227.48 125.847 227.383 125.919 227.312C125.991 227.24 126.087 227.2 126.188 227.201C126.261 227.215 126.329 227.251 126.383 227.306C126.436 227.361 126.471 227.43 126.485 227.506Z" fill="#5C363E"/>
<path d="M167.011 206.355C163.912 209.776 161.522 213.808 159.986 218.208C158.391 222.605 158.035 227.376 158.959 231.972C159.969 236.497 162.044 240.699 165.002 244.208C167.996 247.711 171.423 250.796 175.196 253.384C182.847 258.541 191.078 262.727 199.708 265.849C208.33 269.038 217.114 271.744 226.021 273.955C226.147 273.984 226.257 274.063 226.326 274.175C226.396 274.286 226.42 274.421 226.393 274.551C226.362 274.681 226.281 274.792 226.169 274.861C226.058 274.93 225.924 274.951 225.798 274.918C216.855 272.745 208.031 270.08 199.366 266.935C190.672 263.773 182.39 259.525 174.705 254.286C170.84 251.619 167.337 248.435 164.287 244.819C161.233 241.164 159.11 236.787 158.111 232.079C157.181 227.35 157.568 222.446 159.227 217.932C160.81 213.427 163.277 209.304 166.475 205.819C166.51 205.782 166.551 205.753 166.598 205.733C166.644 205.713 166.693 205.702 166.743 205.702C166.793 205.702 166.843 205.713 166.889 205.733C166.935 205.753 166.976 205.782 167.011 205.819C167.08 205.893 167.119 205.992 167.119 206.095C167.119 206.197 167.08 206.296 167.011 206.37V206.355Z" fill="#5C363E"/>
<path d="M179.81 206.263C177.939 210.579 177.235 215.334 177.771 220.027C178.349 224.703 180.278 229.092 183.308 232.63C186.351 236.164 190.004 239.088 194.083 241.256C198.178 243.436 202.469 245.203 206.897 246.532C206.958 246.55 207.015 246.58 207.064 246.62C207.114 246.66 207.155 246.71 207.185 246.767C207.216 246.824 207.235 246.887 207.242 246.952C207.248 247.016 207.242 247.082 207.224 247.144C207.186 247.271 207.101 247.378 206.987 247.441C206.872 247.504 206.738 247.518 206.614 247.48C202.122 246.146 197.77 244.358 193.621 242.143C189.419 239.937 185.662 236.932 182.549 233.287C179.439 229.576 177.475 224.997 176.908 220.134C176.39 215.283 177.161 210.378 179.14 205.942C179.16 205.895 179.188 205.853 179.223 205.819C179.259 205.784 179.301 205.757 179.347 205.74C179.393 205.723 179.442 205.715 179.491 205.719C179.54 205.722 179.588 205.735 179.632 205.758C179.677 205.778 179.717 205.807 179.752 205.843C179.786 205.879 179.813 205.922 179.83 205.969C179.848 206.016 179.857 206.066 179.856 206.116C179.855 206.167 179.845 206.217 179.825 206.263H179.81Z" fill="#5C363E"/>
<path d="M227.197 294.663C222.707 290.222 217.513 286.602 211.838 283.957C206.157 281.307 200.185 279.371 194.053 278.191C181.735 275.869 169.092 276.062 156.846 278.757C144.666 281.403 133.063 286.328 122.616 293.286C117.368 296.747 112.432 300.683 107.867 305.048C103.32 309.437 99.1016 314.171 95.2462 319.21C95.1647 319.312 95.0472 319.378 94.9191 319.392C94.7911 319.406 94.6627 319.368 94.5616 319.286C94.5127 319.246 94.472 319.197 94.4418 319.14C94.4116 319.084 94.3925 319.022 94.3856 318.958C94.3787 318.894 94.3841 318.83 94.4015 318.768C94.419 318.706 94.4481 318.648 94.4872 318.598C98.3677 313.51 102.616 308.729 107.197 304.298C111.807 299.898 116.787 295.926 122.08 292.43C132.664 285.368 144.432 280.39 156.786 277.748C169.138 275.07 181.882 274.919 194.291 277.304C200.477 278.52 206.498 280.497 212.225 283.192C217.975 285.891 223.235 289.579 227.777 294.097C227.845 294.168 227.884 294.265 227.884 294.365C227.884 294.465 227.845 294.561 227.777 294.632C227.743 294.669 227.701 294.699 227.655 294.719C227.609 294.739 227.559 294.749 227.509 294.749C227.459 294.749 227.41 294.739 227.364 294.719C227.318 294.699 227.276 294.669 227.241 294.632L227.197 294.663Z" fill="#5C363E"/>
<path d="M142.633 221.756C144.491 228.315 145.221 235.157 144.791 241.975C144.584 245.381 144.045 248.757 143.184 252.053C142.744 253.697 142.207 255.311 141.576 256.886C141.249 257.682 140.996 258.416 140.609 259.242L139.463 261.521C136.253 267.538 131.698 272.686 126.173 276.539C120.718 280.417 114.686 283.356 108.313 285.242C101.98 287.204 95.4749 288.526 88.8913 289.188L83.9204 289.723L78.9794 289.968C77.3423 289.968 75.6903 290.166 74.0383 290.151H69.1121C55.9294 289.893 42.7784 288.728 29.7472 286.664C29.6844 286.656 29.6238 286.636 29.5687 286.604C29.5137 286.572 29.4654 286.53 29.4266 286.478C29.3878 286.427 29.3594 286.369 29.3428 286.306C29.3263 286.243 29.3221 286.178 29.3304 286.113C29.3524 285.984 29.4214 285.867 29.5236 285.788C29.6259 285.708 29.7536 285.672 29.8811 285.685C42.8689 287.727 55.9753 288.871 69.1121 289.111H74.0383C75.6754 289.111 77.3125 288.973 78.9496 288.912L83.8609 288.668L88.7573 288.148C95.2778 287.479 101.721 286.173 108.001 284.248C114.269 282.405 120.209 279.539 125.592 275.759C131.009 271.998 135.482 266.972 138.644 261.092L139.775 258.875C140.162 258.125 140.401 257.345 140.728 256.565C141.347 255.018 141.879 253.435 142.32 251.824C143.176 248.584 143.714 245.264 143.928 241.913C144.349 235.213 143.649 228.488 141.859 222.031C141.844 221.983 141.839 221.932 141.844 221.882C141.848 221.832 141.862 221.783 141.885 221.738C141.908 221.693 141.939 221.654 141.976 221.621C142.014 221.589 142.058 221.564 142.105 221.549C142.152 221.534 142.201 221.529 142.25 221.533C142.299 221.538 142.346 221.552 142.39 221.576C142.433 221.599 142.472 221.631 142.504 221.67C142.535 221.709 142.559 221.753 142.573 221.802L142.633 221.756Z" fill="#5C363E"/>
</g>
</g>
<path d="M63.4417 276.539C61.1945 282.366 68.487 288.775 72.3714 284.324C73.5918 282.932 74.2615 281.51 77.119 281.265C78.3311 281.261 79.5408 281.154 80.7355 280.944C92.6417 278.191 97.94 273.45 102.316 276.524C102.677 276.777 103.087 276.95 103.517 277.031C103.948 277.113 104.39 277.102 104.816 276.998C110.248 275.866 109.921 266.812 103.7 265.528C101.661 265.099 100.024 265.436 95.6629 266.201C90.826 267.057 65.2426 271.921 63.4417 276.539Z" fill="#CD000C"/>
<path d="M95.0825 273.557C95.4712 273.421 95.7986 273.144 96.0039 272.778C96.2092 272.413 96.2784 271.983 96.1987 271.569C96.142 271.362 96.0462 271.169 95.9168 271C95.7874 270.831 95.6269 270.69 95.4445 270.585C95.2621 270.48 95.0613 270.413 94.8536 270.387C94.646 270.362 94.4355 270.379 94.2342 270.437C94.0329 270.495 93.8447 270.594 93.6804 270.727C93.5161 270.86 93.3789 271.025 93.2766 271.212C93.1744 271.399 93.109 271.606 93.0844 271.819C93.0597 272.033 93.0762 272.249 93.1328 272.456C93.2716 272.852 93.5462 273.182 93.9052 273.385C94.2641 273.588 94.6828 273.649 95.0825 273.557Z" fill="black"/>
<path d="M69.4247 276.83C69.0142 276.937 68.662 277.208 68.4457 277.582C68.2294 277.957 68.1667 278.404 68.2713 278.826C68.3759 279.248 68.6393 279.61 69.0035 279.832C69.3677 280.054 69.803 280.119 70.2135 280.011C70.624 279.904 70.9761 279.633 71.1924 279.259C71.4087 278.884 71.4715 278.437 71.3669 278.015C71.2623 277.593 70.9989 277.231 70.6347 277.009C70.2704 276.787 69.8352 276.722 69.4247 276.83Z" fill="black"/>
<path d="M81.3904 275.132C81.535 275.515 81.8129 275.828 82.17 276.011C82.5271 276.195 82.9378 276.235 83.3222 276.124C83.7065 276.014 84.0371 275.76 84.2495 275.413C84.4618 275.065 84.5409 274.649 84.4711 274.245C84.3567 273.825 84.0846 273.47 83.7148 273.256C83.3449 273.042 82.9077 272.988 82.4991 273.106C82.0906 273.223 81.7443 273.503 81.5364 273.883C81.3284 274.263 81.2759 274.712 81.3904 275.132Z" fill="black"/>
<g style="mix-blend-mode:multiply" opacity="0.25">
<path d="M65.7188 274.444C63.9776 275.362 63.7394 275.759 63.4269 276.601C61.4475 281.862 67.5494 288.346 72.0142 284.722C72.1226 284.647 72.1986 284.532 72.2263 284.401C72.254 284.27 72.2314 284.133 72.1631 284.018C71.7833 282.929 71.6742 281.76 71.8458 280.617C72.0173 279.474 72.464 278.393 73.1453 277.472C78.518 271.645 89.9926 275.132 96.5113 268.296C97.0322 267.761 98.4758 265.879 97.7019 265.895C94.8891 265.925 73.0412 270.529 65.7188 274.444Z" fill="#B05F95"/>
</g>
<path d="M159.421 265.176C160.909 263.738 161.772 261.918 159.629 261.628C148.08 260.098 119.818 262.606 103.938 264.916C100.143 265.466 100.515 265.191 100.589 266.537C100.827 271.125 102.301 279.828 105.054 283.361C105.193 283.561 105.384 283.719 105.604 283.816C105.825 283.913 106.067 283.946 106.304 283.911C124.833 282.091 151.533 272.67 159.421 265.176Z" fill="#FF8181"/>
<g style="mix-blend-mode:multiply" opacity="0.25">
<path d="M125.042 280.455C158.572 271.018 162.576 261.719 160.373 263.035C152.098 267.959 118.91 277.977 103.729 279.491C103.03 279.491 103.104 279.644 103.491 280.592C103.875 281.555 104.375 282.465 104.98 283.299C105.137 283.548 105.362 283.744 105.626 283.863C105.891 283.983 106.183 284.021 106.468 283.972C109.419 283.784 112.356 283.411 115.264 282.856C115.517 282.856 118.955 281.969 120.205 281.724C122.035 281.372 123.836 280.699 125.042 280.455Z" fill="#F0D0BB"/>
</g>
<g style="mix-blend-mode:multiply" opacity="0.25">
<path d="M145.714 273.175C146.309 272.915 145.357 271.951 144.836 271.538C139.805 267.669 135.073 268.801 128.881 270.009C126.396 270.513 119.714 272.333 119.624 272.364C113.671 274.429 107.123 272.104 107.629 265.833C107.792 263.83 108.045 264.304 102.048 265.145C100.47 265.375 100.559 265.451 100.559 266.032C100.961 271.385 101.973 279.063 105.024 283.422C105.148 283.615 105.324 283.766 105.53 283.859C105.736 283.951 105.963 283.98 106.185 283.942C108.909 283.803 111.619 283.466 114.296 282.932C125.062 280.778 135.589 277.509 145.714 273.175Z" fill="#F0D0BB"/>
</g>
<path d="M151.146 263.692L131.649 265.757L112.198 267.684C112.135 267.69 112.072 267.684 112.012 267.665C111.952 267.646 111.896 267.615 111.847 267.574C111.799 267.533 111.759 267.482 111.73 267.425C111.7 267.368 111.682 267.305 111.677 267.241C111.669 267.176 111.673 267.11 111.691 267.047C111.708 266.985 111.738 266.926 111.779 266.876C111.819 266.826 111.87 266.785 111.926 266.755C111.983 266.726 112.045 266.709 112.108 266.705L131.545 264.748L151.086 262.928C151.136 262.919 151.186 262.921 151.234 262.934C151.283 262.946 151.328 262.969 151.367 263.001C151.407 263.032 151.439 263.072 151.462 263.118C151.486 263.163 151.5 263.213 151.503 263.264C151.507 263.316 151.501 263.369 151.485 263.419C151.47 263.469 151.444 263.515 151.411 263.555C151.378 263.594 151.337 263.627 151.292 263.651C151.246 263.674 151.197 263.688 151.146 263.692Z" fill="white"/>
<path d="M167.443 232.752C165.755 236.828 162.9 240.28 159.257 242.648C157.01 244.037 154.572 245.069 152.024 245.706C147.618 246.625 143.044 246.161 138.897 244.376C134.563 242.414 130.924 239.123 128.479 234.955L128.36 234.771C127.392 233.213 126.678 231.503 126.247 229.709C125.821 227.801 125.807 225.82 126.209 223.907C126.61 221.993 127.416 220.194 128.569 218.636C129.872 217.076 131.496 215.832 133.323 214.994C135.15 214.155 137.135 213.743 139.135 213.788C140.693 213.805 142.223 214.203 143.6 214.95C144.091 215.21 144.657 215.363 145.089 215.608C145.52 215.852 145.773 215.699 146.041 215.332C146.309 214.965 146.86 214.399 147.247 213.925C148.603 212.267 150.38 211.028 152.381 210.346C153.974 209.764 155.664 209.514 157.352 209.612C157.769 209.612 158.171 209.612 158.558 209.689C161.231 209.939 163.728 211.165 165.597 213.145C165.746 213.298 165.88 213.466 166.014 213.619C167.869 215.682 169.009 218.316 169.258 221.113C169.637 225.089 169.011 229.098 167.443 232.752Z" fill="#F0D0BB"/>
<g style="mix-blend-mode:multiply" opacity="0.25">
<path d="M167.442 232.752C165.755 236.828 162.9 240.28 159.257 242.648C157.01 244.037 154.572 245.069 152.024 245.706C147.618 246.625 143.044 246.161 138.897 244.376C134.563 242.414 130.924 239.123 128.479 234.955L128.36 234.771C131.999 233.312 135.844 232.47 139.746 232.278C144.806 231.881 152.887 235.337 157.01 231.223C158.779 229.159 160.004 226.663 160.567 223.973C161.688 220.177 163.54 216.651 166.014 213.604C167.869 215.667 169.009 218.301 169.258 221.098C169.639 225.079 169.014 229.093 167.442 232.752Z" fill="#F0D0BB"/>
</g>
<path d="M132.334 220.135C131.391 221.502 130.76 223.07 130.489 224.723C130.37 225.539 130.37 226.369 130.489 227.185C130.58 228.002 130.77 228.803 131.054 229.571C131.092 229.697 131.08 229.833 131.022 229.95C130.964 230.067 130.863 230.156 130.742 230.198C130.625 230.238 130.498 230.23 130.387 230.176C130.276 230.122 130.19 230.026 130.146 229.908C129.431 228.203 129.229 226.317 129.566 224.493C129.906 222.693 130.673 221.007 131.798 219.584C131.859 219.503 131.949 219.45 132.049 219.437C132.148 219.424 132.248 219.452 132.327 219.515C132.406 219.578 132.457 219.671 132.47 219.772C132.482 219.874 132.455 219.977 132.394 220.058L132.334 220.135Z" fill="black"/>
<path d="M155.03 223.622C153.969 223.862 152.865 223.809 151.83 223.469C151.235 223.316 151.161 223.362 151.071 223.958C150.895 224.858 150.61 225.731 150.223 226.558C149.809 227.235 149.153 227.717 148.396 227.903C147.64 228.089 146.842 227.963 146.175 227.552C145.433 226.956 144.777 226.256 144.225 225.472C143.957 225.044 143.853 225.059 143.437 225.381C143.02 225.702 142.931 225.809 142.663 226.008C141.907 226.594 141.013 226.963 140.073 227.078C139.619 227.139 139.157 227.092 138.723 226.939C138.289 226.786 137.896 226.533 137.573 226.198C137.25 225.864 137.007 225.457 136.863 225.01C136.718 224.563 136.676 224.088 136.739 223.622C136.883 222.364 137.403 221.183 138.228 220.242C138.421 220.028 138.421 219.829 138.123 219.676C137.181 219.217 136.401 218.469 135.891 217.535C135.663 217.107 135.512 216.641 135.445 216.158C135.357 215.536 135.506 214.902 135.861 214.39C136.215 213.877 136.749 213.525 137.35 213.405C138.337 213.185 139.365 213.238 140.326 213.558C140.921 213.711 140.981 213.68 141.026 213.038C141.055 212.41 141.16 211.789 141.338 211.188C141.645 210.207 142.284 209.371 143.139 208.832C143.886 208.415 144.748 208.267 145.586 208.411C146.425 208.555 147.193 208.983 147.767 209.628C148.239 210.175 148.648 210.775 148.988 211.417C149.008 211.473 149.042 211.523 149.087 211.561C149.132 211.6 149.187 211.625 149.244 211.634C149.302 211.643 149.361 211.637 149.415 211.615C149.47 211.593 149.517 211.556 149.553 211.509C149.821 211.31 150.059 211.081 150.327 210.882C150.862 210.481 151.462 210.18 152.098 209.995C152.437 209.879 152.796 209.841 153.151 209.885C153.505 209.928 153.846 210.051 154.149 210.246C154.452 210.44 154.709 210.7 154.902 211.009C155.096 211.317 155.221 211.665 155.268 212.029C155.453 212.886 155.365 213.782 155.015 214.583C154.865 214.99 154.665 215.375 154.42 215.73C154.003 216.281 153.899 216.464 154.658 216.77C155.61 217.205 156.424 217.904 157.01 218.789C157.247 219.09 157.422 219.438 157.525 219.812C157.627 220.185 157.654 220.576 157.605 220.961C157.524 221.635 157.228 222.263 156.761 222.745C156.295 223.226 155.686 223.535 155.03 223.622Z" fill="#86AF9A"/>
<path d="M146.309 224.601C146.22 224.188 146.101 223.759 146.041 223.331C146.003 223.142 146.015 222.946 146.075 222.763C146.135 222.581 146.242 222.418 146.383 222.291C146.524 222.126 146.721 222.022 146.933 221.999C147.145 221.977 147.358 222.037 147.529 222.169C147.725 222.301 147.892 222.472 148.02 222.673C148.524 223.545 148.8 224.535 148.824 225.549C148.821 225.839 148.721 226.12 148.541 226.344C148.447 226.483 148.321 226.596 148.174 226.674C148.028 226.753 147.865 226.794 147.7 226.794C147.535 226.794 147.373 226.753 147.227 226.674C147.08 226.596 146.954 226.483 146.86 226.344C146.769 226.233 146.693 226.11 146.636 225.977C146.502 225.533 146.383 225.059 146.249 224.601H146.309Z" fill="#BDDECD"/>
<path d="M156.042 219.936C156.081 220.105 156.086 220.281 156.055 220.452C156.024 220.623 155.959 220.786 155.864 220.929C155.769 221.073 155.645 221.195 155.502 221.287C155.358 221.38 155.198 221.44 155.03 221.465C154.844 221.479 154.656 221.453 154.48 221.389C153.703 221.061 152.948 220.683 152.217 220.257C152.081 220.182 151.964 220.075 151.875 219.945C151.786 219.815 151.727 219.665 151.704 219.508C151.681 219.35 151.694 219.19 151.742 219.038C151.789 218.887 151.871 218.749 151.979 218.636C152.063 218.519 152.173 218.424 152.3 218.36C152.427 218.297 152.567 218.265 152.709 218.269C153.842 218.333 154.921 218.785 155.774 219.553C155.888 219.661 155.979 219.791 156.042 219.936Z" fill="#BDDECD"/>
<path d="M141.859 221.863C141.867 222.025 141.841 222.186 141.785 222.337C141.345 223.295 140.717 224.15 139.939 224.845C139.751 225.03 139.5 225.134 139.24 225.134C138.979 225.134 138.729 225.03 138.54 224.845C138.334 224.721 138.184 224.517 138.122 224.28C138.061 224.042 138.094 223.789 138.213 223.576C138.618 222.534 139.373 221.677 140.341 221.159C140.484 221.091 140.64 221.055 140.798 221.055C140.956 221.054 141.113 221.088 141.257 221.155C141.401 221.221 141.529 221.319 141.633 221.441C141.737 221.564 141.814 221.707 141.859 221.863Z" fill="#BDDECD"/>
<path d="M152.128 211.692C153.051 211.448 153.616 211.952 153.393 212.748C153.085 213.715 152.479 214.552 151.667 215.133C151.442 215.302 151.164 215.376 150.888 215.342C150.611 215.308 150.358 215.168 150.178 214.95C150.001 214.788 149.887 214.564 149.86 214.321C149.832 214.079 149.893 213.834 150.03 213.635C150.468 212.947 151.022 212.346 151.667 211.861C151.809 211.776 151.966 211.719 152.128 211.692Z" fill="#BDDECD"/>
<path d="M138.124 214.935C138.356 214.905 138.591 214.905 138.823 214.935C139.55 215.1 140.238 215.412 140.847 215.852C141.016 215.942 141.151 216.087 141.232 216.264C141.313 216.441 141.334 216.64 141.294 216.831C141.264 217.045 141.176 217.245 141.039 217.408C140.901 217.57 140.721 217.689 140.52 217.749C140.295 217.809 140.059 217.809 139.835 217.749C139.115 217.537 138.436 217.201 137.826 216.755C137.683 216.631 137.557 216.487 137.454 216.326C137.022 215.761 137.275 215.133 138.124 214.935Z" fill="#BDDECD"/>
<path d="M146.324 212.671C146.336 212.865 146.336 213.059 146.324 213.252C146.304 213.515 146.213 213.766 146.06 213.977C145.907 214.188 145.7 214.351 145.461 214.445C145.23 214.498 144.99 214.475 144.773 214.379C144.557 214.283 144.375 214.119 144.255 213.91C143.828 213.167 143.626 212.309 143.675 211.448C143.683 211.23 143.758 211.022 143.889 210.851C144.02 210.681 144.2 210.558 144.404 210.499C144.606 210.435 144.822 210.432 145.026 210.492C145.229 210.551 145.412 210.671 145.55 210.836C145.976 211.357 146.245 211.995 146.324 212.671Z" fill="#BDDECD"/>
<path d="M146.741 220.777C146.04 220.987 145.302 221.029 144.583 220.899C144.13 220.894 143.687 220.757 143.307 220.504C142.926 220.251 142.623 219.893 142.433 219.47C142.243 219.047 142.174 218.578 142.233 218.116C142.292 217.655 142.477 217.22 142.767 216.862C143.121 216.23 143.704 215.768 144.389 215.577C145.207 215.343 146.037 215.154 146.875 215.011C147.475 214.943 148.082 215.065 148.613 215.36C149.145 215.655 149.577 216.11 149.851 216.663C150.126 217.177 150.201 217.778 150.06 218.346C149.919 218.914 149.573 219.406 149.092 219.722C148.375 220.213 147.579 220.57 146.741 220.777Z" fill="black"/>
</g>
</g>
<defs>
<filter id="filter0_d_9_5" x="6.68689" y="4.31059" width="229.109" height="303.689" filterUnits="userSpaceOnUse" color-interpolation-filters="sRGB">
<feFlood flood-opacity="0" result="BackgroundImageFix"/>
<feColorMatrix in="SourceAlpha" type="matrix" values="0 0 0 0 0 0 0 0 0 0 0 0 0 0 0 0 0 0 127 0" result="hardAlpha"/>
<feOffset dy="4"/>
<feGaussianBlur stdDeviation="2"/>
<feComposite in2="hardAlpha" operator="out"/>
<feColorMatrix type="matrix" values="0 0 0 0 0 0 0 0 0 0 0 0 0 0 0 0 0 0 0.25 0"/>
<feBlend mode="normal" in2="BackgroundImageFix" result="effect1_dropShadow_9_5"/>
<feBlend mode="normal" in="SourceGraphic" in2="effect1_dropShadow_9_5" result="shape"/>
</filter>
</defs>
</svg>
