<svg width="188" height="386" viewBox="0 0 188 386" fill="none" xmlns="http://www.w3.org/2000/svg">
<g opacity="0.5">
<path d="M49.3228 2.17965C74.7727 -3.83788 130.93 0.371692 136.879 43.6952C139.832 65.2018 127.453 76.1845 120.488 92.8879C115.723 104.356 118.76 112.492 122.52 123.434C130.616 146.911 133.318 171.359 117.179 189.776C99.5731 209.879 68.4783 226.016 45.0707 212.712C27.9052 203.079 15.2117 183.448 11.8079 161.617C8.76021 142.067 16.8874 121.721 12.0697 102.413C7.04261 82.0941 -4.8235 63.9336 2.13069 41.6984C9.34671 18.6806 30.7015 6.59161 49.3228 2.17965Z" fill="#FF8181"/>
</g>
<path d="M31.5542 374.091C35.8 372.291 39.3665 369.145 42.8764 366.128C48.7357 361.182 49.7358 358.65 48.9621 351.142C48.8583 350.153 48.764 349.163 48.6602 348.115C46.6222 329.548 43.8199 310.911 42.3764 291.939C41.0649 274.47 41.8008 256.822 43.6029 239.185C44.1973 233.25 44.1313 226.237 48.113 221.38C50.5045 218.668 53.7255 216.918 57.2179 216.434C64.266 215.276 73.6446 219.213 76.6167 226.583C77.9565 229.887 77.9659 233.596 77.2772 237.464C75.8996 245.091 71.7953 253.291 69.6063 258.712C68.3703 261.69 67.3607 264.766 66.5871 267.911C65.7568 271.364 65.3322 274.836 65.8794 277.348C67.8986 286.656 67.691 300.663 65.0963 317.49C64.8793 318.904 64.2188 324.641 63.6527 330.893C63.0866 337.145 62.6337 343.911 62.3601 347.304C62.4639 353.704 62.4922 355.831 62.5016 356.434C62.8102 359.219 63.4244 361.957 64.3321 364.595C65.2756 366.959 66.7286 370.955 65.2756 373.349C63.4923 376.317 59.0295 375.802 55.5573 375.525C51.1983 375.159 46.3108 377.949 41.6027 378.572C38.0079 379.027 31.4693 380.63 29.4407 376.435C28.818 375.07 30.7616 374.417 31.5542 374.091Z" fill="#F0D0BB"/>
<path d="M46.0277 270.711C46.7055 270.95 47.4039 271.119 48.1129 271.215C48.8223 271.319 49.5397 271.349 50.2547 271.304C51.6759 271.224 53.0735 270.889 54.3873 270.315C54.4524 270.289 54.5246 270.291 54.5882 270.321C54.6518 270.351 54.7017 270.405 54.727 270.473C54.7487 270.537 54.7483 270.607 54.7259 270.67C54.7034 270.733 54.6604 270.786 54.6043 270.82C53.9377 271.185 53.2312 271.464 52.5003 271.65C51.7679 271.837 51.0178 271.937 50.2642 271.947C48.7573 271.993 47.2576 271.713 45.8579 271.126C45.8181 271.099 45.7886 271.057 45.7744 271.01C45.7602 270.962 45.7621 270.91 45.7798 270.864C45.7976 270.818 45.83 270.779 45.8717 270.755C45.9135 270.73 45.9619 270.722 46.0089 270.731L46.0277 270.711Z" fill="#202538"/>
<path d="M66.3229 366.593C66.3278 366.356 66.2815 366.121 66.1875 365.905C66.0935 365.689 65.9541 365.499 65.7799 365.347C65.6056 365.196 65.401 365.088 65.1813 365.031C64.9617 364.975 64.7326 364.971 64.5113 365.02C63.3885 365.248 62.7469 365.881 57.9067 368.611C56.7273 369.284 56.4914 369.798 56.8688 371.074C57.5859 373.497 60.8504 383.201 61.9449 384.764C62.0777 384.979 62.263 385.152 62.4815 385.265C62.7001 385.379 62.9437 385.429 63.1869 385.41C63.4301 385.39 63.6639 385.303 63.8637 385.156C64.0635 385.01 64.222 384.809 64.3226 384.576C64.4358 384.369 66.3606 367.671 66.3229 366.593Z" fill="#202538"/>
<path d="M35.2339 371.994C33.1958 373.329 30.9974 373.854 28.8462 375.12C27.1479 376.109 27.7895 379.007 29.3274 380.283C34.045 384.24 45.1502 383.251 50.3207 379.69C53.1985 377.711 53.925 376.455 57.3971 375.733C61.1712 374.942 63.7093 374.319 65.5209 370.629C67.9457 365.683 64.3981 359.58 62.4921 360.371C58.6039 363.146 54.4675 365.518 50.1415 367.454C45.1691 369.511 43.6595 368.601 41.9328 366.84C41.6215 366.514 40.6497 368.462 35.2339 371.994Z" fill="#6E7289"/>
<path d="M55.4629 368.443C55.4629 368.443 46.0277 374.378 41.3101 370.51" stroke="#202538" stroke-width="0.67" stroke-miterlimit="10" stroke-linecap="round"/>
<path d="M155.608 356.661C157.863 352.477 158.75 347.66 159.741 343.021C161.741 333.693 159.948 331.971 153.542 325.166C123.462 293.798 108.47 282.314 84.7876 243.35C80.7021 236.643 72.786 227.107 81.9004 216.642C86.7218 211.122 96.3929 208.075 103.101 211.894C116.311 219.372 114.565 249.958 124.878 258.564C141.54 272.511 148.787 296.558 169.289 322.584C174.828 329.597 190.122 331.487 175.224 342.051C171.601 344.623 169.44 349.965 166.119 353.555C163.59 356.266 159.429 361.795 155.353 359.837C154.051 359.214 155.184 357.443 155.608 356.661Z" fill="#F0D0BB"/>
<path d="M105.469 266.378C106.126 266.109 106.757 265.778 107.356 265.389C107.975 265.012 108.557 264.571 109.093 264.073C110.148 263.07 111.038 261.89 111.725 260.581C111.742 260.551 111.764 260.524 111.79 260.502C111.817 260.481 111.847 260.465 111.88 260.456C111.912 260.447 111.946 260.444 111.98 260.449C112.013 260.453 112.045 260.465 112.074 260.483C112.132 260.516 112.176 260.571 112.197 260.637C112.218 260.703 112.215 260.775 112.187 260.839C111.885 261.562 111.498 262.243 111.036 262.866C110.575 263.492 110.046 264.06 109.461 264.558C108.316 265.583 106.979 266.345 105.535 266.794C105.483 266.809 105.427 266.802 105.379 266.774C105.331 266.746 105.296 266.7 105.281 266.645C105.268 266.593 105.275 266.537 105.3 266.49C105.324 266.442 105.364 266.406 105.413 266.388L105.469 266.378Z" fill="#202538"/>
<path d="M178.319 328.064C178.178 327.879 178 327.729 177.796 327.626C177.593 327.523 177.37 327.469 177.144 327.469C176.918 327.469 176.695 327.523 176.492 327.626C176.288 327.729 176.11 327.879 175.969 328.064C175.233 328.974 175.101 329.884 172.978 335.166C172.45 336.462 172.582 337.016 173.629 337.768C175.63 339.192 183.951 344.643 185.744 345.147C185.975 345.231 186.222 345.247 186.461 345.194C186.7 345.141 186.92 345.022 187.099 344.849C187.278 344.675 187.409 344.454 187.478 344.209C187.547 343.963 187.551 343.703 187.49 343.456C187.424 343.199 178.989 328.885 178.319 328.064Z" fill="#202538"/>
<path d="M157.24 352.626C156.438 355 155.033 356.849 154.098 359.243C153.372 361.142 155.589 362.963 157.552 362.953C163.609 362.953 171.705 354.901 173.592 348.768C174.667 345.355 174.488 343.881 176.771 341.052C179.253 337.966 180.866 335.819 180.083 331.744C179.036 326.293 172.629 323.83 171.591 325.7C170.217 330.408 168.406 334.963 166.185 339.301C163.524 344.168 161.807 344.445 159.41 344.188C158.967 344.158 159.363 346.315 157.24 352.626Z" fill="#6E7289"/>
<path d="M170.95 336.601C170.95 336.601 167.119 347.482 161.137 347.482" stroke="#202538" stroke-width="0.67" stroke-miterlimit="10" stroke-linecap="round"/>
<path d="M91.2412 94.9712C88.9107 104.566 82.391 104.566 42.348 121.373C40.1341 122.376 37.7851 123.014 35.3848 123.262C33.774 123.412 32.1529 123.14 30.6672 122.471C27.1007 120.384 25.9496 115.101 26.0723 109.809C26.0723 109.077 26.1383 108.335 26.2044 107.603C27.0064 105.556 32.158 105.941 33.3846 104.972C37.3735 101.902 41.5151 99.0553 45.7918 96.4451C54.6515 90.9056 63.9923 85.7816 67.4928 83.5856C70.4207 81.7626 73.5073 80.2357 76.711 79.0255C82.8533 76.7602 89.4391 79.5695 91.496 87.4336C92.0413 89.9262 91.9535 92.5253 91.2412 94.9712Z" fill="#F0D0BB"/>
<path d="M45.7541 96.4055C45.4144 99.3731 45.0181 102.459 44.5369 105.476C43.5934 111.491 42.5083 118.336 37.9323 121.838C37.1753 122.477 36.3021 122.948 35.3659 123.222C35.0577 123.306 34.7408 123.35 34.4224 123.351C33.0901 123.407 31.7677 123.09 30.5917 122.431C27.0252 120.344 25.8741 115.062 25.9967 109.77C25.9967 109.037 26.0628 108.296 26.1288 107.564C26.4382 104.218 27.0286 100.908 27.8932 97.6717C35.8094 66.6012 37.3945 59.4593 41.1025 57.5007C43.3481 56.3137 45.6408 56.6896 46.4523 60.1517C47.443 64.0689 47.6128 79.7179 45.7541 96.4055Z" fill="#F0D0BB"/>
<path d="M46.273 97.8201C46.2658 99.6159 46.1016 101.407 45.7824 103.172C45.4759 104.939 44.9887 106.667 44.3293 108.325C44.2962 108.403 44.2351 108.465 44.1593 108.496C44.0834 108.528 43.9988 108.527 43.9236 108.493C43.8521 108.461 43.7954 108.4 43.7655 108.325C43.7355 108.249 43.7347 108.164 43.7632 108.088C44.0557 107.267 44.3482 106.446 44.5747 105.605C44.8011 104.764 45.0087 103.913 45.1691 103.053C45.5122 101.333 45.7204 99.5858 45.7918 97.83C45.7966 97.7635 45.8259 97.7016 45.8734 97.6573C45.9209 97.613 45.983 97.5898 46.0465 97.5926C46.1037 97.5968 46.1576 97.6219 46.199 97.6634C46.2403 97.705 46.2665 97.7604 46.273 97.8201Z" fill="#202538"/>
<path d="M48.8583 50.6159C48.7168 50.4379 48.5658 50.2697 48.4148 50.1114C47.1599 48.776 45.6692 47.5099 43.7727 47.9748C42.4079 48.3959 41.1449 49.1188 40.0691 50.0948C38.9933 51.0709 38.1295 52.2773 37.536 53.6329C36.2528 57.0061 35.8377 62.8621 37.1964 66.3935C39.0834 71.2306 47.4336 72.5265 52.1889 62.4367C53.3966 59.8747 52.2455 57.3226 51.2454 54.8002C50.6709 53.2792 49.8647 51.8661 48.8583 50.6159Z" fill="#F0D0BB"/>
<path d="M45.1786 69.3116C44.2333 69.8741 43.1703 70.1833 42.0838 70.2118C40.9718 70.1885 39.8952 69.7973 39.0079 69.094C38.9433 69.0412 38.9011 68.9638 38.8905 68.8787C38.8799 68.7935 38.9018 68.7074 38.9513 68.639C38.9984 68.5731 39.068 68.5291 39.1455 68.5162C39.223 68.5032 39.3023 68.5224 39.3665 68.5697C40.1619 69.1753 41.1109 69.5196 42.0933 69.5589C43.0887 69.5558 44.0712 69.3228 44.971 68.8764C44.9993 68.8618 45.0301 68.8536 45.0616 68.8523C45.0931 68.8509 45.1244 68.8565 45.1537 68.8686C45.1831 68.8807 45.2096 68.8991 45.2318 68.9226C45.2539 68.946 45.2711 68.9741 45.2824 69.005C45.3034 69.0606 45.3044 69.1223 45.2853 69.1787C45.2663 69.2351 45.2283 69.2823 45.1786 69.3116Z" fill="#202538"/>
<path d="M56.7366 46.0557L52.5851 52.4954L46.9712 61.1805L43.8293 66.0671L42.8103 67.63L29.2141 57.9854L33.3656 51.5359L38.9796 42.8508L43.1311 36.4111L48.8771 40.4767L56.7366 46.0557Z" fill="#963C4E"/>
<path d="M52.5852 52.4954L46.9712 61.1805L41.2724 57.1446L33.3657 51.5359L38.9796 42.8508L44.7068 46.9064L52.5852 52.4954Z" fill="#D46966"/>
<path d="M44.82 48.7859L42.7631 50.0224C42.7327 50.0397 42.6987 50.0488 42.6641 50.0488C42.6294 50.0488 42.5954 50.0397 42.565 50.0224L40.4326 48.9442C40.3967 48.9274 40.357 48.9212 40.3179 48.9263C40.2789 48.9313 40.2418 48.9474 40.2108 48.9728C40.1798 48.9982 40.156 49.032 40.1418 49.0705C40.1277 49.109 40.1239 49.1508 40.1307 49.1915L40.6119 51.6249C40.6173 51.6602 40.615 51.6964 40.6052 51.7306C40.5954 51.7649 40.5783 51.7964 40.5553 51.8227L38.9136 53.6231C38.8876 53.6538 38.8701 53.6914 38.8629 53.7318C38.8557 53.7722 38.859 53.8138 38.8726 53.8524C38.8861 53.8909 38.9093 53.9249 38.9398 53.9507C38.9703 53.9765 39.0069 53.9932 39.0457 53.999L41.395 54.2759C41.4304 54.2796 41.4645 54.2923 41.4941 54.313C41.5237 54.3337 41.548 54.3618 41.5649 54.3946L42.6782 56.5807C42.6964 56.6182 42.724 56.6496 42.7582 56.6715C42.7923 56.6935 42.8316 56.7051 42.8716 56.7051C42.9117 56.7051 42.9509 56.6935 42.9851 56.6715C43.0192 56.6496 43.0469 56.6182 43.065 56.5807L44.0086 54.3155C44.0219 54.281 44.0438 54.2508 44.072 54.2282C44.1002 54.2055 44.1337 54.1913 44.169 54.1869L46.4995 53.7418C46.5378 53.7329 46.573 53.7133 46.6015 53.685C46.63 53.6568 46.6507 53.621 46.6614 53.5814C46.672 53.5418 46.6722 53.5 46.662 53.4603C46.6518 53.4206 46.6315 53.3845 46.6033 53.356L44.8955 51.6744C44.8684 51.6503 44.8474 51.6198 44.8343 51.5853C44.8211 51.5508 44.8162 51.5135 44.82 51.4765L45.1408 49.0134C45.1459 48.9717 45.1398 48.9293 45.1232 48.891C45.1067 48.8526 45.0804 48.8199 45.0471 48.7963C45.0139 48.7727 44.975 48.7593 44.935 48.7574C44.8949 48.7556 44.8551 48.7655 44.82 48.7859Z" fill="white"/>
<path d="M42.8009 67.6498L39.6212 69.1434C39.2504 69.3159 38.8441 69.3873 38.44 69.351C38.0358 69.3147 37.647 69.1718 37.3096 68.9357L30.1105 63.8315C29.7738 63.5907 29.4999 63.2655 29.3137 62.8854C29.1275 62.5053 29.0349 62.0824 29.0444 61.6553L29.1765 58.0052L42.8009 67.6498Z" fill="#B0B3C2"/>
<path d="M56.7555 46.0261L48.8582 40.4471L43.1971 36.3815L46.3862 34.8878C46.7578 34.7168 47.1645 34.647 47.5687 34.6851C47.9729 34.7231 48.3613 34.8677 48.6978 35.1054L51.5944 37.1629L55.8875 40.1998C56.2232 40.4402 56.4953 40.7659 56.6785 41.1464C56.8616 41.527 56.9498 41.95 56.9348 42.376L56.7555 46.0261Z" fill="#B0B3C2"/>
<g style="mix-blend-mode:multiply" opacity="0.25">
<path d="M43.3387 49.6762C43.7633 48.687 44.2161 47.8066 44.7068 46.9064C45.9385 44.6595 47.3261 42.5104 48.8583 40.4767L43.1311 36.4111L38.9796 42.8508L33.3185 51.5359L29.167 57.9854L42.7631 67.63L43.7821 66.0671C42.7974 64.8456 42.0623 63.4252 41.6225 61.8939C41.1827 60.3625 41.0474 58.7527 41.2252 57.1643C41.3052 56.3115 41.4408 55.4654 41.6309 54.632C42.0413 52.9246 42.6134 51.2644 43.3387 49.6762Z" fill="#6E7289"/>
</g>
<g style="mix-blend-mode:multiply" opacity="0.25">
<path d="M29.0444 61.6553C29.0328 62.0807 29.1225 62.5024 29.3053 62.8823C29.4882 63.2623 29.7584 63.5885 30.0917 63.8315L37.2907 68.9357C37.6281 69.1718 38.0169 69.3147 38.4211 69.351C38.8252 69.3873 39.2316 69.3159 39.6023 69.1434L42.782 67.6498L29.1953 58.0052L29.0444 61.6553Z" fill="#6E7289"/>
</g>
<g style="mix-blend-mode:multiply" opacity="0.25">
<path d="M48.6507 35.1054C48.3141 34.8677 47.9257 34.7231 47.5215 34.6851C47.1174 34.647 46.7106 34.7168 46.339 34.8878L43.1971 36.3815L48.8582 40.4471C49.8961 39.0721 50.8302 37.9444 51.5095 37.1629L48.6507 35.1054Z" fill="#6E7289"/>
</g>
<path d="M41.8668 54.0187C42.1017 54.0204 42.3344 53.9718 42.5507 53.8759C42.767 53.78 42.9624 53.6388 43.1249 53.461C43.2874 53.2833 43.4136 53.0726 43.4958 52.8419C43.578 52.6112 43.6144 52.3654 43.6029 52.1195C43.6029 50.6654 42.4423 49.9235 43.7444 49.9927C43.9425 49.9927 44.1312 49.9927 44.3294 49.9927C45.4805 49.9927 46.1221 49.3003 45.9428 48.1627C45.4239 44.8094 40.2817 41.7429 37.5077 42.554C34.7338 43.3651 31.2899 48.1825 32.1014 51.2292C33.2902 54.6914 39.1023 58.2623 40.7251 55.9377C41.612 54.6617 39.6023 53.7417 40.8572 53.8901C41.1873 53.9773 41.5265 54.0205 41.8668 54.0187Z" fill="#F0D0BB"/>
<path d="M38.8664 46.3426C39.6023 46.8174 40.31 47.3318 41.0176 47.866C41.7462 48.3725 42.4284 48.9487 43.0556 49.5872C43.1034 49.6389 43.1302 49.7081 43.1302 49.7801C43.1302 49.8521 43.1034 49.9213 43.0556 49.973C43.0095 50.0141 42.951 50.0367 42.8905 50.0367C42.83 50.0367 42.7715 50.0141 42.7254 49.973C42.0272 49.4586 41.3478 48.9046 40.6779 48.3408C40.008 47.777 39.3098 47.2428 38.6399 46.6691C38.6035 46.6272 38.5833 46.5725 38.5833 46.5157C38.5833 46.459 38.6035 46.4043 38.6399 46.3624C38.6718 46.3364 38.7101 46.3207 38.7503 46.3172C38.7906 46.3136 38.8309 46.3225 38.8664 46.3426Z" fill="#202538"/>
<path d="M36.2528 49.8542C37.0643 50.3884 37.8568 50.972 38.6494 51.5359C39.4514 52.0902 40.2231 52.6913 40.961 53.3362C40.9856 53.3603 41.0052 53.3894 41.0186 53.4217C41.032 53.454 41.0389 53.4889 41.0389 53.5241C41.0389 53.5594 41.032 53.5943 41.0186 53.6266C41.0052 53.6589 40.9856 53.688 40.961 53.7121C40.92 53.759 40.8653 53.7902 40.8056 53.801C40.7458 53.8117 40.6843 53.8013 40.6308 53.7714H40.5836C39.7786 53.2409 39.0007 52.6663 38.2531 52.0502C37.4983 51.4468 36.734 50.8632 35.9981 50.2301C35.9623 50.1899 35.9424 50.1368 35.9424 50.0818C35.9424 50.0267 35.9623 49.9737 35.9981 49.9334C36.025 49.891 36.0653 49.8599 36.1118 49.8455C36.1584 49.831 36.2083 49.8341 36.2528 49.8542Z" fill="#202538"/>
<path d="M48.6035 66.0473C49.3005 66.0269 49.9685 65.7503 50.4906 65.2658C51.4362 64.2212 52.1456 62.9669 52.5663 61.5959C53.1702 60.0231 54.8591 55.3937 52.5663 54.4639C51.1605 53.8802 49.2923 56.65 48.6696 57.7084C47.5562 59.6077 45.2163 62.9709 46.575 65.1273C46.81 65.4496 47.1198 65.7034 47.4749 65.8644C47.8301 66.0255 48.2186 66.0884 48.6035 66.0473Z" fill="#F0D0BB"/>
<path d="M57.3499 103.033C56.5102 102.43 55.7554 101.708 54.944 101.055C51.8964 98.6708 50.9246 94.071 51.4152 90.045C51.802 86.8796 53.0758 88.7492 58.718 86.0883C66.1907 82.5074 73.5219 74.7225 82.7212 74.2872C84.6129 74.1397 86.4978 74.6546 88.0804 75.7512C92.8923 79.2035 95.5248 84.6539 93.7415 90.7869C91.6091 98.1762 86.7406 101.065 80.4284 106.238C77.3714 108.741 75.7108 110.116 74.2673 113.964C73.6656 115.378 73.2376 116.867 72.9935 118.395C72.9511 118.62 72.862 118.831 72.7324 119.016C72.6029 119.2 72.4362 119.351 72.2441 119.46C72.0521 119.569 71.8396 119.632 71.6217 119.644C71.4038 119.657 71.186 119.619 70.9838 119.533C69.2521 119.08 67.6398 118.225 66.2662 117.03C59.02 110.155 62.0675 106.406 57.3499 103.033Z" fill="#51331E"/>
<path d="M59.2842 90.8562C58.631 91.7239 58.2962 92.8084 58.3407 93.9128C58.4103 94.4537 58.5894 94.9727 58.8661 95.435C59.1427 95.8974 59.5105 96.2924 59.9446 96.5935C61.7828 97.9306 63.5266 99.405 65.1623 101.005C65.9663 101.891 66.527 102.988 66.7852 104.181C66.9672 105.316 67.2258 106.437 67.5589 107.534C67.8852 108.616 68.3553 109.645 68.9553 110.591C69.5187 111.514 70.3632 112.211 71.3518 112.569C71.3915 112.58 71.4285 112.6 71.4607 112.627C71.4929 112.653 71.5195 112.687 71.539 112.725C71.5584 112.763 71.5702 112.805 71.5737 112.847C71.5773 112.89 71.5724 112.934 71.5594 112.974C71.5487 113.015 71.5302 113.052 71.5052 113.085C71.4801 113.118 71.4489 113.144 71.4135 113.164C71.3782 113.183 71.3394 113.195 71.2996 113.198C71.2597 113.201 71.2197 113.196 71.182 113.182C70.0541 112.785 69.0891 111.996 68.4458 110.947C67.8117 109.949 67.3131 108.864 66.9644 107.722C66.6193 106.603 66.3544 105.459 66.1719 104.299C65.915 103.222 65.3947 102.233 64.6622 101.431C63.0658 99.8383 61.3631 98.3673 59.5672 97.0287C59.0874 96.6792 58.6837 96.2268 58.3828 95.7017C58.0819 95.1765 57.8907 94.5904 57.8217 93.982C57.777 92.7365 58.166 91.5165 58.9162 90.5495C58.955 90.4971 59.0121 90.4629 59.0749 90.4546C59.1377 90.4462 59.2011 90.4644 59.2512 90.505C59.3012 90.5457 59.3338 90.6055 59.3418 90.6714C59.3497 90.7373 59.3324 90.8037 59.2936 90.8562H59.2842Z" fill="#202538"/>
<path d="M102.139 86.7313C98.6984 90.8055 94.0417 93.5361 88.9295 94.4766C88.1236 94.6059 87.3104 94.6786 86.4953 94.6942C81.7777 94.7932 75.5976 93.1214 76.843 86.7807C77.4375 83.8132 79.6736 80.0344 81.3059 77.601C81.7273 76.9646 82.1148 76.3041 82.4664 75.6227C82.8518 74.8402 83.192 74.0342 83.4854 73.209C84.4013 70.834 84.7071 68.2486 84.3723 65.711C84.3415 65.5143 84.3005 65.3194 84.2497 65.1273C84.2497 64.979 84.1742 64.8306 84.1365 64.6723C84.0313 64.3119 83.9648 63.9403 83.9383 63.5644C83.7024 59.6077 88.7786 57.3622 93.3169 57.8271C95.0745 57.9353 96.8167 58.2336 98.5157 58.7174C106.12 61.1409 105.753 63.6633 111.904 72.5661C114.905 76.8987 104.715 83.6944 102.139 86.7313Z" fill="#F0D0BB"/>
<path d="M93.8548 71.2306C90.3166 74.8412 85.5141 75.3061 82.4665 75.6424C82.8526 74.8535 83.1928 74.0409 83.4855 73.209C84.4014 70.834 84.7072 68.2486 84.3724 65.711C84.3416 65.5142 84.3006 65.3194 84.2498 65.1273C84.2498 64.979 84.1743 64.8306 84.1366 64.6723C84.0314 64.3119 83.9649 63.9403 83.9384 63.5644C87.7511 63.8317 91.5807 63.5421 95.3173 62.7038C97.827 61.4278 101.214 63.7128 93.8548 71.2306Z" fill="#D99982"/>
<path d="M36.3472 237.523C36.3472 237.523 63.5017 251.738 80.9851 243.35C91.1091 238.493 103.167 247.366 113.499 246.861C125.114 246.288 133.53 240.659 139.361 231.539C143.786 224.614 132.114 232.221 124.604 215.029C117.33 198.361 120.358 181.397 112.914 163.878C111.236 160.15 109.847 156.287 108.762 152.324C107.817 148.838 107.544 145.19 107.96 141.592C109.791 127.545 124 110.165 125.802 94.1106C126.501 87.8292 124.038 75.6325 118.207 74.1982C106.479 71.3098 96.2607 93.3786 85.6555 90.2132C75.7108 87.2456 84.4856 74.9302 81.1172 77.1163C72.4463 82.7547 64.7566 91.5288 60.6617 100.303C58.6803 104.566 58.6237 106.792 58.4633 110.195C58.0387 119.098 61.8977 125.132 61.4731 134.272C61.3882 136.25 61.7751 136.201 61.124 139.9C58.2935 155.727 49.6414 171.614 44.6596 187.668C44.5181 188.133 44.3671 188.657 44.235 189.122C41.2724 199.677 39.0456 218.135 37.2152 228.185L36.3472 237.523Z" fill="#FF8181"/>
<g style="mix-blend-mode:multiply" opacity="0.25">
<path d="M36.3472 237.523C36.3472 237.523 63.5017 251.738 80.9851 243.35C91.1091 238.493 103.167 247.366 113.499 246.861C125.114 246.288 133.53 240.659 139.361 231.539C143.786 224.615 132.114 232.221 124.604 215.029C117.33 198.361 120.358 181.397 112.914 163.878C111.236 160.15 109.847 156.287 108.762 152.324C92.1753 168.794 103.365 190.418 97.3363 212.586C95.9682 217.601 93.2414 222.25 88.3351 224.456C84.127 226.336 79.1924 225.02 75.475 222.478C71.7575 219.936 69.5308 216.147 67.1059 212.467C62.6714 205.761 59.237 198.589 52.8116 193.613C50.2622 191.548 47.3469 190.035 44.235 189.162C41.2724 199.717 39.0456 218.175 37.2152 228.225L36.3472 237.523Z" fill="#B05F95"/>
</g>
<path d="M74.2012 85.4156C74.5247 87.5265 75.3706 89.5116 76.6543 91.1727C77.9454 92.8111 79.6892 93.9895 81.6455 94.5459C83.6236 95.0751 85.6809 95.196 87.7029 94.902C88.7031 94.6942 89.7221 94.536 90.7222 94.2788L93.6754 93.3489C93.753 93.324 93.8368 93.3324 93.9085 93.3723C93.9802 93.4122 94.0338 93.4803 94.0576 93.5616C94.0813 93.6429 94.0733 93.7308 94.0353 93.806C93.9972 93.8811 93.9323 93.9373 93.8547 93.9622L90.8449 94.9514C89.8259 95.2086 88.7786 95.3768 87.7501 95.5944C85.6461 95.9049 83.5043 95.7772 81.4474 95.2185C79.3837 94.5833 77.558 93.2945 76.2203 91.5288C74.8927 89.7743 74.0332 87.6818 73.7294 85.4651C73.7202 85.4315 73.7179 85.3963 73.7226 85.3617C73.7273 85.3271 73.7389 85.2939 73.7568 85.2644C73.7746 85.2349 73.7982 85.2096 73.826 85.1904C73.8538 85.1711 73.8852 85.1582 73.9181 85.1526C73.951 85.147 73.9846 85.1487 74.0168 85.1577C74.049 85.1667 74.0791 85.1828 74.1049 85.2048C74.1308 85.2269 74.1519 85.2544 74.1669 85.2856C74.1818 85.3169 74.1903 85.351 74.1917 85.386L74.2012 85.4156Z" fill="#202538"/>
<path d="M66.8323 35.8473C68.04 33.8689 69.7478 32.4247 69.8799 27.8744C69.8908 26.7039 69.9632 25.5349 70.0969 24.3727C70.3054 22.6505 70.8545 20.9928 71.7091 19.5058C72.5636 18.0188 73.7049 16.7352 75.0598 15.7371C78.4753 13.1553 82.8438 12.1958 85.3347 12.5321C89.8542 13.1454 92.0432 16.7559 91.6469 19.5356C90.7034 26.173 86.6273 24.9267 83.4194 25.9752C73.569 29.1604 72.0311 44.2653 73.4936 53.1977C73.5596 53.633 73.6539 54.0682 73.6917 54.4837C70.3988 54.1276 66.8229 50.5961 65.568 47.5593C64.8635 45.6447 64.6105 43.58 64.8306 41.5408C65.0508 39.5017 65.7375 37.5484 66.8323 35.8473Z" fill="#202538"/>
<path d="M73.2388 65.2955C71.3565 63.7507 69.6585 61.9739 68.1816 60.0033C66.6806 58.0463 65.4717 55.8617 64.5962 53.5241C63.7229 51.1604 63.3557 48.6243 63.5206 46.0953C63.7124 43.5693 64.4135 41.1148 65.5775 38.894C65.5961 38.857 65.6214 38.8242 65.6521 38.7974C65.6828 38.7707 65.7182 38.7505 65.7563 38.7381C65.7944 38.7257 65.8345 38.7213 65.8742 38.7252C65.914 38.729 65.9526 38.741 65.9879 38.7605C66.0232 38.78 66.0545 38.8065 66.08 38.8387C66.1055 38.8709 66.1248 38.908 66.1366 38.948C66.1484 38.9879 66.1526 39.0299 66.149 39.0716C66.1453 39.1133 66.1339 39.1538 66.1153 39.1908C64.9985 41.3268 64.3264 43.6868 64.1433 46.1151C63.9903 48.5498 64.3444 50.9902 65.1812 53.267C66.0128 55.56 67.1707 57.7078 68.6156 59.6373C70.0479 61.5789 71.6948 63.3355 73.5219 64.8702C73.5637 64.9191 73.5868 64.9825 73.5868 65.0482C73.5868 65.1139 73.5637 65.1773 73.5219 65.2263C73.4863 65.2656 73.4406 65.2931 73.3903 65.3054C73.34 65.3177 73.2873 65.3142 73.2388 65.2955Z" fill="#202538"/>
<path d="M72.8802 42.6134C71.3612 55.4036 75.4655 67.6795 86.75 68.3818C96.8362 69.0149 107.64 60.1418 109.168 47.3912C110.697 34.6405 103.762 23.6506 93.7886 21.9096C83.3911 20.1489 74.3333 30.4661 72.8802 42.6134Z" fill="#F0D0BB"/>
<mask id="mask0_9_417" style="mask-type:luminance" maskUnits="userSpaceOnUse" x="72" y="21" width="38" height="48">
<path d="M72.8802 42.6134C71.3612 55.4036 75.4655 67.6795 86.75 68.3818C96.8362 69.0149 107.64 60.1418 109.168 47.3912C110.697 34.6405 103.762 23.6506 93.7886 21.9096C83.3911 20.1489 74.3333 30.4661 72.8802 42.6134Z" fill="white"/>
</mask>
<g mask="url(#mask0_9_417)">
<path d="M80.2303 39.2996C80.3058 37.3212 75.5127 37.5388 75.6259 39.6062C75.7297 41.3472 80.1643 40.9614 80.2303 39.2996Z" fill="#202538"/>
<path d="M92.8829 40.5658C93.4113 38.5874 88.6748 37.6971 88.3446 39.7348C88.0615 41.4857 92.4583 42.188 92.8829 40.5658Z" fill="#202538"/>
<path d="M76.3996 44.8984C76.5223 45.5711 76.9091 45.9766 77.428 45.9766C78.5508 45.9766 79.0037 44.3346 78.5225 43.4344C78.4101 43.2495 78.251 43.1009 78.0628 43.0051C77.8747 42.9093 77.665 42.8699 77.4569 42.8914C77.2487 42.9129 77.0503 42.9945 76.8837 43.127C76.7171 43.2595 76.5887 43.4378 76.5128 43.6421C76.3672 44.0424 76.3281 44.4766 76.3996 44.8984Z" fill="#202538"/>
<path d="M88.4861 45.2644C88.5202 45.5364 88.6469 45.7862 88.8428 45.968C89.0388 46.1497 89.2907 46.2512 89.5523 46.2536C90.6751 46.2536 91.0619 44.5522 90.4958 43.6718C90.3781 43.4911 90.2147 43.3484 90.0239 43.2597C89.8331 43.171 89.6225 43.1397 89.4158 43.1695C89.209 43.1993 89.0142 43.289 88.8534 43.4284C88.6925 43.5677 88.5719 43.7514 88.505 43.9587C88.3788 44.3829 88.3722 44.8364 88.4861 45.2644Z" fill="#202538"/>
<path d="M81.4663 57.4512C81.8313 57.9307 82.2961 58.3165 82.825 58.5789C83.7132 59.0178 84.7129 59.1441 85.6752 58.9392C86.6375 58.7342 87.5109 58.2088 88.1653 57.4413C88.205 57.3996 88.2398 57.3531 88.2691 57.3028C88.5781 56.8672 88.7967 56.3685 88.9107 55.8388C88.9978 55.5492 89.0202 55.2423 88.976 54.9421C88.9318 54.6419 88.8223 54.3564 88.6559 54.1078C88.4663 53.9215 88.2248 53.8037 87.9668 53.7716C87.7087 53.7396 87.4477 53.795 87.2218 53.9297C86.9873 54.0821 86.7606 54.2472 86.5425 54.4243C85.6816 55.113 84.5981 55.4218 83.5232 55.2849C83.1404 55.2454 82.7549 55.2454 82.3721 55.2849C82.1403 55.3019 81.9173 55.3851 81.7274 55.5254C81.5374 55.6657 81.3877 55.8578 81.2944 56.0809C81.2011 56.304 81.1678 56.5497 81.1981 56.7912C81.2284 57.0327 81.3212 57.261 81.4663 57.4512Z" fill="#202538"/>
<path d="M82.8251 58.5789C83.7133 59.0178 84.713 59.1441 85.6753 58.9392C86.6376 58.7342 87.511 58.2088 88.1654 57.4413C88.2051 57.3996 88.2399 57.3531 88.2692 57.3028C88.1843 57.105 87.7502 56.9566 87.637 56.8973C87.334 56.7684 87.0172 56.6788 86.6935 56.6302C85.3254 56.3928 83.4006 56.8973 82.8251 58.5789Z" fill="#D46966"/>
<g opacity="0.75">
<path d="M97.8458 53.356C97.9873 52.0206 96.5154 50.4774 94.4302 50.2895C92.5432 50.1114 90.8543 50.9918 90.6561 52.802C90.4769 54.2166 92.0431 55.7696 93.798 55.9674C95.7983 56.1554 97.7137 55.275 97.8458 53.356Z" fill="#D99982"/>
<path d="M71.5028 51.6249C71.5028 50.2796 73.0596 48.875 75.1542 48.8651C77.0412 48.8651 78.6641 49.8543 78.7396 51.7238C78.8056 53.1483 77.1073 54.5826 75.3523 54.5826C73.3332 54.5925 71.5028 53.5538 71.5028 51.6249Z" fill="#D99982"/>
</g>
<path d="M84.2873 42.6826C83.9854 43.5234 83.7401 44.4137 83.4665 45.2743C83.1929 46.1349 82.9475 47.0252 82.7211 47.9055C82.4947 48.7859 82.3437 49.6663 82.8532 50.2005C83.1216 50.4741 83.4436 50.6834 83.7967 50.8138L84.41 51.071C84.599 51.1526 84.7948 51.2155 84.995 51.2589C85.0517 51.2827 85.0989 51.3263 85.1283 51.3824C85.1578 51.4385 85.1679 51.5036 85.1568 51.5666C85.1456 51.6295 85.114 51.6865 85.0673 51.7278C85.0206 51.7691 84.9617 51.7922 84.9006 51.7931C84.6675 51.769 84.4369 51.7227 84.2119 51.6546L83.6363 51.4468C83.1689 51.2964 82.742 51.032 82.3909 50.6753C82.0442 50.2568 81.862 49.7158 81.8814 49.1618C81.8913 48.6724 81.9774 48.1879 82.1361 47.7275C82.6411 45.9686 83.2331 44.2384 83.9099 42.5441C83.9344 42.4935 83.976 42.4542 84.0266 42.4341C84.0772 42.414 84.1332 42.4144 84.1836 42.4353C84.229 42.4589 84.2646 42.4991 84.2837 42.5483C84.3028 42.5974 84.3041 42.6523 84.2873 42.7024V42.6826Z" fill="#202538"/>
<path d="M104.913 49.8642C104.76 50.2128 104.573 50.5442 104.356 50.8534C104.144 51.1607 103.907 51.4486 103.648 51.7139C103.621 51.7458 103.588 51.7712 103.55 51.7886C103.513 51.806 103.472 51.815 103.431 51.815C103.391 51.815 103.35 51.806 103.313 51.7886C103.275 51.7712 103.242 51.7458 103.214 51.7139C103.167 51.6563 103.14 51.5826 103.14 51.5062C103.14 51.4299 103.167 51.3561 103.214 51.2985L103.856 50.4874C104.082 50.2203 104.299 49.9235 104.488 49.6762C104.534 49.6303 104.595 49.6046 104.658 49.6046C104.721 49.6046 104.782 49.6303 104.828 49.6762C104.855 49.6982 104.877 49.7267 104.892 49.7594C104.907 49.7921 104.914 49.828 104.913 49.8642Z" fill="#202538"/>
</g>
<path d="M83.693 35.0757C83.5798 34.68 83.3344 34.0865 83.1552 33.582C82.9759 33.0776 82.8155 32.5137 82.6645 31.9598C82.3669 30.8617 82.2052 29.728 82.1834 28.5866C82.1781 27.4188 82.3962 26.2617 82.8249 25.1838C83.282 24.1157 83.9624 23.1691 84.8158 22.4141C84.8439 22.3836 84.8776 22.3593 84.9149 22.3427C84.9522 22.3262 84.9923 22.3176 85.0328 22.3176C85.0733 22.3176 85.1134 22.3262 85.1506 22.3427C85.1879 22.3593 85.2216 22.3836 85.2498 22.4141C85.3057 22.4733 85.337 22.5533 85.337 22.6367C85.337 22.72 85.3057 22.8 85.2498 22.8592C84.4877 23.5628 83.8739 24.4253 83.4477 25.3915C83.0706 26.3896 82.8785 27.4538 82.8816 28.5273C82.8845 29.6192 83.0209 30.7063 83.2873 31.7619C83.4194 32.2961 83.5703 32.8204 83.7402 33.3446L83.9949 34.136L84.127 34.5317L84.193 34.7394L84.2497 35.0065C84.261 35.0693 84.2486 35.1343 84.2152 35.1878C84.1817 35.2413 84.1299 35.2791 84.0704 35.2933C84.0154 35.3086 83.9568 35.3005 83.9074 35.2709C83.858 35.2413 83.8216 35.1925 83.8062 35.1351L83.693 35.0757Z" fill="#202538"/>
<path d="M27.7423 102.984C25.9383 103.319 24.1175 103.547 22.2888 103.666C20.836 103.856 19.361 103.68 17.9863 103.152C17.3052 102.877 16.7204 102.391 16.3106 101.758C15.9007 101.125 15.6854 100.376 15.6936 99.6105C15.7852 99.0166 16.01 98.454 16.3495 97.969C16.6891 97.4841 17.1337 97.0906 17.6467 96.821C18.68 96.3084 19.7856 95.9744 20.9207 95.8318L31.4598 93.7545L41.4139 88.4525C42.3832 87.8687 43.4339 87.4482 44.5276 87.2061C45.1542 87.0464 45.8123 87.0896 46.415 87.33C47.0178 87.5705 47.5368 87.9968 47.9037 88.5529C48.2705 89.1089 48.468 89.7685 48.47 90.4446C48.472 91.1207 48.2784 91.7816 47.9148 92.34C47.1436 93.648 46.0817 94.7409 44.82 95.5252C39.6922 99.2448 33.8725 101.786 27.7423 102.984Z" fill="#5C363E"/>
<path d="M21.8547 90.4209C19.345 90.7078 16.1936 91.3409 14.7217 93.7446C12.3346 97.5728 15.118 100.115 18.9864 98.7994C21.232 98.0278 22.7605 96.2967 25.2703 97.187C26.4858 97.6466 27.7556 97.9295 29.0444 98.0278C30.9699 97.988 32.8561 97.4497 34.5352 96.4608C36.2143 95.4719 37.6341 94.0631 38.6683 92.3598C40.5553 89.1251 44.7445 91.0243 47.1599 87.7303C48.7828 85.5047 47.1599 83.6153 44.9993 82.8437C42.414 81.9139 39.4136 83.19 37.4511 84.8221C30.3558 90.5792 26.2798 89.9165 21.8547 90.4209Z" fill="#86AF9A"/>
<path d="M29.0443 86.85L37.253 83.8824C37.3678 83.8371 37.4931 83.8296 37.6121 83.8609C37.7312 83.8922 37.8383 83.9607 37.9192 84.0574C38.0002 84.154 38.0511 84.2743 38.0652 84.4021C38.0794 84.5299 38.056 84.6591 37.9984 84.7727C36.5925 87.6512 33.4034 94.0809 32.4693 95.9604C32.3984 96.104 32.2778 96.2138 32.1322 96.2671C31.9866 96.3205 31.827 96.3134 31.6862 96.2473C29.7992 95.357 23.5531 92.2905 20.7602 90.9749C20.6508 90.9196 20.5594 90.8315 20.4978 90.7217C20.4362 90.6119 20.4071 90.4854 20.4142 90.3582C20.4212 90.231 20.4642 90.1089 20.5376 90.0074C20.6109 89.9058 20.7114 89.8294 20.8263 89.7879L29.0443 86.85Z" fill="#F0D0BB"/>
<path d="M19.3072 107.099C20.7748 108.619 22.7281 109.514 24.7891 109.611C27.9455 109.787 31.1068 109.382 34.1299 108.414C35.5919 108.048 37.0242 107.562 38.4135 106.96C39.9174 106.31 41.3743 105.547 42.7726 104.675C44.061 103.874 45.2631 102.928 46.3579 101.856C47.916 100.443 48.9235 98.4782 49.1885 96.3363C49.1885 96.2275 49.1885 96.0692 49.1885 95.9011C49.1413 94.5162 48.6696 91.7563 47.1222 93.0126C45.773 94.1007 44.4237 95.1888 43.0084 96.178C37.9598 99.6893 32.2178 101.955 26.2138 102.806C25.525 102.895 24.8363 102.964 24.1569 103.013C22.4397 103.132 20.7131 103.142 18.9864 103.152C16.7786 103.162 18.6656 106.288 19.3072 107.099Z" fill="#D99982"/>
<g style="mix-blend-mode:multiply" opacity="0.5">
<path d="M19.3072 107.099C20.7748 108.619 22.7281 109.514 24.7891 109.611C27.9455 109.787 31.1069 109.382 34.1299 108.414C35.5919 108.048 37.0242 107.562 38.4135 106.96C39.9175 106.31 41.3743 105.547 42.7726 104.675C44.0611 103.874 45.2632 102.928 46.358 101.856C47.916 100.443 48.9236 98.4782 49.1885 96.3363C49.1885 96.2275 49.1885 96.0692 49.1885 95.901C33.1487 110.739 26.6856 107.069 24.1381 103.013C22.4209 103.132 20.6942 103.142 18.9676 103.152C16.7786 103.162 18.6657 106.288 19.3072 107.099Z" fill="#D99982"/>
</g>
<path d="M28.8651 87.1368C29.6388 89.4812 26.761 92.6466 22.4397 94.1996C18.1184 95.7527 13.9952 95.1196 13.2215 92.7653C12.4478 90.411 15.335 87.2456 19.6563 85.6926C23.9777 84.1396 28.1008 84.7825 28.8651 87.1368Z" fill="#963C4E"/>
<path d="M26.544 87.6215C27.0441 89.1251 24.9306 91.2519 21.8264 92.3696C18.7222 93.4874 15.8256 93.161 15.3256 91.6475C14.8255 90.1341 16.939 88.0172 20.0432 86.8994C23.1473 85.7816 26.0534 86.0685 26.544 87.6215Z" fill="#D46966"/>
<path d="M39.1785 88.1798C43.5008 86.6239 46.3806 83.4567 45.6106 81.1057C44.8407 78.7547 40.7126 78.1101 36.3903 79.666C32.068 81.2219 29.1883 84.3891 29.9582 86.7401C30.7282 89.0911 34.8562 89.7357 39.1785 88.1798Z" fill="#963C4E"/>
<path d="M43.2915 81.5974C43.7821 83.101 41.6686 85.2277 38.5739 86.3455C35.4792 87.4633 32.5731 87.1368 32.073 85.6234C31.573 84.1099 33.6959 81.9931 36.7906 80.8753C39.8854 79.7575 42.7914 80.1334 43.2915 81.5974Z" fill="#D46966"/>
<path d="M18.8166 89.7681C22.5907 89.7681 29.6671 87.4237 29.7992 87.3841C32.3908 86.4529 34.8953 85.2741 37.2813 83.8626C38.989 82.8042 41.8668 80.895 42.0838 78.4913C42.1411 77.8796 42.0158 77.2644 41.7253 76.7305C41.0515 75.4013 40.1929 74.1845 39.1778 73.12C34.6017 68.362 28.2518 67.8773 23.0153 70.1524C17.005 72.7936 12.4667 79.0551 13.7216 86.7807C14.1179 89.3031 16.7786 89.7681 18.8166 89.7681Z" fill="#D99982"/>
<path d="M32.6674 74.4752C32.5304 74.8221 32.5277 75.2113 32.6598 75.5604C32.7919 75.9094 33.0484 76.1907 33.3751 76.3447C34.0921 76.8196 35.5829 77.1559 35.9131 76.6019C36.2434 76.048 35.2999 74.7917 34.5828 74.3169C34.3058 74.079 33.9517 73.9625 33.5947 73.992C33.2377 74.0215 32.9054 74.1947 32.6674 74.4752Z" fill="#F0D0BB"/>
<path d="M26.2987 72.2198C26.0251 72.8133 26.4308 73.6047 27.2423 73.9905C28.0537 74.3763 29.5256 74.5444 29.7898 73.9905C30.054 73.4365 28.95 72.2198 28.1858 71.8439C27.8858 71.6392 27.5218 71.5639 27.1701 71.634C26.8185 71.704 26.5062 71.914 26.2987 72.2198Z" fill="#F0D0BB"/>
<path d="M31.1295 79.065C30.9849 79.4087 30.9718 79.7976 31.093 80.1511C31.2142 80.5046 31.4603 80.7957 31.7806 80.9643C32.4882 81.4589 33.9695 81.8447 34.3186 81.2907C34.6677 80.7368 33.7525 79.4706 33.0449 78.976C32.7761 78.7295 32.427 78.6011 32.0702 78.6177C31.7134 78.6343 31.3764 78.7945 31.1295 79.065Z" fill="#F0D0BB"/>
<path d="M25.4873 76.9976C25.2076 77.2268 25.0224 77.5596 24.9697 77.9277C24.917 78.2957 25.001 78.6709 25.2042 78.976C25.6005 79.7674 26.7233 80.8456 27.28 80.529C27.8367 80.2125 27.6196 78.6397 27.2234 77.8582C26.8271 77.0768 26.044 76.6811 25.4873 76.9976Z" fill="#F0D0BB"/>
<path d="M18.977 80.2125C18.3637 80.0443 17.6938 80.6082 17.4768 81.4688C17.2598 82.3293 17.3919 83.9219 18.0052 84.0901C18.6185 84.2583 19.4676 82.9426 19.6846 82.1117C19.8278 81.7611 19.8339 81.3655 19.7015 81.0103C19.5692 80.655 19.309 80.3685 18.977 80.2125Z" fill="#F0D0BB"/>
<path d="M22.2699 73.8817C21.6566 73.7135 20.9867 74.2773 20.7791 75.1478C20.5716 76.0183 20.6942 77.601 21.2981 77.7692C21.9019 77.9374 22.77 76.6118 22.987 75.7908C23.13 75.4376 23.1349 75.0396 23.0008 74.6825C22.8667 74.3254 22.6042 74.0379 22.2699 73.8817Z" fill="#F0D0BB"/>
<path d="M23.5248 81.9337C22.9115 81.7655 22.2416 82.3294 22.0246 83.1998C21.8076 84.0703 21.9397 85.653 22.553 85.8212C23.1663 85.9894 24.0154 84.6638 24.2324 83.8428C24.3786 83.4911 24.3862 83.0931 24.2536 82.7355C24.1211 82.3779 23.8591 82.0897 23.5248 81.9337Z" fill="#F0D0BB"/>
<g style="mix-blend-mode:multiply" opacity="0.5">
<path d="M18.8166 89.7681C22.5907 89.7681 29.6671 87.4237 29.7992 87.3841C32.3908 86.4529 34.8953 85.2741 37.2813 83.8626C38.989 82.8042 41.8668 80.895 42.0838 78.4913C16.8258 92.34 23.5719 70.1327 23.5719 70.1327H23.0152C17.005 72.7738 12.4667 79.0354 13.7216 86.7609C14.1179 89.3032 16.7786 89.7681 18.8166 89.7681Z" fill="#D99982"/>
</g>
<path d="M67.5777 133.787C66.4148 136.043 65.7173 138.53 65.5302 141.087C65.3887 143.758 66.1246 147.131 68.3608 148.437C74.0219 151.721 79.7679 147.448 84.6176 143.273C120.613 112.104 122.859 106.97 122.038 96.7122C121.094 84.2484 113.612 82.8635 105.715 89.1053C102.836 91.4217 100.176 94.0219 97.7703 96.8704C87.3916 109.018 67.9928 132.847 67.5777 133.787Z" fill="#F0D0BB"/>
<path d="M71.2102 149.466C72.6652 149.764 74.1705 149.629 75.5561 149.076C76.9417 148.524 78.1523 147.576 79.0509 146.34C79.8857 145.202 80.3578 143.818 80.4001 142.383C80.9474 136.22 75.7769 131.047 71.7197 126.111C64.6056 117.426 44.4709 96.9496 41.0931 95.3175C36.2245 92.9038 32.0541 96.8705 33.2052 100.204C34.5828 104.161 36.2906 107.069 42.7537 116.822C52.6323 131.71 61.0297 147.487 71.2102 149.466Z" fill="#F0D0BB"/>
<path d="M77.5507 133.085C75.8429 131.275 74.154 129.425 72.5217 127.545C72.4652 127.484 72.4336 127.403 72.4336 127.318C72.4336 127.233 72.4652 127.151 72.5217 127.09C72.5809 127.033 72.6584 127.002 72.7387 127.002C72.8191 127.002 72.8966 127.033 72.9557 127.09C74.6352 128.92 76.2581 130.79 77.862 132.699C77.9059 132.747 77.9303 132.811 77.9303 132.877C77.9303 132.943 77.9059 133.007 77.862 133.055C77.8215 133.097 77.7683 133.123 77.7115 133.129C77.6546 133.134 77.5978 133.119 77.5507 133.085Z" fill="#202538"/>
<path d="M47.5751 100.461C50.7768 103.33 53.9407 106.235 57.0669 109.176C57.1143 109.236 57.1399 109.311 57.1389 109.389C57.1379 109.467 57.1105 109.542 57.0616 109.6C57.0127 109.659 56.9455 109.697 56.8721 109.708C56.7987 109.719 56.7239 109.702 56.6612 109.661C53.4784 106.766 50.3333 103.824 47.226 100.837C47.192 100.79 47.1747 100.731 47.1772 100.672C47.1796 100.612 47.2016 100.556 47.2394 100.511C47.2773 100.467 47.3285 100.438 47.3846 100.429C47.4406 100.42 47.4979 100.431 47.5468 100.461H47.5751Z" fill="#202538"/>
<path d="M37.2813 108.276L40.678 113.677L42.3669 116.387C42.933 117.268 43.4991 118.207 44.0746 119.028C44.0997 119.061 44.118 119.1 44.1283 119.141C44.1386 119.182 44.1407 119.224 44.1345 119.266C44.1283 119.308 44.1139 119.348 44.0922 119.384C44.0706 119.419 44.0421 119.45 44.0086 119.473C43.9778 119.499 43.9425 119.517 43.9048 119.528C43.8671 119.538 43.8278 119.541 43.7891 119.536C43.7504 119.53 43.7131 119.516 43.6795 119.496C43.6459 119.475 43.6167 119.447 43.5934 119.414C42.9235 118.514 42.3857 117.634 41.8102 116.724L40.1307 114.003C39.0362 112.183 37.9229 110.363 36.8567 108.513C36.8397 108.486 36.8281 108.456 36.8227 108.424C36.8173 108.392 36.8181 108.359 36.8252 108.328C36.8323 108.296 36.8454 108.267 36.8638 108.241C36.8822 108.215 36.9055 108.193 36.9322 108.177C36.9609 108.158 36.9931 108.145 37.0267 108.14C37.0603 108.135 37.0947 108.137 37.1275 108.146C37.1603 108.155 37.1909 108.172 37.2174 108.194C37.2439 108.216 37.2656 108.244 37.2813 108.276Z" fill="#202538"/>
<path d="M23.3833 85.0002C22.3265 84.4265 21.5528 85.0002 21.7415 86.207C22.1095 88.5217 24.8363 91.153 25.2986 91.9146C25.2092 91.9016 25.1228 91.8714 25.0439 91.8256C24.6004 91.4596 24.1569 91.0936 23.7418 90.6979C22.553 89.5505 21.7227 89.9165 21.6283 90.9452C21.4396 92.8643 23.7607 96.6331 27.2423 99.7688C30.7238 102.905 35.366 105.407 39.6024 104.932C41.6687 104.705 43.7444 102.281 43.8671 99.838C44.0747 95.4263 41.8951 88.8086 40.0081 85.4552C38.6305 83.0119 36.9228 83.0614 36.4227 84.6342C36.1268 85.9825 36.0157 87.3681 36.0925 88.7492C35.8189 92.063 30.9314 86.3851 28.1009 82.9427C26.2704 80.7665 24.6287 80.4301 24.6193 82.458C24.6193 84.654 26.4403 87.2061 25.7515 86.7016C25.3458 86.4345 23.9022 85.2969 23.3833 85.0002Z" fill="#F0D0BB"/>
<path d="M28.7801 89.5307C28.2434 89.1561 27.7298 88.7464 27.2422 88.3041C26.7498 87.8618 26.2951 87.3753 25.8835 86.85C25.8587 86.8175 25.8403 86.7802 25.8292 86.7403C25.8182 86.7003 25.8147 86.6585 25.8191 86.6171C25.8235 86.5758 25.8356 86.5358 25.8548 86.4993C25.8739 86.4629 25.8997 86.4308 25.9307 86.4048C25.9868 86.3492 26.0611 86.3182 26.1383 86.3182C26.2155 86.3182 26.2898 86.3492 26.3459 86.4048C27.1984 87.3646 28.0991 88.2759 29.0443 89.135C29.0672 89.1581 29.0853 89.1857 29.0977 89.2163C29.1101 89.2469 29.1165 89.2798 29.1165 89.3131C29.1165 89.3463 29.1101 89.3792 29.0977 89.4098C29.0853 89.4404 29.0672 89.468 29.0443 89.4911C29.0086 89.5237 28.9647 89.5448 28.9178 89.5519C28.8709 89.5589 28.8231 89.5515 28.7801 89.5307Z" fill="#202538"/>
<path d="M27.6479 94.3678C27.1007 93.9622 26.6101 93.5171 26.1006 93.0621C25.606 92.5979 25.1455 92.0953 24.723 91.5585C24.6665 91.4976 24.6349 91.416 24.6349 91.331C24.6349 91.246 24.6665 91.1644 24.723 91.1035C24.7801 91.0499 24.854 91.0204 24.9306 91.0204C25.0072 91.0204 25.0811 91.0499 25.1382 91.1035C25.9968 92.0927 26.9497 93.0225 27.8933 93.9425C27.9161 93.9655 27.9342 93.9932 27.9467 94.0238C27.9591 94.0544 27.9654 94.0873 27.9654 94.1205C27.9654 94.1538 27.9591 94.1867 27.9467 94.2172C27.9342 94.2478 27.9161 94.2755 27.8933 94.2986C27.8623 94.3325 27.8231 94.3569 27.7798 94.3691C27.7366 94.3813 27.691 94.3808 27.6479 94.3678Z" fill="#202538"/>
<path d="M38.0739 104.408C39.1104 104.314 40.1134 103.976 41.0082 103.419C41.8719 102.854 42.5577 102.035 42.9802 101.065C42.9969 101.026 43.0206 100.992 43.0501 100.963C43.0795 100.934 43.1141 100.912 43.1517 100.897C43.1894 100.883 43.2295 100.876 43.2697 100.877C43.3098 100.879 43.3493 100.889 43.3859 100.906C43.4224 100.924 43.4553 100.949 43.4827 100.98C43.5101 101.011 43.5314 101.047 43.5454 101.086C43.5594 101.126 43.5659 101.168 43.5644 101.21C43.5629 101.252 43.5536 101.293 43.5368 101.332C43.0961 102.463 42.314 103.411 41.3101 104.032C40.3219 104.594 39.217 104.893 38.0927 104.903C38.0302 104.903 37.9702 104.877 37.9259 104.83C37.8817 104.784 37.8568 104.721 37.8568 104.655C37.8568 104.59 37.8817 104.527 37.9259 104.481C37.9702 104.434 38.0302 104.408 38.0927 104.408H38.0739Z" fill="#202538"/>
<path d="M97.9214 115.032C96.9212 114.775 95.9588 114.379 94.9681 114.043C91.2601 112.935 88.7692 108.988 87.8634 105.041C87.5049 103.518 87.7502 102.914 89.0711 102.143C97.7043 97.1078 101.695 83.3482 112.178 78.6792C121.236 74.6631 134.237 86.1971 125.5 101.658C123.255 105.615 122.547 107.593 120.415 111.55C118.528 115.032 117.471 120.918 117.952 123.054C118.047 123.307 118.082 123.58 118.054 123.85C118.026 124.12 117.935 124.378 117.79 124.603C117.645 124.828 117.45 125.013 117.222 125.141C116.994 125.269 116.739 125.337 116.48 125.339C114.683 125.553 112.864 125.35 111.15 124.746C101.941 121.056 103.507 116.447 97.9214 115.032Z" fill="#51331E"/>
<path d="M95.789 104.517C95.48 105.586 95.5572 106.738 96.006 107.752C96.2707 108.227 96.6289 108.638 97.0568 108.957C97.4846 109.275 97.9723 109.495 98.4875 109.601C100.69 110.119 102.854 110.807 104.96 111.659C106.042 112.156 106.977 112.949 107.668 113.954C108.249 114.946 108.898 115.891 109.612 116.783C110.307 117.666 111.12 118.439 112.027 119.078C112.889 119.721 113.933 120.041 114.99 119.988C115.071 119.982 115.151 120.01 115.212 120.066C115.274 120.121 115.313 120.2 115.32 120.285C115.324 120.326 115.32 120.368 115.308 120.408C115.296 120.448 115.277 120.485 115.252 120.517C115.226 120.55 115.195 120.576 115.16 120.596C115.125 120.615 115.086 120.627 115.046 120.631C113.85 120.702 112.665 120.354 111.678 119.642C110.723 118.966 109.862 118.153 109.121 117.228C108.396 116.319 107.734 115.357 107.14 114.349C106.504 113.443 105.656 112.724 104.677 112.262C102.609 111.413 100.487 110.716 98.3271 110.175C97.736 110.048 97.1777 109.789 96.6895 109.418C96.2013 109.046 95.7946 108.569 95.4965 108.019C94.9959 106.875 94.9218 105.576 95.2889 104.378C95.2964 104.346 95.3102 104.317 95.3293 104.29C95.3484 104.264 95.3724 104.243 95.3999 104.227C95.4274 104.211 95.4578 104.201 95.489 104.199C95.5202 104.196 95.5517 104.2 95.5814 104.21C95.6112 104.219 95.6389 104.234 95.663 104.255C95.6872 104.275 95.7073 104.3 95.7222 104.329C95.7371 104.357 95.7465 104.388 95.7499 104.421C95.7532 104.453 95.7505 104.486 95.7418 104.517H95.789Z" fill="#202538"/>
<path d="M107.007 13.8576C109.933 14.8991 112.566 16.6878 114.667 19.0623C116.769 21.4368 118.274 24.3224 119.047 27.459C120.858 34.0569 119.33 42.4452 124.406 47.5791C128.057 51.2886 133.483 49.9433 138.059 54.9486C141.531 58.7372 140.37 62.9412 137.606 67.3233C135.917 70.0041 134.775 71.0724 135.804 74.1586C138.021 80.7071 146.381 82.2107 142.965 91.4596C138.729 102.905 121.217 106.901 114.98 94.5261C112.15 88.8382 115.414 84.7727 114.725 80.1334C114.339 77.601 112.838 77.2647 110.338 76.3547C108.717 75.7877 107.222 74.8829 105.944 73.6946C104.665 72.5064 103.629 71.0593 102.897 69.4403C102.165 67.8214 101.754 66.064 101.687 64.274C101.62 62.4839 101.899 60.6982 102.507 59.024C103.582 56.0565 105.554 55.6014 107.441 53.3461C108 52.7458 108.396 52.001 108.59 51.1877C108.784 50.3744 108.768 49.5217 108.545 48.7167C107.555 45.9173 104.177 46.5899 102.035 45.7491C94.9303 43.0486 97.6194 33.8788 89.7127 32.0191C86.6368 31.3069 83.9289 28.9131 84.344 25.0948C84.6385 23.3051 85.2808 21.598 86.2311 20.0796C87.3497 18.0431 88.9013 16.3044 90.7652 14.9988C92.6291 13.6932 94.755 12.8559 96.9778 12.5519C101.101 12.0969 102.639 12.2749 107.007 13.8576Z" fill="#202538"/>
<path d="M89.4296 16.657C88.5158 17.6782 87.6798 18.773 86.9293 19.9312C86.5722 20.5057 86.2568 21.1075 85.9858 21.7316C85.7009 22.3337 85.5037 22.9773 85.4008 23.6407C85.3961 23.6824 85.3836 23.7227 85.364 23.7593C85.3443 23.7959 85.3179 23.828 85.2863 23.8538C85.2547 23.8795 85.2185 23.8985 85.1798 23.9094C85.1412 23.9204 85.1008 23.9232 85.0611 23.9177C84.9826 23.9077 84.911 23.8659 84.8616 23.8012C84.8122 23.7364 84.789 23.6539 84.7969 23.5715C84.8773 22.8264 85.085 22.1026 85.4102 21.4348C85.7056 20.777 86.056 20.1481 86.4575 19.5553C87.2533 18.3804 88.1536 17.2874 89.1466 16.291C89.1677 16.2674 89.1933 16.2485 89.2217 16.2356C89.2501 16.2227 89.2807 16.2161 89.3117 16.2161C89.3426 16.2161 89.3732 16.2227 89.4016 16.2356C89.43 16.2485 89.4556 16.2674 89.4768 16.291C89.4979 16.3131 89.5147 16.3393 89.5261 16.3681C89.5375 16.397 89.5434 16.4279 89.5434 16.4592C89.5434 16.4904 89.5375 16.5214 89.5261 16.5502C89.5147 16.5791 89.4979 16.6053 89.4768 16.6273L89.4296 16.657Z" fill="#3D4357"/>
<path d="M110.121 60.3496C113.651 61.6811 116.668 64.19 118.707 67.4915C119.677 69.1855 120.228 71.1065 120.311 73.0804C120.327 75.0153 120.214 76.949 119.971 78.8672C119.735 80.7392 119.809 82.6399 120.188 84.4858C120.675 86.2923 121.546 87.9596 122.736 89.3625C125.233 92.1196 128.299 94.2411 131.699 95.5647C131.738 95.5788 131.773 95.601 131.802 95.6301C131.832 95.6591 131.855 95.6942 131.871 95.7333C131.887 95.7724 131.895 95.8145 131.895 95.857C131.895 95.8995 131.886 95.9414 131.869 95.9802C131.838 96.0577 131.779 96.1196 131.705 96.1528C131.631 96.1859 131.548 96.1879 131.473 96.1582C127.975 94.8039 124.821 92.6243 122.255 89.7879C121 88.3089 120.084 86.5498 119.575 84.6441C119.171 82.728 119.094 80.752 119.349 78.8078C119.6 76.9201 119.726 75.0162 119.726 73.1101C119.658 71.2326 119.142 69.403 118.226 67.7883C116.265 64.5773 113.356 62.1278 109.942 60.8145C109.913 60.8036 109.886 60.7866 109.864 60.7645C109.841 60.7424 109.823 60.7157 109.811 60.6861C109.798 60.6564 109.792 60.6245 109.792 60.5921C109.791 60.5598 109.798 60.5277 109.81 60.4979C109.833 60.4356 109.878 60.3852 109.937 60.3575C109.995 60.3298 110.061 60.3269 110.121 60.3496Z" fill="#3D4357"/>
<path d="M106.281 13.6301C107.786 14.2676 109.252 15.0043 110.668 15.836C112.077 16.7236 113.423 17.7153 114.697 18.8036C118.551 22.0278 121.547 26.2386 123.396 31.03C124.028 32.6226 124.444 34.2745 124.963 35.8671C125.456 37.4638 126.088 39.01 126.85 40.4866C127.221 41.211 127.688 41.877 128.237 42.465C128.754 43.0238 129.442 43.374 130.18 43.4542C130.261 43.4618 130.336 43.5022 130.389 43.5669C130.442 43.6316 130.469 43.7154 130.463 43.8004C130.461 43.842 130.451 43.8827 130.433 43.9201C130.416 43.9576 130.391 43.9911 130.362 44.0186C130.332 44.0462 130.297 44.0673 130.26 44.0808C130.222 44.0943 130.182 44.0998 130.142 44.0972C129.256 44.0022 128.431 43.5817 127.812 42.9101C127.191 42.2934 126.658 41.5873 126.227 40.813C125.463 39.2967 124.831 37.7108 124.34 36.0748C123.811 34.4526 123.396 32.8303 122.783 31.2773C122.183 29.7233 121.467 28.2216 120.641 26.7863C118.974 23.912 116.856 21.3535 114.376 19.219C113.126 18.1662 111.808 17.2044 110.432 16.3405C109.043 15.4957 107.602 14.7456 106.12 14.095C106.063 14.0688 106.017 14.0202 105.992 13.9595C105.968 13.8987 105.966 13.8304 105.988 13.7686C106.011 13.7111 106.054 13.6648 106.109 13.6392C106.163 13.6135 106.224 13.6102 106.281 13.6301Z" fill="#202538"/>
<path d="M88.524 154.466C83.7901 158.258 81.308 162.805 78.8886 168.997C76.9302 174.044 75.3592 179.319 73.5997 184.487C71.4213 190.855 68.5097 196.98 64.31 201.473C58.2367 207.767 50.5414 210.87 42.7666 210.162C41.6947 210.034 40.6393 209.735 39.6247 209.272C39.6247 209.272 45.6991 228.026 57.848 231.561C59.7018 232.038 61.5969 232.192 63.4826 232.02C76.2599 231.197 75.8933 217.839 86.9216 214.938C95.0069 212.807 104.297 220.457 116.833 205.669C121.661 199.962 125.013 187.198 128.353 177.686C134.637 159.796 149.446 151.512 157.218 153.508C158.61 153.873 160.496 154.601 160.161 152.429C158.904 144.523 150.127 133.122 140.942 132.407C129.82 131.53 128.301 136.859 122.625 143.632C113.105 155.02 106.192 146.047 93.7815 150.864C91.8717 151.637 90.0892 152.858 88.524 154.466Z" fill="#6E7289"/>
<mask id="mask1_9_417" style="mask-type:luminance" maskUnits="userSpaceOnUse" x="41" y="132" width="120" height="101">
<path d="M88.8603 154.838L88.8365 154.857C84.2031 158.568 81.761 163.019 79.3544 169.179C78.0396 172.567 76.9034 176.049 75.7619 179.546C75.2072 181.246 74.6513 182.949 74.073 184.648L74.0728 184.648C70.3199 195.63 64.5306 202.803 58.7505 206.97C52.9924 211.122 47.19 212.32 43.4429 211.222L43.4358 211.22C42.9171 211.06 42.3907 210.949 41.8607 210.889C41.7618 210.882 41.7299 210.907 41.7153 210.92C41.6884 210.944 41.6336 211.013 41.594 211.186C41.5122 211.544 41.5403 212.145 41.7288 212.971C42.1004 214.601 43.0403 216.875 44.4755 219.289C47.3513 224.126 52.1172 229.36 58.0115 231.079C59.808 231.54 61.6431 231.689 63.4685 231.522L63.4819 231.521L63.4819 231.521C69.6404 231.124 72.6247 227.738 75.4909 223.956C75.7207 223.653 75.9499 223.347 76.1802 223.039C78.8093 219.528 81.5724 215.837 86.8258 214.455C88.9365 213.899 91.1074 213.985 93.3168 214.172C93.7517 214.209 94.1878 214.249 94.6259 214.29C96.4352 214.459 98.2796 214.63 100.219 214.55C104.97 214.354 110.298 212.641 116.483 205.346C118.833 202.568 120.853 198.027 122.713 192.933C123.639 190.395 124.52 187.737 125.379 185.113C125.49 184.775 125.601 184.437 125.711 184.099C126.454 181.827 127.184 179.597 127.913 177.521C131.088 168.482 136.421 161.856 141.961 157.738C147.477 153.638 153.279 151.972 157.373 153.024L157.375 153.025C157.517 153.062 157.653 153.099 157.788 153.137C158.012 153.199 158.231 153.259 158.457 153.312C158.814 153.395 159.109 153.437 159.332 153.421C159.546 153.406 159.616 153.345 159.651 153.292C159.702 153.213 159.774 153.002 159.698 152.505C159.088 148.671 156.636 143.93 153.183 140.054C149.725 136.172 145.345 133.248 140.935 132.905L140.934 132.905C135.468 132.474 132.448 133.569 130.093 135.534C128.897 136.533 127.854 137.771 126.744 139.204C126.421 139.62 126.092 140.054 125.753 140.502C124.932 141.584 124.049 142.749 123.04 143.953C123.04 143.953 123.039 143.953 123.039 143.953L122.656 143.632C117.029 150.362 112.314 149.981 106.835 149.537C103.044 149.23 98.8885 148.894 93.8129 150.864L88.8603 154.838ZM88.8603 154.838L88.8817 154.816C90.4113 153.249 92.1465 152.07 93.9962 151.329L88.8603 154.838Z" fill="white" stroke="white"/>
</mask>
<g mask="url(#mask1_9_417)">
<path d="M136.25 127.563C136.431 129.546 136.487 131.545 136.418 133.54C136.359 135.525 136.205 137.503 135.957 139.463C135.698 141.426 135.348 143.368 134.91 145.278C134.485 147.19 133.974 149.069 133.381 150.904L133.119 150.311C136.893 151.118 140.565 152.584 144.032 154.669C145.772 155.679 147.45 156.86 149.049 158.204C150.652 159.549 152.166 161.066 153.573 162.737C153.605 162.777 153.631 162.826 153.649 162.879C153.666 162.932 153.675 162.99 153.675 163.047C153.675 163.105 153.666 163.163 153.649 163.216C153.631 163.269 153.605 163.317 153.573 163.358C153.507 163.435 153.421 163.479 153.332 163.479C153.243 163.479 153.157 163.435 153.091 163.358C151.711 161.729 150.229 160.249 148.661 158.932C147.086 157.619 145.437 156.46 143.728 155.465C142.026 154.462 140.277 153.596 138.492 152.874C136.705 152.145 134.882 151.572 133.035 151.161L132.606 151.066L132.763 150.554C133.355 148.752 133.869 146.91 134.302 145.035C134.741 143.162 135.091 141.256 135.35 139.328C135.608 137.4 135.772 135.454 135.842 133.499C135.926 131.551 135.884 129.597 135.716 127.657C135.71 127.613 135.712 127.567 135.72 127.523C135.729 127.479 135.745 127.438 135.766 127.403C135.788 127.367 135.815 127.338 135.846 127.316C135.877 127.295 135.912 127.283 135.947 127.28C135.981 127.272 136.016 127.273 136.05 127.283C136.084 127.293 136.117 127.312 136.145 127.339C136.173 127.365 136.197 127.399 136.215 127.437C136.233 127.476 136.245 127.518 136.25 127.563Z" fill="#202538"/>
<path d="M120.394 137.642C121.063 142.934 121.441 148.282 121.525 153.643C121.563 156.347 121.469 159.051 121.242 161.739C121.035 164.448 120.509 167.1 119.682 169.605L119.347 168.971C121.586 168.81 123.832 168.9 126.06 169.24C128.285 169.555 130.49 170.074 132.658 170.792C134.826 171.486 136.951 172.388 139.015 173.49C141.083 174.6 143.086 175.903 145.006 177.39C145.045 177.418 145.079 177.455 145.106 177.5C145.133 177.546 145.153 177.597 145.165 177.653C145.177 177.708 145.18 177.766 145.174 177.822C145.168 177.879 145.154 177.934 145.131 177.983C145.086 178.082 145.012 178.153 144.926 178.183C144.84 178.213 144.749 178.2 144.671 178.145C142.775 176.693 140.801 175.417 138.764 174.327C136.725 173.225 134.624 172.323 132.48 171.628C130.343 170.924 128.169 170.418 125.976 170.117C123.79 169.787 121.587 169.693 119.388 169.834H118.802L119.053 169.159C119.858 166.746 120.373 164.189 120.582 161.577C120.822 158.939 120.93 156.285 120.907 153.63C120.852 148.307 120.502 142.995 119.86 137.736C119.854 137.692 119.855 137.646 119.863 137.602C119.871 137.558 119.885 137.517 119.906 137.481C119.926 137.444 119.952 137.413 119.982 137.39C120.012 137.367 120.045 137.351 120.08 137.345C120.115 137.337 120.152 137.339 120.187 137.35C120.223 137.36 120.256 137.38 120.285 137.408C120.315 137.436 120.339 137.47 120.358 137.511C120.377 137.551 120.389 137.595 120.394 137.642Z" fill="#202538"/>
<path d="M109.345 146.965C109.25 153.387 108.999 159.809 108.528 166.205C108.287 169.402 107.983 172.6 107.48 175.771C107.251 177.366 106.95 178.942 106.58 180.493C106.386 181.281 106.144 182.048 105.857 182.787C105.577 183.603 105.118 184.297 104.537 184.783L104.307 183.96C106.878 183.462 109.483 183.313 112.078 183.515C114.667 183.688 117.243 184.098 119.786 184.743C122.324 185.418 124.823 186.32 127.264 187.441C128.5 187.927 129.684 188.615 130.888 189.222C132.092 189.829 133.234 190.572 134.417 191.3C134.498 191.35 134.561 191.438 134.592 191.547C134.624 191.655 134.621 191.774 134.585 191.88C134.546 191.984 134.478 192.065 134.394 192.106C134.31 192.146 134.217 192.142 134.135 192.096C132.972 191.422 131.82 190.679 130.647 190.045C129.474 189.411 128.28 188.777 127.065 188.291C124.65 187.204 122.18 186.333 119.671 185.687C117.163 185.044 114.622 184.643 112.068 184.487C109.529 184.301 106.982 184.441 104.464 184.905L102.527 185.283L104.234 184.068C104.689 183.654 105.051 183.09 105.281 182.436C105.56 181.749 105.792 181.031 105.972 180.29C106.342 178.776 106.643 177.236 106.873 175.676C107.344 172.546 107.658 169.375 107.92 166.232C108.423 159.863 108.695 153.454 108.821 147.059C108.821 146.97 108.849 146.884 108.898 146.821C108.947 146.757 109.013 146.722 109.083 146.722C109.141 146.721 109.198 146.744 109.245 146.788C109.292 146.832 109.327 146.894 109.345 146.965Z" fill="#202538"/>
<path d="M91.666 149.42C91.666 157.3 91.5089 165.166 90.9957 173.018C90.7339 176.944 90.3778 180.871 89.8227 184.756C89.5614 186.71 89.2117 188.643 88.7754 190.545C88.3458 192.497 87.6353 194.327 86.6807 195.941L86.3665 195.213C89.4972 194.776 92.6522 194.709 95.7924 195.01C98.9346 195.263 102.06 195.795 105.145 196.603C108.229 197.4 111.269 198.454 114.246 199.76C117.222 201.061 120.135 202.589 122.97 204.334C123.052 204.382 123.116 204.47 123.147 204.579C123.179 204.688 123.175 204.808 123.138 204.914C123.1 205.019 123.032 205.101 122.947 205.142C122.863 205.182 122.769 205.178 122.688 205.13C119.876 203.398 116.988 201.884 114.037 200.596C111.087 199.302 108.075 198.261 105.019 197.48C101.965 196.683 98.8714 196.16 95.761 195.914C92.6628 195.619 89.5503 195.683 86.4608 196.103L85.5915 196.225L86.1466 195.375C87.0256 193.831 87.6786 192.093 88.0737 190.248C88.5123 188.388 88.8621 186.496 89.121 184.581C89.697 180.736 90.0531 176.836 90.3359 172.924C90.87 165.112 91.0899 157.246 91.0795 149.393C91.0794 149.303 91.1067 149.215 91.1555 149.15C91.2043 149.084 91.2709 149.046 91.3413 149.042C91.3827 149.034 91.4249 149.038 91.465 149.054C91.5051 149.069 91.542 149.096 91.5731 149.132C91.6041 149.168 91.6286 149.213 91.6446 149.263C91.6607 149.313 91.668 149.366 91.666 149.42Z" fill="#202538"/>
<path d="M75.5373 174.853C75.8096 180.412 75.9143 185.971 75.7886 191.543C75.7153 194.336 75.5896 197.115 75.3278 199.895C75.128 202.728 74.6349 205.514 73.8615 208.179L73.5578 207.558C78.3574 207.879 83.0921 209.13 87.6024 211.269C89.8613 212.32 92.0274 213.677 94.0643 215.316C96.1087 216.977 97.966 218.993 99.5837 221.307C99.6276 221.396 99.6454 221.503 99.6336 221.608C99.6218 221.713 99.5814 221.809 99.5195 221.879C99.4576 221.949 99.3784 221.989 99.2961 221.99C99.2138 221.991 99.1338 221.955 99.0705 221.887C97.4986 219.632 95.6903 217.67 93.6977 216.058C91.7177 214.432 89.6118 213.076 87.4138 212.011C85.199 210.95 82.9228 210.115 80.6063 209.515C78.2926 208.903 75.9474 208.511 73.5892 208.341H73.0865L73.2855 207.747C74.0522 205.192 74.5455 202.514 74.7518 199.787C75.0241 197.088 75.1707 194.282 75.2545 191.516C75.4011 185.984 75.3278 180.425 75.0869 174.894C75.084 174.849 75.088 174.805 75.0986 174.762C75.1092 174.72 75.1261 174.681 75.1485 174.647C75.1709 174.613 75.1983 174.585 75.229 174.565C75.2598 174.545 75.2934 174.533 75.3278 174.529C75.3852 174.547 75.4367 174.588 75.4745 174.646C75.5123 174.705 75.5343 174.777 75.5373 174.853Z" fill="#202538"/>
<path d="M60.4455 198.734C60.4175 199.12 60.4175 199.509 60.4455 199.895L60.5816 201.244L60.8225 203.834C60.9764 205.582 61.0568 207.338 61.0634 209.096C61.077 210.862 60.9542 212.624 60.6968 214.358C60.4511 216.133 59.9465 217.831 59.2096 219.364L59.0316 218.703C60.5589 219.383 62.0435 220.213 63.4722 221.185C64.9232 222.115 66.3199 223.179 67.651 224.37C70.3277 226.772 72.5447 229.928 74.1339 233.598C74.1746 233.702 74.182 233.823 74.1546 233.934C74.1272 234.045 74.0671 234.137 73.9873 234.192C73.9081 234.244 73.8162 234.253 73.7318 234.217C73.6473 234.182 73.5773 234.105 73.5369 234.003C71.9906 230.458 69.8425 227.41 67.253 225.085C65.9664 223.896 64.6154 222.827 63.2104 221.887C61.814 220.942 60.3688 220.121 58.885 219.431L58.466 219.243L58.7069 218.77C59.4052 217.338 59.8884 215.75 60.1313 214.088C60.3918 212.405 60.5216 210.692 60.5188 208.975C60.5254 207.249 60.4589 205.524 60.3198 203.807L60.0998 201.217L59.9742 199.868C59.925 199.389 59.925 198.903 59.9742 198.424C59.9839 198.335 60.0208 198.254 60.0768 198.199C60.1328 198.145 60.2032 198.121 60.2727 198.134C60.3421 198.146 60.4048 198.194 60.4471 198.266C60.4893 198.338 60.5075 198.429 60.4978 198.518L60.4455 198.734Z" fill="#202538"/>
</g>
<path d="M154.568 147.464C149.206 146.857 143.707 146.465 138.502 148.233C135.905 149.094 133.476 150.642 131.37 152.78C129.305 155.005 127.436 157.516 125.798 160.268C122.523 165.867 118.806 171.012 114.707 175.622C110.525 180.141 105.885 183.904 100.914 186.807C96.0227 189.829 90.9851 192.474 86.4502 196.252C84.188 198.114 82.1458 200.394 79.9988 202.539C77.8518 204.684 75.6105 206.708 73.3588 208.651C71.107 210.594 68.8762 212.564 66.5721 214.426C64.2788 216.346 61.8569 217.999 59.3352 219.364C58.0514 220.013 56.7222 220.5 55.3658 220.821C53.9806 221.103 52.5743 221.17 51.1766 221.023C48.4234 220.659 45.7592 219.561 43.3531 217.799C43.2743 217.739 43.2163 217.643 43.1909 217.53C43.1656 217.417 43.1749 217.296 43.217 217.192C43.2628 217.093 43.3363 217.022 43.4222 216.992C43.508 216.962 43.5996 216.975 43.6778 217.03C45.9972 218.74 48.57 219.802 51.2289 220.146C52.5536 220.282 53.8861 220.214 55.1983 219.944C56.5069 219.655 57.7907 219.204 59.0315 218.595C61.5123 217.251 63.8955 215.625 66.1532 213.738C68.4364 211.876 70.6776 209.919 72.9189 207.963C75.1602 206.007 77.3805 204.037 79.517 201.892C81.6535 199.746 83.7063 197.439 86.0208 195.55C90.6395 191.745 95.6876 189.074 100.568 186.106C105.474 183.245 110.055 179.537 114.183 175.082C118.266 170.521 121.966 165.42 125.222 159.863C126.89 157.072 128.793 154.529 130.898 152.281C133.062 150.083 135.559 148.497 138.23 147.626C143.56 145.818 149.111 146.277 154.484 146.884C154.519 146.887 154.554 146.9 154.585 146.921C154.617 146.942 154.645 146.971 154.667 147.006C154.69 147.041 154.707 147.082 154.716 147.126C154.726 147.17 154.729 147.216 154.725 147.262C154.713 147.308 154.692 147.351 154.665 147.386C154.637 147.421 154.604 147.448 154.568 147.464Z" fill="#202538"/>
<path d="M138.455 190.161C135.974 190.193 133.514 189.748 131.252 188.856C128.991 187.965 126.983 186.649 125.371 185.003C116.08 175.712 120.416 164.129 124.878 167.446C126.25 168.45 127.421 169.646 128.342 170.984C131.882 176.186 132.387 180.694 133.032 183.967C133.159 184.617 133.247 184.65 133.98 184.375C137.182 183.132 140.492 182.111 143.878 181.322C146.925 180.639 151.21 179.647 154.295 180.462C156.469 181.024 156.899 183.218 153.031 185.653C149.772 187.687 146.045 189.078 142.109 189.731C140.913 189.991 139.688 190.136 138.455 190.161Z" fill="#E89196"/>
<path d="M144.566 139.593C146.235 140.524 147.596 141.828 148.509 143.371C150.205 146.322 151.26 149.524 151.621 152.817C151.759 153.572 151.784 153.572 152.44 153.172C157.634 149.915 163.495 147.58 169.699 146.294C172.218 145.805 174.561 147.738 171.563 150.739C166.788 155.55 149.126 165.185 142.349 153.661C138.343 146.872 139.401 136.859 144.566 139.593Z" fill="#E89196"/>
<path d="M137.664 171.987C133.064 168.172 131.966 158.992 133.625 156.694C135.431 154.198 138.36 157.398 139.36 158.893C141.371 161.759 142.697 164.972 143.252 168.326C143.521 170.03 144.656 166.864 157.748 164.588C159.505 164.297 161.303 164.274 163.067 164.522C163.444 164.601 163.796 164.76 164.092 164.985C164.389 165.21 164.621 165.496 164.769 165.818C164.918 166.141 164.981 166.49 164.949 166.839C164.918 167.187 164.796 167.524 164.593 167.821C161.725 172.735 144.778 177.892 137.664 171.998" fill="#E89196"/>
<path d="M147.955 131.946C147.816 130.56 148.107 128.1 149.575 127.24C152.206 125.686 154.876 130.37 155.597 131.946C158.722 138.743 157.887 138.654 158.595 140.04C158.684 140.23 158.899 140.208 159.038 140.04C159.177 139.872 168.83 130.951 175.143 130.918C181.772 130.918 169.083 144.892 158.949 145.753C152.055 146.39 148.537 138.162 147.955 131.946Z" fill="#E89196"/>
<path d="M156.972 121.576C156.488 113.03 161.936 111.754 164.291 121.909C165.36 126.526 164.151 122.442 170.656 117.991C171.929 117.136 174.895 115.971 174.971 118.28C175.086 121.232 173.138 124.439 171.063 126.681C166.201 131.964 160.969 133.563 158.181 127.336C157.289 125.519 156.876 123.55 156.972 121.576Z" fill="#E89196"/>
<path d="M159.765 117.263C159.685 118.838 159.803 120.415 160.115 121.971C160.385 123.515 160.988 125.008 161.894 126.383C161.923 126.425 161.941 126.472 161.948 126.521C161.955 126.569 161.95 126.618 161.933 126.664C161.916 126.711 161.888 126.755 161.849 126.793C161.811 126.83 161.765 126.861 161.712 126.884C161.609 126.929 161.489 126.94 161.377 126.914C161.263 126.889 161.168 126.829 161.109 126.747C160.104 125.309 159.453 123.725 159.191 122.085C158.921 120.468 158.873 118.831 159.051 117.206C159.062 117.13 159.108 117.06 159.181 117.011C159.255 116.962 159.349 116.938 159.443 116.945C159.533 116.953 159.614 116.988 159.674 117.043C159.733 117.097 159.765 117.168 159.765 117.241V117.263Z" fill="black"/>
<path d="M171.97 119.452C171.434 120.87 170.702 122.215 169.792 123.458C168.898 124.715 167.818 125.85 166.583 126.829C166.514 126.893 166.42 126.928 166.323 126.928C166.225 126.928 166.131 126.893 166.062 126.829C165.996 126.764 165.959 126.678 165.959 126.588C165.959 126.498 165.996 126.412 166.062 126.346C167.21 125.383 168.235 124.303 169.12 123.125C170.042 121.946 170.819 120.674 171.437 119.334C171.451 119.301 171.472 119.27 171.499 119.244C171.526 119.218 171.558 119.198 171.593 119.184C171.629 119.17 171.667 119.162 171.707 119.162C171.745 119.162 171.783 119.17 171.819 119.184C171.869 119.212 171.908 119.252 171.935 119.299C171.962 119.346 171.973 119.399 171.97 119.452Z" fill="black"/>
<path d="M172.862 135.202C172.075 135.83 171.225 136.478 170.363 137.076C169.501 137.673 168.613 138.261 167.689 138.808C166.769 139.368 165.8 139.872 164.789 140.317C163.768 140.795 162.659 141.137 161.503 141.33C161.447 141.346 161.387 141.353 161.327 141.349C161.268 141.345 161.209 141.33 161.158 141.306C161.105 141.282 161.06 141.249 161.025 141.209C160.992 141.17 160.968 141.125 160.957 141.078C160.946 141.03 160.947 140.98 160.962 140.934C160.977 140.886 161.004 140.843 161.042 140.805C161.079 140.768 161.127 140.737 161.18 140.716C161.234 140.694 161.293 140.683 161.353 140.682C162.416 140.465 163.435 140.123 164.377 139.669C165.357 139.237 166.302 138.754 167.201 138.22C168.114 137.704 169.001 137.147 169.876 136.57C170.75 135.992 171.575 135.395 172.437 134.767C172.497 134.72 172.579 134.694 172.662 134.694C172.746 134.694 172.827 134.72 172.887 134.767C172.942 134.815 172.972 134.878 172.972 134.944C172.972 135.01 172.942 135.073 172.887 135.121L172.862 135.202Z" fill="black"/>
<path d="M166.888 150.611C165.312 151.99 163.547 153.179 161.638 154.146C159.717 155.178 157.535 155.738 155.307 155.772C155.257 155.772 155.207 155.762 155.161 155.745C155.114 155.726 155.072 155.699 155.037 155.666C155.003 155.632 154.977 155.593 154.96 155.55C154.942 155.506 154.935 155.46 154.939 155.414C154.939 155.322 154.979 155.234 155.05 155.169C155.122 155.104 155.218 155.067 155.319 155.067C156.349 155.047 157.371 154.901 158.359 154.634C159.357 154.346 160.327 153.984 161.258 153.549C163.123 152.651 164.869 151.56 166.46 150.297C166.519 150.248 166.596 150.222 166.675 150.225C166.754 150.229 166.829 150.26 166.882 150.313C166.935 150.366 166.964 150.437 166.96 150.509C166.957 150.581 166.922 150.649 166.864 150.698L166.888 150.611Z" fill="black"/>
<path d="M161.757 167.286C160.587 167.868 159.354 168.368 158.073 168.781C156.781 169.219 155.565 169.625 154.286 169.992C153.014 170.361 151.72 170.68 150.408 170.948C149.053 171.24 147.647 171.353 146.245 171.283C146.146 171.264 146.059 171.217 146 171.152C145.94 171.087 145.913 171.006 145.922 170.926C145.931 170.846 145.977 170.772 146.05 170.716C146.124 170.66 146.221 170.626 146.323 170.622C147.631 170.669 148.939 170.552 150.201 170.276C151.494 170.022 152.786 169.697 154.079 169.361C155.372 169.025 156.664 168.629 157.841 168.222C159.063 167.841 160.255 167.399 161.408 166.9H161.499C161.573 166.866 161.66 166.857 161.742 166.874C161.825 166.892 161.896 166.933 161.938 166.991C161.96 167.049 161.954 167.111 161.92 167.166C161.887 167.221 161.828 167.264 161.757 167.286Z" fill="black"/>
<path d="M151.689 183.021C150.573 183.508 149.308 184.117 148.08 184.592C146.84 185.094 145.574 185.529 144.286 185.895C141.694 186.694 138.969 186.988 136.263 186.76C136.156 186.748 136.059 186.695 135.991 186.612C135.924 186.531 135.893 186.426 135.903 186.321C135.916 186.217 135.969 186.122 136.053 186.055C136.136 185.989 136.243 185.959 136.35 185.968C138.953 186.147 141.565 185.857 144.063 185.116C145.324 184.775 146.566 184.369 147.783 183.898C149.023 183.435 150.176 182.924 151.503 182.412C151.582 182.388 151.668 182.393 151.744 182.426C151.819 182.46 151.879 182.521 151.912 182.595C151.941 182.669 151.938 182.752 151.906 182.825C151.874 182.897 151.813 182.954 151.739 182.985L151.689 183.021Z" fill="black"/>
<path d="M123.543 170.444C123.953 172.66 124.56 174.848 125.359 176.989C126.085 179.123 127.247 181.136 128.798 182.941C128.832 182.977 128.858 183.019 128.872 183.063C128.888 183.107 128.891 183.154 128.885 183.199C128.878 183.244 128.86 183.288 128.833 183.328C128.806 183.368 128.77 183.404 128.727 183.432C128.684 183.46 128.633 183.481 128.58 183.493C128.527 183.506 128.471 183.509 128.417 183.504C128.362 183.499 128.309 183.484 128.261 183.461C128.213 183.438 128.17 183.409 128.136 183.372C126.47 181.518 125.241 179.417 124.516 177.183C123.745 174.998 123.198 172.762 122.881 170.498C122.873 170.463 122.876 170.426 122.886 170.392C122.897 170.356 122.916 170.324 122.943 170.295C122.971 170.266 123.004 170.243 123.042 170.226C123.081 170.209 123.124 170.199 123.167 170.196C123.251 170.187 123.336 170.206 123.404 170.248C123.471 170.29 123.517 170.353 123.53 170.423L123.543 170.444Z" fill="black"/>
<path d="M135.554 158.233C135.754 160.27 136.168 162.288 136.789 164.256C137.346 166.209 138.369 168.031 139.789 169.597C139.828 169.629 139.857 169.668 139.878 169.711C139.898 169.752 139.909 169.799 139.909 169.845C139.909 169.891 139.898 169.937 139.878 169.979C139.857 170.022 139.828 170.061 139.789 170.093C139.715 170.158 139.615 170.194 139.511 170.194C139.408 170.194 139.308 170.158 139.234 170.093C137.684 168.463 136.584 166.533 136.023 164.455C135.408 162.432 135.032 160.358 134.899 158.266C134.899 158.193 134.932 158.123 134.99 158.071C135.048 158.019 135.127 157.991 135.208 157.991C135.29 157.991 135.369 158.019 135.427 158.071C135.485 158.123 135.517 158.193 135.517 158.266L135.554 158.233Z" fill="black"/>
<path d="M143.545 141.663C143.524 142.693 143.59 143.724 143.745 144.744C143.9 145.764 144.152 146.77 144.498 147.748C144.835 148.722 145.286 149.658 145.839 150.54C146.4 151.409 147.062 152.215 147.815 152.943C147.886 153.012 147.924 153.103 147.924 153.198C147.924 153.294 147.886 153.385 147.815 153.454C147.743 153.518 147.649 153.553 147.55 153.553C147.451 153.553 147.357 153.518 147.286 153.454C146.46 152.702 145.745 151.849 145.156 150.918C144.565 149.994 144.094 149.003 143.757 147.97C143.074 145.914 142.803 143.756 142.957 141.607C142.96 141.57 142.971 141.535 142.987 141.502C143.005 141.469 143.03 141.44 143.059 141.417C143.088 141.392 143.123 141.375 143.16 141.363C143.197 141.352 143.235 141.348 143.274 141.351C143.351 141.357 143.421 141.39 143.471 141.445C143.521 141.498 143.548 141.568 143.545 141.64V141.663Z" fill="black"/>
<path d="M151.487 129.461C151.615 130.342 151.893 131.432 152.137 132.406C152.38 133.38 152.705 134.389 153.053 135.363C153.382 136.333 153.769 137.281 154.213 138.204C154.63 139.111 155.173 139.955 155.826 140.709C155.862 140.744 155.89 140.785 155.91 140.831C155.929 140.877 155.94 140.926 155.94 140.976C155.94 141.025 155.929 141.074 155.91 141.12C155.89 141.166 155.862 141.207 155.826 141.242C155.754 141.312 155.659 141.35 155.559 141.35C155.459 141.35 155.364 141.312 155.292 141.242C154.551 140.451 153.947 139.542 153.506 138.552C153.052 137.602 152.665 136.621 152.345 135.618C152.021 134.621 151.731 133.612 151.487 132.592C151.213 131.554 151.026 130.495 150.93 129.426C150.932 129.358 150.96 129.292 151.007 129.241C151.053 129.19 151.116 129.157 151.184 129.149C151.253 129.141 151.322 129.157 151.38 129.195C151.437 129.234 151.48 129.29 151.499 129.357L151.487 129.461Z" fill="black"/>
<path d="M164.943 125.061C162.792 131.88 160.216 138.591 157.225 145.163C155.719 148.449 154.084 151.685 152.318 154.869C150.573 158.042 148.942 161.281 147.085 164.432C143.352 170.712 139.222 176.804 134.71 182.679C130.23 188.563 125.499 194.294 120.654 199.949C120.627 199.996 120.588 200.037 120.54 200.069C120.492 200.102 120.438 200.125 120.379 200.137C120.32 200.149 120.259 200.151 120.2 200.14C120.141 200.129 120.085 200.107 120.037 200.075C119.988 200.043 119.948 200.002 119.92 199.955C119.891 199.909 119.875 199.857 119.871 199.805C119.869 199.752 119.877 199.699 119.9 199.65C119.923 199.601 119.958 199.557 120.002 199.52C129.64 188.223 138.952 176.629 146.357 164.102C148.214 160.973 149.858 157.756 151.628 154.572C153.397 151.388 155.041 148.183 156.56 144.922C159.573 138.379 162.175 131.698 164.353 124.907C164.377 124.837 164.431 124.779 164.504 124.744C164.577 124.708 164.662 124.7 164.742 124.721C164.82 124.744 164.884 124.792 164.922 124.854C164.96 124.918 164.967 124.993 164.943 125.061Z" fill="black"/>
</svg>
