<svg width="7" height="13" viewBox="0 0 7 13" fill="none" xmlns="http://www.w3.org/2000/svg">
<path d="M1.81667 6.32558L6.71667 11.2256C6.88333 11.3922 6.964 11.5867 6.95867 11.8089C6.95333 12.0311 6.86711 12.2256 6.7 12.3922C6.53333 12.5589 6.33889 12.6422 6.11667 12.6422C5.89444 12.6422 5.7 12.5589 5.53333 12.3922L0.4 7.27558C0.266667 7.14225 0.166667 6.99225 0.1 6.82558C0.0333334 6.65891 0 6.49225 0 6.32558C0 6.15891 0.0333334 5.99225 0.1 5.82558C0.166667 5.65891 0.266667 5.50891 0.4 5.37558L5.53333 0.242248C5.7 0.0755813 5.89733 -0.00508527 6.12533 0.000248062C6.35333 0.0055814 6.55044 0.0918036 6.71667 0.258915C6.88333 0.425581 6.96667 0.620026 6.96667 0.842248C6.96667 1.06447 6.88333 1.25891 6.71667 1.42558L1.81667 6.32558Z" fill="white"/>
</svg>
