<svg width="32" height="32" viewBox="0 0 32 32" fill="none" xmlns="http://www.w3.org/2000/svg">
<path d="M7.22311 2.89301C6.64759 2.32131 5.86931 2.00045 5.05811 2.00045C4.2469 2.00045 3.46862 2.32131 2.89311 2.89301C2.32127 3.47048 2.00049 4.25032 2.00049 5.06301C2.00049 5.8757 2.32127 6.65554 2.89311 7.23301L11.6401 15.977L2.90311 24.722C2.33141 25.2975 2.01055 26.0758 2.01055 26.887C2.01055 27.6982 2.33141 28.4765 2.90311 29.052C3.47862 29.6237 4.2569 29.9446 5.06811 29.9446C5.87931 29.9446 6.65759 29.6237 7.23311 29.052L15.9731 20.308L24.7131 29.043C25.2886 29.6147 26.0669 29.9356 26.8781 29.9356C27.6893 29.9356 28.4676 29.6147 29.0431 29.043C29.6148 28.4675 29.9357 27.6892 29.9357 26.878C29.9357 26.0668 29.6148 25.2885 29.0431 24.713L20.3051 15.974L29.0521 7.22201C29.6238 6.6465 29.9447 5.86822 29.9447 5.05701C29.9447 4.2458 29.6238 3.46753 29.0521 2.89201C27.8521 1.70201 25.9021 1.70201 24.7121 2.89201L15.9721 11.642L7.22211 2.89201L7.22311 2.89301Z" fill="white"/>
</svg>
