<svg width="15" height="15" viewBox="0 0 15 15" fill="none" xmlns="http://www.w3.org/2000/svg">
<path d="M9.52963 0.767745C9.77304 0.52434 10.062 0.33126 10.38 0.19953C10.698 0.0678005 11.0389 2.56469e-09 11.3831 0C11.7274 -2.56469e-09 12.0682 0.0678005 12.3862 0.19953C12.7043 0.33126 12.9932 0.52434 13.2366 0.767745C13.48 1.01115 13.6731 1.30011 13.8048 1.61814C13.9366 1.93616 14.0044 2.27702 14.0044 2.62124C14.0044 2.96547 13.9366 3.30633 13.8048 3.62435C13.6731 3.94238 13.48 4.23134 13.2366 4.47474L12.4576 5.25375L8.75063 1.54674L9.52963 0.767745ZM8.04363 2.25374L1.65763 8.63974C1.28376 9.01386 1.01715 9.48146 0.88563 9.99374L0.0156303 13.3797C-0.00594441 13.464 -0.00517194 13.5524 0.0178714 13.6363C0.0409148 13.7201 0.0854321 13.7965 0.147028 13.8579C0.208623 13.9193 0.285167 13.9636 0.3691 13.9863C0.453033 14.0091 0.541454 14.0096 0.62563 13.9877L4.01063 13.1187C4.52301 12.9875 4.99067 12.7208 5.36463 12.3467L11.7506 5.96074L8.04363 2.25374Z" fill="white"/>
</svg>
