<svg width="50" height="50" viewBox="0 0 50 50" fill="none" xmlns="http://www.w3.org/2000/svg">
<path d="M49.3767 48.7367C49.3125 48.6125 49.24 48.485 49.1733 48.3608C49.01 48.0542 48.8475 47.7483 48.6717 47.4383L48.67 47.435C41.6159 34.9658 25.0451 19.6225 23.8684 18.5392L24.0067 18.4008C24.035 18.3734 24.0575 18.3406 24.0728 18.3043C24.0882 18.2681 24.0961 18.2292 24.0962 18.1897C24.0963 18.1504 24.0885 18.1114 24.0733 18.0751C24.0581 18.0387 24.0357 18.0058 24.0076 17.9783L6.00927 0L0.207618 5.795C0.207618 5.795 -0.203214 6.1875 0.130952 6.52167C0.877618 7.26917 1.41928 6.9775 2.09262 7.1275C3.01511 7.3325 4.06094 8.37583 4.06094 8.37583L19.0517 23.3508L19.1067 23.2958C19.7026 24.1975 17.4909 27.1125 15.7709 29.1475C15.2151 29.8049 14.6453 30.4503 14.0618 31.0833L13.9718 31.1808L13.9309 31.225C32.2509 49.5217 48.2392 49.9992 49.855 50H49.8667C49.9542 50 50 49.9983 50 49.9983C49.8013 49.5733 49.5935 49.1527 49.3767 48.7367ZM5.92011 5.07083C5.78117 5.19827 5.5984 5.26714 5.40991 5.26311C5.22142 5.25908 5.04177 5.18244 4.9084 5.04919C4.77503 4.91593 4.69826 4.73633 4.69408 4.54785C4.68989 4.35937 4.75863 4.17654 4.88594 4.0375C4.95379 3.96959 5.03435 3.91572 5.12302 3.87895C5.21169 3.84217 5.30673 3.82323 5.40273 3.82319C5.49872 3.82316 5.59378 3.84202 5.68248 3.87872C5.77118 3.91542 5.85178 3.96923 5.91969 4.03708C5.98759 4.10493 6.04146 4.18549 6.07824 4.27417C6.11501 4.36283 6.13396 4.45788 6.13399 4.55387C6.13403 4.64987 6.11516 4.74492 6.07846 4.83362C6.04176 4.92232 5.98796 5.00292 5.92011 5.07083ZM16.9892 30.3267C19.9442 26.89 20.8226 24.9108 20.9034 23.7217L23.8351 20.7942C27.6992 24.4517 40.2334 36.6733 46.5267 47.0758C40.3884 45.8558 29.2984 42.0642 16.9892 30.3267Z" fill="white"/>
</svg>
