<svg width="390" height="410" viewBox="0 0 390 410" fill="none" xmlns="http://www.w3.org/2000/svg">
<path d="M39.3243 312.918C39.3243 312.918 44.0278 360.761 65.2055 385.27C70.3648 368.065 78.3692 334.92 71.0076 314.096C60.7127 284.971 42.9054 268.931 49.4233 241.101C49.4233 241.101 -0.45033 275.419 9.03966 329.932C14.6589 362.205 32.0251 379.579 45.2594 388.387C29.4938 351.605 39.3243 312.918 39.3243 312.918Z" fill="#58AD53"/>
<path d="M140.755 354.99C140.755 354.99 105.433 374.023 93.5617 396.286C108.537 394.01 136.744 388.33 150.357 376.503C169.395 359.962 175.853 342.762 199.471 337.859C199.471 337.859 156.47 316.016 117.593 340.458C94.5769 354.929 86.943 372.278 84.5447 384.029C107.67 361.295 140.755 354.99 140.755 354.99Z" fill="#58AD53"/>
<path d="M336.918 55.7851L329.727 36.2L323.964 57.1013C302.386 139.741 220.602 141.514 155.63 186.974C122.794 209.474 101.876 240.295 88.975 273.556C88.6248 272.049 88.292 270.562 87.9962 269.141C86.1677 260.66 85.1401 251.849 84.4569 243.207C84.5276 240.08 84.0673 233.271 84.4754 230.173C87.0677 154.983 167.191 138.877 202.19 77.6928C206.823 69.7604 210.47 61.4735 213.274 53.0553C233.677 76.3515 241.087 107.712 238.921 138.07C247.041 102.526 242.424 62.5172 215.123 36.2189C215.115 36.2143 206.352 27.681 206.342 27.6769C203.007 42.9297 198.741 58.9918 190.295 72.9677C153.337 134.896 75.3349 147.454 71.0207 230.566C70.3772 242.835 71.7069 255.681 73.8564 267.574C76.8109 284.028 83.2381 303.517 87.7227 319.756L94.6801 297.613C96.5588 291.905 98.7275 283.934 101.063 278.332C107.999 259.517 118.148 240.848 131.736 224.752C190.373 154.822 294.033 162.825 330.333 78.5349C340.385 109.401 347.811 141.492 343.236 174.406C327.428 281.351 170.06 264.354 115.928 334.923C165.899 279.815 283.186 288.309 335.482 223.409C374.958 173.602 356 105.656 336.918 55.7851Z" fill="url(#paint0_linear_434_504)"/>
<path d="M121.016 187.268C109.957 201.558 103.309 218.338 102.101 234.916C114.591 200.213 137.003 180.489 168.677 157.355C202.112 132.796 225.223 107.822 214.505 69.4189C215.047 131.945 156.07 141.806 121.016 187.268Z" fill="url(#paint1_linear_434_504)"/>
<path d="M251.411 185.23C260.545 177.903 269.555 170.423 278.042 162.327C256.523 173.268 236.722 186.295 217.648 200.361C193.484 216.191 189.868 227.267 186.753 237.018C184.751 243.287 179.262 246.832 175.592 248.57C174.418 249.025 173.245 249.485 172.074 249.949L172.068 249.95C165.554 252.538 159.136 255.293 152.941 258.439C113.035 280.488 88.8188 320.966 82.4753 359.923C99.2766 324.539 121.413 288.706 158.357 266.398C163.861 263.028 172.272 259.188 178.826 256.115L178.828 256.115C195.688 249.196 205.168 255.465 222.829 251.752C240.489 248.041 258.756 232.983 258.756 232.983L258.758 232.979C276.199 220.349 290.452 204.401 301.557 187.305C288.476 197.908 276.344 208.808 263.23 219.116C259.992 221.662 256.725 224.136 253.364 226.48C250.601 228.311 248.121 228.248 247.608 227.745C246.256 226.422 247.561 224.8 248.763 223.749C269.544 205.609 284.391 194.536 293.95 179.359C276.486 190.957 260.892 203.985 244.981 216.85C241.71 219.384 239.355 219.786 237.687 218.197C236.414 216.983 238.26 214.486 240.615 212.897C240.624 212.891 240.633 212.877 240.642 212.872C259.683 197.549 275.39 185.626 284.698 170.512C267.11 182.048 250.071 195.811 233.119 209.001C229.935 210.988 226.499 210.182 225.717 209.325C224.415 207.896 225.549 205.561 226.602 204.31C234.96 198.038 243.316 191.719 251.411 185.23Z" fill="url(#paint2_linear_434_504)"/>
<defs>
<linearGradient id="paint0_linear_434_504" x1="187.679" y1="31.2708" x2="241.497" y2="310.742" gradientUnits="userSpaceOnUse">
<stop stop-color="#6E7466"/>
<stop offset="1" stop-color="#F00707"/>
</linearGradient>
<linearGradient id="paint1_linear_434_504" x1="146.906" y1="82.4365" x2="173.617" y2="221.144" gradientUnits="userSpaceOnUse">
<stop stop-color="#6E7466"/>
<stop offset="1" stop-color="#F00707"/>
</linearGradient>
<linearGradient id="paint2_linear_434_504" x1="176.72" y1="181.839" x2="206.418" y2="336.055" gradientUnits="userSpaceOnUse">
<stop stop-color="#6E7466"/>
<stop offset="1" stop-color="#F00707"/>
</linearGradient>
</defs>
</svg>
