<svg width="16" height="20" viewBox="0 0 16 20" fill="none" xmlns="http://www.w3.org/2000/svg">
<path fill-rule="evenodd" clip-rule="evenodd" d="M8.33374 5.5124C10.0675 3.73115 14.4012 6.8499 8.33374 10.8587C2.26624 6.8499 6.59999 3.7324 8.33374 5.5149V5.5124Z" fill="white"/>
<path d="M0.833496 2.5C0.833496 1.83696 1.09689 1.20107 1.56573 0.732233C2.03457 0.263392 2.67045 0 3.3335 0L13.3335 0C13.9965 0 14.6324 0.263392 15.1013 0.732233C15.5701 1.20107 15.8335 1.83696 15.8335 2.5V19.375C15.8334 19.4881 15.8027 19.599 15.7446 19.6959C15.6865 19.7929 15.6032 19.8723 15.5035 19.9257C15.4038 19.979 15.2916 20.0044 15.1786 19.999C15.0657 19.9936 14.9564 19.9576 14.8622 19.895L8.3335 16.3762L1.80475 19.895C1.71063 19.9576 1.60128 19.9936 1.48836 19.999C1.37544 20.0044 1.26316 19.979 1.1635 19.9257C1.06383 19.8723 0.980501 19.7929 0.922389 19.6959C0.864276 19.599 0.833554 19.4881 0.833496 19.375V2.5ZM3.3335 1.25C3.00198 1.25 2.68403 1.3817 2.44961 1.61612C2.21519 1.85054 2.0835 2.16848 2.0835 2.5V18.2075L7.98725 15.105C8.08982 15.0367 8.21028 15.0003 8.3335 15.0003C8.45671 15.0003 8.57717 15.0367 8.67975 15.105L14.5835 18.2075V2.5C14.5835 2.16848 14.4518 1.85054 14.2174 1.61612C13.983 1.3817 13.665 1.25 13.3335 1.25H3.3335Z" fill="white"/>
</svg>
