<svg width="17" height="19" viewBox="0 0 17 19" fill="none" xmlns="http://www.w3.org/2000/svg">
<path d="M15.07 8.99969L11.0388 5.47955M15.07 8.99969L11.1015 12.5904M15.07 8.99969L5.07038 9.08786M10.1407 17.0435C8.95887 17.0539 7.78677 16.8573 6.69134 16.4649C5.5959 16.0725 4.59859 15.492 3.75635 14.7565C2.9141 14.0211 2.24342 13.145 1.78259 12.1784C1.32175 11.2119 1.0798 10.1737 1.07054 9.12313C1.06127 8.0726 1.28488 7.0303 1.7286 6.05574C2.17232 5.08119 2.82745 4.19346 3.6566 3.44326C4.48574 2.69305 5.47266 2.09505 6.561 1.6834C7.64935 1.27175 8.8178 1.05451 9.99965 1.04409" stroke="white" stroke-width="2" stroke-linecap="round" stroke-linejoin="round"/>
</svg>
