<svg width="33" height="33" viewBox="0 0 33 33" fill="none" xmlns="http://www.w3.org/2000/svg">
<path d="M16.5 30.25C18.0125 30.25 19.25 29.0125 19.25 27.5H13.75C13.75 28.2293 14.0397 28.9288 14.5555 29.4445C15.0712 29.9603 15.7707 30.25 16.5 30.25ZM24.75 22V15.125C24.75 10.9037 22.495 7.37 18.5625 6.435V5.5C18.5625 4.35875 17.6412 3.4375 16.5 3.4375C15.3588 3.4375 14.4375 4.35875 14.4375 5.5V6.435C10.4913 7.37 8.25 10.89 8.25 15.125V22L5.5 24.75V26.125H27.5V24.75L24.75 22Z" fill="white"/>
</svg>
