<svg width="20" height="21" viewBox="0 0 20 21" fill="none" xmlns="http://www.w3.org/2000/svg">
<path fill-rule="evenodd" clip-rule="evenodd" d="M4.75 7C4.74826 5.72098 5.21348 4.48531 6.05833 3.52503C6.90317 2.56474 8.06951 1.9459 9.33833 1.78471C10.6072 1.62351 11.8912 1.93105 12.9493 2.64957C14.0074 3.36809 14.7669 4.44817 15.085 5.687C15.1391 5.87459 15.2641 6.03371 15.4336 6.13055C15.6031 6.2274 15.8037 6.25433 15.9928 6.20564C16.1818 6.15694 16.3444 6.03646 16.446 5.86978C16.5477 5.70309 16.5803 5.50336 16.537 5.313C16.1273 3.7211 15.1508 2.33339 13.7908 1.41026C12.4307 0.487123 10.7805 0.0920096 9.1498 0.299051C7.51912 0.506093 6.02003 1.30106 4.93379 2.53479C3.84756 3.76852 3.24885 5.35623 3.25 7V9.055C2.135 9.138 1.41 9.348 0.879 9.879C-5.96046e-08 10.757 0 12.172 0 15C0 17.828 -5.96046e-08 19.243 0.879 20.121C1.757 21 3.172 21 6 21H14C16.828 21 18.243 21 19.121 20.121C20 19.243 20 17.828 20 15C20 12.172 20 10.757 19.121 9.879C18.243 9 16.828 9 14 9H6C5.548 9 5.133 9 4.75 9.004V7ZM6 16C6.26522 16 6.51957 15.8946 6.70711 15.7071C6.89464 15.5196 7 15.2652 7 15C7 14.7348 6.89464 14.4804 6.70711 14.2929C6.51957 14.1054 6.26522 14 6 14C5.73478 14 5.48043 14.1054 5.29289 14.2929C5.10536 14.4804 5 14.7348 5 15C5 15.2652 5.10536 15.5196 5.29289 15.7071C5.48043 15.8946 5.73478 16 6 16ZM10 16C10.2652 16 10.5196 15.8946 10.7071 15.7071C10.8946 15.5196 11 15.2652 11 15C11 14.7348 10.8946 14.4804 10.7071 14.2929C10.5196 14.1054 10.2652 14 10 14C9.73478 14 9.48043 14.1054 9.29289 14.2929C9.10536 14.4804 9 14.7348 9 15C9 15.2652 9.10536 15.5196 9.29289 15.7071C9.48043 15.8946 9.73478 16 10 16ZM15 15C15 15.2652 14.8946 15.5196 14.7071 15.7071C14.5196 15.8946 14.2652 16 14 16C13.7348 16 13.4804 15.8946 13.2929 15.7071C13.1054 15.5196 13 15.2652 13 15C13 14.7348 13.1054 14.4804 13.2929 14.2929C13.4804 14.1054 13.7348 14 14 14C14.2652 14 14.5196 14.1054 14.7071 14.2929C14.8946 14.4804 15 14.7348 15 15Z" fill="white"/>
</svg>
