<svg width="19" height="14" viewBox="0 0 19 14" fill="none" xmlns="http://www.w3.org/2000/svg">
<path d="M5.50906 1.65715C5.50906 2.57154 4.77936 3.3143 3.88106 3.3143C2.98188 3.3143 2.25306 2.57154 2.25306 1.65715C2.25306 0.74187 2.98188 0 3.88106 0C4.77936 0 5.50906 0.74187 5.50906 1.65715ZM6.2184 4.86196C5.35498 5.64318 4.81134 6.78247 4.81134 8.04901C4.81134 9.06401 5.13403 9.99616 5.74163 10.7271V11.3633C5.74163 11.8871 5.32591 12.3102 4.81134 12.3102H2.95077C2.43708 12.3102 2.02048 11.8871 2.02048 11.3633V10.5702C0.920421 10.0376 0.159912 8.89829 0.159912 7.57554C0.159912 5.74379 1.61755 4.26124 3.41591 4.26124H4.3462C5.01775 4.26124 5.6893 4.48318 6.2184 4.86196ZM2.02048 6.3238C1.73093 6.65523 1.55534 7.09615 1.55534 7.57554C1.55534 8.05492 1.73093 8.49584 2.02048 8.82727V6.3238V6.3238ZM13.1839 11.3633V10.7271C13.7653 9.99616 14.1142 9.06401 14.1142 8.04901C14.1142 6.78247 13.5706 5.64318 12.7071 4.86196C13.2362 4.48318 13.8816 4.26124 14.5793 4.26124H15.5096C17.3091 4.26124 18.7656 5.74379 18.7656 7.57554C18.7656 8.89829 18.004 10.0376 16.9051 10.5702V11.3633C16.9051 11.8871 16.4893 12.3102 15.9748 12.3102H14.1142C13.5996 12.3102 13.1839 11.8871 13.1839 11.3633ZM16.9051 8.82727C17.1696 8.49584 17.3702 8.05492 17.3702 7.57554C17.3702 7.09615 17.1696 6.65523 16.9051 6.3238V8.82727V8.82727ZM16.6725 1.65715C16.6725 2.57154 15.9428 3.3143 15.0445 3.3143C14.1462 3.3143 13.4165 2.57154 13.4165 1.65715C13.4165 0.74187 14.1462 0 15.0445 0C15.9428 0 16.6725 0.74187 16.6725 1.65715ZM7.6022 1.89388C7.6022 0.847809 8.43655 0 9.46277 0C10.489 0 11.3233 0.847809 11.3233 1.89388C11.3233 2.93848 10.489 3.78777 9.46277 3.78777C8.43655 3.78777 7.6022 2.93848 7.6022 1.89388ZM13.1839 8.04901C13.1839 9.37177 12.4222 10.5111 11.3233 11.0437V12.3102C11.3233 12.834 10.9076 13.2572 10.3931 13.2572H8.53248C8.01792 13.2572 7.6022 12.834 7.6022 12.3102V11.0437C6.5033 10.5111 5.74163 9.37177 5.74163 8.04901C5.74163 6.21727 7.19811 4.73471 8.99763 4.73471H9.92791C11.7274 4.73471 13.1839 6.21727 13.1839 8.04901ZM7.6022 9.30074V6.79727C7.31148 7.1287 7.13706 7.56962 7.13706 8.04901C7.13706 8.5284 7.31148 8.96931 7.6022 9.30074V9.30074ZM11.3233 6.79727V9.30074C11.5879 8.96636 11.7885 8.5284 11.7885 8.04901C11.7885 7.56962 11.5879 7.1287 11.3233 6.79727Z" fill="#D46966"/>
</svg>
