<svg width="50" height="50" viewBox="0 0 50 50" fill="none" xmlns="http://www.w3.org/2000/svg">
<path d="M45.6207 39.7458C38.075 34.1709 36.8858 33.9476 33.2692 30.331C30.5075 27.5694 28.6225 25.6853 24.5909 21.6512C21.9751 19.0371 24.2276 12.4772 17.4277 5.67404C12.5952 0.843307 4.67197 -1.81664 1.427 1.42496C-1.8188 4.67073 0.844507 12.5972 5.67529 17.4288C12.4777 24.2278 19.0376 21.9745 21.6534 24.5911C25.6867 28.6227 27.5709 30.5077 30.3317 33.2701C33.9483 36.8867 34.1717 38.0767 39.7458 45.6207C42.5007 49.3556 45.1407 51.7306 48.4365 48.4348C51.7298 45.1415 49.3548 42.5016 45.6207 39.7458ZM19.451 18.6588C18.4501 19.6612 17.0477 20.1204 15.4585 20.1071C15.3068 20.0696 15.1593 20.0371 15.0052 19.9996C17.2993 15.6863 15.8493 9.0373 11.3569 3.24742C13.2964 4.14558 15.0638 5.37604 16.5793 6.88318C19.3401 9.64396 20.6035 12.2672 20.9001 14.6414C21.0976 16.2338 20.4568 17.653 19.451 18.6588Z" fill="white"/>
</svg>
