<svg width="22" height="22" viewBox="0 0 22 22" fill="none" xmlns="http://www.w3.org/2000/svg">
<path d="M10.9999 3.00003C10.7347 3.00003 10.4803 3.10539 10.2928 3.29292C10.1053 3.48046 9.99991 3.73481 9.99991 4.00003C9.99991 5.69203 7.95391 6.54003 6.75691 5.34303C6.66466 5.24752 6.55432 5.17134 6.43231 5.11893C6.31031 5.06652 6.17909 5.03893 6.04631 5.03778C5.91353 5.03662 5.78185 5.06193 5.65895 5.11221C5.53606 5.16249 5.4244 5.23674 5.33051 5.33063C5.23662 5.42453 5.16237 5.53618 5.11208 5.65907C5.0618 5.78197 5.0365 5.91365 5.03766 6.04643C5.03881 6.17921 5.0664 6.31043 5.1188 6.43243C5.17121 6.55444 5.2474 6.66478 5.34291 6.75703C6.53991 7.95403 5.69291 10 3.99991 10C3.73469 10 3.48034 10.1054 3.2928 10.2929C3.10526 10.4805 2.99991 10.7348 2.99991 11C2.99991 11.2652 3.10526 11.5196 3.2928 11.7071C3.48034 11.8947 3.73469 12 3.99991 12C5.69191 12 6.53991 14.046 5.34291 15.243C5.16075 15.4316 5.05995 15.6842 5.06223 15.9464C5.06451 16.2086 5.16968 16.4594 5.35509 16.6448C5.5405 16.8303 5.79131 16.9354 6.05351 16.9377C6.3157 16.94 6.5683 16.8392 6.75691 16.657C7.95391 15.46 9.99991 16.307 9.99991 18C9.99991 18.2652 10.1053 18.5196 10.2928 18.7071C10.4803 18.8947 10.7347 19 10.9999 19C11.2651 19 11.5195 18.8947 11.707 18.7071C11.8945 18.5196 11.9999 18.2652 11.9999 18C11.9999 16.308 14.0459 15.46 15.2429 16.657C15.3352 16.7525 15.4455 16.8287 15.5675 16.8811C15.6895 16.9335 15.8207 16.9611 15.9535 16.9623C16.0863 16.9634 16.218 16.9381 16.3409 16.8878C16.4638 16.8376 16.5754 16.7633 16.6693 16.6694C16.7632 16.5755 16.8374 16.4639 16.8877 16.341C16.938 16.2181 16.9633 16.0864 16.9622 15.9536C16.961 15.8208 16.9334 15.6896 16.881 15.5676C16.8286 15.4456 16.7524 15.3353 16.6569 15.243C15.4599 14.046 16.3069 12 17.9999 12C18.2651 12 18.5195 11.8947 18.707 11.7071C18.8946 11.5196 18.9999 11.2652 18.9999 11C18.9999 10.7348 18.8946 10.4805 18.707 10.2929C18.5195 10.1054 18.2651 10 17.9999 10C16.3079 10 15.4599 7.95403 16.6569 6.75703C16.8391 6.56843 16.9399 6.31582 16.9376 6.05363C16.9353 5.79143 16.8301 5.54062 16.6447 5.35521C16.4593 5.1698 16.2085 5.06463 15.9463 5.06235C15.6841 5.06008 15.4315 5.16087 15.2429 5.34303C14.0459 6.54003 11.9999 5.69303 11.9999 4.00003C11.9999 3.73481 11.8945 3.48046 11.707 3.29292C11.5195 3.10539 11.2651 3.00003 10.9999 3.00003ZM8.00791 3.77703C8.06321 3.0213 8.40244 2.31449 8.95746 1.79861C9.51248 1.28272 10.2422 0.995972 10.9999 0.995972C11.7577 0.995972 12.4873 1.28272 13.0424 1.79861C13.5974 2.31449 13.9366 3.0213 13.9919 3.77703C14.5657 3.28421 15.3045 3.02634 16.0604 3.05504C16.8162 3.08374 17.5333 3.39689 18.0681 3.93181C18.6029 4.46672 18.9159 5.1839 18.9444 5.93975C18.9729 6.69561 18.7149 7.43434 18.2219 8.00803C18.9776 8.0632 19.6845 8.40232 20.2005 8.95725C20.7165 9.51218 21.0033 10.2418 21.0035 10.9996C21.0036 11.7573 20.717 12.487 20.2012 13.0421C19.6854 13.5972 18.9786 13.9366 18.2229 13.992C18.7157 14.5658 18.9736 15.3046 18.9449 16.0605C18.9162 16.8163 18.603 17.5334 18.0681 18.0682C17.5332 18.603 16.816 18.916 16.0602 18.9445C15.3043 18.973 14.5656 18.715 13.9919 18.222C13.9366 18.9778 13.5974 19.6846 13.0424 20.2005C12.4873 20.7163 11.7577 21.0031 10.9999 21.0031C10.2422 21.0031 9.51248 20.7163 8.95746 20.2005C8.40244 19.6846 8.06321 18.9778 8.00791 18.222C7.43421 18.715 6.69548 18.973 5.93963 18.9445C5.18378 18.916 4.4666 18.603 3.93168 18.0682C3.39677 17.5334 3.08361 16.8163 3.05491 16.0605C3.02621 15.3046 3.28409 14.5658 3.77691 13.992C3.02118 13.9367 2.31437 13.5975 1.79848 13.0425C1.2826 12.4875 0.99585 11.7578 0.99585 11C0.99585 10.2423 1.2826 9.5126 1.79848 8.95758C2.31437 8.40257 3.02118 8.06333 3.77691 8.00803C3.28259 7.43444 3.02345 6.69513 3.0515 5.93845C3.07955 5.18176 3.3927 4.46367 3.92812 3.92824C4.46355 3.39282 5.18164 3.07967 5.93832 3.05162C6.69501 3.02358 7.43431 3.28271 8.00791 3.77703Z" fill="white"/>
<path d="M10.9999 9.00002C10.4695 9.00002 9.96078 9.21073 9.58571 9.58581C9.21063 9.96088 8.99992 10.4696 8.99992 11C8.99992 11.5305 9.21063 12.0392 9.58571 12.4142C9.96078 12.7893 10.4695 13 10.9999 13C11.5304 13 12.0391 12.7893 12.4141 12.4142C12.7892 12.0392 12.9999 11.5305 12.9999 11C12.9999 10.4696 12.7892 9.96088 12.4141 9.58581C12.0391 9.21073 11.5304 9.00002 10.9999 9.00002ZM8.17192 8.17202C8.54091 7.78998 8.98229 7.48525 9.4703 7.27561C9.95832 7.06598 10.4832 6.95563 11.0143 6.95102C11.5454 6.9464 12.0722 7.04761 12.5637 7.24873C13.0553 7.44986 13.5019 7.74687 13.8775 8.12244C14.2531 8.49801 14.5501 8.94462 14.7512 9.4362C14.9523 9.92779 15.0535 10.4545 15.0489 10.9856C15.0443 11.5167 14.934 12.0416 14.7243 12.5296C14.5147 13.0177 14.21 13.459 13.8279 13.828C13.0735 14.5567 12.0631 14.9598 11.0143 14.9507C9.96553 14.9416 8.96228 14.5209 8.22065 13.7793C7.47901 13.0377 7.05834 12.0344 7.04922 10.9856C7.04011 9.93684 7.44329 8.92643 8.17192 8.17202Z" fill="white"/>
</svg>
