<svg width="48" height="50" viewBox="0 0 48 50" fill="none" xmlns="http://www.w3.org/2000/svg">
<path fill-rule="evenodd" clip-rule="evenodd" d="M32 34.091C32 35.8992 31.1571 37.6334 29.6569 38.9121C28.1566 40.1908 26.1217 40.9091 24 40.9091C21.8783 40.9091 19.8434 40.1908 18.3431 38.9121C16.8429 37.6334 16 35.8992 16 34.091C16 32.2826 16.8429 30.5484 18.3431 29.2697C19.8434 27.9911 21.8783 27.2728 24 27.2728C26.1217 27.2728 28.1566 27.9911 29.6569 29.2697C31.1571 30.5484 32 32.2826 32 34.091ZM26.6667 34.091C26.6667 34.6937 26.3857 35.2718 25.8856 35.698C25.3855 36.1242 24.7072 36.3636 24 36.3636C23.2928 36.3636 22.6145 36.1242 22.1144 35.698C21.6143 35.2718 21.3333 34.6937 21.3333 34.091C21.3333 33.4881 21.6143 32.9101 22.1144 32.4839C22.6145 32.0577 23.2928 31.8182 24 31.8182C24.7072 31.8182 25.3855 32.0577 25.8856 32.4839C26.3857 32.9101 26.6667 33.4881 26.6667 34.091Z" fill="white"/>
<path fill-rule="evenodd" clip-rule="evenodd" d="M32 0H16V4.54546H21.3333V9.09088H10.6667C7.83769 9.09088 5.12458 10.0487 3.12419 11.7536C1.12381 13.4584 0 15.7707 0 18.1818V40.9091C0 43.3201 1.12381 45.6325 3.12419 47.3373C5.12458 49.0422 7.83769 50 10.6667 50H37.3333C40.1623 50 42.8754 49.0422 44.8758 47.3373C46.8762 45.6325 48 43.3201 48 40.9091V18.1818C48 15.7707 46.8762 13.4584 44.8758 11.7536C42.8754 10.0487 40.1623 9.09088 37.3333 9.09088H26.6667V4.54546H32V0ZM37.3333 13.6364H10.6667C9.25218 13.6364 7.89562 14.1153 6.89543 14.9677C5.89524 15.8202 5.33333 16.9763 5.33333 18.1818H42.6667C42.6667 16.9763 42.1048 15.8202 41.1046 14.9677C40.1044 14.1153 38.7478 13.6364 37.3333 13.6364ZM42.6667 22.7273H5.33333V40.9091C5.33333 42.1147 5.89524 43.2708 6.89543 44.1232C7.89562 44.9757 9.25218 45.4546 10.6667 45.4546H37.3333C38.7478 45.4546 40.1044 44.9757 41.1046 44.1232C42.1048 43.2708 42.6667 42.1147 42.6667 40.9091V22.7273Z" fill="white"/>
</svg>
