<svg width="30" height="30" viewBox="0 0 30 30" fill="none" xmlns="http://www.w3.org/2000/svg">
<path d="M15.0001 0.777771C12.1872 0.777771 9.4374 1.61189 7.09862 3.17465C4.75978 4.73741 2.93689 6.95861 1.86044 9.5574C0.783991 12.1562 0.502351 15.0158 1.05111 17.7746C1.59988 20.5335 2.95442 23.0676 4.94343 25.0566C6.93244 27.0456 9.4666 28.4002 12.2254 28.9489C14.9843 29.4977 17.8439 29.2161 20.4427 28.1396C23.0414 27.0632 25.2626 25.2403 26.8254 22.9014C28.3882 20.5626 29.2223 17.8129 29.2223 15C29.2223 11.228 27.7239 7.61055 25.0567 4.94336C22.3895 2.27618 18.772 0.777771 15.0001 0.777771ZM20.5112 19.6044C20.4466 19.7021 20.3633 19.7861 20.2662 19.8516C20.1691 19.917 20.0599 19.9626 19.9451 19.9857C19.8303 20.0089 19.7121 20.0091 19.5972 19.9863C19.4823 19.9636 19.373 19.9184 19.2756 19.8533L14.0312 16.2978V8.55555C14.0312 8.3198 14.1248 8.09371 14.2915 7.92701C14.4582 7.76031 14.6843 7.66666 14.9201 7.66666C15.1558 7.66666 15.3819 7.76031 15.5486 7.92701C15.7153 8.09371 15.8089 8.3198 15.8089 8.55555V15.3555L20.2534 18.3689C20.3518 18.4328 20.4366 18.5155 20.5029 18.6123C20.5692 18.7091 20.6157 18.8181 20.6396 18.933C20.6636 19.0478 20.6646 19.1663 20.6425 19.2815C20.6205 19.3968 20.5758 19.5065 20.5112 19.6044ZM20.2001 6.31555C18.9494 5.56169 17.5504 5.08732 16.0991 4.92498C14.6478 4.76264 13.1786 4.91617 11.7923 5.37504C10.4059 5.83391 9.1352 6.58725 8.06738 7.58339C6.99955 8.57952 6.15984 9.7949 5.60588 11.146C5.05192 12.4972 4.79681 13.9522 4.85805 15.4113C4.9193 16.8703 5.29545 18.2988 5.9607 19.5988C6.62595 20.8988 7.56455 22.0395 8.71211 22.9427C9.8597 23.8458 11.189 24.49 12.6089 24.8311L12.3334 26.2267C10.7049 25.8476 9.1781 25.1197 7.85828 24.0931C6.5385 23.0666 5.45721 21.7658 4.68907 20.2807C3.92092 18.7956 3.48422 17.1614 3.4091 15.4911C3.33398 13.8207 3.62225 12.154 4.25398 10.6059C4.88572 9.0578 5.84589 7.66529 7.0682 6.5244C8.29051 5.38352 9.7458 4.52148 11.3337 3.9978C12.9216 3.47411 14.6043 3.30126 16.2655 3.49117C17.9267 3.68108 19.5269 4.22923 20.9556 5.09777L20.2001 6.31555Z" fill="white"/>
</svg>
