<svg width="16" height="16" viewBox="0 0 16 16" fill="none" xmlns="http://www.w3.org/2000/svg">
<path d="M15.7066 6.44453C15.7066 6.44453 14.7685 7.1832 13.2005 8.06427C12.7728 5.90907 11.5864 3.24853 9.23683 0C9.23683 0 8.46852 3.48453 5.90977 6.78267C4.79316 5.28987 4.31408 4.11787 4.31408 4.11787C-3.73695 11.0723 2.93686 16 7.12822 16C12.5079 16 17.242 13.7704 15.7066 6.44453ZM7.40391 15.5552C6.23161 15.5552 3.61501 14.8469 2.35009 11.5864C2.35009 11.5864 2.80455 11.788 3.54363 12.0213C3.57378 10.8941 4.09655 9.45173 5.43408 7.632C5.43408 7.632 5.76946 8.41333 6.551 9.40853C8.34206 7.2096 8.87991 4.8856 8.87991 4.8856C10.5248 7.05227 11.3553 8.8264 11.655 10.2635C12.7522 9.67573 13.4091 9.18293 13.4091 9.18293C13.3343 10.6291 13.0122 11.7624 12.546 12.6483C13.2799 12.544 13.7436 12.4331 13.7436 12.4331C11.6307 15.0192 9.49837 15.5552 7.40391 15.5552Z" fill="white"/>
<path d="M4.89129 11.1611C4.89129 11.1611 5.75436 12.1813 6.41066 11.9349C6.41066 11.9349 7.65835 10.2547 9.4488 9.32055C9.4488 9.32055 9.08111 11.8821 9.50388 12.3349C10.0645 12.9371 11.5836 11.6672 11.5836 11.6672C11.5836 13.1808 9.66634 15.088 7.95096 15.088C6.24789 15.088 3.83345 13.4464 4.89129 11.1611ZM13.4891 4.29815C14.1355 3.48722 14.5749 2.65655 14.5749 2.65655C15.6589 4.19655 15.0192 5.13308 14.5429 5.43895C13.9039 5.85015 12.7429 5.23548 13.4891 4.29815ZM1.6913 4.03495C1.05869 3.09495 0.987614 1.92348 0.987614 1.92348C-0.557916 3.93602 0.0457732 5.03202 0.559924 5.36375C1.24977 5.80908 2.42145 5.12108 1.6913 4.03495ZM5.28698 1.94428C5.36575 1.31255 5.06021 0.657349 5.06021 0.657349C6.52605 1.47442 6.50851 2.18615 6.31743 2.46322C6.0599 2.83495 5.19559 2.67415 5.28698 1.94428Z" fill="white"/>
</svg>
