<svg width="13" height="14" viewBox="0 0 13 14" fill="none" xmlns="http://www.w3.org/2000/svg">
<path d="M6.5 0.00366211C5.21442 0.00366211 3.95771 0.38488 2.8888 1.09911C1.81988 1.81334 0.986755 2.8285 0.494786 4.01622C0.00281633 5.20394 -0.125905 6.51087 0.124899 7.77175C0.375702 9.03262 0.994767 10.1908 1.90381 11.0999C2.81285 12.0089 3.97104 12.628 5.23192 12.8788C6.49279 13.1296 7.79972 13.0008 8.98744 12.5089C10.1752 12.0169 11.1903 11.1838 11.9046 10.1149C12.6188 9.04595 13 7.78924 13 6.50366C13 4.77975 12.3152 3.12645 11.0962 1.90747C9.87721 0.688482 8.22391 0.00366211 6.5 0.00366211V0.00366211ZM9.01875 8.60804C8.98924 8.65269 8.95119 8.69108 8.90679 8.72098C8.8624 8.75089 8.81253 8.77172 8.76005 8.7823C8.70758 8.79287 8.65353 8.79296 8.60102 8.78258C8.54851 8.77219 8.49857 8.75153 8.45406 8.72178L6.05719 7.09679V3.55835C6.05719 3.4506 6.09999 3.34727 6.17618 3.27109C6.25236 3.1949 6.35569 3.1521 6.46344 3.1521C6.57118 3.1521 6.67451 3.1949 6.7507 3.27109C6.82689 3.34727 6.86969 3.4506 6.86969 3.55835V6.66616L8.90094 8.04335C8.94592 8.07254 8.98468 8.11035 9.01498 8.1546C9.04528 8.19885 9.06651 8.24866 9.07747 8.30115C9.08842 8.35365 9.08887 8.40779 9.07879 8.46046C9.06871 8.51314 9.04831 8.56329 9.01875 8.60804V8.60804ZM8.87656 2.5346C8.30495 2.19006 7.66558 1.97326 7.0023 1.89907C6.33902 1.82487 5.66754 1.89504 5.03393 2.10476C4.40033 2.31447 3.81958 2.65878 3.33155 3.11404C2.84352 3.56931 2.45975 4.12476 2.20657 4.74229C1.95339 5.35982 1.8368 6.02481 1.86479 6.69163C1.89278 7.35846 2.06469 8.01134 2.36873 8.60548C2.67277 9.19962 3.10174 9.72096 3.62621 10.1337C4.15068 10.5465 4.75823 10.8409 5.40719 10.9968L5.28125 11.6346C4.53698 11.4614 3.83917 11.1287 3.23598 10.6595C2.6328 10.1903 2.13862 9.59585 1.78756 8.9171C1.43649 8.23835 1.2369 7.4915 1.20257 6.7281C1.16824 5.96471 1.29999 5.20296 1.58871 4.49543C1.87743 3.78791 2.31626 3.15147 2.87489 2.63005C3.43353 2.10863 4.09866 1.71465 4.82438 1.47531C5.5501 1.23597 6.31911 1.15698 7.07833 1.24377C7.83756 1.33056 8.5689 1.58108 9.22188 1.97804L8.87656 2.5346Z" fill="#D46966"/>
</svg>
