<svg width="13" height="7" viewBox="0 0 13 7" fill="none" xmlns="http://www.w3.org/2000/svg">
<path fill-rule="evenodd" clip-rule="evenodd" d="M11.0646 7C11.2617 6.99996 11.4544 6.94129 11.6183 6.8314C11.7822 6.72152 11.91 6.56535 11.9854 6.38265C12.0608 6.19995 12.0806 5.99892 12.0421 5.80497C12.0037 5.61102 11.9088 5.43285 11.7694 5.293L6.78478 0.293C6.59783 0.105529 6.34431 0.000213623 6.07996 0.000213623C5.81561 0.000213623 5.56208 0.105529 5.37513 0.293L0.390519 5.293C0.25114 5.43285 0.156226 5.61102 0.117777 5.80497C0.0793283 5.99892 0.0990706 6.19995 0.174508 6.38265C0.249945 6.56535 0.37769 6.72152 0.541594 6.8314C0.705498 6.94129 0.898202 6.99996 1.09534 7H11.0646Z" fill="white"/>
</svg>
