<svg width="34" height="33" viewBox="0 0 34 33" fill="none" xmlns="http://www.w3.org/2000/svg">
<path d="M25.5 8.36446V7.36557C25.5 5.51113 24.6045 3.73262 23.0104 2.42132C21.4164 1.11003 19.2544 0.373352 17 0.373352C14.7456 0.373352 12.5836 1.11003 10.9896 2.42132C9.39553 3.73262 8.5 5.51113 8.5 7.36557V8.36446H0V28.3422C0 29.402 0.511736 30.4182 1.42262 31.1675C2.33351 31.9168 3.56895 32.3378 4.85714 32.3378H29.1429C30.4311 32.3378 31.6665 31.9168 32.5773 31.1675C33.4883 30.4182 34 29.402 34 28.3422V8.36446H25.5ZM17 2.37113C18.6102 2.37113 20.1546 2.89733 21.2932 3.83397C22.4317 4.77061 23.0714 6.04097 23.0714 7.36557V8.36446H10.9286V7.36557C10.9286 6.04097 11.5682 4.77061 12.7068 3.83397C13.8454 2.89733 15.3898 2.37113 17 2.37113ZM17 16.3416C21.0411 12.9234 31.1465 18.9047 17 26.5942C2.85358 18.9027 12.9589 12.9234 17 16.3416Z" fill="white"/>
</svg>
