<svg width="30" height="30" viewBox="0 0 30 30" fill="none" xmlns="http://www.w3.org/2000/svg">
<path d="M0 5C0 2.23858 2.23858 0 5 0H25C27.7614 0 30 2.23858 30 5V25C30 27.7614 27.7614 30 25 30H5C2.23858 30 0 27.7614 0 25V5Z" fill="url(#paint0_linear_721_337)"/>
<path fill-rule="evenodd" clip-rule="evenodd" d="M15.0001 17.122L20.3031 22.425C20.5845 22.7064 20.9661 22.8645 21.3641 22.8645C21.762 22.8645 22.1437 22.7064 22.4251 22.425C22.7065 22.1436 22.8646 21.762 22.8646 21.364C22.8646 20.9661 22.7065 20.5844 22.4251 20.303L17.1201 15L22.4241 9.697C22.5634 9.55767 22.6738 9.39227 22.7492 9.21025C22.8245 9.02823 22.8633 8.83315 22.8632 8.63615C22.8632 8.43915 22.8243 8.24409 22.7489 8.0621C22.6735 7.88012 22.5629 7.71477 22.4236 7.5755C22.2843 7.43624 22.1189 7.32578 21.9368 7.25043C21.7548 7.17509 21.5597 7.13633 21.3627 7.13638C21.1657 7.13642 20.9707 7.17527 20.7887 7.2507C20.6067 7.32613 20.4414 7.43667 20.3021 7.576L15.0001 12.879L9.69709 7.576C9.55879 7.43267 9.39333 7.31832 9.21036 7.23963C9.02739 7.16093 8.83058 7.11946 8.63141 7.11763C8.43224 7.11581 8.23471 7.15367 8.05033 7.229C7.86595 7.30434 7.69842 7.41564 7.55752 7.55641C7.41661 7.69718 7.30515 7.86461 7.22964 8.04891C7.15414 8.23322 7.11609 8.43072 7.11773 8.62989C7.11936 8.82906 7.16065 9.02591 7.23917 9.20895C7.3177 9.39199 7.43189 9.55757 7.57509 9.696L12.8801 15L7.57609 20.304C7.43289 20.4424 7.3187 20.608 7.24017 20.7911C7.16165 20.9741 7.12036 21.1709 7.11873 21.3701C7.11709 21.5693 7.15514 21.7668 7.23064 21.9511C7.30615 22.1354 7.41761 22.3028 7.55852 22.4436C7.69942 22.5844 7.86695 22.6957 8.05133 22.771C8.23571 22.8463 8.43324 22.8842 8.63241 22.8824C8.83158 22.8806 9.02839 22.8391 9.21136 22.7604C9.39433 22.6817 9.55979 22.5673 9.69809 22.424L15.0001 17.122Z" fill="#F8F8F8"/>
<defs>
<linearGradient id="paint0_linear_721_337" x1="15" y1="0" x2="15" y2="30" gradientUnits="userSpaceOnUse">
<stop stop-color="#D46966"/>
<stop offset="1" stop-color="#5C363E"/>
</linearGradient>
</defs>
</svg>
