<svg width="26" height="22" viewBox="0 0 26 22" fill="none" xmlns="http://www.w3.org/2000/svg">
<path d="M7.781 0C3.492 0 0 3.3 0 7.36C0 7.578 0.0200001 7.785 0.0350001 8H2.04C2.0168 7.78741 2.00379 7.57383 2.001 7.36C2 4.405 4.594 2 7.781 2C9.238 2 10.629 2.504 11.699 3.418L13 4.531L14.3 3.418C15.368 2.504 16.759 2 18.22 2C21.406 2 24 4.406 24 7.36C24 12.48 19.176 15.516 15.297 17.957C14.41 18.512 13.633 19.004 13 19.469C12.367 19.004 11.59 18.512 10.703 17.957C8.895 16.82 6.883 15.551 5.246 14H2.531C4.511 16.41 7.316 18.188 9.641 19.652C10.613 20.262 11.449 20.789 12.043 21.254C12.043 21.254 12.993 21.992 13 22C13.004 21.992 13.953 21.254 13.953 21.254C14.547 20.789 15.383 20.262 16.359 19.652C20.426 17.09 26 13.586 26 7.36C26 3.301 22.508 0 18.219 0C16.269 0 14.422 0.68 13 1.898C11.578 0.68 9.727 0 7.781 0ZM8.969 4.387L6.633 10.219L6.414 10H0V12H5.586L7.363 13.781L9.031 9.613L12.031 16.613L14.101 11.438L14.383 12H16.27C16.4901 12.381 16.8297 12.6788 17.2363 12.8471C17.6429 13.0155 18.0936 13.0449 18.5186 12.931C18.9437 12.817 19.3192 12.566 19.5871 12.2169C19.8549 11.8678 20 11.44 20 11C20 10.56 19.8549 10.1322 19.5871 9.78309C19.3192 9.43395 18.9437 9.18295 18.5186 9.06901C18.0936 8.95506 17.6429 8.98453 17.2363 9.15286C16.8297 9.32119 16.4901 9.61896 16.27 10H15.617L13.898 6.562L11.968 11.387L8.969 4.387Z" fill="white"/>
</svg>
