<svg width="18" height="20" viewBox="0 0 18 20" fill="none" xmlns="http://www.w3.org/2000/svg">
<path fill-rule="evenodd" clip-rule="evenodd" d="M2.78366 0.664664V1.32937L1.96494 2.51074L1.14621 3.69214L1.12599 4.8537L1.10578 6.01526L0.569096 5.72302C0.27395 5.56228 0.0232376 5.43077 0.0119978 5.43077C0.000757942 5.43077 -0.00332555 8.20425 0.00294125 11.5941L0.0143429 17.7574L0.116593 18.0705C0.35368 18.7965 0.880374 19.4113 1.5303 19.7206C2.16681 20.0237 1.78231 20.0066 7.7257 19.9949L13.0329 19.9845L13.3295 19.8798C13.7693 19.7245 14.0453 19.5514 14.4085 19.203C14.665 18.957 14.7702 18.8198 14.9032 18.5584C15.2129 17.9494 15.2132 17.9471 15.2148 15.6086L15.2162 13.5379L14.9057 13.5265L14.5952 13.5151L14.5799 15.5972C14.5662 17.4654 14.5572 17.7014 14.4924 17.8942C14.2553 18.5991 13.7171 19.1174 13.0154 19.3165C12.8195 19.3722 12.2392 19.3789 7.61516 19.3789C2.99115 19.3789 2.41085 19.3722 2.21488 19.3165C1.38309 19.0804 0.790335 18.4149 0.679149 17.5923C0.652586 17.3958 0.642155 15.3827 0.649554 11.889L0.661036 6.4893L1.20216 6.78053C1.49978 6.94068 1.76242 7.07172 1.78583 7.07172C1.80924 7.07172 2.14417 6.9022 2.53012 6.69505C3.14342 6.3658 3.24373 6.32361 3.32637 6.35998C3.37836 6.38287 3.69781 6.55236 4.03625 6.73666C4.3747 6.92095 4.67183 7.07172 4.69653 7.07172C4.72124 7.07172 5.05706 6.90231 5.44273 6.69528C6.05376 6.36729 6.15609 6.32419 6.23796 6.36021C6.28963 6.38299 6.60884 6.55236 6.94729 6.73666C7.28573 6.92095 7.58512 7.07172 7.61258 7.07172C7.64007 7.07172 7.97015 6.9047 8.34612 6.70055C8.72204 6.49641 9.048 6.32962 9.0704 6.3299C9.0928 6.33017 9.41806 6.49719 9.79318 6.70106C10.1683 6.90493 10.4974 7.07172 10.5244 7.07172C10.5515 7.07172 10.8812 6.9047 11.2571 6.70055C11.6331 6.49641 11.9591 6.32939 11.9817 6.32939C12.0043 6.32939 12.3303 6.49641 12.7063 6.70055C13.0822 6.9047 13.4118 7.07172 13.4387 7.07172C13.4656 7.07172 13.731 6.93994 14.0284 6.77885L14.5693 6.48594L14.5807 6.95467L14.592 7.42336H14.9142H15.2364V6.4489C15.2364 5.91294 15.2228 5.46652 15.2061 5.45679C15.1894 5.4471 14.987 5.54275 14.7563 5.66937C14.5256 5.796 14.3301 5.89961 14.3217 5.89961C14.3133 5.89961 14.3062 5.13044 14.3058 4.19029C14.305 2.26182 14.2931 2.15305 14.0266 1.62642C13.5337 0.652318 12.5879 0.0781406 11.4763 0.0781406C10.3954 0.0781406 9.47228 0.622702 8.94914 1.56887L8.8213 1.80009L8.67308 1.58438L8.52486 1.36867V0.684316V0H5.65426H2.78366V0.664664ZM3.39013 0.879082V1.13304H5.63405H7.87797V0.879082V0.625125H5.63405H3.39013V0.879082ZM10.8699 0.77703C10.1229 1.01067 9.5474 1.58153 9.36182 2.27295L9.30227 2.49472L9.72162 3.10183L10.141 3.70894L10.1516 4.94649L10.1623 6.18408L10.3461 6.28321L10.5299 6.38237L11.2356 5.99807C11.6237 5.78674 11.9595 5.61378 11.9817 5.61378C12.0039 5.61378 12.3371 5.78529 12.722 5.99491C13.3852 6.35607 13.428 6.37354 13.5407 6.32841L13.6596 6.28082V5.87535V5.46984H12.386H11.1124V5.15728V4.84472H12.386H13.6596V4.53215V4.21959H12.386H11.1124V3.92656V3.63354H12.386H13.6596V3.07522C13.6596 2.18715 13.5227 1.81501 13.0159 1.32526C12.5494 0.874393 12.1174 0.702835 11.4561 0.705844C11.2217 0.706899 11.0131 0.732216 10.8699 0.77703ZM10.9875 1.32206C10.5898 1.44904 10.2393 1.73339 10.0587 2.07561C10.0125 2.16305 9.98054 2.23884 9.98765 2.24404C10.0619 2.29827 10.5674 2.45908 10.577 2.43146C10.5839 2.41134 10.6329 2.33808 10.6859 2.26866C10.9521 1.92015 11.3834 1.79184 11.8048 1.93582C11.9794 1.99552 11.9828 1.99501 12.0626 1.89729C12.107 1.84283 12.1852 1.72714 12.2364 1.64021L12.3293 1.48209L12.0949 1.37828C11.7843 1.24076 11.3165 1.217 10.9875 1.32206ZM2.66237 2.63724L2.05502 3.51633H2.78322H3.51142V3.82889V4.14145H2.64215H1.77289V5.25495C1.77289 5.86738 1.7838 6.36846 1.79715 6.36846C1.81049 6.36846 2.13244 6.1985 2.51257 5.99076C2.8927 5.78307 3.2229 5.61331 3.2464 5.61354C3.26985 5.61378 3.58177 5.77439 3.93958 5.97049C4.29736 6.16658 4.61903 6.33775 4.65436 6.35088C4.6939 6.36553 4.98784 6.22839 5.41891 5.99416C5.8041 5.78486 6.14198 5.6135 6.16976 5.61335C6.20877 5.61315 6.2203 5.40057 6.2203 4.68136V3.74961L6.90803 2.75391L7.59572 1.75816H5.4327H3.26972L2.66237 2.63724ZM12.5561 2.1425C12.3717 2.25514 12.3261 2.30226 12.3417 2.36375C12.3525 2.40673 12.3837 2.52543 12.4109 2.62748L12.4603 2.81306H12.7821H13.104L13.0763 2.60794C13.0476 2.39509 12.8798 1.99005 12.8229 1.99598C12.805 1.99786 12.6849 2.06381 12.5561 2.1425ZM7.52027 2.97989L6.86719 3.92817V4.95122V5.97432L7.14305 6.13001C7.64751 6.41472 7.53406 6.42831 8.34907 5.98518L9.07068 5.5928L9.28294 5.71001L9.4952 5.82722V4.86652V3.90582L8.84791 2.96876C8.49187 2.45334 8.19446 2.03166 8.18698 2.03166C8.17946 2.03166 7.87946 2.45838 7.52027 2.97989ZM4.08586 3.81912L4.09767 4.12192L4.43122 4.13325L4.76478 4.14462V3.83045V3.51633H4.41942H4.07406L4.08586 3.81912ZM16.1353 7.3063C15.6862 7.39757 15.6986 7.38655 11.7337 11.2235L7.96954 14.8662L7.79585 16.0678C7.70027 16.7286 7.62964 17.2761 7.63886 17.2843C7.64808 17.2926 8.22567 17.2252 8.92246 17.1344L10.1893 16.9693L13.8083 13.4759C15.7987 11.5545 17.5148 9.88248 17.6218 9.76027C18.2152 9.08236 18.0979 8.11193 17.3572 7.57061C17.247 7.49009 17.077 7.39788 16.9795 7.36569C16.7492 7.28977 16.3535 7.26196 16.1353 7.3063ZM16.1592 7.94455C15.986 8.00707 15.7782 8.16147 15.5098 8.42719L15.3182 8.6168L15.9643 9.24028L16.6105 9.86372L16.8984 9.59101C17.2301 9.27681 17.3446 9.06845 17.3446 8.77886C17.3446 8.54878 17.3001 8.41324 17.1678 8.23946C16.96 7.96667 16.4839 7.82746 16.1592 7.94455ZM1.24729 8.71432V9.30201L1.56063 9.2906L1.87397 9.27919L1.88516 8.70291L1.89632 8.12662H1.57182H1.24729V8.71432ZM11.8904 11.9265L8.92881 14.7887L9.57611 15.4133L10.2234 16.0378L13.1847 13.1763L16.1459 10.3147L15.499 9.68951L14.8521 9.06435L11.8904 11.9265ZM3.10711 9.45501V9.76757H3.43056H3.75401V9.45501V9.14245H3.43056H3.10711V9.45501ZM4.32004 9.45501V9.76757H8.22163H12.1232V9.45501V9.14245H8.22163H4.32004V9.45501ZM14.0124 10.7354L13.2138 11.5079L13.4373 11.7212L13.6608 11.9345L14.4585 11.1637L15.2561 10.393L15.0336 10.178L14.8111 9.96296L14.0124 10.7354ZM1.24729 11.1155V12.1118H1.57073H1.89418V11.1155V10.1192H1.57073H1.24729V11.1155ZM3.10711 10.7053V11.0178H3.43056H3.75401V10.7053V10.3927H3.43056H3.10711V10.7053ZM4.32004 10.7053V11.0178H7.81732H11.3146V10.7053V10.3927H7.81732H4.32004V10.7053ZM3.10711 11.9555V12.2681H3.43056H3.75401V11.9555V11.6429H3.43056H3.10711V11.9555ZM4.32004 11.9555V12.2681H7.12999H9.93995V11.9555V11.6429H7.12999H4.32004V11.9555ZM12.568 12.1313L12.3474 12.3471L12.5698 12.562L12.7922 12.7769L13.0127 12.5611L13.2333 12.3453L13.0109 12.1304L12.7885 11.9155L12.568 12.1313ZM1.24729 12.9909V13.2839H1.57073H1.89418V12.9909V12.6978H1.57073H1.24729V12.9909ZM3.10711 13.2058V13.5183H3.43056H3.75401V13.2058V12.8932H3.43056H3.10711V13.2058ZM4.34701 12.9193C4.33217 12.9336 4.32004 13.0742 4.32004 13.2318V13.5183H6.52353H8.72702V13.2058V12.8932H6.5505C5.35337 12.8932 4.36181 12.9049 4.34701 12.9193ZM3.13565 14.1679C3.11997 14.1831 3.10711 14.3245 3.10711 14.4821V14.7686H3.43226H3.7574L3.7456 14.4658L3.73379 14.163L3.44899 14.1517C3.29237 14.1454 3.15138 14.1528 3.13565 14.1679ZM4.34749 14.169C4.33241 14.1836 4.32004 14.3245 4.32004 14.4821V14.7686H5.77725H7.23447L7.22266 14.4658L7.21085 14.163L5.7929 14.1527C5.01303 14.1471 4.36261 14.1544 4.34749 14.169ZM8.56416 15.3161C8.56351 15.3265 8.52114 15.612 8.46996 15.9504C8.40527 16.3783 8.39075 16.5658 8.42233 16.5658C8.4888 16.5658 9.67456 16.4055 9.68535 16.3951C9.69041 16.3902 9.44046 16.1411 9.12991 15.8416C8.81936 15.5421 8.56477 15.3056 8.56416 15.3161ZM3.10711 15.7453V16.0579H3.43056H3.75401V15.7453V15.4328H3.43056H3.10711V15.7453ZM4.32845 15.7356L4.34026 16.0384H5.77556H7.21085L7.22266 15.7356L7.23447 15.4328H5.77556H4.31664L4.32845 15.7356ZM1.25493 16.9858C1.26714 17.6979 1.27074 17.7252 1.3837 17.9615C1.50746 18.2204 1.8113 18.5338 2.05825 18.6573C2.35861 18.8074 2.56982 18.8309 3.62261 18.8314L4.64349 18.8319V18.5193V18.2068H3.61973H2.59602L2.37677 18.0993C2.23332 18.029 2.11546 17.9333 2.03593 17.8226L1.9144 17.6533L1.90174 16.9533L1.88909 16.2532H1.56572H1.24239L1.25493 16.9858ZM3.10711 16.9956V17.3081H3.43056H3.75401V16.9956V16.683H3.43056H3.10711V16.9956ZM4.32004 16.9961V17.3093L5.56329 17.2989L6.80654 17.2886L6.81835 16.9858L6.83016 16.683H5.5751H4.32004V16.9961ZM13.364 17.3374C13.3545 17.3536 13.3338 17.4359 13.318 17.5206C13.2737 17.7574 13.0863 17.9884 12.8439 18.1052C12.7279 18.161 12.591 18.2068 12.5398 18.2068C12.4502 18.2068 12.4467 18.2188 12.4467 18.5246V18.8425L12.6229 18.8191C13.3204 18.7268 13.9023 18.17 13.9707 17.5296L13.9944 17.3081H13.6879C13.5193 17.3081 13.3736 17.3213 13.364 17.3374ZM5.24995 18.5193V18.8319H5.53297H5.81599V18.5193V18.2068H5.53297H5.24995V18.5193Z" fill="white"/>
</svg>
