<svg width="45" height="33" viewBox="0 0 45 33" fill="none" xmlns="http://www.w3.org/2000/svg">
<path d="M12.9375 4.36891C12.9375 6.57361 11.1726 8.36448 9 8.36448C6.82524 8.36448 5.0625 6.57361 5.0625 4.36891C5.0625 2.16208 6.82524 0.373352 9 0.373352C11.1726 0.373352 12.9375 2.16208 12.9375 4.36891ZM14.6531 12.096C12.5649 13.9796 11.25 16.7267 11.25 19.7804C11.25 22.2276 12.0305 24.4751 13.5 26.2375V27.7715C13.5 29.0343 12.4945 30.0547 11.25 30.0547H6.75C5.50758 30.0547 4.5 29.0343 4.5 27.7715V25.8593C1.83937 24.5751 0 21.8281 0 18.6388C0 14.2222 3.52547 10.6477 7.875 10.6477H10.125C11.7492 10.6477 13.3735 11.1828 14.6531 12.096ZM4.5 15.6207C3.79969 16.4198 3.375 17.4829 3.375 18.6388C3.375 19.7946 3.79969 20.8577 4.5 21.6568V15.6207ZM31.5 27.7715V26.2375C32.9062 24.4751 33.75 22.2276 33.75 19.7804C33.75 16.7267 32.4351 13.9796 30.3469 12.096C31.6266 11.1828 33.1875 10.6477 34.875 10.6477H37.125C41.4774 10.6477 45 14.2222 45 18.6388C45 21.8281 43.1579 24.5751 40.5 25.8593V27.7715C40.5 29.0343 39.4945 30.0547 38.25 30.0547H33.75C32.5055 30.0547 31.5 29.0343 31.5 27.7715ZM40.5 21.6568C41.1399 20.8577 41.625 19.7946 41.625 18.6388C41.625 17.4829 41.1399 16.4198 40.5 15.6207V21.6568ZM39.9375 4.36891C39.9375 6.57361 38.1726 8.36448 36 8.36448C33.8274 8.36448 32.0625 6.57361 32.0625 4.36891C32.0625 2.16208 33.8274 0.373352 36 0.373352C38.1726 0.373352 39.9375 2.16208 39.9375 4.36891ZM18 4.9397C18 2.41751 20.018 0.373352 22.5 0.373352C24.982 0.373352 27 2.41751 27 4.9397C27 7.45833 24.982 9.50604 22.5 9.50604C20.018 9.50604 18 7.45833 18 4.9397ZM31.5 19.7804C31.5 22.9696 29.6579 25.7167 27 27.0009V30.0547C27 31.3175 25.9945 32.3378 24.75 32.3378H20.25C19.0055 32.3378 18 31.3175 18 30.0547V27.0009C15.3421 25.7167 13.5 22.9696 13.5 19.7804C13.5 15.3639 17.0226 11.7893 21.375 11.7893H23.625C27.9774 11.7893 31.5 15.3639 31.5 19.7804ZM18 22.7985V16.7623C17.2969 17.5614 16.875 18.6245 16.875 19.7804C16.875 20.9362 17.2969 21.9993 18 22.7985ZM27 16.7623V22.7985C27.6399 21.9922 28.125 20.9362 28.125 19.7804C28.125 18.6245 27.6399 17.5614 27 16.7623Z" fill="white"/>
</svg>
